<?xml version="1.0" encoding="UTF-8" standalone="no"?>
<!-- Created with Inkscape (http://www.inkscape.org/) -->
<svg
   xmlns:svg="http://www.w3.org/2000/svg"
   xmlns="http://www.w3.org/2000/svg"
   version="1.0"
   x="0.00000000"
   y="0.00000000"
   width="750.00000"
   height="662.50000"
   id="svg1487">
  <defs
     id="defs1489">
    <marker
       refX="0.00000000"
       refY="0.00000000"
       orient="auto"
       style="overflow:visible"
       id="Arrow2Lstart">
      <path
         d="M 8.7185878,4.0337352 L -2.2072895,0.016013256 L 8.7185884,-4.0017078 C 6.9730900,-1.6296469 6.9831476,1.6157441 8.7185878,4.0337352 z "
         transform="matrix(1.100000,0.000000,0.000000,1.100000,-5.500000,0.000000)"
         style="font-size:12.000000px;fill-rule:evenodd;stroke-width:0.62500000;stroke-linejoin:round"
         id="path3951" />
    </marker>
    <marker
       refX="0.00000000"
       refY="0.00000000"
       orient="auto"
       style="overflow:visible"
       id="Arrow2Mend">
      <path
         d="M 8.7185878,4.0337352 L -2.2072895,0.016013256 L 8.7185884,-4.0017078 C 6.9730900,-1.6296469 6.9831476,1.6157441 8.7185878,4.0337352 z "
         transform="matrix(-0.600000,0.000000,0.000000,-0.600000,3.000000,0.000000)"
         style="font-size:12.000000px;fill-rule:evenodd;stroke-width:0.62500000;stroke-linejoin:round"
         id="path3957" />
    </marker>
    <marker
       refX="0.00000000"
       refY="0.00000000"
       orient="auto"
       style="overflow:visible"
       id="Arrow1Mstart">
      <path
         d="M 0.00000000,0.00000000 L 5.0000000,-5.0000000 L -12.500000,0.00000000 L 5.0000000,5.0000000 L 0.00000000,0.00000000 z "
         transform="scale(0.400000,0.400000)"
         style="fill-rule:evenodd;stroke:#000000;stroke-width:1.0000000pt;marker-start:none"
         id="path3965" />
    </marker>
    <marker
       refX="0.00000000"
       refY="0.00000000"
       orient="auto"
       style="overflow:visible"
       id="Arrow2Lend">
      <path
         d="M 8.7185878,4.0337352 L -2.2072895,0.016013256 L 8.7185884,-4.0017078 C 6.9730900,-1.6296469 6.9831476,1.6157441 8.7185878,4.0337352 z "
         transform="matrix(-1.100000,0.000000,0.000000,-1.100000,5.500000,0.000000)"
         style="font-size:12.000000px;fill-rule:evenodd;stroke-width:0.62500000;stroke-linejoin:round"
         id="path3960" />
    </marker>
    <marker
       refX="0.00000000"
       refY="0.00000000"
       orient="auto"
       style="overflow:visible"
       id="Arrow1Lstart">
      <path
         d="M 0.00000000,0.00000000 L 5.0000000,-5.0000000 L -12.500000,0.00000000 L 5.0000000,5.0000000 L 0.00000000,0.00000000 z "
         transform="scale(0.800000,0.800000)"
         style="fill-rule:evenodd;stroke:#000000;stroke-width:1.0000000pt;marker-start:none"
         id="path3968" />
    </marker>
  </defs>
  <g
     id="layer1">
    <rect
       width="391.93918"
       height="677.81238"
       rx="0.00000000"
       ry="0.00000000"
       x="377.81735"
       y="-9.2514429"
       style="opacity:1.0000000;fill:#e9fae9;fill-opacity:1.0000000;fill-rule:evenodd;stroke:none;stroke-width:2.0000000;stroke-linecap:butt;stroke-linejoin:miter;stroke-miterlimit:4.0000000;stroke-dasharray:none;stroke-dashoffset:0.00000000;stroke-opacity:1.0000000"
       id="rect11647" />
    <path
       d="M 541.00571,236.95103 C 538.72121,239.46640 537.99129,238.12592 536.11667,236.66215 L 496.46136,205.69766 C 493.79058,203.61220 494.48767,201.69295 497.07752,201.65888 L 516.89898,198.81882 C 519.53247,199.13919 520.52884,199.75001 522.40344,201.21381 L 535.97492,211.81097 C 537.05334,212.65306 539.39666,214.00914 539.23896,216.26279 L 541.00571,236.95103 z M 550.06545,211.79124 C 548.60168,213.66583 545.91157,214.01917 544.03695,212.55539 L 518.34721,192.49579 C 516.47260,191.03201 516.13852,188.31728 517.60228,186.44267 L 549.33610,145.80212 C 550.79986,143.92752 553.49536,143.61807 555.36998,145.08184 L 581.05973,165.14144 C 582.93433,166.60520 583.26302,169.27610 581.79925,171.15071 L 550.06545,211.79124 z "
       style="opacity:0.099999972;fill:#ababab;fill-opacity:1.0000000;fill-rule:evenodd;stroke:#000000;stroke-width:1.9999988;stroke-linecap:butt;stroke-linejoin:miter;stroke-miterlimit:4.0000000;stroke-dasharray:none;stroke-dashoffset:0.00000000;stroke-opacity:1.0000000"
       id="path12411" />
    <path
       d="M 578.21381,493.60817 C 575.33694,491.79994 574.99446,493.28734 573.58261,495.20137 L 543.71681,535.69065 C 541.70535,538.41761 542.89296,540.07864 545.39654,539.41488 L 565.25149,536.81908 C 567.70176,535.80220 568.49714,534.94589 569.90895,533.03185 L 580.13011,519.17496 C 580.94231,518.07385 582.83454,516.13746 582.07650,514.00928 L 578.21381,493.60817 z M 593.70674,515.40415 C 591.79271,513.99232 589.10669,514.37554 587.69485,516.28958 L 568.34701,542.51959 C 566.93518,544.43363 567.34356,547.13818 569.25759,548.55003 L 610.75282,579.15784 C 612.66685,580.56967 615.34626,580.14272 616.75811,578.22870 L 636.10595,551.99869 C 637.51778,550.08466 637.11599,547.42378 635.20196,546.01195 L 593.70674,515.40415 z "
       style="opacity:0.29999998;fill:#ababab;fill-opacity:1.0000000;fill-rule:evenodd;stroke:#000000;stroke-width:2.0000005;stroke-linecap:butt;stroke-linejoin:miter;stroke-miterlimit:4.0000000;stroke-dasharray:none;stroke-dashoffset:0.00000000;stroke-opacity:1.0000000"
       id="path5544" />
    <path
       d="M 598.92722,430.46509 C 595.65442,429.55140 595.74988,431.07474 594.94184,433.31168 L 577.84894,480.63165 C 576.69773,483.81866 578.30935,485.07251 580.52007,483.72300 L 598.81267,475.57819 C 600.87170,473.90538 601.39015,472.85795 602.19816,470.62101 L 608.04797,454.42641 C 608.51281,453.13954 609.77495,450.74431 608.44202,448.92029 L 598.92722,430.46509 z M 619.98768,446.94394 C 617.75074,446.13592 615.28522,447.26850 614.47719,449.50545 L 603.40396,480.16056 C 602.59594,482.39750 603.75791,484.87363 605.99485,485.68167 L 654.49048,503.19924 C 656.72742,504.00726 659.17415,502.83466 659.98220,500.59773 L 671.05542,469.94261 C 671.86345,467.70567 670.72023,465.26954 668.48331,464.46151 L 619.98768,446.94394 z "
       style="opacity:0.49999997;fill:#ababab;fill-opacity:1.0000000;fill-rule:evenodd;stroke:#000000;stroke-width:2.0000000;stroke-linecap:butt;stroke-linejoin:miter;stroke-miterlimit:4.0000000;stroke-dasharray:none;stroke-dashoffset:0.00000000;stroke-opacity:1.0000000"
       id="path5542" />
    <path
       d="M 581.18829,299.34965 C 578.03851,300.62441 579.04426,301.77251 579.77019,304.03743 L 595.12684,351.94900 C 596.16110,355.17584 598.20301,355.18478 599.12979,352.76619 L 608.64332,335.14663 C 609.25256,332.56462 609.02358,331.41856 608.29761,329.15366 L 603.04203,312.75660 C 602.62440,311.45365 602.16143,308.78609 599.99210,308.15545 L 581.18829,299.34965 z M 607.92886,299.54060 C 605.66395,300.26655 604.40294,302.66892 605.12890,304.93384 L 615.07734,335.97219 C 615.80327,338.23710 618.23541,339.48856 620.50032,338.76261 L 669.60223,323.02445 C 671.86713,322.29850 673.08883,319.87590 672.36289,317.61100 L 662.41447,286.57264 C 661.68852,284.30773 659.29566,283.07649 657.03077,283.80243 L 607.92886,299.54060 z "
       style="opacity:0.49999997;fill:#ababab;fill-opacity:1.0000000;fill-rule:evenodd;stroke:#000000;stroke-width:2.0000000;stroke-linecap:butt;stroke-linejoin:miter;stroke-miterlimit:4.0000000;stroke-dasharray:none;stroke-dashoffset:0.00000000;stroke-opacity:1.0000000"
       id="path5546" />
    <path
       d="M 546.61602,243.11110 C 544.00181,245.28181 545.30860,246.07046 546.68779,248.00816 L 575.86315,288.99775 C 577.82811,291.75840 579.77639,291.14711 579.92528,288.56132 L 583.64164,268.88529 C 583.43837,266.24019 582.87233,265.21770 581.49312,263.28003 L 571.50826,249.25191 C 570.71483,248.13720 569.46399,245.73604 567.20558,245.79364 L 546.61602,243.11110 z M 572.15289,235.17610 C 570.21521,236.55529 569.74292,239.22709 571.12212,241.16478 L 590.02268,267.71891 C 591.40187,269.65659 594.09912,270.11075 596.03682,268.73156 L 638.04479,238.83134 C 639.98247,237.45214 640.41115,234.77301 639.03198,232.83532 L 620.13142,206.28119 C 618.75222,204.34351 616.09853,203.89669 614.16086,205.27588 L 572.15289,235.17610 z "
       style="opacity:0.29999998;fill:#ababab;fill-opacity:1.0000000;fill-rule:evenodd;stroke:#000000;stroke-width:2.0000010;stroke-linecap:butt;stroke-linejoin:miter;stroke-miterlimit:4.0000000;stroke-dasharray:none;stroke-dashoffset:0.00000000;stroke-opacity:1.0000000"
       id="path5548" />
    <rect
       width="391.93918"
       height="676.80225"
       rx="0.00000000"
       ry="0.00000000"
       x="-13.131974"
       y="-8.7869911"
       style="opacity:1.0000000;fill:#fae9e9;fill-opacity:1.0000000;fill-rule:evenodd;stroke:none;stroke-width:2.0000000;stroke-linecap:butt;stroke-linejoin:miter;stroke-miterlimit:4.0000000;stroke-dasharray:none;stroke-dashoffset:0.00000000;stroke-opacity:1.0000000"
       id="rect12405" />
    <path
       d="M 164.21325,365.89670 C 167.60180,366.14924 166.99448,367.54954 166.99450,369.92795 L 166.99450,420.24045 C 166.99450,423.62900 165.05276,424.26075 163.43200,422.24045 L 148.99450,408.36545 C 147.62625,406.09261 147.49448,404.93135 147.49450,402.55295 L 147.49450,385.33420 C 147.49450,383.96595 147.12117,381.28439 148.99450,380.02170 L 164.21325,365.89670 z M 138.80700,374.24045 C 141.18540,374.24045 143.11950,376.14329 143.11950,378.52170 L 143.11950,411.11545 C 143.11950,413.49385 141.18541,415.42794 138.80700,415.42795 L 87.244488,415.42795 C 84.866088,415.42795 82.963258,413.49385 82.963238,411.11545 L 82.963238,378.52170 C 82.963238,376.14330 84.866098,374.24045 87.244488,374.24045 L 138.80700,374.24045 z "
       style="opacity:1.0000000;fill:#c47777;fill-opacity:1.0000000;fill-rule:evenodd;stroke:#000000;stroke-width:2.0000005;stroke-linecap:butt;stroke-linejoin:miter;stroke-miterlimit:4.0000000;stroke-dasharray:none;stroke-dashoffset:0.00000000;stroke-opacity:1.0000000"
       id="path7050" />
    <path
       d="M 378.80720,-7.3467615 L 378.80720,664.63643"
       style="fill:none;fill-opacity:0.75000000;fill-rule:evenodd;stroke:#000000;stroke-width:5.0000019;stroke-linecap:butt;stroke-linejoin:miter;stroke-miterlimit:4.0000000;stroke-dasharray:10.000004 10.000004 ;stroke-dashoffset:0.00000000;stroke-opacity:0.50196081"
       id="path2389" />
    <rect
       width="184.17999"
       height="151.57065"
       rx="0.00000000"
       ry="0.00000000"
       x="15.031239"
       y="16.400833"
       style="fill:#ffffff;fill-opacity:1.0000000;fill-rule:evenodd;stroke:#000000;stroke-width:2.0000002;stroke-linecap:round;stroke-linejoin:miter;stroke-miterlimit:4.0000000;stroke-dasharray:none;stroke-opacity:1.0000000"
       id="rect1612" />
    <path
       d="M 62.390665,99.678497 C 68.314205,108.38247 68.193315,108.26158 68.193315,108.26158 C 68.193315,108.26158 51.752475,130.14240 50.180935,130.26328 C 48.609375,130.38417 26.003225,114.54779 26.003225,114.54779 L 35.432535,96.535391 L 37.245855,94.238515 C 37.245855,94.238515 37.729415,78.281238 33.981865,72.357697 C 30.234325,66.434165 44.740945,49.509766 44.740945,49.509766 L 72.061745,42.981788 L 76.655505,49.751545 C 76.655505,49.751545 81.007495,60.027076 80.403045,62.565734 C 79.798605,65.104391 78.831495,69.698150 79.798605,71.753260 C 80.765715,73.808360 82.820815,77.676792 81.007485,78.160340 C 77.380845,78.160340 77.139065,79.490123 77.139065,81.303444 C 77.139065,83.116775 77.501725,90.853641 76.051065,92.666963 C 74.600405,94.480294 73.391515,98.832281 67.709755,97.381621 C 62.027995,95.930957 64.324885,96.051847 62.995105,96.898061 C 61.665335,97.744291 62.511555,99.557611 62.390665,99.678497 z "
       style="fill:#fff2e5;fill-opacity:1.0000000;fill-rule:evenodd;stroke:#000000;stroke-width:3.0000012;stroke-linecap:butt;stroke-linejoin:miter;stroke-miterlimit:4.0000000;stroke-dasharray:none;stroke-opacity:1.0000000"
       id="path2960" />
    <path
       d="M 36.217915,94.486607 C 47.715115,118.50679 54.155435,119.26786 54.155415,119.26786 C 54.155415,119.26786 60.945325,113.53589 61.842915,97.892857 C 67.527405,98.662187 66.519465,98.240147 76.905415,101.83036 C 85.504265,104.80280 90.063475,112.16370 90.405415,120.45536 C 91.003375,134.95595 90.561655,151.22716 90.561665,158.23661 C 90.561665,160.50669 90.532785,164.22562 90.530415,167.86161 L 15.530415,167.86161 L 15.530415,104.67411 C 15.591945,104.62539 15.624625,104.59829 15.686665,104.54911 C 25.448365,96.811171 28.139945,96.452674 36.217915,94.486607 z "
       style="fill:#3a5c9a;fill-opacity:1.0000000;fill-rule:evenodd;stroke:#000000;stroke-width:3.0000012;stroke-linecap:butt;stroke-linejoin:miter;stroke-miterlimit:4.0000000;stroke-dasharray:none;stroke-opacity:1.0000000"
       id="path2228" />
    <path
       d="M 77.259945,49.993324 C 78.196835,47.877774 77.600945,48.693919 77.622605,46.245782 C 77.661395,41.863721 77.501725,39.959582 71.578185,37.300035 C 66.259095,34.519598 60.698225,33.552492 55.500015,33.068935 C 50.543585,32.585377 38.925835,36.713682 34.344525,44.795119 C 30.040235,52.387885 26.607665,58.334634 33.377425,73.566581 C 37.729415,63.653719 41.839615,66.192377 48.004935,70.181707 C 51.027135,70.786145 50.239145,68.604286 50.785365,64.741723 C 51.208475,61.749742 51.417705,60.405282 54.049355,55.795976 C 56.256105,51.930876 58.280455,49.509766 66.017315,49.751545 C 71.819965,49.993324 73.542615,49.207548 77.259945,49.993324 z "
       style="fill:#6e4c2f;fill-opacity:1.0000000;fill-rule:evenodd;stroke:#000000;stroke-width:3.0000012;stroke-linecap:butt;stroke-linejoin:miter;stroke-miterlimit:4.0000000;stroke-dasharray:none;stroke-opacity:1.0000000"
       id="path2962" />
    <rect
       width="184.17999"
       height="151.57065"
       rx="0.00000000"
       ry="0.00000000"
       x="554.57892"
       y="17.534327"
       style="fill:#ffffff;fill-opacity:1.0000000;fill-rule:evenodd;stroke:#000000;stroke-width:2.0000002;stroke-linecap:round;stroke-linejoin:miter;stroke-miterlimit:4.0000000;stroke-dasharray:none;stroke-opacity:1.0000000"
       id="rect2344" />
    <path
       d="M 691.59106,99.946566 C 685.66752,108.65055 685.78841,108.52966 685.78841,108.52966 C 685.78841,108.52966 702.22925,130.41048 703.80079,130.53136 C 705.37235,130.65225 727.97850,114.81587 727.97850,114.81587 L 718.54919,96.803466 L 716.73587,94.506586 C 716.73587,94.506586 716.25231,78.549316 719.99986,72.625766 C 723.74740,66.702236 709.24078,49.777836 709.24078,49.777836 L 681.91998,43.249866 L 677.32622,50.019616 C 677.32622,50.019616 672.97423,60.295146 673.57868,62.833806 C 674.18312,65.372466 675.15023,69.966226 674.18312,72.021336 C 673.21601,74.076436 671.16091,77.944866 672.97424,78.428416 C 676.60088,78.428416 676.84266,79.758196 676.84266,81.571516 C 676.84266,83.384846 676.48000,91.121716 677.93066,92.935036 C 679.38132,94.748366 680.59021,99.100356 686.27197,97.649696 C 691.95373,96.199026 689.65684,96.319916 690.98662,97.166136 C 692.31639,98.012366 691.47017,99.825686 691.59106,99.946566 z "
       style="fill:#fff2e5;fill-opacity:1.0000000;fill-rule:evenodd;stroke:#000000;stroke-width:3.0000012;stroke-linecap:butt;stroke-linejoin:miter;stroke-miterlimit:4.0000000;stroke-dasharray:none;stroke-opacity:1.0000000"
       id="path1584" />
    <path
       d="M 717.76381,94.754676 C 706.26661,118.77487 699.82629,119.53594 699.82631,119.53594 C 699.82631,119.53594 693.03640,113.80397 692.13881,98.160926 C 686.45432,98.930256 687.46226,98.508216 677.07631,102.09843 C 668.47746,105.07088 663.91825,112.43178 663.57631,120.72344 C 662.97835,135.22403 663.42007,151.49524 663.42006,158.50469 C 663.42006,160.77477 663.44894,164.49370 663.45131,168.12969 L 738.45131,168.12969 L 738.45131,104.94219 C 738.38978,104.89347 738.35710,104.86637 738.29506,104.81719 C 728.53336,97.079246 725.84178,96.720746 717.76381,94.754676 z "
       style="fill:#3a5c9a;fill-opacity:1.0000000;fill-rule:evenodd;stroke:#000000;stroke-width:3.0000012;stroke-linecap:butt;stroke-linejoin:miter;stroke-miterlimit:4.0000000;stroke-dasharray:none;stroke-opacity:1.0000000"
       id="path1586" />
    <path
       d="M 676.72178,50.261396 C 675.78489,48.145846 676.38078,48.961996 676.35912,46.513856 C 676.32033,42.131796 676.48000,40.227656 682.40354,37.568106 C 687.72263,34.787676 693.28350,33.820566 698.48171,33.337006 C 703.43814,32.853446 715.05589,36.981756 719.63720,45.063196 C 723.94149,52.655956 727.37406,58.602706 720.60430,73.834656 C 716.25231,63.921796 712.14211,66.460446 705.97679,70.449776 C 702.95459,71.054216 703.74258,68.872356 703.19636,65.009796 C 702.77325,62.017816 702.56402,60.673356 699.93237,56.064046 C 697.72562,52.198946 695.70127,49.777836 687.96441,50.019616 C 682.16176,50.261396 680.43911,49.475626 676.72178,50.261396 z "
       style="fill:#6e4c2f;fill-opacity:1.0000000;fill-rule:evenodd;stroke:#000000;stroke-width:3.0000012;stroke-linecap:butt;stroke-linejoin:miter;stroke-miterlimit:4.0000000;stroke-dasharray:none;stroke-opacity:1.0000000"
       id="path1588" />
    <path
       d="M 602.62324,100.66085 C 608.54678,109.36483 608.42589,109.24394 608.42589,109.24394 C 608.42589,109.24394 591.98505,131.12476 590.41351,131.24564 C 588.84195,131.36653 566.23580,115.53015 566.23580,115.53015 L 575.66511,97.517753 L 577.47843,95.220874 C 577.47843,95.220874 577.96199,79.263597 574.21444,73.340056 C 570.46690,67.416524 584.97352,50.492125 584.97352,50.492125 L 612.29432,43.964147 L 616.88808,50.733904 C 616.88808,50.733904 621.24007,61.009435 620.63562,63.548093 C 620.03118,66.086750 619.06407,70.680509 620.03118,72.735619 C 620.99829,74.790719 623.05339,78.659151 621.24006,79.142699 C 617.61342,79.142699 617.37164,80.472482 617.37164,82.285803 C 617.37164,84.099134 617.73430,91.836000 616.28364,93.649322 C 614.83298,95.462653 613.62409,99.814643 607.94233,98.363983 C 602.26057,96.913313 604.55746,97.034203 603.22768,97.880423 C 601.89791,98.726653 602.74413,100.53997 602.62324,100.66085 z "
       style="fill:#fff2e5;fill-opacity:1.0000000;fill-rule:evenodd;stroke:#000000;stroke-width:3.0000012;stroke-linecap:butt;stroke-linejoin:miter;stroke-miterlimit:4.0000000;stroke-dasharray:none;stroke-opacity:1.0000000"
       id="path1590" />
    <path
       d="M 576.45049,95.468963 C 587.94769,119.48915 594.38801,120.25022 594.38799,120.25022 C 594.38799,120.25022 601.17790,114.51825 602.07549,98.875213 C 607.75998,99.644543 606.75204,99.222503 617.13799,102.81271 C 625.73684,105.78516 630.29605,113.14606 630.63799,121.43772 C 631.23595,135.93831 630.79423,152.20952 630.79424,159.21897 C 630.79424,161.48905 630.76536,165.20798 630.76299,168.84397 L 555.76299,168.84397 L 555.76299,105.65647 C 555.82452,105.60775 555.85720,105.58065 555.91924,105.53147 C 565.68094,97.793533 568.37252,97.435033 576.45049,95.468963 z "
       style="fill:#ff9306;fill-opacity:1.0000000;fill-rule:evenodd;stroke:#000000;stroke-width:3.0000012;stroke-linecap:butt;stroke-linejoin:miter;stroke-miterlimit:4.0000000;stroke-dasharray:none;stroke-opacity:1.0000000"
       id="path1592" />
    <path
       d="M 617.49252,50.975683 C 618.42941,48.860133 617.83352,49.676278 617.85518,47.228141 C 617.89397,42.846080 617.73430,40.941941 611.81076,38.282394 C 606.49167,35.501957 600.93080,34.534851 595.73259,34.051294 C 590.77616,33.567736 579.15841,37.696041 574.57710,45.777478 C 570.27281,53.370244 566.84024,59.316993 573.61000,74.548940 C 577.96199,64.636078 582.07219,67.174736 588.23751,71.164066 C 591.25971,71.768504 590.47172,69.586645 591.01794,65.724082 C 591.44105,62.732101 591.65028,61.387641 594.28193,56.778335 C 596.48868,52.913235 598.51303,50.492125 606.24989,50.733904 C 612.05254,50.975683 613.77519,50.189907 617.49252,50.975683 z "
       style="fill:#b17f23;fill-opacity:1.0000000;fill-rule:evenodd;stroke:#000000;stroke-width:3.0000012;stroke-linecap:butt;stroke-linejoin:miter;stroke-miterlimit:4.0000000;stroke-dasharray:none;stroke-opacity:1.0000000"
       id="path1594" />
    <path
       d="M 152.16249,99.946570 C 146.23895,108.65054 146.35984,108.52965 146.35984,108.52965 C 146.35984,108.52965 162.80068,130.41047 164.37222,130.53135 C 165.94378,130.65224 188.54993,114.81586 188.54993,114.81586 L 179.12062,96.803464 L 177.30730,94.506588 C 177.30730,94.506588 176.82374,78.549311 180.57129,72.625770 C 184.31883,66.702238 169.81221,49.777839 169.81221,49.777839 L 142.49141,43.249861 L 137.89765,50.019618 C 137.89765,50.019618 133.54566,60.295149 134.15011,62.833807 C 134.75455,65.372464 135.72166,69.966223 134.75455,72.021333 C 133.78744,74.076433 131.73234,77.944865 133.54567,78.428413 C 137.17231,78.428413 137.41409,79.758196 137.41409,81.571517 C 137.41409,83.384848 137.05143,91.121714 138.50209,92.935036 C 139.95275,94.748367 141.16164,99.100354 146.84340,97.649694 C 152.52516,96.199030 150.22827,96.319920 151.55805,97.166134 C 152.88782,98.012364 152.04160,99.825684 152.16249,99.946570 z "
       style="fill:#fff2e5;fill-opacity:1.0000000;fill-rule:evenodd;stroke:#000000;stroke-width:3.0000012;stroke-linecap:butt;stroke-linejoin:miter;stroke-miterlimit:4.0000000;stroke-dasharray:none;stroke-opacity:1.0000000"
       id="path1596" />
    <path
       d="M 178.33524,94.754680 C 166.83804,118.77486 160.39772,119.53593 160.39774,119.53593 C 160.39774,119.53593 153.60783,113.80396 152.71024,98.160930 C 147.02575,98.930260 148.03369,98.508220 137.64774,102.09843 C 129.04889,105.07087 124.48968,112.43177 124.14774,120.72343 C 123.54978,135.22402 123.99150,151.49523 123.99149,158.50468 C 123.99149,160.77476 124.02037,164.49369 124.02274,168.12968 L 199.02274,168.12968 L 199.02274,104.94218 C 198.96121,104.89346 198.92853,104.86636 198.86649,104.81718 C 189.10479,97.079244 186.41321,96.720747 178.33524,94.754680 z "
       style="fill:#ff9306;fill-opacity:1.0000000;fill-rule:evenodd;stroke:#000000;stroke-width:3.0000012;stroke-linecap:butt;stroke-linejoin:miter;stroke-miterlimit:4.0000000;stroke-dasharray:none;stroke-opacity:1.0000000"
       id="path1598" />
    <path
       d="M 137.29321,50.261397 C 136.35632,48.145847 136.95221,48.961992 136.93055,46.513855 C 136.89176,42.131794 137.05143,40.227655 142.97497,37.568108 C 148.29406,34.787671 153.85493,33.820565 159.05314,33.337008 C 164.00957,32.853450 175.62732,36.981755 180.20863,45.063192 C 184.51292,52.655958 187.94549,58.602707 181.17573,73.834654 C 176.82374,63.921792 172.71354,66.460450 166.54822,70.449780 C 163.52602,71.054218 164.31401,68.872359 163.76779,65.009796 C 163.34468,62.017815 163.13545,60.673355 160.50380,56.064049 C 158.29705,52.198949 156.27270,49.777839 148.53584,50.019618 C 142.73319,50.261397 141.01054,49.475621 137.29321,50.261397 z "
       style="fill:#b17f23;fill-opacity:1.0000000;fill-rule:evenodd;stroke:#000000;stroke-width:3.0000012;stroke-linecap:butt;stroke-linejoin:miter;stroke-miterlimit:4.0000000;stroke-dasharray:none;stroke-opacity:1.0000000"
       id="path1600" />
    <rect
       width="32.627037"
       height="54.777081"
       ry="5.0452633"
       x="432.27963"
       y="70.405190"
       transform="matrix(1.000000,0.000000,-0.713394,0.700763,0.000000,0.000000)"
       style="fill:#ff0000;fill-opacity:1.0000000;fill-rule:evenodd;stroke:#000000;stroke-width:2.3891542;stroke-linecap:round;stroke-linejoin:miter;stroke-miterlimit:4.0000000;stroke-dasharray:none;stroke-opacity:1.0000000"
       id="rect1602" />
    <path
       d="M 307.06250,43.375000 L 232.46875,68.343750 L 307.06250,93.312500 L 307.06250,81.656250 L 337.87500,81.656250 C 340.67007,81.656250 344.27586,80.342889 345.93750,78.687500 L 366.78125,57.875000 C 368.44288,56.219607 367.54508,54.906249 364.75000,54.906250 L 307.06250,54.906250 L 307.06250,43.375000 z "
       style="fill:#ff0000;fill-opacity:1.0000000;fill-rule:evenodd;stroke:#000000;stroke-width:2.3806539;stroke-linecap:round;stroke-linejoin:miter;stroke-miterlimit:4.0000000;stroke-dasharray:none;stroke-opacity:1.0000000"
       id="rect1604" />
    <path
       d="M 451.69306,93.639226 L 526.28681,68.670476 L 451.69306,43.701723 L 451.69306,55.357976 L 420.88056,55.357976 C 418.08549,55.357976 414.47970,56.671336 412.81806,58.326726 L 391.97431,79.139226 C 390.31268,80.794616 391.21048,82.107976 394.00556,82.107976 L 451.69306,82.107976 L 451.69306,93.639226 z "
       style="fill:#ff0000;fill-opacity:1.0000000;fill-rule:evenodd;stroke:#000000;stroke-width:2.3806539;stroke-linecap:round;stroke-linejoin:miter;stroke-miterlimit:4.0000000;stroke-dasharray:none;stroke-opacity:1.0000000"
       id="path1609" />
    <path
       d="M 594.56250,365.25000 C 591.17395,365.50254 591.78127,366.90284 591.78125,369.28125 L 591.78125,419.59375 C 591.78125,422.98230 593.72299,423.61405 595.34375,421.59375 L 609.78125,407.71875 C 611.14950,405.44591 611.28127,404.28465 611.28125,401.90625 L 611.28125,384.68750 C 611.28125,383.31925 611.65458,380.63769 609.78125,379.37500 L 594.56250,365.25000 z M 619.96875,373.59375 C 617.59035,373.59375 615.65625,375.49659 615.65625,377.87500 L 615.65625,410.46875 C 615.65625,412.84715 617.59034,414.78124 619.96875,414.78125 L 671.53125,414.78125 C 673.90965,414.78125 675.81248,412.84715 675.81250,410.46875 L 675.81250,377.87500 C 675.81250,375.49660 673.90964,373.59375 671.53125,373.59375 L 619.96875,373.59375 z "
       style="opacity:1.0000000;fill:#ababab;fill-opacity:1.0000000;fill-rule:evenodd;stroke:#000000;stroke-width:2.0000005;stroke-linecap:butt;stroke-linejoin:miter;stroke-miterlimit:4.0000000;stroke-dasharray:none;stroke-dashoffset:0.00000000;stroke-opacity:1.0000000"
       id="rect4783" />
    <path
       d="M 384.90653,135.95719 C 525.47033,136.22930 639.46633,250.39308 639.46633,391.02023 L 639.46643,391.02023 C 639.46633,531.64739 525.47033,645.81118 384.90643,646.08326"
       style="fill:none;fill-opacity:1.0000000;fill-rule:evenodd;stroke:#209e20;stroke-width:3.0000000;stroke-linecap:butt;stroke-linejoin:miter;stroke-miterlimit:4.0000000;stroke-dashoffset:0.00000000;stroke-opacity:1.0000000"
       id="path4778" />
    <path
       d="M 374.06603,645.83708 C 373.89823,645.83741 373.73033,645.83757 373.56243,645.83757 C 232.76742,645.83758 118.49893,531.56911 118.49893,390.77405 C 118.49892,249.97898 232.76738,135.71052 373.56243,135.71052 C 373.73033,135.71052 373.89823,135.71068 374.06613,135.71101"
       style="fill:none;fill-opacity:1.0000000;fill-rule:evenodd;stroke:#ff0000;stroke-width:3.0000000;stroke-linecap:butt;stroke-linejoin:miter;stroke-miterlimit:4.0000000;stroke-dashoffset:0.00000000;stroke-opacity:1.0000000"
       id="path4768" />
    <path
       d="M 382.74845,306.25549 C 435.13880,306.35690 477.62690,348.90754 477.62690,401.32150 L 477.62693,401.32150 C 477.62690,453.73545 435.13880,496.28609 382.74841,496.38751"
       style="fill:none;fill-opacity:1.0000000;fill-rule:evenodd;stroke:#000000;stroke-width:3.0000005;stroke-linecap:butt;stroke-linejoin:miter;stroke-miterlimit:4.0000000;stroke-dashoffset:0.00000000;stroke-opacity:1.0000000"
       id="path4781" />
    <path
       d="M 683.57143,393.89972 L 702.85714,393.89972 L 702.85714,191.10004"
       style="fill:none;fill-opacity:0.75000000;fill-rule:evenodd;stroke:#000000;stroke-width:1.9999995;stroke-linecap:butt;stroke-linejoin:miter;marker-start:none;marker-end:url(#Arrow2Mend);stroke-miterlimit:4.0000000;stroke-dasharray:none;stroke-opacity:1.0000000"
       id="path7057" />
    <path
       d="M 71.785717,393.18556 L 52.500007,393.18556 L 52.500007,190.38588"
       style="fill:none;fill-opacity:0.75000000;fill-rule:evenodd;stroke:#000000;stroke-width:1.9999995;stroke-linecap:butt;stroke-linejoin:miter;marker-start:none;marker-end:url(#Arrow2Mend);stroke-miterlimit:4.0000000;stroke-dasharray:none;stroke-opacity:1.0000000"
       id="path7811" />
    <path
       d="M 365.19359,131.28094 C 369.34349,132.66318 377.82049,135.82663 377.82049,135.82663 C 377.82049,135.82663 370.24435,138.60455 365.19359,140.37231 C 366.83509,138.09947 367.45033,134.10462 365.19359,131.28094 z "
       style="fill:#ff0000;fill-opacity:1.0000000;fill-rule:evenodd;stroke:#ff0000;stroke-width:1.0000000px;stroke-linecap:butt;stroke-linejoin:miter;stroke-opacity:1.0000000"
       id="path8569" />
    <path
       d="M 392.57053,140.37740 C 388.42063,138.99516 379.94363,135.83171 379.94363,135.83171 C 379.94363,135.83171 387.51977,133.05379 392.57053,131.28603 C 390.92903,133.55887 390.31379,137.55372 392.57053,140.37740 z "
       style="fill:#209e20;fill-opacity:1.0000000;fill-rule:evenodd;stroke:#209e20;stroke-width:1.0000000px;stroke-linecap:butt;stroke-linejoin:miter;stroke-opacity:1.0000000"
       id="path9327" />
    <path
       d="M 365.49754,641.15799 C 369.64744,642.54023 378.12444,645.70368 378.12444,645.70368 C 378.12444,645.70368 370.54830,648.48160 365.49754,650.24936 C 367.13904,647.97652 367.75428,643.98167 365.49754,641.15799 z "
       style="fill:#ff0000;fill-opacity:1.0000000;fill-rule:evenodd;stroke:#ff0000;stroke-width:1.0000000px;stroke-linecap:butt;stroke-linejoin:miter;stroke-opacity:1.0000000"
       id="path9329" />
    <path
       d="M 392.87448,650.25445 C 388.72458,648.87221 380.24758,645.70876 380.24758,645.70876 C 380.24758,645.70876 387.82372,642.93084 392.87448,641.16308 C 391.23298,643.43592 390.61774,647.43077 392.87448,650.25445 z "
       style="fill:#209e20;fill-opacity:1.0000000;fill-rule:evenodd;stroke:#209e20;stroke-width:1.0000000px;stroke-linecap:butt;stroke-linejoin:miter;stroke-opacity:1.0000000"
       id="path9331" />
    <path
       d="M 392.11687,500.75186 C 387.96697,499.36962 379.48997,496.20617 379.48997,496.20617 C 379.48997,496.20617 387.06611,493.42825 392.11687,491.66049 C 390.47537,493.93333 389.86013,497.92818 392.11687,500.75186 z "
       style="fill:#000000;fill-opacity:1.0000000;fill-rule:evenodd;stroke:#000000;stroke-width:1.0000000px;stroke-linecap:butt;stroke-linejoin:miter;stroke-opacity:1.0000000"
       id="path9335" />
    <path
       d="M 372.14286 339.46429 A 18.035715 18.035715 0 1 1  336.07143,339.46429 A 18.035715 18.035715 0 1 1  372.14286 339.46429 z"
       transform="matrix(1.121951,0.000000,0.000000,1.121951,-35.50523,-38.36237)"
       style="opacity:1.0000000;fill:#3a5c9a;fill-opacity:1.0000000;fill-rule:evenodd;stroke:#000000;stroke-width:1.7826087;stroke-linecap:butt;stroke-linejoin:miter;stroke-miterlimit:4.0000000;stroke-dasharray:none;stroke-dashoffset:0.00000000;stroke-opacity:1.0000000"
       id="path10849" />
    <path
       d="M 372.14286 339.46429 A 18.035715 18.035715 0 1 1  336.07143,339.46429 A 18.035715 18.035715 0 1 1  372.14286 339.46429 z"
       transform="matrix(1.121951,0.000000,0.000000,1.121951,0.209134,-37.64802)"
       style="opacity:1.0000000;fill:#3a5c9a;fill-opacity:1.0000000;fill-rule:evenodd;stroke:#000000;stroke-width:1.7826087;stroke-linecap:butt;stroke-linejoin:miter;stroke-miterlimit:4.0000000;stroke-dasharray:none;stroke-dashoffset:0.00000000;stroke-opacity:1.0000000"
       id="path10853" />
    <rect
       width="27.397223"
       height="26.849279"
       rx="4.5050573"
       ry="4.5050573"
       x="615.38434"
       y="-247.55899"
       transform="matrix(0.439180,0.898399,-0.439180,0.898399,0.000000,0.000000)"
       style="opacity:1.0000000;fill:#fff2e5;fill-opacity:1.0000000;fill-rule:evenodd;stroke:#000000;stroke-width:2.2514365;stroke-linecap:butt;stroke-linejoin:miter;stroke-miterlimit:4.0000000;stroke-dasharray:none;stroke-dashoffset:0.00000000;stroke-opacity:1.0000000"
       id="rect11613" />
    <path
       d="M 372.14286 339.46429 A 18.035715 18.035715 0 1 1  336.07143,339.46429 A 18.035715 18.035715 0 1 1  372.14286 339.46429 z"
       transform="matrix(1.318200,0.000000,0.000000,1.509201,-86.96274,-168.9273)"
       style="opacity:1.0000000;fill:#fff2e5;fill-opacity:1.0000000;fill-rule:evenodd;stroke:#000000;stroke-width:1.4179653;stroke-linecap:butt;stroke-linejoin:miter;stroke-miterlimit:4.0000000;stroke-dasharray:none;stroke-dashoffset:0.00000000;stroke-opacity:1.0000000"
       id="path10855" />
    <path
       d="M 379.75254,314.71621 C 366.13064,314.71621 355.09628,327.37057 355.09629,342.96621 C 355.09629,347.90931 356.30158,352.48544 358.25254,356.52871 C 360.57971,354.62362 363.97129,352.12246 363.97129,352.12246 C 363.97128,352.12245 370.33722,350.17779 373.56504,352.96621 C 376.79285,355.75464 382.30616,355.86243 384.87754,353.93496 C 387.44892,352.00749 390.93625,351.60835 394.22129,353.68496 C 397.45915,355.73174 401.05450,356.71806 401.15879,356.74746 C 403.17817,352.65171 404.44004,348.00178 404.44004,342.96621 C 404.44004,327.37056 393.37444,314.71620 379.75254,314.71621 z "
       style="opacity:1.0000000;fill:#6e4c2f;fill-opacity:1.0000000;fill-rule:evenodd;stroke:#000000;stroke-width:1.3660978;stroke-linecap:butt;stroke-linejoin:miter;stroke-miterlimit:4.0000000;stroke-dasharray:none;stroke-dashoffset:0.00000000;stroke-opacity:1.0000000"
       id="path11617" />
    <path
       d="M 372.14286 339.46429 A 18.035715 18.035715 0 1 1  336.07143,339.46429 A 18.035715 18.035715 0 1 1  372.14286 339.46429 z"
       transform="matrix(1.121951,0.000000,0.000000,-1.121951,-35.58323,839.4567)"
       style="opacity:1.0000000;fill:#ff9306;fill-opacity:1.0000000;fill-rule:evenodd;stroke:#000000;stroke-width:1.7826087;stroke-linecap:butt;stroke-linejoin:miter;stroke-miterlimit:4.0000000;stroke-dasharray:none;stroke-dashoffset:0.00000000;stroke-opacity:1.0000000"
       id="path11637" />
    <path
       d="M 372.14286 339.46429 A 18.035715 18.035715 0 1 1  336.07143,339.46429 A 18.035715 18.035715 0 1 1  372.14286 339.46429 z"
       transform="matrix(1.121951,0.000000,0.000000,-1.121951,0.131133,838.7424)"
       style="opacity:1.0000000;fill:#ff9306;fill-opacity:1.0000000;fill-rule:evenodd;stroke:#000000;stroke-width:1.7826087;stroke-linecap:butt;stroke-linejoin:miter;stroke-miterlimit:4.0000000;stroke-dasharray:none;stroke-dashoffset:0.00000000;stroke-opacity:1.0000000"
       id="path11639" />
    <rect
       width="27.397217"
       height="26.849274"
       rx="4.5050559"
       ry="4.5050559"
       x="169.44991"
       y="-693.31561"
       transform="matrix(0.439180,-0.898399,-0.439180,-0.898399,0.000000,0.000000)"
       style="opacity:1.0000000;fill:#fff2e5;fill-opacity:1.0000000;fill-rule:evenodd;stroke:#000000;stroke-width:2.2514358;stroke-linecap:butt;stroke-linejoin:miter;stroke-miterlimit:4.0000000;stroke-dasharray:none;stroke-dashoffset:0.00000000;stroke-opacity:1.0000000"
       id="rect11641" />
    <path
       d="M 372.14286 339.46429 A 18.035715 18.035715 0 1 1  336.07143,339.46429 A 18.035715 18.035715 0 1 1  372.14286 339.46429 z"
       transform="matrix(1.318200,0.000000,0.000000,-1.509201,-87.04074,970.0217)"
       style="opacity:1.0000000;fill:#fff2e5;fill-opacity:1.0000000;fill-rule:evenodd;stroke:#000000;stroke-width:1.4179653;stroke-linecap:butt;stroke-linejoin:miter;stroke-miterlimit:4.0000000;stroke-dasharray:none;stroke-dashoffset:0.00000000;stroke-opacity:1.0000000"
       id="path11643" />
    <path
       d="M 379.67454,486.37817 C 366.05264,486.37817 355.01828,473.72381 355.01829,458.12817 C 355.01829,453.18507 356.22358,448.60894 358.17454,444.56567 C 360.50171,446.47076 363.89329,448.97192 363.89329,448.97192 C 363.89328,448.97193 370.25922,450.91659 373.48704,448.12817 C 376.71485,445.33974 382.22816,445.23195 384.79954,447.15942 C 387.37092,449.08689 390.85825,449.48603 394.14329,447.40942 C 397.38115,445.36264 400.97650,444.37632 401.08079,444.34692 C 403.10017,448.44267 404.36204,453.09260 404.36204,458.12817 C 404.36204,473.72382 393.29644,486.37818 379.67454,486.37817 z "
       style="opacity:1.0000000;fill:#b17f23;fill-opacity:1.0000000;fill-rule:evenodd;stroke:#000000;stroke-width:1.3660978;stroke-linecap:butt;stroke-linejoin:miter;stroke-miterlimit:4.0000000;stroke-dasharray:none;stroke-dashoffset:0.00000000;stroke-opacity:1.0000000"
       id="path11645" />
    <path
       d="M 536.67593,548.59258 C 534.56642,545.92875 533.74769,547.21691 531.77854,548.55081 L 490.12367,576.76811 C 487.31822,578.66855 487.88418,580.63047 490.46582,580.83927 L 510.05039,585.01073 C 512.69950,584.86884 513.73483,584.32666 515.70395,582.99273 L 529.95975,573.33576 C 531.09255,572.56838 533.52206,571.37355 533.51683,569.11440 L 536.67593,548.59258 z M 544.01682,574.30651 C 542.68292,572.33738 540.02279,571.80328 538.05365,573.13719 L 511.06854,591.41709 C 509.09941,592.75101 508.58285,595.43699 509.91675,597.40613 L 538.83511,640.09591 C 540.16901,642.06504 542.83748,642.55572 544.80662,641.22182 L 571.79174,622.94192 C 573.76086,621.60802 574.26907,618.96540 572.93517,616.99627 L 544.01682,574.30651 z "
       style="opacity:0.099999972;fill:#ababab;fill-opacity:1.0000000;fill-rule:evenodd;stroke:#000000;stroke-width:1.9999990;stroke-linecap:butt;stroke-linejoin:miter;stroke-miterlimit:4.0000000;stroke-dasharray:none;stroke-dashoffset:0.00000000;stroke-opacity:1.0000000"
       id="path12409" />
    <text
       x="396.70932"
       y="409.36752"
       style="font-size:24.000000px;font-style:normal;font-variant:normal;font-weight:normal;font-stretch:normal;text-align:start;line-height:125.00000%;writing-mode:lr-tb;text-anchor:start;font-family:Sans"
       id="text1572"
       xml:space="preserve"><tspan
         x="396.70932"
         y="409.36752"
         id="tspan1574">180°</tspan></text>
  </g>
</svg>
