<svg xmlns="http://www.w3.org/2000/svg" width="425.036" height="351.465" xmlns:v="https://vecta.io/nano"><g stroke="#000"><path d="M186.974 14.945l3.571 177.387L395.369 298.58l.439-170.155-208.835-113.48z" fill="#d8ffd8" fill-rule="evenodd"/><g fill="none"><path d="M395.375 128.946L79.661 281.803 186.804 15.375"/><path d="M189.661 191.803L78.946 281.089l315.714 16.429"/></g></g><g fill="#e7dad8" fill-rule="evenodd" stroke="#000"><path d="M24.418 258.995l.98 48.488 55.787 29.051.112-46.511-56.879-31.028z"/><path d="M80.886 289.726l-56.429-30.714 19.286-12.143 55.714 30 .714 47.857L81.6 336.155l-.714-46.429z"/><path d="M24.364 258.917l19.723-12.269 56.302 30.573-.207 47.191-18.801 12.21-.477-46.448 19.182-12.6m-62.057 1.438l27.857 15v24.286l-27.9-15.166.043-24.12z"/></g><g stroke="#000" fill="none" stroke-dasharray="1, 3" stroke-dashoffset="0pt"><path d="M98.875 282.209l-61.114-3.283"/><path d="M84.48 270.087l-18.94 47.477"/><path d="M89.026 272.612l-23.991 21.213"/><path d="M93.824 274.885l-55.558 27.779"/></g><g fill-rule="evenodd"><path d="M190.5 115.584l-.062 1c77.882 4.567 128.847 30.878 160.375 56.031s43.594 49.125 43.594 49.125l.875-.469s-12.171-24.168-43.844-49.437-82.857-51.671-160.937-56.25z"/><path d="M200.445 116.674l4.227-3.759-14.21 3.174 13.742 4.813-3.759-4.227z" stroke="#000" stroke-width=".8pt"/><path d="M394.004 209.963l1.452 12.723-9.348-8.751c3.194.543 6.378-1.071 7.896-3.972zM299.438 76.834l-1 .094c5.354 56.394 3.393 97.882.094 125.25s-7.906 40.594-7.906 40.594l.938.344s4.661-13.372 7.969-40.812 5.267-69.006-.094-125.469z"/><path d="M299.892 86.845l4.36 3.604-5.305-13.559-2.659 14.315 3.604-4.36z" stroke="#000" stroke-width=".8pt"/><path d="M298.802 234.306l-8.134 9.89-.211-12.804c1.83 2.673 5.205 3.839 8.345 2.914zM188.156 15.803l-.656.75c91.746 79.609 143.337 149.495 172 199.469s34.375 80 34.375 80l.969-.187s-5.749-30.238-34.469-80.312S279.981 95.48 188.156 15.803z"/><path d="M195.367 22.729l5.643-.4-13.196-6.154 7.953 12.197-.4-5.643z" stroke="#000" stroke-width=".8pt"/><path d="M396.72 284.583l-2.089 12.634-6.593-10.977c2.923 1.397 6.427.717 8.682-1.656z"/></g></svg>