<?xml version="1.0" encoding="UTF-8" standalone="no"?>
<svg xmlns="http://www.w3.org/2000/svg" version="1.0" width="1250" height="800" style="fill:rgb(0,0,0);stroke:none;stroke-width:1.415;stroke-miterlimit:8;font-family:sans-serif;font-style:normal;font-weight:normal;font-variant:normal;font-stretch:normal;font-size:16;line-height:1.2;text-anchor:start;text-align:start">

	<metadata>
		<title>Unit Circle</title>
		<subject>Trigonometry</subject>

		<description>A unit circle with sine (sin), cosine (cos), tangent (tan), cotangent (cot), secant (sec), cosecant (csc), versine (versin), coversine (cvs), exsecant (exsec), excosecant (excsc) as well as chord (crd) and arc labeled as trigonometric functions of angle theta</description>

		<author>Wikipedia: Limaner, Stevertigo, Verdy p, Taktoa, Matthiaspaul</author>
		<type>Image</type>
		<format>image/svg</format>

	</metadata>
	<g transform="scale(3.7) translate(0, -8)">
		<g id="g-points" style="fill:rgb(0,0,0)">
			<switch><text x="80" y="138" id="trsvg24-pt-br" systemLanguage="pt-br"><tspan id="trsvg1-pt-br">O</tspan></text><text x="80" y="138" id="trsvg24"><tspan id="trsvg1">O</tspan></text></switch>

			<switch style="font-style:italic"><text x="106" y="118" style="font-style:italic" id="trsvg25-pt-br" systemLanguage="pt-br"><tspan id="trsvg2-pt-br">θ</tspan></text><text x="106" y="118" style="font-style:italic" id="trsvg25"><tspan id="trsvg2">θ</tspan></text></switch>
			<switch><text x="139" y="42" id="trsvg26-pt-br" systemLanguage="pt-br"><tspan id="trsvg3-pt-br">A</tspan></text><text x="139" y="42" id="trsvg26"><tspan id="trsvg3">A</tspan></text></switch>
			<switch><text x="139" y="224" id="trsvg27-pt-br" systemLanguage="pt-br"><tspan id="trsvg4-pt-br">B</tspan></text><text x="139" y="224" id="trsvg27"><tspan id="trsvg4">B</tspan></text></switch>

			<switch><text x="139" y="120" id="trsvg28-pt-br" systemLanguage="pt-br"><tspan id="trsvg5-pt-br">C</tspan></text><text x="139" y="120" id="trsvg28"><tspan id="trsvg5">C</tspan></text></switch>
			<switch><text x="190" y="140" id="trsvg29-pt-br" systemLanguage="pt-br"><tspan id="trsvg6-pt-br">D</tspan></text><text x="190" y="140" id="trsvg29"><tspan id="trsvg6">D</tspan></text></switch>
			<switch><text x="322" y="140" id="trsvg30-pt-br" systemLanguage="pt-br"><tspan id="trsvg7-pt-br">E</tspan></text><text x="322" y="140" id="trsvg30"><tspan id="trsvg7">E</tspan></text></switch>
			<switch><text x="92" y="20" id="trsvg31-pt-br" systemLanguage="pt-br"><tspan id="trsvg8-pt-br">F</tspan></text><text x="92" y="20" id="trsvg31"><tspan id="trsvg8">F</tspan></text></switch>
			<switch><text x="80" y="60" id="trsvg32-pt-br" systemLanguage="pt-br"><tspan id="trsvg9-pt-br">G</tspan></text><text x="80" y="60" id="trsvg32"><tspan id="trsvg9">G</tspan></text></switch>

			<switch><text x="97" y="38" id="trsvg33-pt-br" systemLanguage="pt-br"><tspan id="trsvg10-pt-br">H</tspan></text><text x="97" y="38" id="trsvg33"><tspan id="trsvg10">H</tspan></text></switch>

			<switch><text x="107" y="80" id="trsvg34-pt-br" systemLanguage="pt-br"><tspan id="trsvg11-pt-br">1</tspan></text><text x="107" y="80" id="trsvg34"><tspan id="trsvg11">1</tspan></text></switch>

		</g>

		<g style="fill:none">
			<g style="stroke:gray;stroke-dasharray:8,3">

				<line id="line-BC" x1="134" y1="208" x2="134" y2="125"/>

			</g>
			<g style="stroke:black">
				<circle id="circle-O-HADB" cx="95" cy="125" r="91.7"/>^
				<path id="arc-DA" style="stroke:black;stroke-width:3" d="M 186.7,125 A 91.7,91.7 0,0,0 134,42"/>
				<line id="line-OA-theta" x1="95" y1="125" x2="134" y2="42"/>

				<g style="stroke-dasharray:8,3">
					<line id="line-OB-minus-theta" x1="95" y1="125" x2="134" y2="208"/>
				</g>

				<g style="stroke-dasharray:3,4">

					<line id="line-A-dashed" x1="134" y1="42" x2="147" y2="14"/>

				</g>

				<path id="path-angle-theta" d="M107,125C107,121 104,116 100,114"/>

				<polyline id="polyline-angle-ortho-O" points="85,125 85,115 95,115"/>

				<polyline id="polyline-angle-ortho-G" points="95,52 105,52 105,42"/>

				<polyline id="polyline-angle-ortho-C" points="124,125 124,115 134,115"/>
				<polyline id="polyline-angle-ortho-A" points="126,38 130,30 137,34"/>

			</g>
			<line id="line-AD-crd" style="stroke:silver" x1="134" y1="42" x2="186.7" y2="125"/>

			<line id="line-GA-cos" style="stroke:blue" x1="95" y1="42" x2="134" y2="42"/>

			<line id="line-OC-cos" style="stroke:blue" x1="95" y1="125" x2="134" y2="125"/>

			<line id="line-CD-versin" style="stroke:green" x1="134" y1="125" x2="186.7" y2="125"/>
			<line id="line-DE-exsec" style="stroke:hotpink" x1="186.7" y1="125" x2="313" y2="125"/>

			<g id="g-sec-lines" style="stroke:darkcyan">
				<g style="stroke-dasharray:3,4">

					<line id="line-O-yneg" x1="95" y1="125" x2="95" y2="165"/>

					<line id="line-E-yneg" x1="313" y1="125" x2="313" y2="165"/>

				</g>
				<line id="line-sec-parallel-OE" x1="107" y1="170" x2="300" y2="170"/>
				<line id="line-sec-ortho-O" x1="95" y1="165" x2="95" y2="175"/>
				<line id="line-sec-ortho-E" x1="313" y1="165" x2="313" y2="175"/>

				<g id="g-sec-arrowheads" style="stroke:none;fill:darkcyan">

					<polyline id="polyline-sec-arrowhead-O" points="107,165 107,175 95,170"/>

					<polyline id="polyline-sec-arrowhead-E" points="300,165 300,175 313,170"/>
				</g>

			</g>

			<line id="line-CA-sin" style="stroke:red" x1="134" y1="125" x2="134" y2="42"/>
			<line id="line-OG-sin" style="stroke:red" x1="95" y1="125" x2="95" y2="42"/>
			<line id="line-HG-cvs" style="stroke:cyan" x1="95" y1="42" x2="95" y2="33.3"/>
			<line id="line-HF-excsc" style="stroke:darkgreen" x1="95" y1="33.3" x2="95" y2="24"/>
			<g id="g-csc-lines" style="stroke:pink">
				<g style="stroke-dasharray:3,4">
					<line id="line-O-xneg" x1="95" y1="125" x2="55" y2="125"/>

					<line id="line-F-xneg" x1="95" y1="24" x2="55" y2="24"/>
				</g>
				<line id="line-csc-parallel-OF" x1="50" y1="113" x2="50" y2="36"/>
				<line id="line-csc-ortho-O" x1="45" y1="125" x2="55" y2="125"/>

				<line id="line-csc-ortho-F" x1="45" y1="24" x2="55" y2="24"/>
				<g id="g-csc-arrowheads" style="stroke:none;fill:pink">

					<polyline id="polyline-csc-arrowhead-O" points="45,113 55,113 50,125"/>
					<polyline id="polyline-csc-arrowhead-E" points="45,36 55,36 50,24"/>

				</g>
			</g>

			<line id="line-FA-cot" style="stroke:darkorange" x1="95" y1="24" x2="134" y2="42"/>

			<line id="line-AE-tan" style="stroke:tan" x1="134" y1="42" x2="313" y2="125"/>
		</g>
		<g style="font-size:14">
			<switch style="fill:red"><text x="136" y="88" style="fill:red" id="trsvg35-pt-br" systemLanguage="pt-br"><tspan id="trsvg12-pt-br">sen</tspan></text><text x="136" y="88" style="fill:red" id="trsvg35"><tspan id="trsvg12">sin</tspan></text></switch>
			<switch style="fill:cyan"><text x="69" y="45" style="fill:cyan" id="trsvg36-pt-br" systemLanguage="pt-br"><tspan id="trsvg13-pt-br">scv</tspan></text><text x="69" y="45" style="fill:cyan" id="trsvg36"><tspan id="trsvg13">cvs</tspan></text></switch>
			<switch style="fill:darkgreen"><text x="53" y="33" style="fill:darkgreen" id="trsvg37-pt-br" systemLanguage="pt-br"><tspan id="trsvg14-pt-br">cscex</tspan></text><text x="53" y="33" style="fill:darkgreen" id="trsvg37"><tspan id="trsvg14">excsc</tspan></text></switch>
			<switch style="fill:pink"><text x="24" y="76" style="fill:pink" id="trsvg38-pt-br" systemLanguage="pt-br"><tspan id="trsvg15-pt-br">csc</tspan></text><text x="24" y="76" style="fill:pink" id="trsvg38"><tspan id="trsvg15">csc</tspan></text></switch>
			<switch style="fill:blue"><text x="106" y="138" style="fill:blue" id="trsvg39-pt-br" systemLanguage="pt-br"><tspan id="trsvg16-pt-br">cos</tspan></text><text x="106" y="138" style="fill:blue" id="trsvg39"><tspan id="trsvg16">cos</tspan></text></switch>
			<switch style="fill:green"><text x="139" y="138" style="fill:green" id="trsvg40-pt-br" systemLanguage="pt-br"><tspan id="trsvg17-pt-br">senver</tspan></text><text x="139" y="138" style="fill:green" id="trsvg40"><tspan id="trsvg17">versin</tspan></text></switch>
			<switch style="fill:hotpink"><text x="231" y="138" style="fill:hotpink" id="trsvg41-pt-br" systemLanguage="pt-br"><tspan id="trsvg18-pt-br">secex</tspan></text><text x="231" y="138" style="fill:hotpink" id="trsvg41"><tspan id="trsvg18">exsec</tspan></text></switch>
			<switch style="fill:darkcyan"><text x="191" y="183" style="fill:darkcyan" id="trsvg42-pt-br" systemLanguage="pt-br"><tspan id="trsvg19-pt-br">sec</tspan></text><text x="191" y="183" style="fill:darkcyan" id="trsvg42"><tspan id="trsvg19">sec</tspan></text></switch>
			<g id="g-crd" transform="rotate(56)">
				<switch style="fill:silver"><text x="145" y="-88" style="fill:silver" id="trsvg43-pt-br" systemLanguage="pt-br"><tspan id="trsvg20-pt-br">crd</tspan></text><text x="145" y="-88" style="fill:silver" id="trsvg43"><tspan id="trsvg20">crd</tspan></text></switch>
			</g>
			<switch style="fill:black"><text x="185" y="100" style="fill:black" id="trsvg44-pt-br" systemLanguage="pt-br"><tspan id="trsvg21-pt-br">arc</tspan></text><text x="185" y="100" style="fill:black" id="trsvg44"><tspan id="trsvg21">arc</tspan></text></switch>
			<g id="g-tan" transform="rotate(25)">
				<switch style="fill:darkorange"><text x="105" y="-22" style="fill:darkorange" id="trsvg45-pt-br" systemLanguage="pt-br"><tspan id="trsvg22-pt-br">cot</tspan></text><text x="105" y="-22" style="fill:darkorange" id="trsvg45"><tspan id="trsvg22">cot</tspan></text></switch>
				<switch style="fill:tan"><text x="215" y="-22" style="fill:tan" id="trsvg46-pt-br" systemLanguage="pt-br"><tspan id="trsvg23-pt-br">tan</tspan></text><text x="215" y="-22" style="fill:tan" id="trsvg46"><tspan id="trsvg23">tan</tspan></text></switch>

			</g>
		</g>
	</g>

</svg>
