<?xml version="1.0" encoding="UTF-8"?>
<!DOCTYPE svg PUBLIC "-//W3C//DTD SVG 1.1//EN" "http://www.w3.org/Graphics/SVG/1.1/DTD/svg11.dtd">
<!-- Creator: Corel DESIGNER -->
<svg xmlns="http://www.w3.org/2000/svg" xml:space="preserve" width="700px" height="273px" style="shape-rendering:geometricPrecision; text-rendering:geometricPrecision; image-rendering:optimizeQuality; fill-rule:evenodd; clip-rule:evenodd" viewBox="0 0 700 272.632" xmlns:xlink="http://www.w3.org/1999/xlink" xmlns:svg="http://www.w3.org/2000/svg" version="1.0">
 <defs>
  <style type="text/css">
   <![CDATA[
    .str1 {stroke:#1F1A17;stroke-width:0.818765;stroke-linecap:round;stroke-linejoin:round}
    .str0 {stroke:#1F1A17;stroke-width:0.818765;stroke-linecap:round;stroke-linejoin:round;stroke-dasharray:3.070137 3.070137}
    .fil1 {fill:none}
    .fil4 {fill:#1F1A17}
    .fil2 {fill:#DEDEDD}
    .fil0 {fill:white}
    .fil7 {fill:#919BC6}
    .fil6 {fill:#E5A42D}
    .fil5 {fill:#E3D600}
    .fil3 {fill:#1F1A17;fill-rule:nonzero}
    .fnt0 {font-weight:normal;font-size:14.7368;font-family:'DejaVu Sans'}
   ]]>
  </style>
 </defs>
 <g id="Layer_x0020_1">
  <metadata id="CorelCorpID_0Corel-Layer"/>
  <rect class="fil0" x="-0.000116038" y="-0.000116038" width="700" height="272.632"/>
  <g id="_37381224">
   <polygon id="_38538712" class="fil1 str0" points="551.301,116.979 585.292,69.8693 669.373,104.456 "/>
   <rect id="_37083024" class="fil2 str1" x="71.2088" y="56.0677" width="160.497" height="160.497"/>
   <g>
    <path id="_37394648" class="fil3" d="M151.048 246.747l0.818765 0 -0.000580191 0.0211189 -0.0015085 0.0207708 -0.00266888 0.0204227 -0.00359718 0.0201906 -0.00452549 0.0198425 -0.00556983 0.0193784 -0.0063821 0.0190303 -0.0073104 0.0185661 -0.00823871 0.0181019 -0.00905097 0.0176378 -0.00986324 0.0171736 -0.0106755 0.0165935 -0.0113717 0.0161293 -0.012184 0.0154331 -0.0128802 0.0148529 -0.0135765 0.0142727 -0.0141567 0.0134604 -0.0148529 0.0128802 -0.0154331 0.012184 -0.0161293 0.0113717 -0.0165935 0.0106755 -0.0171736 0.00986324 -0.0176378 0.00905097 -0.0181019 0.00823871 -0.0185661 0.0073104 -0.0190303 0.0063821 -0.0193784 0.00556983 -0.0198425 0.00452549 -0.0201906 0.00359718 -0.0204227 0.00266888 -0.0207708 0.0015085 -0.0211189 0.000580191 -0.0211189 -0.000580191 -0.0207708 -0.0015085 -0.0204227 -0.00266888 -0.0201906 -0.00359718 -0.0198425 -0.00452549 -0.0193784 -0.00556983 -0.0190303 -0.0063821 -0.0185661 -0.0073104 -0.0181019 -0.00823871 -0.0176378 -0.00905097 -0.0171736 -0.00986324 -0.0165935 -0.0106755 -0.0161293 -0.0113717 -0.0154331 -0.012184 -0.0148529 -0.0128802 -0.0142727 -0.0134604 -0.0134604 -0.0142727 -0.0128802 -0.0148529 -0.012184 -0.0154331 -0.0113717 -0.0161293 -0.0106755 -0.0165935 -0.00986324 -0.0171736 -0.00905097 -0.0176378 -0.00823871 -0.0181019 -0.0073104 -0.0185661 -0.0063821 -0.0190303 -0.00556983 -0.0193784 -0.00452549 -0.0198425 -0.00359718 -0.0201906 -0.00266888 -0.0204227 -0.0015085 -0.0207708 -0.000580191 -0.0211189zm0.818765 -217.982l0 217.982 -0.818765 0 0 -217.982 0.818765 0zm-0.409383 -2.88041l1.73825 4.98186 -0.108612 -0.0646332 -0.108612 -0.0604559 -0.108612 -0.0562785 -0.108728 -0.0521011 -0.108612 -0.0480398 -0.108612 -0.0437464 -0.108728 -0.039569 -0.108612 -0.0355077 -0.108612 -0.0312143 -0.108612 -0.0271529 -0.108728 -0.0229755 -0.108612 -0.0186821 -0.108612 -0.0146208 -0.108612 -0.0104434 -0.108728 -0.00626606 -0.108612 -0.00208869 -0.108612 0.00208869 -0.108728 0.00626606 -0.108612 0.0104434 -0.108612 0.0146208 -0.108612 0.0186821 -0.108728 0.0229755 -0.108612 0.0271529 -0.108612 0.0312143 -0.108612 0.0355077 -0.108728 0.039569 -0.108612 0.0437464 -0.108612 0.0480398 -0.108728 0.0521011 -0.108612 0.0562785 -0.108612 0.0604559 -0.108612 0.0646332 0 0 1.73825 -4.98186zm0.409383 2.88041l-0.818765 0 0.000580191 -0.0211189 0.0015085 -0.0207708 0.00266888 -0.0204227 0.00359718 -0.0201906 0.00452549 -0.0198425 0.00556983 -0.0193784 0.0063821 -0.0190303 0.0073104 -0.0185661 0.00823871 -0.0181019 0.00905097 -0.0176378 0.00986324 -0.0171736 0.0106755 -0.0165935 0.0113717 -0.0161293 0.012184 -0.0154331 0.0128802 -0.0148529 0.0134604 -0.0142727 0.0142727 -0.0134604 0.0148529 -0.0128802 0.0154331 -0.012184 0.0161293 -0.0113717 0.0165935 -0.0106755 0.0171736 -0.00986324 0.0176378 -0.00905097 0.0181019 -0.00823871 0.0185661 -0.0073104 0.0190303 -0.0063821 0.0193784 -0.00556983 0.0198425 -0.00452549 0.0201906 -0.00359718 0.0204227 -0.00266888 0.0207708 -0.0015085 0.0211189 -0.000580191 0.0211189 0.000580191 0.0207708 0.0015085 0.0204227 0.00266888 0.0201906 0.00359718 0.0198425 0.00452549 0.0193784 0.00556983 0.0190303 0.0063821 0.0185661 0.0073104 0.0181019 0.00823871 0.0176378 0.00905097 0.0171736 0.00986324 0.0165935 0.0106755 0.0161293 0.0113717 0.0154331 0.012184 0.0148529 0.0128802 0.0141567 0.0134604 0.0135765 0.0142727 0.0128802 0.0148529 0.012184 0.0154331 0.0113717 0.0161293 0.0106755 0.0165935 0.00986324 0.0171736 0.00905097 0.0176378 0.00823871 0.0181019 0.0073104 0.0185661 0.0063821 0.0190303 0.00556983 0.0193784 0.00452549 0.0198425 0.00359718 0.0201906 0.00266888 0.0204227 0.0015085 0.0207708 0.000580191 0.0211189z"/>
   </g>
   <text x="149.089" y="19.7288" class="fil4 fnt0">z</text>
   <text x="266.61" y="140.345" class="fil4 fnt0">x</text>
   <g>
    <path class="fil3" d="M41.0256 135.908l0 0.815516 -0.0210029 -0.000580191 -0.0206548 -0.0015085 -0.0204227 -0.00266888 -0.0200746 -0.00348114 -0.0197265 -0.00464153 -0.0193784 -0.00545379 -0.0189142 -0.0063821 -0.0185661 -0.0073104 -0.0179859 -0.00823871 -0.0176378 -0.00893494 -0.0170576 -0.00986324 -0.0164774 -0.0105595 -0.0160133 -0.0113717 -0.0154331 -0.012184 -0.0147368 -0.0127642 -0.0142727 -0.0134604 -0.0134604 -0.0142727 -0.0127642 -0.0147368 -0.012184 -0.0154331 -0.0113717 -0.0160133 -0.0105595 -0.0164774 -0.00986324 -0.0170576 -0.00893494 -0.0176378 -0.00823871 -0.0179859 -0.0073104 -0.0185661 -0.0063821 -0.0189142 -0.00545379 -0.0193784 -0.00464153 -0.0197265 -0.00348114 -0.0200746 -0.00266888 -0.0204227 -0.0015085 -0.0206548 -0.000580191 -0.0210029 0.000580191 -0.0210029 0.0015085 -0.0206548 0.00266888 -0.0204227 0.00348114 -0.0200746 0.00464153 -0.0197265 0.00545379 -0.0193784 0.0063821 -0.0189142 0.0073104 -0.0185661 0.00823871 -0.0179859 0.00893494 -0.0176378 0.00986324 -0.0170576 0.0105595 -0.0164774 0.0113717 -0.0160133 0.012184 -0.0154331 0.0127642 -0.0147368 0.0134604 -0.0142727 0.0142727 -0.0134604 0.0147368 -0.0127642 0.0154331 -0.012184 0.0160133 -0.0113717 0.0164774 -0.0105595 0.0170576 -0.00986324 0.0176378 -0.00893494 0.0179859 -0.00823871 0.0185661 -0.0073104 0.0189142 -0.0063821 0.0193784 -0.00545379 0.0197265 -0.00464153 0.0200746 -0.00348114 0.0204227 -0.00266888 0.0206548 -0.0015085 0.0210029 -0.000580191zm217.994 0.815748l-217.994 -0.000232076 0 -0.815516 217.994 0.000232076 0 0.815516zm2.86893 -0.407758l-4.96214 1.7314 0.0644012 -0.108264 0.0602238 -0.108148 0.0560464 -0.108264 0.0519851 -0.108148 0.0476917 -0.108264 0.0436303 -0.108148 0.039453 -0.108264 0.0353916 -0.108264 0.0310982 -0.108148 0.0270369 -0.108264 0.0228595 -0.108148 0.0186821 -0.108264 0.0145048 -0.108148 0.0103274 -0.108264 0.00626606 -0.108148 0.00208869 -0.108264 -0.00208869 -0.108264 -0.00626606 -0.108148 -0.0103274 -0.108264 -0.0145048 -0.108148 -0.0186821 -0.108264 -0.0228595 -0.108148 -0.0270369 -0.108264 -0.0310982 -0.108264 -0.0353916 -0.108148 -0.039453 -0.108264 -0.0436303 -0.108148 -0.0476917 -0.108264 -0.0519851 -0.108148 -0.0560464 -0.108264 -0.0602238 -0.108148 -0.0644012 -0.108264 0 0 4.96214 1.7314zm-2.86893 0.407758l0 -0.815516 0.0210029 0.000580191 0.0206548 0.0015085 0.0204227 0.00266888 0.0200746 0.00348114 0.0197265 0.00464153 0.0193784 0.00545379 0.0189142 0.0063821 0.0184501 0.0073104 0.0181019 0.00823871 0.0176378 0.00893494 0.0170576 0.00986324 0.0164774 0.0105595 0.0160133 0.0113717 0.0154331 0.012184 0.0147368 0.0127642 0.0141567 0.0134604 0.0135765 0.0142727 0.0127642 0.0147368 0.012184 0.0154331 0.0113717 0.0160133 0.0105595 0.0164774 0.00986324 0.0170576 0.00893494 0.0176378 0.00823871 0.0179859 0.0073104 0.0185661 0.0063821 0.0189142 0.00545379 0.0193784 0.00464153 0.0197265 0.00348114 0.0200746 0.00266888 0.0204227 0.0015085 0.0206548 0.000580191 0.0210029 -0.000580191 0.0210029 -0.0015085 0.0206548 -0.00266888 0.0204227 -0.00348114 0.0200746 -0.00464153 0.0197265 -0.00545379 0.0193784 -0.0063821 0.0189142 -0.0073104 0.0185661 -0.00823871 0.0179859 -0.00893494 0.0176378 -0.00986324 0.0170576 -0.0105595 0.0164774 -0.0113717 0.0160133 -0.012184 0.0154331 -0.0127642 0.0147368 -0.0135765 0.0142727 -0.0141567 0.0134604 -0.0147368 0.0127642 -0.0154331 0.012184 -0.0160133 0.0113717 -0.0164774 0.0105595 -0.0170576 0.00986324 -0.0176378 0.00893494 -0.0181019 0.00823871 -0.0184501 0.0073104 -0.0189142 0.0063821 -0.0193784 0.00545379 -0.0197265 0.00464153 -0.0200746 0.00348114 -0.0204227 0.00266888 -0.0206548 0.0015085 -0.0210029 0.000580191z"/>
   </g>
   <polygon class="fil5 str1" points="138.354,153.354 212.298,182.574 162.803,208.216 "/>
   <polygon class="fil6 str1" points="174.134,116.979 208.124,69.8695 292.205,104.456 "/>
   <polygon class="fil7 str1" points="37.4167,160.51 22.1647,210.005 50.4899,205.234 "/>
   <rect class="fil2 str1" x="448.377" y="56.0675" width="160.497" height="160.497"/>
   <g>
    <path class="fil3" d="M528.215 246.747l0.818765 0 -0.000580191 0.0211189 -0.0015085 0.0207708 -0.00266888 0.0204227 -0.00359718 0.0201906 -0.00452549 0.0198425 -0.00556983 0.0193784 -0.0063821 0.0190303 -0.0073104 0.0185661 -0.00823871 0.0181019 -0.00905097 0.0176378 -0.00986324 0.0171736 -0.0106755 0.0165935 -0.0113717 0.0161293 -0.012184 0.0154331 -0.0128802 0.0148529 -0.0134604 0.0142727 -0.0142727 0.0134604 -0.0148529 0.0128802 -0.0154331 0.012184 -0.0161293 0.0113717 -0.0165935 0.0106755 -0.0171736 0.00986324 -0.0176378 0.00905097 -0.0181019 0.00823871 -0.0185661 0.0073104 -0.0190303 0.0063821 -0.0193784 0.00556983 -0.0198425 0.00452549 -0.0201906 0.00359718 -0.0204227 0.00266888 -0.0207708 0.0015085 -0.0211189 0.000580191 -0.0211189 -0.000580191 -0.0207708 -0.0015085 -0.0204227 -0.00266888 -0.0201906 -0.00359718 -0.0198425 -0.00452549 -0.0193784 -0.00556983 -0.0190303 -0.0063821 -0.0185661 -0.0073104 -0.0181019 -0.00823871 -0.0176378 -0.00905097 -0.0171736 -0.00986324 -0.0165935 -0.0106755 -0.0161293 -0.0113717 -0.0154331 -0.012184 -0.0148529 -0.0128802 -0.0141567 -0.0134604 -0.0135765 -0.0142727 -0.0128802 -0.0148529 -0.012184 -0.0154331 -0.0113717 -0.0161293 -0.0106755 -0.0165935 -0.00986324 -0.0171736 -0.00905097 -0.0176378 -0.00823871 -0.0181019 -0.0073104 -0.0185661 -0.0063821 -0.0190303 -0.00556983 -0.0193784 -0.00452549 -0.0198425 -0.00359718 -0.0201906 -0.00266888 -0.0204227 -0.0015085 -0.0207708 -0.000580191 -0.0211189zm0.818765 -217.982l0 217.982 -0.818765 0 0 -217.982 0.818765 0zm-0.409383 -2.88041l1.73825 4.98186 -0.108612 -0.0646332 -0.108612 -0.0604559 -0.108612 -0.0562785 -0.108728 -0.0521011 -0.108612 -0.0480398 -0.108612 -0.0437464 -0.108728 -0.039569 -0.108612 -0.0355077 -0.108612 -0.0312143 -0.108612 -0.0271529 -0.108728 -0.0229755 -0.108612 -0.0186821 -0.108612 -0.0146208 -0.108612 -0.0104434 -0.108728 -0.00626606 -0.108612 -0.00208869 -0.108612 0.00208869 -0.108728 0.00626606 -0.108612 0.0104434 -0.108612 0.0146208 -0.108612 0.0186821 -0.108728 0.0229755 -0.108612 0.0271529 -0.108612 0.0312143 -0.108612 0.0355077 -0.108728 0.039569 -0.108612 0.0437464 -0.108612 0.0480398 -0.108728 0.0521011 -0.108612 0.0562785 -0.108612 0.0604559 -0.108612 0.0646332 0 0 1.73825 -4.98186zm0.409383 2.88041l-0.818765 0 0.000580191 -0.0211189 0.0015085 -0.0207708 0.00266888 -0.0204227 0.00359718 -0.0201906 0.00452549 -0.0198425 0.00556983 -0.0193784 0.0063821 -0.0190303 0.0073104 -0.0185661 0.00823871 -0.0181019 0.00905097 -0.0176378 0.00986324 -0.0171736 0.0106755 -0.0165935 0.0113717 -0.0161293 0.012184 -0.0154331 0.0128802 -0.0148529 0.0135765 -0.0142727 0.0141567 -0.0134604 0.0148529 -0.0128802 0.0154331 -0.012184 0.0161293 -0.0113717 0.0165935 -0.0106755 0.0171736 -0.00986324 0.0176378 -0.00905097 0.0181019 -0.00823871 0.0185661 -0.0073104 0.0190303 -0.0063821 0.0193784 -0.00556983 0.0198425 -0.00452549 0.0201906 -0.00359718 0.0204227 -0.00266888 0.0207708 -0.0015085 0.0211189 -0.000580191 0.0211189 0.000580191 0.0207708 0.0015085 0.0204227 0.00266888 0.0201906 0.00359718 0.0198425 0.00452549 0.0193784 0.00556983 0.0190303 0.0063821 0.0185661 0.0073104 0.0181019 0.00823871 0.0176378 0.00905097 0.0171736 0.00986324 0.0165935 0.0106755 0.0161293 0.0113717 0.0154331 0.012184 0.0148529 0.0128802 0.0142727 0.0134604 0.0134604 0.0142727 0.0128802 0.0148529 0.012184 0.0154331 0.0113717 0.0161293 0.0106755 0.0165935 0.00986324 0.0171736 0.00905097 0.0176378 0.00823871 0.0181019 0.0073104 0.0185661 0.0063821 0.0190303 0.00556983 0.0193784 0.00452549 0.0198425 0.00359718 0.0201906 0.00266888 0.0204227 0.0015085 0.0207708 0.000580191 0.0211189z"/>
   </g>
   <text x="526.257" y="19.7287" class="fil4 fnt0">z</text>
   <text x="643.778" y="140.345" class="fil4 fnt0">x</text>
   <g>
    <path class="fil3" d="M418.194 135.906l0 0.818765 -0.0211189 -0.000580191 -0.0207708 -0.0015085 -0.0204227 -0.00266888 -0.0201906 -0.00359718 -0.0198425 -0.00452549 -0.0193784 -0.00556983 -0.0190303 -0.0063821 -0.0185661 -0.0073104 -0.0181019 -0.00823871 -0.0176378 -0.00905097 -0.0171736 -0.00986324 -0.0165935 -0.0106755 -0.0161293 -0.0113717 -0.0154331 -0.012184 -0.0148529 -0.0128802 -0.0141567 -0.0134604 -0.0135765 -0.0142727 -0.0128802 -0.0148529 -0.012184 -0.0154331 -0.0113717 -0.0161293 -0.0106755 -0.0165935 -0.00986324 -0.0171736 -0.00905097 -0.0176378 -0.00823871 -0.0181019 -0.0073104 -0.0185661 -0.0063821 -0.0190303 -0.00556983 -0.0193784 -0.00452549 -0.0198425 -0.00359718 -0.0201906 -0.00266888 -0.0204227 -0.0015085 -0.0207708 -0.000580191 -0.0211189 0.000580191 -0.0211189 0.0015085 -0.0207708 0.00266888 -0.0204227 0.00359718 -0.0201906 0.00452549 -0.0198425 0.00556983 -0.0193784 0.0063821 -0.0190303 0.0073104 -0.0185661 0.00823871 -0.0181019 0.00905097 -0.0176378 0.00986324 -0.0171736 0.0106755 -0.0165935 0.0113717 -0.0161293 0.012184 -0.0154331 0.0128802 -0.0148529 0.0135765 -0.0142727 0.0141567 -0.0134604 0.0148529 -0.0128802 0.0154331 -0.012184 0.0161293 -0.0113717 0.0165935 -0.0106755 0.0171736 -0.00986324 0.0176378 -0.00905097 0.0181019 -0.00823871 0.0185661 -0.0073104 0.0190303 -0.0063821 0.0193784 -0.00556983 0.0198425 -0.00452549 0.0201906 -0.00359718 0.0204227 -0.00266888 0.0207708 -0.0015085 0.0211189 -0.000580191zm217.982 0.818765l-217.982 0 0 -0.818765 217.982 0 0 0.818765zm2.88041 -0.409383l-4.98186 1.73825 0.0646332 -0.108612 0.0604559 -0.108612 0.0562785 -0.108612 0.0521011 -0.108728 0.0480398 -0.108612 0.0437464 -0.108612 0.039569 -0.108728 0.0355077 -0.108612 0.0312143 -0.108612 0.0271529 -0.108612 0.0229755 -0.108728 0.0186821 -0.108612 0.0146208 -0.108612 0.0104434 -0.108612 0.00626606 -0.108728 0.00208869 -0.108612 -0.00208869 -0.108612 -0.00626606 -0.108728 -0.0104434 -0.108612 -0.0146208 -0.108612 -0.0186821 -0.108612 -0.0229755 -0.108728 -0.0271529 -0.108612 -0.0312143 -0.108612 -0.0355077 -0.108612 -0.039569 -0.108728 -0.0437464 -0.108612 -0.0480398 -0.108612 -0.0521011 -0.108728 -0.0562785 -0.108612 -0.0604559 -0.108612 -0.0646332 -0.108612 0 0 4.98186 1.73825zm-2.88041 0.409383l0 -0.818765 0.0211189 0.000580191 0.0207708 0.0015085 0.0204227 0.00266888 0.0201906 0.00359718 0.0198425 0.00452549 0.0193784 0.00556983 0.0190303 0.0063821 0.0185661 0.0073104 0.0181019 0.00823871 0.0176378 0.00905097 0.0171736 0.00986324 0.0165935 0.0106755 0.0161293 0.0113717 0.0154331 0.012184 0.0148529 0.0128802 0.0142727 0.0134604 0.0134604 0.0142727 0.0128802 0.0148529 0.012184 0.0154331 0.0113717 0.0161293 0.0106755 0.0165935 0.00986324 0.0171736 0.00905097 0.0176378 0.00823871 0.0181019 0.0073104 0.0185661 0.0063821 0.0190303 0.00556983 0.0193784 0.00452549 0.0198425 0.00359718 0.0201906 0.00266888 0.0204227 0.0015085 0.0207708 0.000580191 0.0211189 -0.000580191 0.0211189 -0.0015085 0.0207708 -0.00266888 0.0204227 -0.00359718 0.0201906 -0.00452549 0.0198425 -0.00556983 0.0193784 -0.0063821 0.0190303 -0.0073104 0.0185661 -0.00823871 0.0181019 -0.00905097 0.0176378 -0.00986324 0.0171736 -0.0106755 0.0165935 -0.0113717 0.0161293 -0.012184 0.0154331 -0.0128802 0.0148529 -0.0134604 0.0142727 -0.0142727 0.0134604 -0.0148529 0.0128802 -0.0154331 0.012184 -0.0161293 0.0113717 -0.0165935 0.0106755 -0.0171736 0.00986324 -0.0176378 0.00905097 -0.0181019 0.00823871 -0.0185661 0.0073104 -0.0190303 0.0063821 -0.0193784 0.00556983 -0.0198425 0.00452549 -0.0201906 0.00359718 -0.0204227 0.00266888 -0.0207708 0.0015085 -0.0211189 0.000580191z"/>
   </g>
   <polygon class="fil5 str1" points="515.522,153.354 589.466,182.574 539.971,208.216 "/>
   <polygon class="fil6 str1" points="551.301,116.979 585.292,69.8693 608.873,79.5695 608.873,110.873 "/>
   <circle class="fil4" cx="608.873" cy="79.5695" r="1.76529"/>
   <circle class="fil4" cx="608.873" cy="110.873" r="1.76529"/>
   <polygon class="fil1 str0" points="414.585,160.51 399.332,210.005 427.658,205.234 "/>
   <g>
    <path class="fil3" d="M317.888 135.088l0 2.4563 -0.0632408 -0.00162453 -0.0623125 -0.00475756 -0.0615002 -0.00777455 -0.0604559 -0.0107915 -0.0594115 -0.0136925 -0.0582511 -0.0165935 -0.0570908 -0.0192623 -0.0558143 -0.0220472 -0.0543058 -0.0246001 -0.0530294 -0.0271529 -0.0514049 -0.0294737 -0.0497804 -0.0320265 -0.0481558 -0.0342312 -0.0464153 -0.036436 -0.0445586 -0.0386407 -0.042702 -0.0406133 -0.0406133 -0.042702 -0.0386407 -0.0445586 -0.036436 -0.0464153 -0.0342312 -0.0481558 -0.0320265 -0.0497804 -0.0294737 -0.0514049 -0.0271529 -0.0530294 -0.0246001 -0.0543058 -0.0220472 -0.0558143 -0.0192623 -0.0570908 -0.0165935 -0.0582511 -0.0136925 -0.0594115 -0.0107915 -0.0604559 -0.00777455 -0.0615002 -0.00475756 -0.0623125 -0.00162453 -0.0632408 0.00162453 -0.0632408 0.00475756 -0.0623125 0.00777455 -0.0615002 0.0107915 -0.0604559 0.0136925 -0.0594115 0.0165935 -0.0582511 0.0192623 -0.0570908 0.0220472 -0.0558143 0.0246001 -0.0543058 0.0271529 -0.0530294 0.0294737 -0.0514049 0.0320265 -0.0497804 0.0342312 -0.0481558 0.036436 -0.0464153 0.0386407 -0.0445586 0.0406133 -0.042702 0.042702 -0.0406133 0.0445586 -0.0386407 0.0464153 -0.036436 0.0481558 -0.0342312 0.0497804 -0.0320265 0.0514049 -0.0294737 0.0530294 -0.0271529 0.0543058 -0.0246001 0.0558143 -0.0220472 0.0570908 -0.0192623 0.0582511 -0.0165935 0.0594115 -0.0136925 0.0604559 -0.0107915 0.0615002 -0.00777455 0.0623125 -0.00475756 0.0632408 -0.00162453zm55.5826 2.4563l-55.5826 0 0 -2.4563 55.5826 0 0 2.4563zm8.64124 -1.22815l-14.9456 5.21487 0.1939 -0.325951 0.181368 -0.325835 0.168952 -0.325951 0.156303 -0.325951 0.143887 -0.325951 0.131355 -0.325951 0.118823 -0.325951 0.106407 -0.325835 0.0937588 -0.325951 0.0813427 -0.325951 0.0688106 -0.325951 0.0562785 -0.325951 0.0438624 -0.325835 0.0312143 -0.325951 0.0187982 -0.325951 0.00626606 -0.325951 -0.00626606 -0.325951 -0.0187982 -0.325951 -0.0312143 -0.325951 -0.0438624 -0.325835 -0.0562785 -0.325951 -0.0688106 -0.325951 -0.0813427 -0.325951 -0.0937588 -0.325951 -0.106407 -0.325835 -0.118823 -0.325951 -0.131355 -0.325951 -0.143887 -0.325951 -0.156303 -0.325951 -0.168952 -0.325951 -0.181368 -0.325835 -0.1939 -0.325951 0 0 14.9456 5.21487zm-8.64124 1.22815l0 -2.4563 0.0632408 0.00162453 0.0623125 0.00475756 0.0615002 0.00777455 0.0604559 0.0107915 0.0594115 0.0136925 0.0582511 0.0165935 0.0570908 0.0192623 0.0558143 0.0220472 0.0543058 0.0246001 0.0530294 0.0271529 0.0514049 0.0294737 0.0497804 0.0320265 0.0481558 0.0342312 0.0464153 0.036436 0.0445586 0.0386407 0.042702 0.0406133 0.0406133 0.042702 0.0386407 0.0445586 0.036436 0.0464153 0.0342312 0.0481558 0.0320265 0.0497804 0.0294737 0.0514049 0.0271529 0.0530294 0.0246001 0.0543058 0.0220472 0.0558143 0.0192623 0.0570908 0.0165935 0.0582511 0.0136925 0.0594115 0.0107915 0.0604559 0.00777455 0.0615002 0.00475756 0.0623125 0.00162453 0.0632408 -0.00162453 0.0632408 -0.00475756 0.0623125 -0.00777455 0.0615002 -0.0107915 0.0604559 -0.0136925 0.0594115 -0.0165935 0.0582511 -0.0192623 0.0570908 -0.0220472 0.0558143 -0.0246001 0.0543058 -0.0271529 0.0530294 -0.0294737 0.0514049 -0.0320265 0.0497804 -0.0342312 0.0481558 -0.036436 0.0464153 -0.0386407 0.0445586 -0.0406133 0.042702 -0.042702 0.0406133 -0.0445586 0.0386407 -0.0464153 0.036436 -0.0481558 0.0342312 -0.0497804 0.0320265 -0.0514049 0.0294737 -0.0530294 0.0271529 -0.0543058 0.0246001 -0.0558143 0.0220472 -0.0570908 0.0192623 -0.0582511 0.0165935 -0.0594115 0.0136925 -0.0604559 0.0107915 -0.0615002 0.00777455 -0.0623125 0.00475756 -0.0632408 0.00162453z"/>
   </g>
  </g>
 </g>
</svg>