<svg version="1.1" xmlns="http://www.w3.org/2000/svg" xmlns:xlink="http://www.w3.org/1999/xlink" width="800" height="800"><defs/><g transform="scale(2,2)"><g id="background-bf53671b"><rect fill="white" stroke="none" x="0" y="0" width="400" height="400" class="dcg-svg-background"/></g><g id="graphpaper-bf53671b"><g id="grid-bf53671b"><g><path fill="none" stroke="rgb(0,0,0)" class="dcg-svg-minor-gridline" paint-order="fill stroke markers" d=" M 20.5 0 L 20.5 400" stroke-opacity="0.2" stroke-miterlimit="10" stroke-dasharray=""/><path fill="none" stroke="rgb(0,0,0)" class="dcg-svg-minor-gridline" paint-order="fill stroke markers" d=" M 51.5 0 L 51.5 400" stroke-opacity="0.2" stroke-miterlimit="10" stroke-dasharray=""/><path fill="none" stroke="rgb(0,0,0)" class="dcg-svg-minor-gridline" paint-order="fill stroke markers" d=" M 82.5 0 L 82.5 400" stroke-opacity="0.2" stroke-miterlimit="10" stroke-dasharray=""/><path fill="none" stroke="rgb(0,0,0)" class="dcg-svg-minor-gridline" paint-order="fill stroke markers" d=" M 113.5 0 L 113.5 400" stroke-opacity="0.2" stroke-miterlimit="10" stroke-dasharray=""/><path fill="none" stroke="rgb(0,0,0)" class="dcg-svg-minor-gridline" paint-order="fill stroke markers" d=" M 144.5 0 L 144.5 400" stroke-opacity="0.2" stroke-miterlimit="10" stroke-dasharray=""/><path fill="none" stroke="rgb(0,0,0)" class="dcg-svg-minor-gridline" paint-order="fill stroke markers" d=" M 175.5 0 L 175.5 400" stroke-opacity="0.2" stroke-miterlimit="10" stroke-dasharray=""/><path fill="none" stroke="rgb(0,0,0)" class="dcg-svg-minor-gridline" paint-order="fill stroke markers" d=" M 237.5 0 L 237.5 400" stroke-opacity="0.2" stroke-miterlimit="10" stroke-dasharray=""/><path fill="none" stroke="rgb(0,0,0)" class="dcg-svg-minor-gridline" paint-order="fill stroke markers" d=" M 268.5 0 L 268.5 400" stroke-opacity="0.2" stroke-miterlimit="10" stroke-dasharray=""/><path fill="none" stroke="rgb(0,0,0)" class="dcg-svg-minor-gridline" paint-order="fill stroke markers" d=" M 299.5 0 L 299.5 400" stroke-opacity="0.2" stroke-miterlimit="10" stroke-dasharray=""/><path fill="none" stroke="rgb(0,0,0)" class="dcg-svg-minor-gridline" paint-order="fill stroke markers" d=" M 330.5 0 L 330.5 400" stroke-opacity="0.2" stroke-miterlimit="10" stroke-dasharray=""/><path fill="none" stroke="rgb(0,0,0)" class="dcg-svg-minor-gridline" paint-order="fill stroke markers" d=" M 361.5 0 L 361.5 400" stroke-opacity="0.2" stroke-miterlimit="10" stroke-dasharray=""/><path fill="none" stroke="rgb(0,0,0)" class="dcg-svg-minor-gridline" paint-order="fill stroke markers" d=" M 392.5 0 L 392.5 400" stroke-opacity="0.2" stroke-miterlimit="10" stroke-dasharray=""/><path fill="none" stroke="rgb(0,0,0)" class="dcg-svg-minor-gridline" paint-order="fill stroke markers" d=" M 0 399.5 L 400 399.5" stroke-opacity="0.2" stroke-miterlimit="10" stroke-dasharray=""/><path fill="none" stroke="rgb(0,0,0)" class="dcg-svg-minor-gridline" paint-order="fill stroke markers" d=" M 0 387.5 L 400 387.5" stroke-opacity="0.2" stroke-miterlimit="10" stroke-dasharray=""/><path fill="none" stroke="rgb(0,0,0)" class="dcg-svg-minor-gridline" paint-order="fill stroke markers" d=" M 0 375.5 L 400 375.5" stroke-opacity="0.2" stroke-miterlimit="10" stroke-dasharray=""/><path fill="none" stroke="rgb(0,0,0)" class="dcg-svg-minor-gridline" paint-order="fill stroke markers" d=" M 0 363.5 L 400 363.5" stroke-opacity="0.2" stroke-miterlimit="10" stroke-dasharray=""/><path fill="none" stroke="rgb(0,0,0)" class="dcg-svg-minor-gridline" paint-order="fill stroke markers" d=" M 0 351.5 L 400 351.5" stroke-opacity="0.2" stroke-miterlimit="10" stroke-dasharray=""/><path fill="none" stroke="rgb(0,0,0)" class="dcg-svg-minor-gridline" paint-order="fill stroke markers" d=" M 0 339.5 L 400 339.5" stroke-opacity="0.2" stroke-miterlimit="10" stroke-dasharray=""/><path fill="none" stroke="rgb(0,0,0)" class="dcg-svg-minor-gridline" paint-order="fill stroke markers" d=" M 0 326.5 L 400 326.5" stroke-opacity="0.2" stroke-miterlimit="10" stroke-dasharray=""/><path fill="none" stroke="rgb(0,0,0)" class="dcg-svg-minor-gridline" paint-order="fill stroke markers" d=" M 0 314.5 L 400 314.5" stroke-opacity="0.2" stroke-miterlimit="10" stroke-dasharray=""/><path fill="none" stroke="rgb(0,0,0)" class="dcg-svg-minor-gridline" paint-order="fill stroke markers" d=" M 0 302.5 L 400 302.5" stroke-opacity="0.2" stroke-miterlimit="10" stroke-dasharray=""/><path fill="none" stroke="rgb(0,0,0)" class="dcg-svg-minor-gridline" paint-order="fill stroke markers" d=" M 0 290.5 L 400 290.5" stroke-opacity="0.2" stroke-miterlimit="10" stroke-dasharray=""/><path fill="none" stroke="rgb(0,0,0)" class="dcg-svg-minor-gridline" paint-order="fill stroke markers" d=" M 0 278.5 L 400 278.5" stroke-opacity="0.2" stroke-miterlimit="10" stroke-dasharray=""/><path fill="none" stroke="rgb(0,0,0)" class="dcg-svg-minor-gridline" paint-order="fill stroke markers" d=" M 0 266.5 L 400 266.5" stroke-opacity="0.2" stroke-miterlimit="10" stroke-dasharray=""/><path fill="none" stroke="rgb(0,0,0)" class="dcg-svg-minor-gridline" paint-order="fill stroke markers" d=" M 0 241.5 L 400 241.5" stroke-opacity="0.2" stroke-miterlimit="10" stroke-dasharray=""/><path fill="none" stroke="rgb(0,0,0)" class="dcg-svg-minor-gridline" paint-order="fill stroke markers" d=" M 0 229.5 L 400 229.5" stroke-opacity="0.2" stroke-miterlimit="10" stroke-dasharray=""/><path fill="none" stroke="rgb(0,0,0)" class="dcg-svg-minor-gridline" paint-order="fill stroke markers" d=" M 0 217.5 L 400 217.5" stroke-opacity="0.2" stroke-miterlimit="10" stroke-dasharray=""/><path fill="none" stroke="rgb(0,0,0)" class="dcg-svg-minor-gridline" paint-order="fill stroke markers" d=" M 0 205.5 L 400 205.5" stroke-opacity="0.2" stroke-miterlimit="10" stroke-dasharray=""/><path fill="none" stroke="rgb(0,0,0)" class="dcg-svg-minor-gridline" paint-order="fill stroke markers" d=" M 0 193.5 L 400 193.5" stroke-opacity="0.2" stroke-miterlimit="10" stroke-dasharray=""/><path fill="none" stroke="rgb(0,0,0)" class="dcg-svg-minor-gridline" paint-order="fill stroke markers" d=" M 0 181.5 L 400 181.5" stroke-opacity="0.2" stroke-miterlimit="10" stroke-dasharray=""/><path fill="none" stroke="rgb(0,0,0)" class="dcg-svg-minor-gridline" paint-order="fill stroke markers" d=" M 0 168.5 L 400 168.5" stroke-opacity="0.2" stroke-miterlimit="10" stroke-dasharray=""/><path fill="none" stroke="rgb(0,0,0)" class="dcg-svg-minor-gridline" paint-order="fill stroke markers" d=" M 0 156.5 L 400 156.5" stroke-opacity="0.2" stroke-miterlimit="10" stroke-dasharray=""/><path fill="none" stroke="rgb(0,0,0)" class="dcg-svg-minor-gridline" paint-order="fill stroke markers" d=" M 0 144.5 L 400 144.5" stroke-opacity="0.2" stroke-miterlimit="10" stroke-dasharray=""/><path fill="none" stroke="rgb(0,0,0)" class="dcg-svg-minor-gridline" paint-order="fill stroke markers" d=" M 0 132.5 L 400 132.5" stroke-opacity="0.2" stroke-miterlimit="10" stroke-dasharray=""/><path fill="none" stroke="rgb(0,0,0)" class="dcg-svg-minor-gridline" paint-order="fill stroke markers" d=" M 0 120.5 L 400 120.5" stroke-opacity="0.2" stroke-miterlimit="10" stroke-dasharray=""/><path fill="none" stroke="rgb(0,0,0)" class="dcg-svg-minor-gridline" paint-order="fill stroke markers" d=" M 0 108.5 L 400 108.5" stroke-opacity="0.2" stroke-miterlimit="10" stroke-dasharray=""/><path fill="none" stroke="rgb(0,0,0)" class="dcg-svg-minor-gridline" paint-order="fill stroke markers" d=" M 0 95.5 L 400 95.5" stroke-opacity="0.2" stroke-miterlimit="10" stroke-dasharray=""/><path fill="none" stroke="rgb(0,0,0)" class="dcg-svg-minor-gridline" paint-order="fill stroke markers" d=" M 0 83.5 L 400 83.5" stroke-opacity="0.2" stroke-miterlimit="10" stroke-dasharray=""/><path fill="none" stroke="rgb(0,0,0)" class="dcg-svg-minor-gridline" paint-order="fill stroke markers" d=" M 0 71.5 L 400 71.5" stroke-opacity="0.2" stroke-miterlimit="10" stroke-dasharray=""/><path fill="none" stroke="rgb(0,0,0)" class="dcg-svg-minor-gridline" paint-order="fill stroke markers" d=" M 0 59.5 L 400 59.5" stroke-opacity="0.2" stroke-miterlimit="10" stroke-dasharray=""/><path fill="none" stroke="rgb(0,0,0)" class="dcg-svg-minor-gridline" paint-order="fill stroke markers" d=" M 0 47.5 L 400 47.5" stroke-opacity="0.2" stroke-miterlimit="10" stroke-dasharray=""/><path fill="none" stroke="rgb(0,0,0)" class="dcg-svg-minor-gridline" paint-order="fill stroke markers" d=" M 0 35.5 L 400 35.5" stroke-opacity="0.2" stroke-miterlimit="10" stroke-dasharray=""/><path fill="none" stroke="rgb(0,0,0)" class="dcg-svg-minor-gridline" paint-order="fill stroke markers" d=" M 0 23.5 L 400 23.5" stroke-opacity="0.2" stroke-miterlimit="10" stroke-dasharray=""/><path fill="none" stroke="rgb(0,0,0)" class="dcg-svg-minor-gridline" paint-order="fill stroke markers" d=" M 0 10.5 L 400 10.5" stroke-opacity="0.2" stroke-miterlimit="10" stroke-dasharray=""/><path fill="none" stroke="rgb(0,0,0)" class="dcg-svg-major-gridline" paint-order="fill stroke markers" d=" M 82.5 0 L 82.5 400" stroke-opacity="0.2500000000000001" stroke-miterlimit="10" stroke-dasharray=""/><path fill="none" stroke="rgb(0,0,0)" class="dcg-svg-major-gridline" paint-order="fill stroke markers" d=" M 330.5 0 L 330.5 400" stroke-opacity="0.2500000000000001" stroke-miterlimit="10" stroke-dasharray=""/><path fill="none" stroke="rgb(0,0,0)" class="dcg-svg-major-gridline" paint-order="fill stroke markers" d=" M 0 399.5 L 400 399.5" stroke-opacity="0.2500000000000001" stroke-miterlimit="10" stroke-dasharray=""/><path fill="none" stroke="rgb(0,0,0)" class="dcg-svg-major-gridline" paint-order="fill stroke markers" d=" M 0 351.5 L 400 351.5" stroke-opacity="0.2500000000000001" stroke-miterlimit="10" stroke-dasharray=""/><path fill="none" stroke="rgb(0,0,0)" class="dcg-svg-major-gridline" paint-order="fill stroke markers" d=" M 0 302.5 L 400 302.5" stroke-opacity="0.2500000000000001" stroke-miterlimit="10" stroke-dasharray=""/><path fill="none" stroke="rgb(0,0,0)" class="dcg-svg-major-gridline" paint-order="fill stroke markers" d=" M 0 205.5 L 400 205.5" stroke-opacity="0.2500000000000001" stroke-miterlimit="10" stroke-dasharray=""/><path fill="none" stroke="rgb(0,0,0)" class="dcg-svg-major-gridline" paint-order="fill stroke markers" d=" M 0 156.5 L 400 156.5" stroke-opacity="0.2500000000000001" stroke-miterlimit="10" stroke-dasharray=""/><path fill="none" stroke="rgb(0,0,0)" class="dcg-svg-major-gridline" paint-order="fill stroke markers" d=" M 0 108.5 L 400 108.5" stroke-opacity="0.2500000000000001" stroke-miterlimit="10" stroke-dasharray=""/><path fill="none" stroke="rgb(0,0,0)" class="dcg-svg-major-gridline" paint-order="fill stroke markers" d=" M 0 59.5 L 400 59.5" stroke-opacity="0.2500000000000001" stroke-miterlimit="10" stroke-dasharray=""/><path fill="none" stroke="rgb(0,0,0)" class="dcg-svg-major-gridline" paint-order="fill stroke markers" d=" M 0 10.5 L 400 10.5" stroke-opacity="0.2500000000000001" stroke-miterlimit="10" stroke-dasharray=""/></g></g><g id="axis-bf53671b"><g id="yaxis-bf53671b"><title>Y axis</title><g><path fill="none" stroke="rgb(0,0,0)" class="dcg-svg-axis-line" paint-order="fill stroke markers" d=" M 206 0 L 206 400" stroke-opacity="0.9" stroke-miterlimit="10" stroke-width="1.5" stroke-dasharray=""/></g></g><g id="xaxis-bf53671b"><title>X axis</title><g><path fill="none" stroke="rgb(0,0,0)" class="dcg-svg-axis-line" paint-order="fill stroke markers" d=" M 0 254 L 400 254" stroke-opacity="0.9" stroke-miterlimit="10" stroke-width="1.5" stroke-dasharray=""/></g></g><g><g class="dcg-svg-axis-value"><text fill="none" stroke="#ffffff" font-family="Arial" font-size="14px" font-style="normal" font-weight="normal" text-decoration="normal" x="197.39192783719614" y="269.82692554514466" text-anchor="middle" stroke-miterlimit="2" stroke-width="3" stroke-dasharray="">0</text><text fill="#000000" stroke="none" font-family="Arial" font-size="14px" font-style="normal" font-weight="normal" text-decoration="normal" x="197.39192783719614" y="269.82692554514466" text-anchor="middle">0</text></g><g class="dcg-svg-axis-value"><text fill="none" stroke="#ffffff" font-family="Arial" font-size="14px" font-style="normal" font-weight="normal" text-decoration="normal" x="80.1405966268461" y="269.82692554514466" text-anchor="middle" stroke-miterlimit="2" stroke-width="3" stroke-dasharray="">-2</text><text fill="#000000" stroke="none" font-family="Arial" font-size="14px" font-style="normal" font-weight="normal" text-decoration="normal" x="80.1405966268461" y="269.82692554514466" text-anchor="middle">-2</text></g><g class="dcg-svg-axis-value"><text fill="none" stroke="#ffffff" font-family="Arial" font-size="14px" font-style="normal" font-weight="normal" text-decoration="normal" x="330.09833717254617" y="269.82692554514466" text-anchor="middle" stroke-miterlimit="2" stroke-width="3" stroke-dasharray="">2</text><text fill="#000000" stroke="none" font-family="Arial" font-size="14px" font-style="normal" font-weight="normal" text-decoration="normal" x="330.09833717254617" y="269.82692554514466" text-anchor="middle">2</text></g><g class="dcg-svg-axis-value dcg-svg-offcenter-axis-value"><text fill="none" stroke="#ffffff" font-family="Arial" font-size="14px" font-style="normal" font-weight="normal" text-decoration="normal" x="184.39339268094614" y="393.808" text-anchor="middle" stroke-miterlimit="2" stroke-width="3" stroke-dasharray="">-3π/4</text><text fill="#000000" stroke="none" font-family="Arial" font-size="14px" font-style="normal" font-weight="normal" text-decoration="normal" x="184.39339268094614" y="393.808" text-anchor="middle">-3π/4</text></g><g class="dcg-svg-axis-value"><text fill="none" stroke="#ffffff" font-family="Arial" font-size="14px" font-style="normal" font-weight="normal" text-decoration="normal" x="188.28645908719614" y="355.06969768575806" text-anchor="middle" stroke-miterlimit="2" stroke-width="3" stroke-dasharray="">-π/2</text><text fill="#000000" stroke="none" font-family="Arial" font-size="14px" font-style="normal" font-weight="normal" text-decoration="normal" x="188.28645908719614" y="355.06969768575806" text-anchor="middle">-π/2</text></g><g class="dcg-svg-axis-value"><text fill="none" stroke="#ffffff" font-family="Arial" font-size="14px" font-style="normal" font-weight="normal" text-decoration="normal" x="188.28645908719614" y="306.44831161545136" text-anchor="middle" stroke-miterlimit="2" stroke-width="3" stroke-dasharray="">-π/4</text><text fill="#000000" stroke="none" font-family="Arial" font-size="14px" font-style="normal" font-weight="normal" text-decoration="normal" x="188.28645908719614" y="306.44831161545136" text-anchor="middle">-π/4</text></g><g class="dcg-svg-axis-value"><text fill="none" stroke="#ffffff" font-family="Arial" font-size="14px" font-style="normal" font-weight="normal" text-decoration="normal" x="190.61751377469614" y="209.20553947483796" text-anchor="middle" stroke-miterlimit="2" stroke-width="3" stroke-dasharray="">π/4</text><text fill="#000000" stroke="none" font-family="Arial" font-size="14px" font-style="normal" font-weight="normal" text-decoration="normal" x="190.61751377469614" y="209.20553947483796" text-anchor="middle">π/4</text></g><g class="dcg-svg-axis-value"><text fill="none" stroke="#ffffff" font-family="Arial" font-size="14px" font-style="normal" font-weight="normal" text-decoration="normal" x="190.61751377469614" y="160.58415340453126" text-anchor="middle" stroke-miterlimit="2" stroke-width="3" stroke-dasharray="">π/2</text><text fill="#000000" stroke="none" font-family="Arial" font-size="14px" font-style="normal" font-weight="normal" text-decoration="normal" x="190.61751377469614" y="160.58415340453126" text-anchor="middle">π/2</text></g><g class="dcg-svg-axis-value"><text fill="none" stroke="#ffffff" font-family="Arial" font-size="14px" font-style="normal" font-weight="normal" text-decoration="normal" x="186.72444736844614" y="111.96276733422458" text-anchor="middle" stroke-miterlimit="2" stroke-width="3" stroke-dasharray="">3π/4</text><text fill="#000000" stroke="none" font-family="Arial" font-size="14px" font-style="normal" font-weight="normal" text-decoration="normal" x="186.72444736844614" y="111.96276733422458" text-anchor="middle">3π/4</text></g><g class="dcg-svg-axis-value"><text fill="none" stroke="#ffffff" font-family="Arial" font-size="14px" font-style="normal" font-weight="normal" text-decoration="normal" x="196.45540439969614" y="63.341381263917874" text-anchor="middle" stroke-miterlimit="2" stroke-width="3" stroke-dasharray="">π</text><text fill="#000000" stroke="none" font-family="Arial" font-size="14px" font-style="normal" font-weight="normal" text-decoration="normal" x="196.45540439969614" y="63.341381263917874" text-anchor="middle">π</text></g><g class="dcg-svg-axis-value"><text fill="none" stroke="#ffffff" font-family="Arial" font-size="14px" font-style="normal" font-weight="normal" text-decoration="normal" x="186.72444736844614" y="14.719995193611147" text-anchor="middle" stroke-miterlimit="2" stroke-width="3" stroke-dasharray="">5π/4</text><text fill="#000000" stroke="none" font-family="Arial" font-size="14px" font-style="normal" font-weight="normal" text-decoration="normal" x="186.72444736844614" y="14.719995193611147" text-anchor="middle">5π/4</text></g></g></g></g><g id="expressions-bf53671b"><g id="sketch-bf53671b"><title>Expression 1</title><path fill="#c74440" stroke="none" paint-order="stroke fill markers" d="" fill-opacity="0.4"/><g><path fill="none" stroke="#c74440" class="dcg-svg-curve" paint-order="fill stroke markers" d=" M 144.37832277889612 351.26169768575807 L 144.37832277889612 351.26169768575807 L 144.53125 346.90943032409336 L 144.921875 343.05208552705153 L 145.5078125 339.4179977410838 L 146.2890625 335.8408622768687 L 147.36328125 331.9591986460813 L 148.6328125 328.1768707757425 L 150.1953125 324.21005227835667 L 152.1484375 319.9109272660064 L 154.4921875 315.37442344410783 L 157.2265625 310.6529046239673 L 160.546875 305.48338060476226 L 164.453125 299.9504203515672 L 169.140625 293.85639523144965 L 174.51171875 287.38422277256973 L 180.859375 280.2197726409479 L 188.4765625 272.0825937355256 L 198.6328125 261.6907288120702 L 226.85546875 233.0497706253619 L 234.375 224.86296686036368 L 240.52734375 217.7345000838043 L 245.703125 211.28745980517115 L 250.1953125 205.205344681391 L 253.90625 199.68621913138304 L 257.03125 194.53123577243935 L 259.5703125 189.83939454252396 L 261.71875 185.3384108703026 L 263.4765625 181.0940013181784 L 264.94140625 176.92552148907942 L 266.015625 173.23872376690576 L 266.89453125 169.47129267484274 L 267.48046875 166.16895871752416 L 267.87109375 163.07896139863766 L 268.06640625 160.71493811926263 L 268.19166570799615 156.77615340453127" stroke-linecap="round" stroke-linejoin="round" stroke-miterlimit="10" stroke-width="2.5" stroke-dasharray=""/></g></g><g id="sketch-bf53671b"><title>Expression 2</title><path fill="#2d70b3" stroke="none" paint-order="stroke fill markers" d="" fill-opacity="0.4"/><g><path fill="none" stroke="#2d70b3" class="dcg-svg-curve" paint-order="fill stroke markers" d=" M 144.37832277889612 59.533381263917875 L 144.37832277889612 59.533381263917875 L 144.53125 63.885648625582604 L 144.921875 67.74299342262441 L 145.5078125 71.37708120859216 L 146.2890625 74.95421667280723 L 147.36328125 78.83588030359465 L 148.6328125 82.61820817393348 L 150.1953125 86.58502667131927 L 152.1484375 90.88415168366953 L 154.4921875 95.4206555055681 L 157.2265625 100.14217432570865 L 160.546875 105.31169834491371 L 164.453125 110.84465859810874 L 169.140625 116.93868371822626 L 174.51171875 123.41085617710621 L 180.859375 130.57530630872802 L 188.4765625 138.71248521415032 L 198.6328125 149.10435013760576 L 226.85546875 177.745308324314 L 234.375 185.93211208931223 L 240.52734375 193.06057886587163 L 245.703125 199.50761914450476 L 250.1953125 205.58973426828493 L 253.90625 211.10885981829287 L 257.03125 216.26384317723657 L 259.5703125 220.95568440715198 L 261.71875 225.45666807937334 L 263.4765625 229.70107763149753 L 264.94140625 233.8695574605965 L 266.015625 237.55635518277015 L 266.89453125 241.32378627483322 L 267.48046875 244.62612023215178 L 267.87109375 247.71611755103828 L 268.06640625 250.0801408304133 L 268.19166570799615 254.01892554514467" stroke-linecap="round" stroke-linejoin="round" stroke-miterlimit="10" stroke-width="2.5" stroke-dasharray=""/></g></g><g id="sketch-bf53671b"><title>Expression 3</title><path fill="#6042a6" stroke="none" paint-order="stroke fill markers" d="" fill-opacity="0.4"/><g><path fill="none" stroke="#6042a6" class="dcg-svg-curve" paint-order="fill stroke markers" d=" M 0 333.2127483509099 L 0 333.2127483509099 L 18.06640625 331.5900587674406 L 34.1796875 329.8858196270955 L 48.53515624999997 328.1105534294014 L 61.42578125 326.2597116902525 L 73.14453125 324.3177370089008 L 83.78906249999999 322.29307479562937 L 93.5546875 320.1724150184279 L 102.5390625 317.95591005541854 L 110.83984375 315.64076044298565 L 118.55468749999999 313.2196652453057 L 125.78125 310.6790823480041 L 132.6171875 307.9973264407137 L 139.0625 305.1873673600031 L 145.21484375 302.21921250589 L 151.171875 299.0503660965059 L 156.93359375 295.6836869728738 L 162.59765625 292.06299417449964 L 168.26171875 288.11697294870794 L 173.92578125 283.83626250188024 L 179.78515625 279.05773307755936 L 185.9375 273.6778138951655 L 192.87109375 267.228620967602 L 201.66015625 258.63518837404536 L 221.58203125 239.02229135403462 L 228.61328125 232.58965799897067 L 234.86328125 227.24507216240872 L 240.8203125 222.51718986999688 L 246.58203125 218.29690861763706 L 252.24609375 214.48310510753763 L 258.0078125 210.9310374488269 L 263.8671875 207.63705575180964 L 269.921875 204.54441149158885 L 276.171875 201.6536101065061 L 282.71484375 198.92202502031222 L 289.55078125 196.35413882052967 L 296.875 193.8878922807208 L 304.6875 191.5401078044445 L 312.98828125 189.3214425306228 L 321.97265625 187.19378327996515 L 331.73828125 185.15448677410023 L 342.3828125 183.20383667944395 L 354.00390625 181.34377353776455 L 366.796875 179.56420731427795 L 380.95703125 177.86181386428646 L 396.77734375 176.2282219704994 L 400 175.92502004342936" stroke-linecap="round" stroke-linejoin="round" stroke-miterlimit="10" stroke-width="2.5" stroke-dasharray=""/></g></g><g id="sketch-bf53671b"><title>Expression 4</title><path fill="#000000" stroke="none" paint-order="stroke fill markers" d="" fill-opacity="0.4"/><g><path fill="none" stroke="#000000" class="dcg-svg-curve" paint-order="fill stroke markers" d=" M 0 77.58233059876602 L 0 77.58233059876602 L 18.06640625 79.20502018223533 L 34.1796875 80.90925932258045 L 48.53515624999997 82.68452552027449 L 61.42578125 84.53536725942345 L 73.14453125 86.47734194077515 L 83.78906249999999 88.5020041540466 L 93.5546875 90.62266393124804 L 102.5390625 92.83916889425737 L 110.83984375 95.15431850669029 L 118.55468749999999 97.57541370437025 L 125.78125 100.11599660167181 L 132.6171875 102.79775250896222 L 139.0625 105.60771158967282 L 145.21484375 108.57586644378591 L 151.171875 111.74471285317 L 156.93359375 115.11139197680214 L 162.59765625 118.73208477517633 L 168.26171875 122.67810600096797 L 173.92578125 126.95881644779568 L 179.78515625 131.73734587211658 L 185.9375 137.11726505451043 L 192.87109375 143.56645798207393 L 201.66015625 152.15989057563058 L 221.58203125 171.77278759564132 L 228.61328125 178.20542095070527 L 234.86328125 183.5500067872672 L 240.8203125 188.27788907967903 L 246.58203125 192.49817033203888 L 252.24609375 196.31197384213831 L 258.0078125 199.86404150084903 L 263.8671875 203.15802319786627 L 269.921875 206.2506674580871 L 276.171875 209.14146884316983 L 282.71484375 211.8730539293637 L 289.55078125 214.44094012914624 L 296.875 216.90718666895515 L 304.6875 219.25497114523145 L 312.98828125 221.47363641905315 L 321.97265625 223.6012956697108 L 331.73828125 225.64059217557568 L 342.3828125 227.591242270232 L 354.00390625 229.4513054119114 L 366.796875 231.230871635398 L 380.95703125 232.93326508538948 L 396.77734375 234.56685697917652 L 400 234.87005890624658" stroke-linecap="round" stroke-linejoin="round" stroke-miterlimit="10" stroke-width="2.5" stroke-dasharray=""/></g></g><g id="sketch-bf53671b"><title>Expression 5</title><path fill="#348543" stroke="none" paint-order="stroke fill markers" d="" fill-opacity="0.4"/><g><path fill="none" stroke="#348543" class="dcg-svg-curve" paint-order="fill stroke markers" d=" M 0 137.90698432318285 L 0 137.90698432318285 L 15.8203125 136.2823772955553 L 29.78515625 134.59078635982019 L 42.08984375 132.84373428984674 L 53.02734375 131.03423299900595 L 62.79296875 129.16103794348453 L 71.58203125000003 127.2144011230911 L 79.49218750000003 125.19854346066268 L 86.62109375 123.1151873204264 L 93.06640624999999 120.96164220516633 L 98.92578125 118.72835631777988 L 104.19921874999999 116.44097182081774 L 108.984375 114.0842971596164 L 113.37890624999999 111.62860133601379 L 117.3828125 109.08984644338423 L 121.09375 106.41662380388283 L 124.51171875 103.61131838650917 L 127.63671875 100.67959758585178 L 130.46875 97.63148463860767 L 133.10546875 94.35220682913891 L 135.44921875 90.95303156129017 L 137.5 87.45458519302653 L 139.16015625 84.10445941331466 L 140.52734375 80.82494154309128 L 141.69921875 77.4267293271867 L 142.67578124999997 73.88876371697694 L 143.359375 70.68922581663037 L 143.84765625 67.61036459457452 L 144.140625 64.94968046752584 L 144.33593749999997 61.82354951821051 L 144.37832277889612 59.533381263917875" stroke-linecap="round" stroke-linejoin="round" stroke-miterlimit="10" stroke-width="2.5" stroke-dasharray=""/></g><g><path fill="none" stroke="#348543" class="dcg-svg-curve" paint-order="fill stroke markers" d=" M 268.19166570799615 254.01892554514467 L 268.19166570799615 254.01892554514467 L 268.359375 249.46723587514094 L 268.75 245.73559042605953 L 269.3359375 242.20673996603833 L 270.1171875 238.77472699050207 L 271.09375 235.42270425129044 L 272.265625 232.15073165805256 L 273.73046875 228.75493716274246 L 275.390625 225.51039097395378 L 277.34375 222.25171468400006 L 279.6875 218.9028930083692 L 282.32421875 215.6648006064745 L 285.25390625 212.55297939146635 L 288.37890625 209.66155120262084 L 291.796875 206.89065429927211 L 295.5078125 204.2469734548423 L 299.51171875 201.7336970632045 L 303.90625 199.3005100456279 L 308.69140625 196.96364393464665 L 313.8671875 194.73343701057206 L 319.53125 192.58078774230182 L 325.78125 190.48963602238751 L 332.71484375 188.4532385635094 L 340.33203125 186.49476155241132 L 348.73046875 184.60896359814933 L 358.10546875 182.7770831382703 L 368.5546875 181.0078921991198 L 380.17578125 179.30977960927208 L 393.26171875 177.6672776525374 L 400 176.91328022905105" stroke-linecap="round" stroke-linejoin="round" stroke-miterlimit="10" stroke-width="2.5" stroke-dasharray=""/></g></g><g id="sketch-bf53671b"><title>Expression 6</title><path fill="#fa7e19" stroke="none" paint-order="stroke fill markers" d="" fill-opacity="0.4"/><g><path fill="none" stroke="#fa7e19" class="dcg-svg-curve" paint-order="fill stroke markers" d=" M 0 272.88809462649306 L 0 272.88809462649306 L 15.8203125 274.51270165412063 L 29.78515625 276.20429258985575 L 42.08984375 277.9513446598292 L 53.02734375 279.76084595067 L 62.79296875 281.6340410061914 L 71.58203125000003 283.58067782658486 L 79.49218750000003 285.59653548901326 L 86.62109375 287.67989162924954 L 93.06640624999999 289.8334367445096 L 98.92578125 292.066722631896 L 104.19921874999999 294.3541071288582 L 108.984375 296.7107817900595 L 113.37890624999999 299.16647761366215 L 117.3828125 301.7052325062917 L 121.09375 304.3784551457931 L 124.51171875 307.18376056316674 L 127.63671875 310.11548136382413 L 130.46875 313.16359431106827 L 133.10546875 316.442872120537 L 135.44921875 319.84204738838577 L 137.5 323.3404937566494 L 139.16015625 326.6906195363613 L 140.52734375 329.9701374065846 L 141.69921875 333.36834962248923 L 142.67578124999997 336.906315232699 L 143.359375 340.10585313304557 L 143.84765625 343.1847143551014 L 144.140625 345.84539848215013 L 144.33593749999997 348.9715294314654 L 144.37832277889612 351.26169768575807" stroke-linecap="round" stroke-linejoin="round" stroke-miterlimit="10" stroke-width="2.5" stroke-dasharray=""/></g><g><path fill="none" stroke="#fa7e19" class="dcg-svg-curve" paint-order="fill stroke markers" d=" M 268.19166570799615 156.77615340453127 L 268.19166570799615 156.77615340453127 L 268.359375 161.327843074535 L 268.75 165.05948852361638 L 269.3359375 168.58833898363758 L 270.1171875 172.02035195917384 L 271.09375 175.3723746983855 L 272.265625 178.64434729162335 L 273.73046875 182.04014178693348 L 275.390625 185.28468797572214 L 277.34375 188.54336426567585 L 279.6875 191.8921859413067 L 282.32421875 195.1302783432014 L 285.25390625 198.24209955820956 L 288.37890625 201.1335277470551 L 291.796875 203.90442465040383 L 295.5078125 206.5481054948336 L 299.51171875 209.06138188647145 L 303.90625 211.49456890404804 L 308.69140625 213.83143501502929 L 313.8671875 216.06164193910388 L 319.53125 218.21429120737412 L 325.78125 220.30544292728842 L 332.71484375 222.34184038616655 L 340.33203125 224.30031739726462 L 348.73046875 226.18611535152658 L 358.10546875 228.01799581140563 L 368.5546875 229.78718675055615 L 380.17578125 231.48529934040383 L 393.26171875 233.12780129713852 L 400 233.88179872062491" stroke-linecap="round" stroke-linejoin="round" stroke-miterlimit="10" stroke-width="2.5" stroke-dasharray=""/></g></g></g><g id="labels-bf53671b"/><g id="labels-bf53671b"/></g></svg>