<svg width="60.525" height="15.723" viewBox="0 0 45.394 11.792" xmlns="http://www.w3.org/2000/svg"><path style="font-size:11.5px;line-height:0;font-family:'Gentium Book Plus';-inkscape-font-specification:'Gentium Book Plus';stroke-width:.15;stroke-linecap:square;stroke-linejoin:bevel;paint-order:markers stroke fill" d="m42.912 10.865-.203-.174q.017-.129.068-.292.05-.162.09-.235h1.572V.702h-1.527l-.214-.163q.017-.118.073-.28.056-.164.096-.259h2.527v10.865zm-3.976.63q.337-.905.842-1.28.5-.377 1.028-.377.573 0 1.067.376.488.376.825 1.28-.135.203-.342.298-.275-.6-.713-.854-.438-.247-.815-.247-.398 0-.836.247-.444.253-.72.854-.201-.09-.336-.298zm.595-2.51v-.298q.786-.157.786-.343V4.402q0-.067-.19-.168-.186-.101-.596-.174v-.298h2.583v.298q-.786.157-.786.342v3.942q0 .068.185.169.191.095.601.174v.297Zm-.808-3.117q-.101.118-.298.23-.196.107-.376.174h-3.28l.012-.544h2.667q.13 0 .168-.04.045-.045.045-.163 0-.207-.09-.516-.084-.315-.32-.556-.235-.242-.69-.242-.652 0-1.011.562-.354.561-.354 1.432 0 .584.186 1.072.185.489.539.78.353.293.853.293.236 0 .455-.045.225-.045.511-.202.286-.157.713-.489.073.04.14.135.074.095.096.14-.505.54-.87.815-.365.27-.697.359-.331.09-.735.09-.595 0-1.1-.326-.506-.326-.815-.915-.303-.59-.303-1.381 0-.759.314-1.41.32-.651.899-1.056.264-.185.634-.325.376-.146.719-.146.55 0 .926.208.382.202.618.539.236.336.337.74.107.4.107.787zm-9.03-.264-.932-1.842h1.864zm0 1.533.932 1.847h-1.864ZM27.29 1.904q0 .336-.219.567-.213.23-.533.23-.568 0-.568-.567 0-.343.214-.567.219-.225.528-.225.264 0 .42.14.158.14.158.422zm-1.965 7.08v-.297q.769-.157.769-.343V5.261q0-.381-.034-.572-.033-.191-.196-.264-.157-.079-.54-.118v-.28q.394-.068.804-.18.41-.113.73-.253h.247v4.75q0 .068.18.169.185.095.595.174v.297ZM20.63 5.503v-.225q.495-.112.495-.202V1.202q0-.281-.068-.343-.067-.062-.427-.1V.55q.371-.056.63-.112.258-.062.505-.157l.157.118v2.639q.37-.376.78-.573.416-.196.725-.196.404 0 .657.207.252.202.252.612v1.988q0 .045.096.09.095.045.404.112v.225h-1.791v-.225q.286-.061.393-.106.107-.05.107-.096v-1.6q0-.404-.118-.534-.113-.134-.365-.134-.225 0-.522.18-.292.173-.618.56v1.528q0 .112.5.202v.225Zm-2.785 3.65q-.696 0-1.55-.69v2.57q0 .09.208.18.214.09.741.17v.297h-2.729v-.298q.371-.09.568-.174.202-.079.202-.174V5.03q0-.28-.045-.427-.045-.151-.208-.213-.163-.067-.517-.084v-.28q.472-.085.798-.18.325-.096.69-.253l.208.208.05.97q.585-.628 1.096-.903.516-.275.836-.275.764 0 1.286.68.522.673.522 1.93 0 .512-.19 1.034-.186.517-.5.955-.315.432-.696.696-.382.264-.77.264Zm-.129-4.773q-.202 0-.567.219-.36.213-.854.83V7.76q.534.37.882.483.348.107.64.107.545 0 .899-.45.359-.449.359-1.308 0-.674-.197-1.168-.19-.5-.505-.769-.309-.275-.657-.275ZM8.12 11.494q.337-.904.842-1.28.5-.376 1.028-.376.572 0 1.066.376.489.376.826 1.28-.135.203-.343.298-.275-.6-.713-.854-.438-.247-.814-.247-.399 0-.837.247-.443.253-.718.854-.203-.09-.337-.298zm.595-2.51v-.297q.786-.157.786-.343V4.402q0-.067-.19-.168-.186-.101-.596-.174v-.298h2.583v.298q-.786.157-.786.342v3.942q0 .068.185.169.19.095.6.174v.297Zm-.455-.516q-.477.325-.854.505-.37.18-.544.18-.208 0-.343-.292-.129-.298-.129-.798V5.071q0-.371-.185-.618-.18-.253-.685-.242-.332.006-.607.208-.275.202-.241.54.005.055-.14.123-.14.067-.349.129-.202.062-.387.095-.18.034-.247.017l-.09-.247q.174-.399.584-.735.415-.337.943-.54.534-.207 1.062-.207.662 0 1.005.348.348.342.348.915v3.016q0 .438.224.438.08 0 .197-.029.118-.033.343-.123zM6.446 6.272q-.59.096-.92.186-.332.09-.506.19-.174.102-.292.22-.146.151-.236.336-.09.186-.09.438 0 .281.101.433.107.151.242.207.14.057.236.057.303 0 .662-.163.36-.169.803-.562l.045.489q-.528.567-1.05.808-.522.242-.904.242-.286 0-.567-.13-.28-.128-.472-.404-.185-.275-.185-.707 0-.416.146-.69.146-.282.354-.49.18-.185.449-.342.27-.163.775-.303.51-.146 1.41-.28Zm-3.75 4.066q-.023.112-.08.27-.055.162-.095.257H0V0h2.488l.196.157q-.022.14-.079.31-.05.168-.084.235H.955v9.462h1.533Z"/></svg>