<svg width="4400" height="2475" xmlns="http://www.w3.org/2000/svg" xmlns:xlink="http://www.w3.org/1999/xlink" overflow="hidden"><defs><filter id="fx0" x="-10%" y="-10%" width="120%" height="120%" filterUnits="userSpaceOnUse" primitiveUnits="userSpaceOnUse"><feComponentTransfer color-interpolation-filters="sRGB"><feFuncR type="discrete" tableValues="0 0"/><feFuncG type="discrete" tableValues="0 0"/><feFuncB type="discrete" tableValues="0 0"/><feFuncA type="linear" slope="0.431373" intercept="0"/></feComponentTransfer><feGaussianBlur stdDeviation="1.6663 1.6663"/></filter><filter id="fx1" x="-10%" y="-10%" width="120%" height="120%" filterUnits="userSpaceOnUse" primitiveUnits="userSpaceOnUse"><feComponentTransfer color-interpolation-filters="sRGB"><feFuncR type="discrete" tableValues="0 0"/><feFuncG type="discrete" tableValues="0 0"/><feFuncB type="discrete" tableValues="0 0"/><feFuncA type="linear" slope="0.431373" intercept="0"/></feComponentTransfer><feGaussianBlur stdDeviation="1.6663 1.6663"/></filter><clipPath id="clip2"><rect x="0" y="0" width="4400" height="2475"/></clipPath><clipPath id="clip3"><rect x="0" y="233" width="4400" height="938"/></clipPath><clipPath id="clip4"><rect x="0" y="233" width="4400" height="938"/></clipPath><clipPath id="clip5"><rect x="0" y="233" width="4400" height="938"/></clipPath><clipPath id="clip6"><rect x="47" y="37" width="242" height="71"/></clipPath><clipPath id="clip7"><rect x="0" y="0" width="333" height="166"/></clipPath><clipPath id="clip8"><rect x="51" y="37" width="230" height="71"/></clipPath><clipPath id="clip9"><rect x="0" y="0" width="325" height="166"/></clipPath></defs><g clip-path="url(#clip2)"><path d="M0 49.3989C-8.75279e-15 22.1167 22.1167-8.75279e-15 49.3989-1.75056e-14L4350.6 0C4377.88-8.75279e-15 4400 22.1167 4400 49.3989L4400 2425.6C4400 2452.88 4377.88 2475 4350.6 2475L49.3989 2475C22.1167 2475 0 2452.88 0 2425.6Z" fill="#F2F2F2" fill-rule="evenodd"/><g clip-path="url(#clip3)"><g clip-path="url(#clip4)"><g clip-path="url(#clip5)"><path d="M530.469 469.973 618.866 469.973M1021.67 469.973 1213.19 469.973M1474.49 469.973 1680.75 469.973M1912.58 469.973 2118.84 469.973M3625.76 469.973 3920.42 469.973" stroke="#000000" stroke-width="5.89308" fill="none" transform="matrix(1.00019 0 0 1 73.6772 262.465)"/><path d="M0 92.816C29.4654 92.816 29.4654 64.8239 58.9308 64.8239M530.469 92.816C501.004 92.816 501.004 64.8239 471.539 64.8239M29.4654 120.808C29.4654 140.452 39.2872 150.274 58.9308 150.274M501.004 120.808C501.004 140.452 491.182 150.274 471.539 150.274M0 92.816C19.6436 92.816 29.4654 102.638 29.4654 122.281L29.4654 120.808M530.469 92.816C510.826 92.816 501.004 102.638 501.004 122.281L501.004 120.808" stroke="#000000" stroke-width="5.89308" fill="none" transform="matrix(1.00019 0 0 1 73.6772 639.623)"/><path d="M0 64.8239 0 64.8239M412.608 64.8239 412.608 64.8239M0 150.274 137.544 150.274M275.064 150.274 412.608 150.274" stroke="#000000" stroke-width="5.89308" fill="none" transform="matrix(1.00019 0 0 1 132.619 639.623)"/><path d="M112.015 64.8239 185.678 64.8239M256.395 64.8239 330.059 64.8239" stroke="#000000" stroke-width="5.89308" fill="none" transform="matrix(1.00019 0 0 1 132.619 639.623)"/><path d="M103.175 0C108.057-1.30853e-15 112.015 3.95763 112.015 8.83962L112.015 61.8774C112.015 66.7594 108.057 70.717 103.175 70.717L8.83962 70.717C3.95763 70.717-1.30853e-15 66.7594 0 61.8774L0 8.83962C-2.61705e-15 3.95763 3.95763-1.30853e-15 8.83962 0Z" fill="#DAE9E5" transform="matrix(1.00019 0 0 1 132.619 669.088)"/><text fill="#908C83" font-family="Arial,Arial_MSFontService,sans-serif" font-weight="400" font-size="12" transform="matrix(2.94709 0 0 2.94654 147.354 719)">“<tspan fill="#000000" font-size="12" x="4" y="0">http</tspan>”</text><path d="M0 64.8239C19.6436 64.8239 29.4654 55.0021 29.4654 35.3585L29.4654 29.4654C29.4654 9.8218 39.2872 0 58.9308 0L100.182 0C119.826 0 129.648 9.8218 129.648 29.4654L129.648 35.3585C129.648 55.0021 139.47 64.8239 159.113 64.8239" stroke="#000000" stroke-width="5.89308" fill="none" transform="matrix(1.00019 0 0 1 274.125 639.623)"/><path d="M61.8774 0C66.7594-1.30853e-15 70.717 3.95763 70.717 8.83962L70.717 61.8774C70.717 66.7594 66.7594 70.717 61.8774 70.717L8.83962 70.717C3.95763 70.717-1.30853e-15 66.7594 0 61.8774L0 8.83962C-2.61705e-15 3.95763 3.95763-1.30853e-15 8.83962 0Z" fill="#DAE9E5" transform="matrix(1.00019 0 0 1 318.331 669.088)"/><text fill="#908C83" font-family="Arial,Arial_MSFontService,sans-serif" font-weight="400" font-size="12" transform="matrix(2.94709 0 0 2.94654 333.067 719)">“<tspan fill="#000000" font-size="12" x="3.99999" y="0">s</tspan><tspan font-size="12" x="11" y="0">”</tspan></text><path d="M73.7096 0C78.5916-1.30853e-15 82.5492 3.95763 82.5492 8.83962L82.5492 61.8774C82.5492 66.7594 78.5916 70.717 73.7096 70.717L8.83962 70.717C3.95763 70.717-1.30853e-15 66.7594 0 61.8774L0 8.83962C-2.61705e-15 3.95763 3.95763-1.30853e-15 8.83962 0Z" fill="#DAE9E5" transform="matrix(1.00019 0 0 1 462.739 669.088)"/><text fill="#908C83" font-family="Arial,Arial_MSFontService,sans-serif" font-weight="400" font-size="12" transform="matrix(2.94709 0 0 2.94654 477.474 719)">“<tspan fill="#000000" font-size="12" x="4.00001" y="0">://</tspan><tspan font-size="12" x="13" y="0">”</tspan></text><path d="M128.681 0C133.563-1.30853e-15 137.521 3.95763 137.521 8.83962L137.521 61.8774C137.521 66.7594 133.563 70.717 128.681 70.717L8.83962 70.717C3.95763 70.717-1.30853e-15 66.7594 0 61.8774L0 8.83962C-2.61705e-15 3.95763 3.95763-1.30853e-15 8.83962 0Z" fill="#DAE9E5" transform="matrix(1.00019 0 0 1 270.188 754.538)"/><text fill="#908C83" font-family="Arial,Arial_MSFontService,sans-serif" font-weight="400" font-size="12" transform="matrix(2.94709 0 0 2.94654 284.923 805)">“<tspan fill="#000000" font-size="12" x="3.99999" y="0">www</tspan><tspan fill="#000000" font-size="12" x="31" y="0">.</tspan><tspan font-size="12" x="34" y="0">”</tspan></text><path d="M29.4654 167.953C9.8218 167.953 0 177.775 0 197.418L0 332.959C0 352.603 9.8218 362.425 29.4654 362.425L505.93 362.425C525.574 362.425 535.396 352.603 535.396 332.959L535.396 197.418C535.396 177.775 525.574 167.953 505.93 167.953M535.396 212.151 550.128 197.418M535.396 212.151 520.663 197.418" stroke="#000000" stroke-width="5.89308" fill="none" transform="matrix(1.00019 0 0 1 633.716 564.486)"/><path d="M251.515 167.953 369.376 167.953" stroke="#000000" stroke-width="5.89308" fill="none" transform="matrix(1.00019 0 0 1 663.186 564.486)"/><path d="M29.4654 167.953C9.8218 167.953 0 177.775 0 197.418L0 303.494C0 323.137 9.8218 332.959 29.4654 332.959L251.515 332.959C271.158 332.959 280.98 323.137 280.98 303.494L280.98 197.418C280.98 177.775 271.158 167.953 251.515 167.953M280.98 212.151 295.713 197.418M280.98 212.151 266.248 197.418" stroke="#000000" stroke-width="5.89308" fill="none" transform="matrix(1.00019 0 0 1 663.186 564.486)"/><path d="M213.21 0C218.092-1.30853e-15 222.049 3.95763 222.049 8.83962L222.049 262.242C222.049 267.124 218.092 271.082 213.21 271.082L8.83962 271.082C3.95763 271.082-1.30853e-15 267.124 0 262.242L0 8.83962C-2.61705e-15 3.95763 3.95763-1.30853e-15 8.83962 0Z" fill="#CBCBBA" transform="matrix(1.00019 0 0 1 692.657 596.898)"/><text font-family="Arial,Arial_MSFontService,sans-serif" font-weight="400" font-size="10" transform="matrix(2.94709 0 0 2.94654 692.657 597)">One of:<tspan font-size="12" x="35.6797" y="21.0416">-</tspan></text><path d="M63.9031 0C68.7851-1.30853e-15 72.7427 3.95763 72.7427 8.83962L72.7427 61.8774C72.7427 66.7594 68.7851 70.717 63.9031 70.717L8.83962 70.717C3.95763 70.717-1.30853e-15 66.7594 0 61.8774L0 8.83962C-2.61705e-15 3.95763 3.95763-1.30853e-15 8.83962 0Z" fill="#DAE9E5" transform="matrix(1.00019 0 0 1 710.317 611.631)"/><text fill="#908C83" font-family="Arial,Arial_MSFontService,sans-serif" font-weight="400" font-size="12" transform="matrix(2.94709 0 0 2.94654 725.052 662)">“<tspan fill="#000000" font-size="12" x="3.99999" y="0">0</tspan><tspan font-size="12" x="11" y="0">”</tspan></text><path d="M63.9031 0C68.7851-1.30853e-15 72.7427 3.95763 72.7427 8.83962L72.7427 61.8774C72.7427 66.7594 68.7851 70.717 63.9031 70.717L8.83962 70.717C3.95763 70.717-1.30853e-15 66.7594 0 61.8774L0 8.83962C-2.61705e-15 3.95763 3.95763-1.30853e-15 8.83962 0Z" fill="#DAE9E5" transform="matrix(1.00019 0 0 1 824.332 611.631)"/><text fill="#908C83" font-family="Arial,Arial_MSFontService,sans-serif" font-weight="400" font-size="12" transform="matrix(2.94709 0 0 2.94654 839.068 662)">“<tspan fill="#000000" font-size="12" x="3.99999" y="0">9</tspan><tspan font-size="12" x="11" y="0">”</tspan><tspan fill="#000000" font-size="12" x="-13.6563" y="27.8292">-</tspan></text><path d="M63.9031 0C68.7851-1.30853e-15 72.7427 3.95763 72.7427 8.83962L72.7427 61.8774C72.7427 66.7594 68.7851 70.717 63.9031 70.717L8.83962 70.717C3.95763 70.717-1.30853e-15 66.7594 0 61.8774L0 8.83962C-2.61705e-15 3.95763 3.95763-1.30853e-15 8.83962 0Z" fill="#DAE9E5" transform="matrix(1.00019 0 0 1 711.33 697.08)"/><text fill="#908C83" font-family="Arial,Arial_MSFontService,sans-serif" font-weight="400" font-size="12" transform="matrix(2.94709 0 0 2.94654 726.065 747)">“<tspan fill="#000000" font-size="12" x="3.99999" y="0">a</tspan><tspan font-size="12" x="11" y="0">”</tspan></text><path d="M61.8774 0C66.7594-1.30853e-15 70.717 3.95763 70.717 8.83962L70.717 61.8774C70.717 66.7594 66.7594 70.717 61.8774 70.717L8.83962 70.717C3.95763 70.717-1.30853e-15 66.7594 0 61.8774L0 8.83962C-2.61705e-15 3.95763 3.95763-1.30853e-15 8.83962 0Z" fill="#DAE9E5" transform="matrix(1.00019 0 0 1 825.345 697.08)"/><text fill="#908C83" font-family="Arial,Arial_MSFontService,sans-serif" font-weight="400" font-size="12" transform="matrix(2.94709 0 0 2.94654 840.081 747)">“<tspan fill="#000000" font-size="12" x="4.00002" y="0">z</tspan><tspan font-size="12" x="9.00001" y="0">”</tspan><tspan fill="#000000" font-size="12" x="-14.0078" y="28.1686">-</tspan></text><path d="M67.8165 0C72.6985-1.30853e-15 76.6561 3.95763 76.6561 8.83962L76.6561 61.8774C76.6561 66.7594 72.6985 70.717 67.8165 70.717L8.83962 70.717C3.95763 70.717-1.30853e-15 66.7594 0 61.8774L0 8.83962C-2.61705e-15 3.95763 3.95763-1.30853e-15 8.83962 0Z" fill="#DAE9E5" transform="matrix(1.00019 0 0 1 707.393 782.53)"/><text fill="#908C83" font-family="Arial,Arial_MSFontService,sans-serif" font-weight="400" font-size="12" transform="matrix(2.94709 0 0 2.94654 722.128 833)">“<tspan fill="#000000" font-size="12" x="3.99999" y="0">A</tspan><tspan font-size="12" x="11" y="0">”</tspan></text><path d="M65.8368 0C70.7188-1.30853e-15 74.6764 3.95763 74.6764 8.83962L74.6764 61.8774C74.6764 66.7594 70.7188 70.717 65.8368 70.717L8.83962 70.717C3.95763 70.717-1.30853e-15 66.7594 0 61.8774L0 8.83962C-2.61705e-15 3.95763 3.95763-1.30853e-15 8.83962 0Z" fill="#DAE9E5" transform="matrix(1.00019 0 0 1 825.322 782.53)"/><text fill="#908C83" font-family="Arial,Arial_MSFontService,sans-serif" font-weight="400" font-size="12" transform="matrix(2.94709 0 0 2.94654 840.058 833)">“<tspan fill="#000000" font-size="12" x="3.99999" y="0">Z</tspan><tspan font-size="12" x="11" y="0">”</tspan></text><path d="M0 64.8239C19.6436 64.8239 29.4654 55.0021 29.4654 35.3585L29.4654 29.4654C29.4654 9.8218 39.2872 0 58.9308 0L92.3556 0C111.999 0 121.821 9.8218 121.821 29.4654L121.821 35.3585C121.821 55.0021 131.643 64.8239 151.286 64.8239" stroke="#000000" stroke-width="5.89308" fill="none" transform="matrix(1.00019 0 0 1 988.425 667.615)"/><path d="M54.0506 0C58.9326-1.30853e-15 62.8902 3.95763 62.8902 8.83962L62.8902 61.8774C62.8902 66.7594 58.9326 70.717 54.0506 70.717L8.83962 70.717C3.95763 70.717-1.30853e-15 66.7594 0 61.8774L0 8.83962C-2.61705e-15 3.95763 3.95763-1.30853e-15 8.83962 0Z" fill="#DAE9E5" transform="matrix(1.00019 0 0 1 1032.63 697.08)"/><text fill="#908C83" font-family="Arial,Arial_MSFontService,sans-serif" font-weight="400" font-size="12" transform="matrix(2.94709 0 0 2.94654 1047.37 747)">“<tspan fill="#000000" font-size="12" x="4.00004" y="0">.</tspan><tspan font-size="12" x="7.00001" y="0">”</tspan></text><path d="M29.4654 282.868C9.8218 282.868 0 292.69 0 312.333L0 533.324C0 552.968 9.8218 562.789 29.4654 562.789L423.358 562.789C443.002 562.789 452.824 552.968 452.824 533.324L452.824 312.333C452.824 292.69 443.002 282.868 423.358 282.868M452.824 327.066 467.556 312.333M452.824 327.066 438.091 312.333" stroke="#000000" stroke-width="5.89308" fill="none" transform="matrix(1.00019 0 0 1 1213.42 449.571)"/><path d="M0 282.868C19.6436 282.868 29.4654 273.046 29.4654 253.403L29.4654 29.4654C29.4654 9.8218 39.2872 0 58.9308 0L334.962 0C354.606 0 364.427 9.8218 364.427 29.4654L364.427 253.403C364.427 273.046 374.249 282.868 393.893 282.868" stroke="#000000" stroke-width="5.89308" fill="none" transform="matrix(1.00019 0 0 1 1242.89 449.571)"/><path d="M62.8902 253.403 121.821 253.403" stroke="#000000" stroke-width="5.89308" fill="none" transform="matrix(1.00019 0 0 1 1287.09 479.036)"/><path d="M54.0506 0C58.9326-1.30853e-15 62.8902 3.95763 62.8902 8.83962L62.8902 61.8774C62.8902 66.7594 58.9326 70.717 54.0506 70.717L8.83962 70.717C3.95763 70.717-1.30853e-15 66.7594 0 61.8774L0 8.83962C-2.61705e-15 3.95763 3.95763-1.30853e-15 8.83962 0Z" fill="#DAE9E5" transform="matrix(1.00019 0 0 1 1287.09 697.08)"/><text fill="#908C83" font-family="Arial,Arial_MSFontService,sans-serif" font-weight="400" font-size="12" transform="matrix(2.94709 0 0 2.94654 1301.83 747)">“<tspan fill="#000000" font-size="12" x="4.00004" y="0">/</tspan><tspan font-size="12" x="7.00001" y="0">”</tspan></text><path d="M29.4654 253.403C9.8218 253.403 0 263.224 0 282.868L0 474.393C0 494.037 9.8218 503.859 29.4654 503.859L168.943 503.859C188.586 503.859 198.408 494.037 198.408 474.393L198.408 282.868C198.408 263.224 188.586 253.403 168.943 253.403M198.408 297.601 213.141 282.868M198.408 297.601 183.675 282.868" stroke="#000000" stroke-width="5.89308" fill="none" transform="matrix(1.00019 0 0 1 1379.47 479.036)"/><path d="M130.638 0C135.52-1.30853e-15 139.477 3.95763 139.477 8.83962L139.477 433.142C139.477 438.024 135.52 441.981 130.638 441.981L8.83962 441.981C3.95763 441.981-1.30853e-15 438.024 0 433.142L0 8.83962C-2.61705e-15 3.95763 3.95763-1.30853e-15 8.83962 0Z" fill="#CBCBBA" transform="matrix(1.00019 0 0 1 1408.94 511.448)"/><text font-family="Arial,Arial_MSFontService,sans-serif" font-weight="400" font-size="10" transform="matrix(2.94709 0 0 2.94654 1408.94 511)">One of:</text><path d="M101.172 0C106.054-1.30853e-15 110.012 3.95763 110.012 8.83962L110.012 61.8774C110.012 66.7594 106.054 70.717 101.172 70.717L8.83962 70.717C3.95763 70.717-1.30853e-15 66.7594 0 61.8774L0 8.83962C-2.61705e-15 3.95763 3.95763-1.30853e-15 8.83962 0Z" fill="#BADA55" transform="matrix(1.00019 0 0 1 1423.67 526.181)"/><text font-family="Arial,Arial_MSFontService,sans-serif" font-weight="400" font-size="12" transform="matrix(2.94709 0 0 2.94654 1438.41 576)">word</text><path d="M80.1091 0C84.9911-1.30853e-15 88.9487 3.95763 88.9487 8.83962L88.9487 61.8774C88.9487 66.7594 84.9911 70.717 80.1091 70.717L8.83962 70.717C3.95763 70.717-1.30853e-15 66.7594 0 61.8774L0 8.83962C-2.61705e-15 3.95763 3.95763-1.30853e-15 8.83962 0Z" fill="#DAE9E5" transform="matrix(1.00019 0 0 1 1434.21 611.631)"/><text fill="#908C83" font-family="Arial,Arial_MSFontService,sans-serif" font-weight="400" font-size="12" transform="matrix(2.94709 0 0 2.94654 1448.94 662)">“<tspan fill="#000000" font-size="12" x="3.99999" y="0">@</tspan><tspan font-size="12" x="16" y="0">”</tspan></text><path d="M55.9843 0C60.8663-1.30853e-15 64.8239 3.95763 64.8239 8.83962L64.8239 61.8774C64.8239 66.7594 60.8663 70.717 55.9843 70.717L8.83962 70.717C3.95763 70.717-1.30853e-15 66.7594 0 61.8774L0 8.83962C-2.61705e-15 3.95763 3.95763-1.30853e-15 8.83962 0Z" fill="#DAE9E5" transform="matrix(1.00019 0 0 1 1446.27 697.08)"/><text fill="#908C83" font-family="Arial,Arial_MSFontService,sans-serif" font-weight="400" font-size="12" transform="matrix(2.94709 0 0 2.94654 1461.01 747)">“<tspan fill="#000000" font-size="12" x="3.99999" y="0">-</tspan><tspan font-size="12" x="7.99999" y="0">”</tspan></text><path d="M75.6432 0C80.5252-1.30853e-15 84.4829 3.95763 84.4829 8.83962L84.4829 61.8774C84.4829 66.7594 80.5252 70.717 75.6432 70.717L8.83962 70.717C3.95763 70.717-1.30853e-15 66.7594 0 61.8774L0 8.83962C-2.61705e-15 3.95763 3.95763-1.30853e-15 8.83962 0Z" fill="#DAE9E5" transform="matrix(1.00019 0 0 1 1436.44 782.53)"/><text fill="#908C83" font-family="Arial,Arial_MSFontService,sans-serif" font-weight="400" font-size="12" transform="matrix(2.94709 0 0 2.94654 1451.18 833)">“<tspan fill="#000000" font-size="12" x="3.99999" y="0">%</tspan><tspan font-size="12" x="15" y="0">”</tspan></text><path d="M64.8699 0C69.7519-1.30853e-15 73.7096 3.95763 73.7096 8.83962L73.7096 61.8774C73.7096 66.7594 69.7519 70.717 64.8699 70.717L8.83962 70.717C3.95763 70.717-1.30853e-15 66.7594 0 61.8774L0 8.83962C-2.61705e-15 3.95763 3.95763-1.30853e-15 8.83962 0Z" fill="#DAE9E5" transform="matrix(1.00019 0 0 1 1441.83 867.98)"/><text fill="#908C83" font-family="Arial,Arial_MSFontService,sans-serif" font-weight="400" font-size="12" transform="matrix(2.94709 0 0 2.94654 1456.56 918)">“<tspan fill="#000000" font-size="12" x="3.99999" y="0">=</tspan><tspan font-size="12" x="11" y="0">”</tspan></text><path d="M0 64.8239C19.6436 64.8239 29.4654 55.0021 29.4654 35.3585L29.4654 29.4654C29.4654 9.8218 39.2872 0 58.9308 0L305.497 0C325.14 0 334.962 9.8218 334.962 29.4654L334.962 35.3585C334.962 55.0021 344.784 64.8239 364.427 64.8239" stroke="#000000" stroke-width="5.89308" fill="none" transform="matrix(1.00019 0 0 1 1710.53 667.615)"/><path d="M62.8902 35.3585 121.821 35.3585" stroke="#000000" stroke-width="5.89308" fill="none" transform="matrix(1.00019 0 0 1 1754.74 697.08)"/><path d="M54.0506 0C58.9326-1.30853e-15 62.8902 3.95763 62.8902 8.83962L62.8902 61.8774C62.8902 66.7594 58.9326 70.717 54.0506 70.717L8.83962 70.717C3.95763 70.717-1.30853e-15 66.7594 0 61.8774L0 8.83962C-2.61705e-15 3.95763 3.95763-1.30853e-15 8.83962 0Z" fill="#DAE9E5" transform="matrix(1.00019 0 0 1 1754.74 697.08)"/><text fill="#908C83" font-family="Arial,Arial_MSFontService,sans-serif" font-weight="400" font-size="12" transform="matrix(2.94709 0 0 2.94654 1769.47 747)">“<tspan fill="#000000" font-size="12" x="3.99999" y="0">.</tspan><tspan font-size="12" x="7.00001" y="0">”</tspan></text><path d="M29.4654 35.3585C9.8218 35.3585 0 45.1803 0 64.8239L0 70.717C0 90.3606 9.8218 100.182 29.4654 100.182L139.477 100.182C159.121 100.182 168.943 90.3606 168.943 70.717L168.943 64.8239C168.943 45.1803 159.121 35.3585 139.477 35.3585M168.943 79.5566 183.675 64.8239M168.943 79.5566 154.21 64.8239" stroke="#000000" stroke-width="5.89308" fill="none" transform="matrix(1.00019 0 0 1 1847.11 697.08)"/><path d="M101.172 0C106.054-1.30853e-15 110.012 3.95763 110.012 8.83962L110.012 61.8774C110.012 66.7594 106.054 70.717 101.172 70.717L8.83962 70.717C3.95763 70.717-1.30853e-15 66.7594 0 61.8774L0 8.83962C-2.61705e-15 3.95763 3.95763-1.30853e-15 8.83962 0Z" fill="#BADA55" transform="matrix(1.00019 0 0 1 1876.58 697.08)"/><text font-family="Arial,Arial_MSFontService,sans-serif" font-weight="400" font-size="12" transform="matrix(2.94709 0 0 2.94654 1891.32 747)">word</text><path d="M0 469.973C19.6436 469.973 29.4654 460.152 29.4654 440.508L29.4654 29.4654C29.4654 9.8218 39.2872 0 58.9308 0L1757.38 0C1777.03 0 1786.85 9.8218 1786.85 29.4654L1786.85 440.508C1786.85 460.152 1796.67 469.973 1816.31 469.973" stroke="#000000" stroke-width="5.89308" fill="none" transform="matrix(1.00019 0 0 1 2104.5 262.465)"/><path d="M107.088 440.508 180.752 440.508M253.495 440.508 312.426 440.508M422.437 440.508 496.101 440.508M569.81 440.508 628.741 440.508M768.219 440.508 915.546 440.508" stroke="#000000" stroke-width="5.89308" fill="none" transform="matrix(1.00019 0 0 1 2148.7 291.931)"/><path d="M0 64.8239C19.6436 64.8239 29.4654 55.0021 29.4654 35.3585L29.4654 29.4654C29.4654 9.8218 39.2872 0 58.9308 0L92.3556 0C111.999 0 121.821 9.8218 121.821 29.4654L121.821 35.3585C121.821 55.0021 131.643 64.8239 151.286 64.8239" stroke="#000000" stroke-width="5.89308" fill="none" transform="matrix(1.00019 0 0 1 2148.7 667.615)"/><path d="M54.0506 0C58.9326-1.30853e-15 62.8902 3.95763 62.8902 8.83962L62.8902 61.8774C62.8902 66.7594 58.9326 70.717 54.0506 70.717L8.83962 70.717C3.95763 70.717-1.30853e-15 66.7594 0 61.8774L0 8.83962C-2.61705e-15 3.95763 3.95763-1.30853e-15 8.83962 0Z" fill="#DAE9E5" transform="matrix(1.00019 0 0 1 2192.91 697.08)"/><text fill="#908C83" font-family="Arial,Arial_MSFontService,sans-serif" font-weight="400" font-size="12" transform="matrix(2.94709 0 0 2.94654 2207.64 747)">“<tspan fill="#000000" font-size="12" x="3.99999" y="0">/</tspan><tspan font-size="12" x="7.00001" y="0">”</tspan></text><path d="M63.9031 0C68.7851-1.30853e-15 72.7427 3.95763 72.7427 8.83962L72.7427 61.8774C72.7427 66.7594 68.7851 70.717 63.9031 70.717L8.83962 70.717C3.95763 70.717-1.30853e-15 66.7594 0 61.8774L0 8.83962C-2.61705e-15 3.95763 3.95763-1.30853e-15 8.83962 0Z" fill="#DAE9E5" transform="matrix(1.00019 0 0 1 2329.49 697.08)"/><text fill="#908C83" font-family="Arial,Arial_MSFontService,sans-serif" font-weight="400" font-size="12" transform="matrix(2.94709 0 0 2.94654 2344.22 747)">“<tspan fill="#000000" font-size="12" x="3.99999" y="0">?</tspan><tspan font-size="12" x="11" y="0">”</tspan></text><path d="M29.4654 35.3585C9.8218 35.3585 0 45.1803 0 64.8239L0 70.717C0 90.3606 9.8218 100.182 29.4654 100.182L139.477 100.182C159.121 100.182 168.943 90.3606 168.943 70.717L168.943 64.8239C168.943 45.1803 159.121 35.3585 139.477 35.3585M168.943 79.5566 183.675 64.8239M168.943 79.5566 154.21 64.8239" stroke="#000000" stroke-width="5.89308" fill="none" transform="matrix(1.00019 0 0 1 2431.71 697.08)"/><path d="M101.172 0C106.054-1.30853e-15 110.012 3.95763 110.012 8.83962L110.012 61.8774C110.012 66.7594 106.054 70.717 101.172 70.717L8.83962 70.717C3.95763 70.717-1.30853e-15 66.7594 0 61.8774L0 8.83962C-2.61705e-15 3.95763 3.95763-1.30853e-15 8.83962 0Z" fill="#BADA55" transform="matrix(1.00019 0 0 1 2461.19 697.08)"/><text font-family="Arial,Arial_MSFontService,sans-serif" font-weight="400" font-size="12" transform="matrix(2.94709 0 0 2.94654 2475.92 747)">word</text><path d="M64.8699 0C69.7519-1.30853e-15 73.7096 3.95763 73.7096 8.83962L73.7096 61.8774C73.7096 66.7594 69.7519 70.717 64.8699 70.717L8.83962 70.717C3.95763 70.717-1.30853e-15 66.7594 0 61.8774L0 8.83962C-2.61705e-15 3.95763 3.95763-1.30853e-15 8.83962 0Z" fill="#DAE9E5" transform="matrix(1.00019 0 0 1 2644.89 697.08)"/><text fill="#908C83" font-family="Arial,Arial_MSFontService,sans-serif" font-weight="400" font-size="12" transform="matrix(2.94709 0 0 2.94654 2659.63 747)">“<tspan fill="#000000" font-size="12" x="4.00008" y="0">=</tspan><tspan font-size="12" x="11" y="0">”</tspan></text><path d="M29.4654 381.577C9.8218 381.577 0 391.399 0 411.042L0 730.742C0 750.386 9.8218 760.208 29.4654 760.208L168.943 760.208C188.586 760.208 198.408 750.386 198.408 730.742L198.408 411.042C198.408 391.399 188.586 381.577 168.943 381.577M198.408 425.775 213.141 411.042M198.408 425.775 183.675 411.042" stroke="#000000" stroke-width="5.89308" fill="none" transform="matrix(1.00019 0 0 1 2748.09 350.862)"/><path d="M130.638 0C135.52-1.30853e-15 139.477 3.95763 139.477 8.83962L139.477 689.491C139.477 694.373 135.52 698.33 130.638 698.33L8.83962 698.33C3.95763 698.33-1.30853e-15 694.373 0 689.491L0 8.83962C-2.61705e-15 3.95763 3.95763-1.30853e-15 8.83962 0Z" fill="#CBCBBA" transform="matrix(1.00019 0 0 1 2777.56 383.274)"/><text font-family="Arial,Arial_MSFontService,sans-serif" font-weight="400" font-size="10" transform="matrix(2.94709 0 0 2.94654 2777.56 383)">One of<tspan font-size="10" x="32" y="0">:</tspan></text><path d="M101.172 0C106.054-1.30853e-15 110.012 3.95763 110.012 8.83962L110.012 61.8774C110.012 66.7594 106.054 70.717 101.172 70.717L8.83962 70.717C3.95763 70.717-1.30853e-15 66.7594 0 61.8774L0 8.83962C-2.61705e-15 3.95763 3.95763-1.30853e-15 8.83962 0Z" fill="#BADA55" transform="matrix(1.00019 0 0 1 2792.3 398.006)"/><text font-family="Arial,Arial_MSFontService,sans-serif" font-weight="400" font-size="12" transform="matrix(2.94709 0 0 2.94654 2807.03 448)">word</text><path d="M75.6432 0C80.5252-1.30853e-15 84.4829 3.95763 84.4829 8.83962L84.4829 61.8774C84.4829 66.7594 80.5252 70.717 75.6432 70.717L8.83962 70.717C3.95763 70.717-1.30853e-15 66.7594 0 61.8774L0 8.83962C-2.61705e-15 3.95763 3.95763-1.30853e-15 8.83962 0Z" fill="#DAE9E5" transform="matrix(1.00019 0 0 1 2805.06 483.456)"/><text fill="#908C83" font-family="Arial,Arial_MSFontService,sans-serif" font-weight="400" font-size="12" transform="matrix(2.94709 0 0 2.94654 2819.8 534)">“<tspan fill="#000000" font-size="12" x="3.99999" y="0">%</tspan><tspan font-size="12" x="15" y="0">”</tspan></text><path d="M54.0506 0C58.9326-1.30853e-15 62.8902 3.95763 62.8902 8.83962L62.8902 61.8774C62.8902 66.7594 58.9326 70.717 54.0506 70.717L8.83962 70.717C3.95763 70.717-1.30853e-15 66.7594 0 61.8774L0 8.83962C-2.61705e-15 3.95763 3.95763-1.30853e-15 8.83962 0Z" fill="#DAE9E5" transform="matrix(1.00019 0 0 1 2815.86 568.906)"/><text fill="#908C83" font-family="Arial,Arial_MSFontService,sans-serif" font-weight="400" font-size="12" transform="matrix(2.94709 0 0 2.94654 2830.6 619)">“<tspan fill="#000000" font-size="12" x="3.99999" y="0">.</tspan><tspan font-size="12" x="7.00001" y="0">”</tspan></text><path d="M64.8699 0C69.7519-1.30853e-15 73.7096 3.95763 73.7096 8.83962L73.7096 61.8774C73.7096 66.7594 69.7519 70.717 64.8699 70.717L8.83962 70.717C3.95763 70.717-1.30853e-15 66.7594 0 61.8774L0 8.83962C-2.61705e-15 3.95763 3.95763-1.30853e-15 8.83962 0Z" fill="#DAE9E5" transform="matrix(1.00019 0 0 1 2810.45 654.355)"/><text fill="#908C83" font-family="Arial,Arial_MSFontService,sans-serif" font-weight="400" font-size="12" transform="matrix(2.94709 0 0 2.94654 2825.19 704)">“<tspan fill="#000000" font-size="12" x="3.99999" y="0">+</tspan><tspan font-size="12" x="10.9999" y="0">”</tspan></text><path d="M55.9843 0C60.8663-1.30853e-15 64.8239 3.95763 64.8239 8.83962L64.8239 61.8774C64.8239 66.7594 60.8663 70.717 55.9843 70.717L8.83962 70.717C3.95763 70.717-1.30853e-15 66.7594 0 61.8774L0 8.83962C-2.61705e-15 3.95763 3.95763-1.30853e-15 8.83962 0Z" fill="#DAE9E5" transform="matrix(1.00019 0 0 1 2814.89 739.805)"/><text fill="#908C83" font-family="Arial,Arial_MSFontService,sans-serif" font-weight="400" font-size="12" transform="matrix(2.94709 0 0 2.94654 2829.63 790)">“<tspan fill="#000000" font-size="12" x="3.99999" y="0">-</tspan><tspan font-size="12" x="7.99999" y="0">”</tspan></text><path d="M63.9031 0C68.7851-1.30853e-15 72.7427 3.95763 72.7427 8.83962L72.7427 61.8774C72.7427 66.7594 68.7851 70.717 63.9031 70.717L8.83962 70.717C3.95763 70.717-1.30853e-15 66.7594 0 61.8774L0 8.83962C-2.61705e-15 3.95763 3.95763-1.30853e-15 8.83962 0Z" fill="#DAE9E5" transform="matrix(1.00019 0 0 1 2810.93 825.255)"/><text fill="#908C83" font-family="Arial,Arial_MSFontService,sans-serif" font-weight="400" font-size="12" transform="matrix(2.94709 0 0 2.94654 2825.67 875)">“<tspan fill="#000000" font-size="12" x="3.99999" y="0">_</tspan><tspan font-size="12" x="11" y="0">”</tspan></text><path d="M64.8699 0C69.7519-1.30853e-15 73.7096 3.95763 73.7096 8.83962L73.7096 61.8774C73.7096 66.7594 69.7519 70.717 64.8699 70.717L8.83962 70.717C3.95763 70.717-1.30853e-15 66.7594 0 61.8774L0 8.83962C-2.61705e-15 3.95763 3.95763-1.30853e-15 8.83962 0Z" fill="#DAE9E5" transform="matrix(1.00019 0 0 1 2810.45 910.705)"/><text fill="#908C83" font-family="Arial,Arial_MSFontService,sans-serif" font-weight="400" font-size="12" transform="matrix(2.94709 0 0 2.94654 2825.19 961)">“<tspan fill="#000000" font-size="12" x="3.99999" y="0">=</tspan><tspan font-size="12" x="10.9999" y="0">”</tspan></text><path d="M53.4061 0C58.288-1.30853e-15 62.2457 3.95763 62.2457 8.83962L62.2457 61.8774C62.2457 66.7594 58.288 70.717 53.4061 70.717L8.83962 70.717C3.95763 70.717-1.30853e-15 66.7594 0 61.8774L0 8.83962C-2.61705e-15 3.95763 3.95763-1.30853e-15 8.83962 0Z" fill="#DAE9E5" transform="matrix(1.00019 0 0 1 2816.18 996.154)"/><text fill="#908C83" font-family="Arial,Arial_MSFontService,sans-serif" font-weight="400" font-size="12" transform="matrix(2.94709 0 0 2.94654 2830.92 1046)">“<tspan fill="#000000" font-size="12" x="3.99999" y="0">|</tspan><tspan font-size="12" x="7.00001" y="0">”</tspan></text><path d="M29.4654 440.508C9.8218 440.508 0 450.33 0 469.973L0 819.138C0 838.782 9.8218 848.604 29.4654 848.604L841.836 848.604C861.48 848.604 871.301 838.782 871.301 819.138L871.301 469.973C871.301 450.33 861.48 440.508 841.836 440.508M871.301 484.706 886.034 469.973M871.301 484.706 856.569 469.973" stroke="#000000" stroke-width="5.89308" fill="none" transform="matrix(1.00019 0 0 1 2990.74 291.931)"/><path d="M0 440.508C19.6436 440.508 29.4654 430.686 29.4654 411.042L29.4654 29.4654C29.4654 9.8218 39.2872 0 58.9308 0L753.44 0C773.083 0 782.905 9.8218 782.905 29.4654L782.905 411.042C782.905 430.686 792.727 440.508 812.371 440.508" stroke="#000000" stroke-width="5.89308" fill="none" transform="matrix(1.00019 0 0 1 3020.21 291.931)"/><path d="M76.6561 411.042 135.587 411.042M245.599 411.042 319.262 411.042M392.972 411.042 496.101 411.042" stroke="#000000" stroke-width="5.89308" fill="none" transform="matrix(1.00019 0 0 1 3064.42 321.396)"/><path d="M67.8165 0C72.6985-1.30853e-15 76.6561 3.95763 76.6561 8.83962L76.6561 61.8774C76.6561 66.7594 72.6985 70.717 67.8165 70.717L8.83962 70.717C3.95763 70.717-1.30853e-15 66.7594 0 61.8774L0 8.83962C-2.61705e-15 3.95763 3.95763-1.30853e-15 8.83962 0Z" fill="#DAE9E5" transform="matrix(1.00019 0 0 1 3064.42 697.08)"/><text fill="#908C83" font-family="Arial,Arial_MSFontService,sans-serif" font-weight="400" font-size="12" transform="matrix(2.94709 0 0 2.94654 3079.15 747)">“<tspan fill="#000000" font-size="12" x="3.99999" y="0">&amp;</tspan><tspan font-size="12" x="12" y="0">”</tspan></text><path d="M29.4654 35.3585C9.8218 35.3585 0 45.1803 0 64.8239L0 70.717C0 90.3606 9.8218 100.182 29.4654 100.182L139.477 100.182C159.121 100.182 168.943 90.3606 168.943 70.717L168.943 64.8239C168.943 45.1803 159.121 35.3585 139.477 35.3585M168.943 79.5566 183.675 64.8239M168.943 79.5566 154.21 64.8239" stroke="#000000" stroke-width="5.89308" fill="none" transform="matrix(1.00019 0 0 1 3170.56 697.08)"/><path d="M101.172 0C106.054-1.30853e-15 110.012 3.95763 110.012 8.83962L110.012 61.8774C110.012 66.7594 106.054 70.717 101.172 70.717L8.83962 70.717C3.95763 70.717-1.30853e-15 66.7594 0 61.8774L0 8.83962C-2.61705e-15 3.95763 3.95763-1.30853e-15 8.83962 0Z" fill="#BADA55" transform="matrix(1.00019 0 0 1 3200.03 697.08)"/><text font-family="Arial,Arial_MSFontService,sans-serif" font-weight="400" font-size="12" transform="matrix(2.94709 0 0 2.94654 3214.76 747)">word</text><path d="M64.8699 0C69.7519-1.30853e-15 73.7096 3.95763 73.7096 8.83962L73.7096 61.8774C73.7096 66.7594 69.7519 70.717 64.8699 70.717L8.83962 70.717C3.95763 70.717-1.30853e-15 66.7594 0 61.8774L0 8.83962C-2.61705e-15 3.95763 3.95763-1.30853e-15 8.83962 0Z" fill="#DAE9E5" transform="matrix(1.00019 0 0 1 3383.74 697.08)"/><text fill="#908C83" font-family="Arial,Arial_MSFontService,sans-serif" font-weight="400" font-size="12" transform="matrix(2.94709 0 0 2.94654 3398.47 747)">“<tspan fill="#000000" font-size="12" x="4.00008" y="0">=</tspan><tspan font-size="12" x="11" y="0">”</tspan></text><path d="M0 411.042C19.6436 411.042 29.4654 401.221 29.4654 381.577L29.4654 29.4654C29.4654 9.8218 39.2872 0 58.9308 0L242.606 0C262.25 0 272.072 9.8218 272.072 29.4654L272.072 381.577C272.072 401.221 281.893 411.042 301.537 411.042" stroke="#000000" stroke-width="5.89308" fill="none" transform="matrix(1.00019 0 0 1 3486.93 321.396)"/><path d="M29.4654 381.577C9.8218 381.577 0 391.399 0 411.042L0 730.742C0 750.386 9.8218 760.208 29.4654 760.208L168.943 760.208C188.586 760.208 198.408 750.386 198.408 730.742L198.408 411.042C198.408 391.399 188.586 381.577 168.943 381.577M198.408 425.775 213.141 411.042M198.408 425.775 183.675 411.042" stroke="#000000" stroke-width="5.89308" fill="none" transform="matrix(1.00019 0 0 1 3531.14 350.862)"/><path d="M130.638 0C135.52-1.30853e-15 139.477 3.95763 139.477 8.83962L139.477 689.491C139.477 694.373 135.52 698.33 130.638 698.33L8.83962 698.33C3.95763 698.33-1.30853e-15 694.373 0 689.491L0 8.83962C-2.61705e-15 3.95763 3.95763-1.30853e-15 8.83962 0Z" fill="#CBCBBA" transform="matrix(1.00019 0 0 1 3560.61 383.274)"/><text font-family="Arial,Arial_MSFontService,sans-serif" font-weight="400" font-size="10" transform="matrix(2.94709 0 0 2.94654 3560.61 383)">One of<tspan font-size="10" x="32" y="0">:</tspan></text><path d="M101.172 0C106.054-1.30853e-15 110.012 3.95763 110.012 8.83962L110.012 61.8774C110.012 66.7594 106.054 70.717 101.172 70.717L8.83962 70.717C3.95763 70.717-1.30853e-15 66.7594 0 61.8774L0 8.83962C-2.61705e-15 3.95763 3.95763-1.30853e-15 8.83962 0Z" fill="#BADA55" transform="matrix(1.00019 0 0 1 3575.35 398.006)"/><text font-family="Arial,Arial_MSFontService,sans-serif" font-weight="400" font-size="12" transform="matrix(2.94709 0 0 2.94654 3590.08 448)">word</text><path d="M75.6432 0C80.5252-1.30853e-15 84.4829 3.95763 84.4829 8.83962L84.4829 61.8774C84.4829 66.7594 80.5252 70.717 75.6432 70.717L8.83962 70.717C3.95763 70.717-1.30853e-15 66.7594 0 61.8774L0 8.83962C-2.61705e-15 3.95763 3.95763-1.30853e-15 8.83962 0Z" fill="#DAE9E5" transform="matrix(1.00019 0 0 1 3588.11 483.456)"/><text fill="#908C83" font-family="Arial,Arial_MSFontService,sans-serif" font-weight="400" font-size="12" transform="matrix(2.94709 0 0 2.94654 3602.85 534)">“<tspan fill="#000000" font-size="12" x="3.99999" y="0">%</tspan><tspan font-size="12" x="15" y="0">”</tspan></text><path d="M54.0506 0C58.9326-1.30853e-15 62.8902 3.95763 62.8902 8.83962L62.8902 61.8774C62.8902 66.7594 58.9326 70.717 54.0506 70.717L8.83962 70.717C3.95763 70.717-1.30853e-15 66.7594 0 61.8774L0 8.83962C-2.61705e-15 3.95763 3.95763-1.30853e-15 8.83962 0Z" fill="#DAE9E5" transform="matrix(1.00019 0 0 1 3598.91 568.906)"/><text fill="#908C83" font-family="Arial,Arial_MSFontService,sans-serif" font-weight="400" font-size="12" transform="matrix(2.94709 0 0 2.94654 3613.65 619)">“<tspan fill="#000000" font-size="12" x="3.99999" y="0">.</tspan><tspan font-size="12" x="7.00001" y="0">”</tspan></text><path d="M64.8699 0C69.7519-1.30853e-15 73.7096 3.95763 73.7096 8.83962L73.7096 61.8774C73.7096 66.7594 69.7519 70.717 64.8699 70.717L8.83962 70.717C3.95763 70.717-1.30853e-15 66.7594 0 61.8774L0 8.83962C-2.61705e-15 3.95763 3.95763-1.30853e-15 8.83962 0Z" fill="#DAE9E5" transform="matrix(1.00019 0 0 1 3593.5 654.355)"/><text fill="#908C83" font-family="Arial,Arial_MSFontService,sans-serif" font-weight="400" font-size="12" transform="matrix(2.94709 0 0 2.94654 3608.24 704)">“<tspan fill="#000000" font-size="12" x="4.00008" y="0">+</tspan><tspan font-size="12" x="11" y="0">”</tspan></text><path d="M55.9843 0C60.8663-1.30853e-15 64.8239 3.95763 64.8239 8.83962L64.8239 61.8774C64.8239 66.7594 60.8663 70.717 55.9843 70.717L8.83962 70.717C3.95763 70.717-1.30853e-15 66.7594 0 61.8774L0 8.83962C-2.61705e-15 3.95763 3.95763-1.30853e-15 8.83962 0Z" fill="#DAE9E5" transform="matrix(1.00019 0 0 1 3597.94 739.805)"/><text fill="#908C83" font-family="Arial,Arial_MSFontService,sans-serif" font-weight="400" font-size="12" transform="matrix(2.94709 0 0 2.94654 3612.68 790)">“<tspan fill="#000000" font-size="12" x="3.99999" y="0">-</tspan><tspan font-size="12" x="7.99999" y="0">”</tspan></text><path d="M63.9031 0C68.7851-1.30853e-15 72.7427 3.95763 72.7427 8.83962L72.7427 61.8774C72.7427 66.7594 68.7851 70.717 63.9031 70.717L8.83962 70.717C3.95763 70.717-1.30853e-15 66.7594 0 61.8774L0 8.83962C-2.61705e-15 3.95763 3.95763-1.30853e-15 8.83962 0Z" fill="#DAE9E5" transform="matrix(1.00019 0 0 1 3593.98 825.255)"/><text fill="#908C83" font-family="Arial,Arial_MSFontService,sans-serif" font-weight="400" font-size="12" transform="matrix(2.94709 0 0 2.94654 3608.72 875)">“<tspan fill="#000000" font-size="12" x="3.99999" y="0">_</tspan><tspan font-size="12" x="11" y="0">”</tspan></text><path d="M64.8699 0C69.7519-1.30853e-15 73.7096 3.95763 73.7096 8.83962L73.7096 61.8774C73.7096 66.7594 69.7519 70.717 64.8699 70.717L8.83962 70.717C3.95763 70.717-1.30853e-15 66.7594 0 61.8774L0 8.83962C-2.61705e-15 3.95763 3.95763-1.30853e-15 8.83962 0Z" fill="#DAE9E5" transform="matrix(1.00019 0 0 1 3593.5 910.705)"/><text fill="#908C83" font-family="Arial,Arial_MSFontService,sans-serif" font-weight="400" font-size="12" transform="matrix(2.94709 0 0 2.94654 3608.24 961)">“<tspan fill="#000000" font-size="12" x="4.00008" y="0">=</tspan><tspan font-size="12" x="11" y="0">”</tspan></text><path d="M53.4061 0C58.288-1.30853e-15 62.2457 3.95763 62.2457 8.83962L62.2457 61.8774C62.2457 66.7594 58.288 70.717 53.4061 70.717L8.83962 70.717C3.95763 70.717-1.30853e-15 66.7594 0 61.8774L0 8.83962C-2.61705e-15 3.95763 3.95763-1.30853e-15 8.83962 0Z" fill="#DAE9E5" transform="matrix(1.00019 0 0 1 3599.23 996.154)"/><text fill="#908C83" font-family="Arial,Arial_MSFontService,sans-serif" font-weight="400" font-size="12" transform="matrix(2.94709 0 0 2.94654 3613.97 1046)">“<tspan fill="#000000" font-size="12" x="3.99999" y="0">|</tspan><tspan font-size="12" x="7.00001" y="0">”</tspan></text><path d="M0 64.8239C19.6436 64.8239 29.4654 55.0021 29.4654 35.3585L29.4654 29.4654C29.4654 9.8218 39.2872 0 58.9308 0L315.349 0C334.993 0 344.814 9.8218 344.814 29.4654L344.814 35.3585C344.814 55.0021 354.636 64.8239 374.28 64.8239" stroke="#000000" stroke-width="5.89308" fill="none" transform="matrix(1.00019 0 0 1 3950.62 667.615)"/><path d="M72.7427 35.3585 131.674 35.3585" stroke="#000000" stroke-width="5.89308" fill="none" transform="matrix(1.00019 0 0 1 3994.82 697.08)"/><path d="M63.9031 0C68.7851-1.30853e-15 72.7427 3.95763 72.7427 8.83962L72.7427 61.8774C72.7427 66.7594 68.7851 70.717 63.9031 70.717L8.83962 70.717C3.95763 70.717-1.30853e-15 66.7594 0 61.8774L0 8.83962C-2.61705e-15 3.95763 3.95763-1.30853e-15 8.83962 0Z" fill="#DAE9E5" transform="matrix(1.00019 0 0 1 3994.82 697.08)"/><text fill="#908C83" font-family="Arial,Arial_MSFontService,sans-serif" font-weight="400" font-size="12" transform="matrix(2.94709 0 0 2.94654 4009.56 747)">“<tspan fill="#000000" font-size="12" x="3.99999" y="0">#</tspan><tspan font-size="12" x="11" y="0">”</tspan></text><path d="M29.4654 35.3585C9.8218 35.3585 0 45.1803 0 64.8239L0 70.717C0 90.3606 9.8218 100.182 29.4654 100.182L139.477 100.182C159.121 100.182 168.943 90.3606 168.943 70.717L168.943 64.8239C168.943 45.1803 159.121 35.3585 139.477 35.3585M168.943 79.5566 183.675 64.8239M168.943 79.5566 154.21 64.8239" stroke="#000000" stroke-width="5.89308" fill="none" transform="matrix(1.00019 0 0 1 4097.05 697.08)"/><path d="M101.172 0C106.054-1.30853e-15 110.012 3.95763 110.012 8.83962L110.012 61.8774C110.012 66.7594 106.054 70.717 101.172 70.717L8.83962 70.717C3.95763 70.717-1.30853e-15 66.7594 0 61.8774L0 8.83962C-2.61705e-15 3.95763 3.95763-1.30853e-15 8.83962 0Z" fill="#BADA55" transform="matrix(1.00019 0 0 1 4126.52 697.08)"/><text font-family="Arial,Arial_MSFontService,sans-serif" font-weight="400" font-size="12" transform="matrix(2.94709 0 0 2.94654 4141.26 747)">word</text><path d="M29.4654 469.973 0 469.973M4191.57 469.973 4309.43 469.973" stroke="#000000" stroke-width="5.89308" fill="none" transform="matrix(1.00019 0 0 1 44.2063 262.465)"/><path d="M14.7327 469.973C14.7327 478.11 8.13665 484.706-2.61705e-15 484.706-8.13665 484.706-14.7327 478.11-14.7327 469.973-14.7327 461.837-8.13665 455.241 0 455.241 8.13665 455.241 14.7327 461.837 14.7327 469.973Z" stroke="#000000" stroke-width="5.89308" fill="#6B6659" transform="matrix(1.00019 0 0 1 44.2063 262.465)"/><path d="M4324.16 469.973C4324.16 478.11 4317.57 484.706 4309.43 484.706 4301.29 484.706 4294.7 478.11 4294.7 469.973 4294.7 461.837 4301.29 455.241 4309.43 455.241 4317.57 455.241 4324.16 461.837 4324.16 469.973Z" stroke="#000000" stroke-width="5.89308" fill="#6B6659" transform="matrix(1.00019 0 0 1 44.2063 262.465)"/></g></g></g><text fill="#13B5F0" font-family="Consolas,Consolas_MSFontService,sans-serif" font-weight="700" font-size="50" transform="matrix(1 0 0 1 220 145)">(?:https?:<tspan font-size="50" x="275" y="0">\</tspan>/\/|www<tspan font-size="50" x="495" y="0">\</tspan>.)<tspan fill="#C55A11" font-size="50" x="577.5" y="0">(?:[0</tspan><tspan fill="#C55A11" font-size="50" x="715" y="0">-</tspan><tspan fill="#C55A11" font-size="50" x="742.5" y="0">9a</tspan><tspan fill="#C55A11" font-size="50" x="797.5" y="0">-</tspan><tspan fill="#C55A11" font-size="50" x="825" y="0">zA</tspan><tspan fill="#C55A11" font-size="50" x="880" y="0">-</tspan><tspan fill="#C55A11" font-size="50" x="907.5" y="0">Z]+</tspan><tspan fill="#C55A11" font-size="50" x="990" y="0">\</tspan><tspan fill="#C55A11" font-size="50" x="1017.5" y="0">.?)+</tspan><tspan fill="#7030A0" font-size="50" x="1127.5" y="0">(?:(?:</tspan><tspan fill="#7030A0" font-size="50" x="1292.5" y="0">\</tspan><tspan fill="#7030A0" font-size="50" x="1320" y="0">/[</tspan><tspan fill="#7030A0" font-size="50" x="1375" y="0">\</tspan><tspan fill="#7030A0" font-size="50" x="1402.5" y="0">w@</tspan><tspan fill="#7030A0" font-size="50" x="1457.5" y="0">\</tspan><tspan fill="#7030A0" font-size="50" x="1485" y="0">-</tspan><tspan fill="#7030A0" font-size="50" x="1512.5" y="0">%=]+)?)+</tspan><tspan fill="#548235" font-size="50" x="1732.5" y="0">(?:</tspan><tspan fill="#548235" font-size="50" x="1815" y="0">\</tspan><tspan fill="#548235" font-size="50" x="1842.5" y="0">.</tspan><tspan fill="#548235" font-size="50" x="1870" y="0">\</tspan><tspan fill="#548235" font-size="50" x="1897.5" y="0">w+)?</tspan><tspan fill="#FF0000" font-size="50" x="2007.5" y="0">(?:</tspan><tspan fill="#FF0000" font-size="50" x="2090" y="0">\</tspan><tspan fill="#FF0000" font-size="50" x="2117.5" y="0">/?</tspan><tspan fill="#FF0000" font-size="50" x="2172.5" y="0">\</tspan><tspan fill="#FF0000" font-size="50" x="2200" y="0">?</tspan><tspan fill="#FF0000" font-size="50" x="2227.5" y="0">\</tspan><tspan fill="#FF0000" font-size="50" x="2255" y="0">w+=[</tspan><tspan fill="#FF0000" font-size="50" x="2365" y="0">\</tspan><tspan fill="#FF0000" font-size="50" x="2392.5" y="0">w%.+</tspan><tspan fill="#FF0000" font-size="50" x="2502.5" y="0">\</tspan><tspan fill="#FF0000" font-size="50" x="2530" y="0">-</tspan><tspan fill="#FF0000" font-size="50" x="2557.5" y="0">_=</tspan><tspan fill="#FF0000" font-size="50" x="2612.5" y="0">\</tspan><tspan fill="#FF0000" font-size="50" x="2640" y="0">|]+</tspan><tspan fill="#002060" font-size="50" x="2722.5" y="0">(?:(?:&amp;</tspan><tspan fill="#002060" font-size="50" x="2915" y="0">\</tspan><tspan fill="#002060" font-size="50" x="2942.5" y="0">w+=(?:[</tspan><tspan fill="#002060" font-size="50" x="3135" y="0">\</tspan><tspan fill="#002060" font-size="50" x="3162.5" y="0">w%.+</tspan><tspan fill="#002060" font-size="50" x="3272.5" y="0">\</tspan><tspan fill="#002060" font-size="50" x="3300" y="0">-</tspan><tspan fill="#002060" font-size="50" x="3327.5" y="0">_=</tspan><tspan fill="#002060" font-size="50" x="3382.5" y="0">\</tspan><tspan fill="#002060" font-size="50" x="3410" y="0">|]+)?)?)+</tspan><tspan fill="#FF0000" font-size="50" x="3657.5" y="0">)?</tspan><tspan fill="#00B050" font-size="50" x="3712.5" y="0">(?:#</tspan><tspan fill="#00B050" font-size="50" x="3822.5" y="0">\</tspan><tspan fill="#00B050" font-size="50" x="3850" y="0">w+)?</tspan></text><path d="M222.5 173.5 4178.32 173.5" stroke="#AFABAB" stroke-width="4.58333" stroke-miterlimit="8" stroke-dasharray="4.58333 4.58333" fill="none" fill-rule="evenodd"/><path d="M511.5 1264.57C511.5 1239.68 531.677 1219.5 556.566 1219.5L3844.43 1219.5C3869.32 1219.5 3889.5 1239.68 3889.5 1264.57L3889.5 1330.43C3889.5 1355.32 3869.32 1375.5 3844.43 1375.5L556.566 1375.5C531.677 1375.5 511.5 1355.32 511.5 1330.43Z" stroke="#2ABDF2" stroke-width="4.58333" stroke-miterlimit="8" fill="#FFFFFF" fill-rule="evenodd"/><text font-family="Malgun Gothic,Malgun Gothic_MSFontService,sans-serif" font-weight="700" font-size="73" transform="matrix(1 0 0 1 557.215 1325)">(1) Scheme<tspan font-weight="400" font-size="73" x="660" y="0">: pattern starts with one of [http:// , https:// , or</tspan><tspan font-weight="400" font-size="73" x="2289.95" y="0">www.]</tspan></text><path d="M511.5 1464.57C511.5 1439.68 531.677 1419.5 556.566 1419.5L3844.43 1419.5C3869.32 1419.5 3889.5 1439.68 3889.5 1464.57L3889.5 1530.43C3889.5 1555.32 3869.32 1575.5 3844.43 1575.5L556.566 1575.5C531.677 1575.5 511.5 1555.32 511.5 1530.43Z" stroke="#C55A11" stroke-width="4.58333" stroke-miterlimit="8" fill="#FFFFFF" fill-rule="evenodd"/><text font-family="Malgun Gothic,Malgun Gothic_MSFontService,sans-serif" font-weight="700" font-size="73" transform="matrix(1 0 0 1 557.215 1525)">(2) Domain<tspan font-weight="400" font-size="73" x="660" y="0">: followed by [</tspan><tspan font-weight="400" font-size="73" x="1141.82" y="0">chars.chars.chars</tspan><tspan font-weight="400" font-size="73" x="1692.97" y="0">] pattern</tspan></text><path d="M511.5 1664.57C511.5 1639.68 531.677 1619.5 556.566 1619.5L3844.43 1619.5C3869.32 1619.5 3889.5 1639.68 3889.5 1664.57L3889.5 1730.43C3889.5 1755.32 3869.32 1775.5 3844.43 1775.5L556.566 1775.5C531.677 1775.5 511.5 1755.32 511.5 1730.43Z" stroke="#7030A0" stroke-width="4.58333" stroke-miterlimit="8" fill="#FFFFFF" fill-rule="evenodd"/><text font-family="Malgun Gothic,Malgun Gothic_MSFontService,sans-serif" font-weight="700" font-size="73" transform="matrix(1 0 0 1 557.215 1725)">(3) Path<tspan font-weight="400" font-size="73" x="660" y="0">: followed by [/chars/chars/chars] pattern </tspan><tspan font-style="oblique" font-weight="400" font-size="73" x="2063.07" y="0">(if exists)</tspan></text><path d="M511.5 1864.57C511.5 1839.68 531.677 1819.5 556.566 1819.5L3844.43 1819.5C3869.32 1819.5 3889.5 1839.68 3889.5 1864.57L3889.5 1930.43C3889.5 1955.32 3869.32 1975.5 3844.43 1975.5L556.566 1975.5C531.677 1975.5 511.5 1955.32 511.5 1930.43Z" stroke="#548235" stroke-width="4.58333" stroke-miterlimit="8" fill="#FFFFFF" fill-rule="evenodd"/><text font-family="Malgun Gothic,Malgun Gothic_MSFontService,sans-serif" font-weight="700" font-size="73" transform="matrix(1 0 0 1 557.215 1925)">(4) File<tspan font-weight="400" font-size="73" x="660" y="0">: followed by [.chars] pattern</tspan><tspan font-style="oblique" font-weight="400" font-size="73" x="1645.42" y="0">(if exists)</tspan></text><path d="M511.5 2064.57C511.5 2039.68 531.677 2019.5 556.566 2019.5L3844.43 2019.5C3869.32 2019.5 3889.5 2039.68 3889.5 2064.57L3889.5 2130.43C3889.5 2155.32 3869.32 2175.5 3844.43 2175.5L556.566 2175.5C531.677 2175.5 511.5 2155.32 511.5 2130.43Z" stroke="#FF0000" stroke-width="4.58333" stroke-miterlimit="8" fill="#FFFFFF" fill-rule="evenodd"/><text font-family="Malgun Gothic,Malgun Gothic_MSFontService,sans-serif" font-weight="700" font-size="73" transform="matrix(1 0 0 1 557.215 2125)">(5) Query<tspan font-weight="400" font-size="73" x="660" y="0">: followed by [?chars=</tspan><tspan font-weight="400" font-size="73" x="1400.21" y="0">chars</tspan></text><g clip-path="url(#clip6)" filter="url(#fx0)" transform="translate(2084 2029)"><g clip-path="url(#clip7)"><path d="M40.9556-7.37842C35.7752-1.88916 29.4899 0.855469 22.0996 0.855469 16.6579 0.855469 12.3568-0.487142 9.19629-3.17236 6.03581-5.85758 4.45557-9.52897 4.45557-14.1865 4.45557-21.4342 8.50716-26.8047 16.6103-30.2978 12.5706-33.3395 10.5508-37.0109 10.5508-41.312 10.5508-44.9953 11.7983-47.9181 14.2935-50.0806 16.7886-52.243 20.0322-53.3242 24.0244-53.3242 27.8027-53.3242 30.8682-52.3024 33.2207-50.2588 35.5732-48.2152 36.7495-45.5418 36.7495-42.2388 36.7495-36.7495 33.387-32.6623 26.6621-29.977 31.89-27.981 36.797-23.4066 41.3833-16.2539 45.3517-22.0046 47.3359-28.575 47.3359-35.9653 47.3359-37.5099 47.1221-39.1852 46.6943-40.9912L52.2905-40.9912C52.5757-39.7793 52.7183-38.1634 52.7183-36.1436 52.7183-27.9691 49.9023-19.8184 44.2705-11.6914 46.4329-8.6735 48.1439-6.71899 49.4033-5.82788 50.6628-4.93677 52.1123-4.49121 53.7519-4.49121 54.6074-4.49121 56.0807-4.83577 58.1719-5.5249L58.1719-0.142578C56.5085 0.522786 54.7143 0.855469 52.7895 0.855469 50.6509 0.855469 48.7558 0.356445 47.1042-0.641602 45.4527-1.63965 43.4032-3.88525 40.9556-7.37842ZM22.0283-32.4009C28.278-34.5871 31.4028-37.6881 31.4028-41.7041 31.4028-43.8903 30.684-45.6072 29.2463-46.8547 27.8087-48.1023 26.068-48.7261 24.0244-48.7261 21.5768-48.7261 19.6164-48.0548 18.1431-46.7122 16.6698-45.3695 15.9331-43.5814 15.9331-41.3477 15.9331-37.6169 17.9648-34.6346 22.0283-32.4009ZM38.2109-11.6558C34.9792-16.6935 32.187-20.258 29.8345-22.3491 27.4819-24.4403 24.5353-26.1393 20.9946-27.4463 17.0737-25.9255 14.2935-24.1373 12.6538-22.0818 11.0142-20.0263 10.1943-17.4658 10.1943-14.4004 10.1943-11.2637 11.2815-8.76855 13.4558-6.91504 15.6301-5.06152 18.4995-4.13477 22.064-4.13477 28.48-4.13477 33.8623-6.64176 38.2109-11.6558ZM91.666-1.74658C88.7194 0.0118814 85.3332 0.891113 81.5073 0.891113 76.2794 0.891113 72.014-0.819824 68.7109-4.2417 65.4079-7.66357 63.7563-12.2023 63.7563-17.8579 63.7563-24.0601 65.5089-29.0206 69.0139-32.7395 72.519-36.4584 77.2062-38.3179 83.0757-38.3179 86.3074-38.3179 89.1828-37.7119 91.7017-36.5L91.7017-30.583C88.8976-32.5553 85.9154-33.5415 82.7549-33.5415 78.929-33.5415 75.7626-32.1573 73.2556-29.3889 70.7486-26.6205 69.4951-22.9432 69.4951-18.3569 69.4951-13.9845 70.6417-10.4854 72.9348-7.85962 75.2279-5.2338 78.3706-3.9209 82.3628-3.9209 85.6658-3.9209 88.7669-5.014 91.666-7.20019ZM132.032 0 126.4 0 126.4-21.6006C126.4-29.5612 123.43-33.5415 117.489-33.5415 114.519-33.5415 112.012-32.389 109.968-30.084 107.924-27.779 106.902-24.8205 106.902-21.2085L106.902 0 101.235 0 101.235-55.4272 106.902-55.4272 106.902-31.189 107.045-31.189C109.92-35.9416 114.031-38.3179 119.378-38.3179 127.814-38.3179 132.032-33.2326 132.032-23.062ZM144.522-34.7891C148.181-37.1416 152.388-38.3179 157.14-38.3179 165.837-38.3179 170.186-33.7078 170.186-24.4878L170.186 0 164.519 0 164.519-5.88135 164.305-5.88135C161.715-1.36637 157.877 0.891113 152.791 0.891113 149.132 0.891113 146.227-0.0891114 144.076-2.04956 141.926-4.01001 140.851-6.62988 140.851-9.90918 140.851-16.8717 144.962-20.9233 153.184-22.064L164.483-23.7036C164.483-30.2147 161.893-33.4702 156.712-33.4702 152.15-33.4702 148.086-31.9137 144.522-28.8008ZM155.322-17.7866C152.399-17.4064 150.237-16.6935 148.835-15.6479 147.433-14.6024 146.732-12.8201 146.732-10.3013 146.732-8.40023 147.403-6.86751 148.746-5.70312 150.088-4.53874 151.853-3.95654 154.039-3.95654 157.057-3.95654 159.552-5.02588 161.524-7.16455 163.497-9.30322 164.483-11.9884 164.483-15.2202L164.483-18.9985ZM201.264-31.6523C200.195-32.4603 198.686-32.8643 196.737-32.8643 194.171-32.8643 192.02-31.6167 190.286-29.1216 188.551-26.6265 187.684-23.3115 187.684-19.1768L187.684 0 182.016 0 182.016-37.4624 187.684-37.4624 187.684-29.6919 187.826-29.6919C188.682-32.3296 189.983-34.391 191.729-35.8762 193.476-37.3614 195.43-38.104 197.593-38.104 199.161-38.104 200.385-37.9377 201.264-37.605ZM205.445-7.62793C208.724-5.2041 212.324-3.99219 216.245-3.99219 221.568-3.99219 224.23-5.78629 224.23-9.37451 224.23-10.9191 223.647-12.1964 222.483-13.2063 221.319-14.2162 219.026-15.3628 215.604-16.646 211.659-18.2144 208.992-19.8065 207.601-21.4224 206.211-23.0382 205.516-25.0819 205.516-27.5532 205.516-30.7375 206.895-33.3276 209.651-35.3237 212.408-37.3198 215.77-38.3179 219.738-38.3179 222.923-38.3179 225.798-37.7594 228.364-36.6426L228.364-30.7612C225.584-32.5672 222.412-33.4702 218.847-33.4702 216.519-33.4702 214.689-32.9534 213.358-31.9197 212.027-30.886 211.362-29.5968 211.362-28.0522 211.362-26.3888 211.855-25.1175 212.841-24.2383 213.827-23.359 215.972-22.2659 219.275-20.959 223.742-19.2243 226.653-17.5252 228.008-15.8618 229.362-14.1984 230.04-12.2142 230.04-9.90918 230.04-6.58236 228.667-3.9506 225.923-2.01392 223.178-0.0772299 219.667 0.891113 215.39 0.891113 211.516 0.891113 208.201 0.130697 205.445-1.39014Z" fill="#002060" transform="matrix(1 0 0 1 49.9792 100)"/></g></g><text fill="#002060" font-family="Malgun Gothic,Malgun Gothic_MSFontService,sans-serif" font-weight="400" font-size="73" transform="matrix(1 0 0 1 2130.44 2125)">&amp;chars</text><g clip-path="url(#clip8)" filter="url(#fx1)" transform="translate(2317 2029)"><g clip-path="url(#clip9)"><path d="M42.7734-27.3394 8.4834-27.3394 8.4834-31.9731 42.7734-31.9731ZM42.7734-11.7627 8.4834-11.7627 8.4834-16.4321 42.7734-16.4321ZM83.0723-1.74658C80.1256 0.0118814 76.7394 0.891113 72.9136 0.891113 67.6857 0.891113 63.4202-0.819824 60.1172-4.2417 56.8141-7.66357 55.1626-12.2023 55.1626-17.8579 55.1626-24.0601 56.9151-29.0206 60.4202-32.7395 63.9252-36.4584 68.6125-38.3179 74.4819-38.3179 77.7137-38.3179 80.589-37.7119 83.1079-36.5L83.1079-30.583C80.3039-32.5553 77.3216-33.5415 74.1611-33.5415 70.3353-33.5415 67.1689-32.1573 64.6619-29.3889 62.1549-26.6205 60.9014-22.9432 60.9014-18.3569 60.9014-13.9845 62.0479-10.4854 64.3411-7.85962 66.6342-5.2338 69.7768-3.9209 73.769-3.9209 77.0721-3.9209 80.1732-5.014 83.0723-7.20019ZM123.438 0 117.806 0 117.806-21.6006C117.806-29.5612 114.836-33.5415 108.895-33.5415 105.925-33.5415 103.418-32.389 101.374-30.084 99.3306-27.779 98.3087-24.8205 98.3087-21.2085L98.3087 0 92.6413 0 92.6413-55.4272 98.3087-55.4272 98.3087-31.189 98.4513-31.189C101.327-35.9416 105.438-38.3179 110.784-38.3179 119.22-38.3179 123.438-33.2326 123.438-23.062ZM135.928-34.7891C139.588-37.1416 143.794-38.3179 148.546-38.3179 157.244-38.3179 161.592-33.7078 161.592-24.4878L161.592 0 155.925 0 155.925-5.88135 155.711-5.88135C153.121-1.36637 149.283 0.891113 144.198 0.891113 140.538 0.891113 137.633-0.0891114 135.483-2.04956 133.332-4.01001 132.257-6.62988 132.257-9.90918 132.257-16.8717 136.368-20.9233 144.59-22.064L155.889-23.7036C155.889-30.2147 153.299-33.4702 148.119-33.4702 143.556-33.4702 139.493-31.9137 135.928-28.8008ZM146.729-17.7866C143.806-17.4064 141.643-16.6935 140.241-15.6479 138.839-14.6024 138.138-12.8201 138.138-10.3013 138.138-8.40023 138.809-6.86751 140.152-5.70312 141.495-4.53874 143.259-3.95654 145.445-3.95654 148.463-3.95654 150.958-5.02588 152.931-7.16455 154.903-9.30322 155.889-11.9884 155.889-15.2202L155.889-18.9985ZM192.671-31.6523C191.601-32.4603 190.092-32.8643 188.144-32.8643 185.577-32.8643 183.427-31.6167 181.692-29.1216 179.957-26.6265 179.09-23.3115 179.09-19.1768L179.09 0 173.423 0 173.423-37.4624 179.09-37.4624 179.09-29.6919 179.233-29.6919C180.088-32.3296 181.389-34.391 183.136-35.8762 184.882-37.3614 186.837-38.104 188.999-38.104 190.568-38.104 191.791-37.9377 192.671-37.605ZM196.851-7.62793C200.131-5.2041 203.731-3.99219 207.652-3.99219 212.974-3.99219 215.636-5.78629 215.636-9.37451 215.636-10.9191 215.054-12.1964 213.889-13.2063 212.725-14.2162 210.432-15.3628 207.01-16.646 203.065-18.2144 200.398-19.8065 199.008-21.4224 197.618-23.0382 196.923-25.0819 196.923-27.5532 196.923-30.7375 198.301-33.3276 201.057-35.3237 203.814-37.3198 207.176-38.3179 211.145-38.3179 214.329-38.3179 217.204-37.7594 219.771-36.6426L219.771-30.7612C216.99-32.5672 213.818-33.4702 210.254-33.4702 207.925-33.4702 206.095-32.9534 204.764-31.9197 203.434-30.886 202.768-29.5968 202.768-28.0522 202.768-26.3888 203.261-25.1175 204.247-24.2383 205.234-23.359 207.378-22.2659 210.681-20.959 215.149-19.2243 218.06-17.5252 219.414-15.8618 220.769-14.1984 221.446-12.2142 221.446-9.90918 221.446-6.58236 220.074-3.9506 217.329-2.01392 214.584-0.0772299 211.073 0.891113 206.796 0.891113 202.923 0.891113 199.608 0.130697 196.851-1.39014Z" fill="#002060" transform="matrix(1 0 0 1 50.1562 100)"/></g></g><text fill="#002060" font-family="Malgun Gothic,Malgun Gothic_MSFontService,sans-serif" font-weight="400" font-size="73" transform="matrix(1 0 0 1 2363.62 2125)">=chars<tspan fill="#000000" font-size="73" x="224.583" y="0">] pattern </tspan><tspan fill="#000000" font-style="oblique" font-size="73" x="539.115" y="0">(if exists)</tspan></text><path d="M511.5 2264.57C511.5 2239.68 531.677 2219.5 556.566 2219.5L3844.43 2219.5C3869.32 2219.5 3889.5 2239.68 3889.5 2264.57L3889.5 2330.43C3889.5 2355.32 3869.32 2375.5 3844.43 2375.5L556.566 2375.5C531.677 2375.5 511.5 2355.32 511.5 2330.43Z" stroke="#00B050" stroke-width="4.58333" stroke-miterlimit="8" fill="#FFFFFF" fill-rule="evenodd"/><text font-family="Malgun Gothic,Malgun Gothic_MSFontService,sans-serif" font-weight="700" font-size="73" transform="matrix(1 0 0 1 557.215 2325)">(6) Fragment<tspan font-weight="400" font-size="73" x="660" y="0">: followed by [#chars] pattern </tspan><tspan font-style="oblique" font-weight="400" font-size="73" x="1674.06" y="0">(if exists)</tspan></text></g></svg>