<svg width="4274" height="2139" xmlns="http://www.w3.org/2000/svg" xmlns:xlink="http://www.w3.org/1999/xlink" overflow="hidden"><defs><filter id="fx0" x="-10%" y="-10%" width="120%" height="120%" filterUnits="userSpaceOnUse" primitiveUnits="userSpaceOnUse"><feComponentTransfer color-interpolation-filters="sRGB"><feFuncR type="discrete" tableValues="0 0"/><feFuncG type="discrete" tableValues="0 0"/><feFuncB type="discrete" tableValues="0 0"/><feFuncA type="linear" slope="0.431373" intercept="0"/></feComponentTransfer><feGaussianBlur stdDeviation="1.6663 1.6663"/></filter><filter id="fx1" x="-10%" y="-10%" width="120%" height="120%" filterUnits="userSpaceOnUse" primitiveUnits="userSpaceOnUse"><feComponentTransfer color-interpolation-filters="sRGB"><feFuncR type="discrete" tableValues="0 0"/><feFuncG type="discrete" tableValues="0 0"/><feFuncB type="discrete" tableValues="0 0"/><feFuncA type="linear" slope="0.431373" intercept="0"/></feComponentTransfer><feGaussianBlur stdDeviation="1.6663 1.6663"/></filter><filter id="fx2" x="-10%" y="-10%" width="120%" height="120%" filterUnits="userSpaceOnUse" primitiveUnits="userSpaceOnUse"><feComponentTransfer color-interpolation-filters="sRGB"><feFuncR type="discrete" tableValues="0 0"/><feFuncG type="discrete" tableValues="0 0"/><feFuncB type="discrete" tableValues="0 0"/><feFuncA type="linear" slope="0.431373" intercept="0"/></feComponentTransfer><feGaussianBlur stdDeviation="1.6663 1.6663"/></filter><filter id="fx3" x="-10%" y="-10%" width="120%" height="120%" filterUnits="userSpaceOnUse" primitiveUnits="userSpaceOnUse"><feComponentTransfer color-interpolation-filters="sRGB"><feFuncR type="discrete" tableValues="0 0"/><feFuncG type="discrete" tableValues="0 0"/><feFuncB type="discrete" tableValues="0 0"/><feFuncA type="linear" slope="0.431373" intercept="0"/></feComponentTransfer><feGaussianBlur stdDeviation="1.6663 1.6663"/></filter><filter id="fx4" x="-10%" y="-10%" width="120%" height="120%" filterUnits="userSpaceOnUse" primitiveUnits="userSpaceOnUse"><feComponentTransfer color-interpolation-filters="sRGB"><feFuncR type="discrete" tableValues="0 0"/><feFuncG type="discrete" tableValues="0 0"/><feFuncB type="discrete" tableValues="0 0"/><feFuncA type="linear" slope="0.431373" intercept="0"/></feComponentTransfer><feGaussianBlur stdDeviation="1.6663 1.6663"/></filter><filter id="fx5" x="-10%" y="-10%" width="120%" height="120%" filterUnits="userSpaceOnUse" primitiveUnits="userSpaceOnUse"><feComponentTransfer color-interpolation-filters="sRGB"><feFuncR type="discrete" tableValues="0 0"/><feFuncG type="discrete" tableValues="0 0"/><feFuncB type="discrete" tableValues="0 0"/><feFuncA type="linear" slope="0.431373" intercept="0"/></feComponentTransfer><feGaussianBlur stdDeviation="1.6663 1.6663"/></filter><clipPath id="clip6"><rect x="63" y="113" width="4274" height="2139"/></clipPath><clipPath id="clip7"><rect x="47" y="39" width="69" height="69"/></clipPath><clipPath id="clip8"><rect x="0" y="0" width="160" height="166"/></clipPath><clipPath id="clip9"><rect x="45" y="37" width="154" height="71"/></clipPath><clipPath id="clip10"><rect x="0" y="0" width="241" height="166"/></clipPath><clipPath id="clip11"><rect x="47" y="55" width="39" height="53"/></clipPath><clipPath id="clip12"><rect x="0" y="0" width="132" height="166"/></clipPath><clipPath id="clip13"><rect x="51" y="61" width="49" height="35"/></clipPath><clipPath id="clip14"><rect x="0" y="0" width="151" height="166"/></clipPath><clipPath id="clip15"><rect x="45" y="37" width="154" height="71"/></clipPath><clipPath id="clip16"><rect x="0" y="0" width="242" height="166"/></clipPath><clipPath id="clip17"><rect x="45" y="55" width="41" height="53"/></clipPath><clipPath id="clip18"><rect x="0" y="0" width="131" height="166"/></clipPath></defs><g clip-path="url(#clip6)" transform="translate(-63 -113)"><path d="M62.9999 155.693C62.9999 132.115 82.1143 113 105.693 113L4294.31 113C4317.89 113 4337 132.115 4337 155.693L4337 2209.31C4337 2232.89 4317.89 2252 4294.31 2252L105.693 2252C82.1143 2252 62.9999 2232.89 62.9999 2209.31Z" fill="#F2F2F2" fill-rule="evenodd"/><text font-family="Consolas,Consolas_MSFontService,sans-serif" font-weight="700" font-size="73" transform="matrix(1 0 0 1 234.896 357)">r'<tspan font-size="73" x="80.2083" y="0">\</tspan>b(<tspan fill="#00B0F0" font-size="73" x="200.521" y="0">(?:https?://|www</tspan><tspan fill="#00B0F0" font-size="73" x="842.188" y="0">\</tspan><tspan fill="#00B0F0" font-size="73" x="882.292" y="0">.)</tspan><tspan fill="#C55A11" font-size="73" x="962.5" y="0">(?:</tspan><tspan fill="#C55A11" font-size="73" x="1082.81" y="0">\</tspan><tspan fill="#C55A11" font-size="73" x="1122.92" y="0">w+</tspan><tspan fill="#C55A11" font-size="73" x="1203.13" y="0">\</tspan><tspan fill="#C55A11" font-size="73" x="1243.23" y="0">.?)+</tspan><tspan fill="#7030A0" font-size="73" x="1403.65" y="0">(?:(?:/</tspan><tspan fill="#7030A0" font-size="73" x="1684.38" y="0">\</tspan><tspan fill="#7030A0" font-size="73" x="1724.48" y="0">w+)?)+</tspan><tspan fill="#548235" font-size="73" x="1965.1" y="0">(?:</tspan><tspan fill="#548235" font-size="73" x="2085.42" y="0">\</tspan><tspan fill="#548235" font-size="73" x="2125.52" y="0">.</tspan><tspan fill="#548235" font-size="73" x="2165.62" y="0">\</tspan><tspan fill="#548235" font-size="73" x="2205.73" y="0">w+)?</tspan><tspan fill="#FF0000" font-size="73" x="2366.15" y="0">(?:</tspan><tspan fill="#FF0000" font-size="73" x="2486.46" y="0">\</tspan><tspan fill="#FF0000" font-size="73" x="2526.56" y="0">?</tspan><tspan fill="#FF0000" font-size="73" x="2566.67" y="0">\</tspan><tspan fill="#FF0000" font-size="73" x="2606.77" y="0">w+=[</tspan><tspan fill="#FF0000" font-size="73" x="2767.19" y="0">\</tspan><tspan fill="#FF0000" font-size="73" x="2807.29" y="0">w%.+]+</tspan><tspan fill="#002060" font-size="73" x="3047.92" y="0">(?:&amp;</tspan><tspan fill="#002060" font-size="73" x="3208.33" y="0">\</tspan><tspan fill="#002060" font-size="73" x="3248.44" y="0">w+=[</tspan><tspan fill="#002060" font-size="73" x="3408.85" y="0">\</tspan><tspan fill="#002060" font-size="73" x="3448.96" y="0">w%.+]+)?</tspan><tspan fill="#FF0000" font-size="73" x="3769.79" y="0">)?</tspan>)'</text><path d="M511.5 617.813C511.5 587.817 535.817 563.5 565.812 563.5L3835.19 563.5C3865.18 563.5 3889.5 587.817 3889.5 617.813L3889.5 697.187C3889.5 727.183 3865.18 751.5 3835.19 751.5L565.812 751.5C535.817 751.5 511.5 727.183 511.5 697.187Z" stroke="#000000" stroke-width="4.58333" stroke-miterlimit="8" fill="#FFFFFF" fill-rule="evenodd"/><text font-family="Consolas,Consolas_MSFontService,sans-serif" font-weight="700" font-size="73" transform="matrix(1 0 0 1 559.929 683)">r' '<tspan font-weight="400" font-size="73" x="200.521" y="0">indicates</tspan><tspan font-family="Malgun Gothic,Malgun Gothic_MSFontService,sans-serif" font-style="oblique" font-weight="400" font-size="73" x="587.24" y="0">raw string</tspan><tspan font-family="Malgun Gothic,Malgun Gothic_MSFontService,sans-serif" font-weight="400" font-size="73" x="918.385" y="0">,</tspan><tspan font-family="Malgun Gothic,Malgun Gothic_MSFontService,sans-serif" font-weight="400" font-size="73" x="960.208" y="0">an</tspan><tspan font-family="Malgun Gothic,Malgun Gothic_MSFontService,sans-serif" font-weight="400" font-size="73" x="1040.99" y="0">d</tspan><tspan font-size="73" x="1110.89" y="0">\</tspan>b<tspan font-family="Malgun Gothic,Malgun Gothic_MSFontService,sans-serif" font-weight="400" font-size="73" x="1231.2" y="0">indicates the pattern starts with specified character(s).</tspan></text><path d="M511.5 879.813C511.5 849.816 535.817 825.5 565.812 825.5L3835.19 825.5C3865.18 825.5 3889.5 849.816 3889.5 879.813L3889.5 959.187C3889.5 989.183 3865.18 1013.5 3835.19 1013.5L565.812 1013.5C535.817 1013.5 511.5 989.183 511.5 959.187Z" stroke="#2ABDF2" stroke-width="4.58333" stroke-miterlimit="8" fill="#FFFFFF" fill-rule="evenodd"/><text font-family="Malgun Gothic,Malgun Gothic_MSFontService,sans-serif" font-weight="700" font-size="73" transform="matrix(1 0 0 1 559.929 947)">(1) Scheme     <tspan font-weight="400" font-size="73" x="519.063" y="0">: pattern starts with one of [http:// , https:// , o</tspan><tspan font-weight="400" font-size="73" x="2097.45" y="0">r</tspan><tspan font-weight="400" font-size="73" x="2149.01" y="0">www.]</tspan></text><path d="M511.5 1141.81C511.5 1111.82 535.817 1087.5 565.812 1087.5L3835.19 1087.5C3865.18 1087.5 3889.5 1111.82 3889.5 1141.81L3889.5 1221.19C3889.5 1251.18 3865.18 1275.5 3835.19 1275.5L565.812 1275.5C535.817 1275.5 511.5 1251.18 511.5 1221.19Z" stroke="#C55A11" stroke-width="4.58333" stroke-miterlimit="8" fill="#FFFFFF" fill-rule="evenodd"/><text font-family="Malgun Gothic,Malgun Gothic_MSFontService,sans-serif" font-weight="700" font-size="73" transform="matrix(1 0 0 1 559.929 1209)">(2) Domain<tspan font-weight="400" font-size="73" x="521.927" y="0">: followed by [</tspan><tspan font-weight="400" font-size="73" x="1003.75" y="0">char</tspan><tspan font-weight="400" font-size="73" x="1145.26" y="0">s</tspan><tspan font-weight="400" font-size="73" x="1176.77" y="0">.char</tspan><tspan font-weight="400" font-size="73" x="1334.32" y="0">s</tspan><tspan font-weight="400" font-size="73" x="1365.83" y="0">.char</tspan><tspan font-weight="400" font-size="73" x="1523.39" y="0">s</tspan><tspan font-weight="400" font-size="73" x="1554.9" y="0">] pattern</tspan></text><path d="M511.5 1404.81C511.5 1374.82 535.817 1350.5 565.812 1350.5L3835.19 1350.5C3865.18 1350.5 3889.5 1374.82 3889.5 1404.81L3889.5 1484.19C3889.5 1514.18 3865.18 1538.5 3835.19 1538.5L565.812 1538.5C535.817 1538.5 511.5 1514.18 511.5 1484.19Z" stroke="#7030A0" stroke-width="4.58333" stroke-miterlimit="8" fill="#FFFFFF" fill-rule="evenodd"/><text font-family="Malgun Gothic,Malgun Gothic_MSFontService,sans-serif" font-weight="700" font-size="73" transform="matrix(1 0 0 1 559.929 1472)">(3) Path          <tspan font-weight="400" font-size="73" x="536.823" y="0">: followed by [/chars/</tspan><tspan font-weight="400" font-size="73" x="1250.1" y="0">char</tspan><tspan font-weight="400" font-size="73" x="1391.61" y="0">s</tspan><tspan font-weight="400" font-size="73" x="1423.13" y="0">/</tspan><tspan font-weight="400" font-size="73" x="1452.34" y="0">char</tspan><tspan font-weight="400" font-size="73" x="1593.85" y="0">s</tspan><tspan font-weight="400" font-size="73" x="1625.36" y="0">] </tspan><tspan font-weight="400" font-size="73" x="1673.49" y="0">pattern </tspan><tspan font-style="oblique" font-weight="400" font-size="73" x="1939.9" y="0">(if exists)</tspan></text><path d="M511.5 1666.81C511.5 1636.82 535.817 1612.5 565.812 1612.5L3835.19 1612.5C3865.18 1612.5 3889.5 1636.82 3889.5 1666.81L3889.5 1746.19C3889.5 1776.18 3865.18 1800.5 3835.19 1800.5L565.812 1800.5C535.817 1800.5 511.5 1776.18 511.5 1746.19Z" stroke="#548235" stroke-width="4.58333" stroke-miterlimit="8" fill="#FFFFFF" fill-rule="evenodd"/><text font-family="Malgun Gothic,Malgun Gothic_MSFontService,sans-serif" font-weight="700" font-size="73" transform="matrix(1 0 0 1 559.929 1734)">(4) Extension  <tspan font-weight="400" font-size="73" x="533.958" y="0">: followed by [.</tspan><tspan font-weight="400" font-size="73" x="1031.82" y="0">char</tspan><tspan font-weight="400" font-size="73" x="1173.33" y="0">s</tspan><tspan font-weight="400" font-size="73" x="1204.84" y="0">] </tspan><tspan font-weight="400" font-size="73" x="1252.97" y="0">pattern</tspan><tspan font-style="oblique" font-weight="400" font-size="73" x="1519.38" y="0">(if</tspan><tspan font-style="oblique" font-weight="400" font-size="73" x="1609.32" y="0">exists</tspan><tspan font-style="oblique" font-weight="400" font-size="73" x="1789.79" y="0">)</tspan></text><path d="M511.5 1928.81C511.5 1898.82 535.817 1874.5 565.812 1874.5L3835.19 1874.5C3865.18 1874.5 3889.5 1898.82 3889.5 1928.81L3889.5 2008.19C3889.5 2038.18 3865.18 2062.5 3835.19 2062.5L565.812 2062.5C535.817 2062.5 511.5 2038.18 511.5 2008.19Z" stroke="#FF0000" stroke-width="4.58333" stroke-miterlimit="8" fill="#FFFFFF" fill-rule="evenodd"/><text font-family="Malgun Gothic,Malgun Gothic_MSFontService,sans-serif" font-weight="700" font-size="73" transform="matrix(1 0 0 1 559.929 1996)">(5) Query        <tspan font-weight="400" font-size="73" x="536.823" y="0">: followed by [?</tspan><tspan font-weight="400" font-size="73" x="1052.45" y="0">char</tspan><tspan font-weight="400" font-size="73" x="1193.96" y="0">s</tspan><tspan font-weight="400" font-size="73" x="1225.47" y="0">=</tspan><tspan font-weight="400" font-size="73" x="1277.03" y="0">char</tspan><tspan font-weight="400" font-size="73" x="1418.54" y="0">s</tspan></text><g clip-path="url(#clip7)" filter="url(#fx0)" transform="translate(1964 1900)"><g clip-path="url(#clip8)"><path d="M40.9556-7.37842C35.7752-1.88916 29.4899 0.855469 22.0996 0.855469 16.6579 0.855469 12.3568-0.487142 9.19629-3.17236 6.03581-5.85758 4.45557-9.52897 4.45557-14.1865 4.45557-21.4342 8.50716-26.8047 16.6103-30.2978 12.5706-33.3395 10.5508-37.0109 10.5508-41.312 10.5508-44.9953 11.7983-47.9181 14.2935-50.0806 16.7886-52.243 20.0322-53.3242 24.0244-53.3242 27.8027-53.3242 30.8682-52.3024 33.2207-50.2588 35.5732-48.2152 36.7495-45.5418 36.7495-42.2388 36.7495-36.7495 33.387-32.6623 26.6621-29.977 31.89-27.981 36.797-23.4066 41.3833-16.2539 45.3517-22.0046 47.3359-28.575 47.3359-35.9653 47.3359-37.5099 47.1221-39.1852 46.6943-40.9912L52.2905-40.9912C52.5757-39.7793 52.7183-38.1634 52.7183-36.1436 52.7183-27.9691 49.9023-19.8184 44.2705-11.6914 46.4329-8.6735 48.1439-6.71899 49.4033-5.82788 50.6628-4.93677 52.1123-4.49121 53.7519-4.49121 54.6074-4.49121 56.0807-4.83577 58.1719-5.5249L58.1719-0.142578C56.5085 0.522786 54.7143 0.855469 52.7895 0.855469 50.6509 0.855469 48.7558 0.356445 47.1042-0.641602 45.4527-1.63965 43.4032-3.88525 40.9556-7.37842ZM22.0283-32.4009C28.278-34.5871 31.4028-37.6881 31.4028-41.7041 31.4028-43.8903 30.684-45.6072 29.2463-46.8547 27.8087-48.1023 26.068-48.7261 24.0244-48.7261 21.5768-48.7261 19.6164-48.0548 18.1431-46.7122 16.6698-45.3695 15.9331-43.5814 15.9331-41.3477 15.9331-37.6169 17.9648-34.6346 22.0283-32.4009ZM38.2109-11.6558C34.9792-16.6935 32.187-20.258 29.8345-22.3491 27.4819-24.4403 24.5353-26.1393 20.9946-27.4463 17.0737-25.9255 14.2935-24.1373 12.6538-22.0818 11.0142-20.0263 10.1943-17.4658 10.1943-14.4004 10.1943-11.2637 11.2815-8.76855 13.4558-6.91504 15.6301-5.06152 18.4995-4.13477 22.064-4.13477 28.48-4.13477 33.8623-6.64176 38.2109-11.6558Z" fill="#002060" transform="matrix(1 0 0 1 49.5156 100)"/></g></g><text fill="#002060" font-family="Malgun Gothic,Malgun Gothic_MSFontService,sans-serif" font-weight="400" font-size="73" transform="matrix(1 0 0 1 2009.98 1996)">&amp;</text><g clip-path="url(#clip9)" filter="url(#fx1)" transform="translate(2024 1900)"><g clip-path="url(#clip10)"><path d="M31.5098-1.74658C28.5631 0.0118814 25.1769 0.891113 21.3511 0.891113 16.1232 0.891113 11.8577-0.819824 8.55469-4.2417 5.25163-7.66357 3.6001-12.2023 3.6001-17.8579 3.6001-24.0601 5.35262-29.0206 8.85767-32.7395 12.3627-36.4584 17.05-38.3179 22.9194-38.3179 26.1512-38.3179 29.0265-37.7119 31.5454-36.5L31.5454-30.583C28.7414-32.5553 25.7591-33.5415 22.5986-33.5415 18.7728-33.5415 15.6064-32.1573 13.0994-29.3889 10.5924-26.6205 9.33887-22.9432 9.33887-18.3569 9.33887-13.9845 10.4854-10.4854 12.7786-7.85962 15.0717-5.2338 18.2144-3.9209 22.2065-3.9209 25.5096-3.9209 28.6107-5.014 31.5098-7.20019ZM71.8756 0 66.2438 0 66.2438-21.6006C66.2438-29.5612 63.2734-33.5415 57.3327-33.5415 54.3623-33.5415 51.8553-32.389 49.8117-30.084 47.7681-27.779 46.7463-24.8205 46.7463-21.2085L46.7463 0 41.0788 0 41.0788-55.4272 46.7463-55.4272 46.7463-31.189 46.8888-31.189C49.7642-35.9416 53.8752-38.3179 59.2218-38.3179 67.6577-38.3179 71.8756-33.2326 71.8756-23.062ZM84.3657-34.7891C88.0252-37.1416 92.2313-38.3179 96.9839-38.3179 105.681-38.3179 110.03-33.7078 110.03-24.4878L110.03 0 104.362 0 104.362-5.88135 104.148-5.88135C101.558-1.36637 97.7205 0.891113 92.6353 0.891113 88.9757 0.891113 86.0707-0.0891114 83.9202-2.04956 81.7696-4.01001 80.6943-6.62988 80.6943-9.90918 80.6943-16.8717 84.8053-20.9233 93.0273-22.064L104.327-23.7036C104.327-30.2147 101.736-33.4702 96.5562-33.4702 91.9937-33.4702 87.9302-31.9137 84.3657-28.8008ZM95.166-17.7866C92.2432-17.4064 90.0807-16.6935 88.6787-15.6479 87.2767-14.6024 86.5757-12.8201 86.5757-10.3013 86.5757-8.40023 87.247-6.86751 88.5896-5.70312 89.9322-4.53874 91.6966-3.95654 93.8828-3.95654 96.9007-3.95654 99.3958-5.02588 101.368-7.16455 103.34-9.30322 104.327-11.9884 104.327-15.2202L104.327-18.9985ZM141.108-31.6523C140.039-32.4603 138.53-32.8643 136.581-32.8643 134.015-32.8643 131.864-31.6167 130.13-29.1216 128.395-26.6265 127.528-23.3115 127.528-19.1768L127.528 0 121.86 0 121.86-37.4624 127.528-37.4624 127.528-29.6919 127.67-29.6919C128.526-32.3296 129.827-34.391 131.573-35.8762 133.32-37.3614 135.274-38.104 137.437-38.104 139.005-38.104 140.229-37.9377 141.108-37.605Z" fill="#002060" transform="matrix(1 0 0 1 49.6719 100)"/></g></g><text fill="#002060" font-family="Malgun Gothic,Malgun Gothic_MSFontService,sans-serif" font-weight="400" font-size="73" transform="matrix(1 0 0 1 2070.14 1996)">char</text><g clip-path="url(#clip11)" filter="url(#fx2)" transform="translate(2165 1900)"><g clip-path="url(#clip12)"><path d="M3.77832-7.62793C7.05762-5.2041 10.6577-3.99219 14.5786-3.99219 19.9015-3.99219 22.563-5.78629 22.563-9.37451 22.563-10.9191 21.9808-12.1964 20.8164-13.2063 19.652-14.2162 17.3589-15.3628 13.937-16.646 9.99235-18.2144 7.32495-19.8065 5.93481-21.4224 4.54468-23.0382 3.84961-25.0819 3.84961-27.5532 3.84961-30.7375 5.22786-33.3276 7.98437-35.3237 10.7409-37.3198 14.1034-38.3179 18.0718-38.3179 21.256-38.3179 24.1313-37.7594 26.6978-36.6426L26.6978-30.7612C23.9175-32.5672 20.7451-33.4702 17.1807-33.4702 14.8519-33.4702 13.0221-32.9534 11.6914-31.9197 10.3607-30.886 9.69531-29.5968 9.69531-28.0522 9.69531-26.3888 10.1884-25.1175 11.1746-24.2383 12.1607-23.359 14.3053-22.2659 17.6084-20.959 22.0758-19.2243 24.9868-17.5252 26.3413-15.8618 27.6958-14.1984 28.373-12.2142 28.373-9.90918 28.373-6.58236 27.0007-3.9506 24.2561-2.01392 21.5115-0.0772299 18.0005 0.891113 13.7231 0.891113 9.84977 0.891113 6.53483 0.130697 3.77832-1.39014Z" fill="#002060" transform="matrix(1 0 0 1 50.1824 100)"/></g></g><text fill="#002060" font-family="Malgun Gothic,Malgun Gothic_MSFontService,sans-serif" font-weight="400" font-size="73" transform="matrix(1 0 0 1 2211.65 1996)">s</text><g clip-path="url(#clip13)" filter="url(#fx3)" transform="translate(2197 1900)"><g clip-path="url(#clip14)"><path d="M42.7734-27.3394 8.4834-27.3394 8.4834-31.9731 42.7734-31.9731ZM42.7734-11.7627 8.4834-11.7627 8.4834-16.4321 42.7734-16.4321Z" fill="#002060" transform="matrix(1 0 0 1 49.6926 100)"/></g></g><text fill="#002060" font-family="Malgun Gothic,Malgun Gothic_MSFontService,sans-serif" font-weight="400" font-size="73" transform="matrix(1 0 0 1 2243.16 1996)">=</text><g clip-path="url(#clip15)" filter="url(#fx4)" transform="translate(2248 1900)"><g clip-path="url(#clip16)"><path d="M31.5098-1.74658C28.5631 0.0118814 25.1769 0.891113 21.3511 0.891113 16.1232 0.891113 11.8577-0.819824 8.55469-4.2417 5.25163-7.66357 3.6001-12.2023 3.6001-17.8579 3.6001-24.0601 5.35262-29.0206 8.85767-32.7395 12.3627-36.4584 17.05-38.3179 22.9194-38.3179 26.1512-38.3179 29.0265-37.7119 31.5454-36.5L31.5454-30.583C28.7414-32.5553 25.7591-33.5415 22.5986-33.5415 18.7728-33.5415 15.6064-32.1573 13.0994-29.3889 10.5924-26.6205 9.33887-22.9432 9.33887-18.3569 9.33887-13.9845 10.4854-10.4854 12.7786-7.85962 15.0717-5.2338 18.2144-3.9209 22.2065-3.9209 25.5096-3.9209 28.6107-5.014 31.5098-7.20019ZM71.8756 0 66.2438 0 66.2438-21.6006C66.2438-29.5612 63.2734-33.5415 57.3327-33.5415 54.3623-33.5415 51.8553-32.389 49.8117-30.084 47.7681-27.779 46.7463-24.8205 46.7463-21.2085L46.7463 0 41.0788 0 41.0788-55.4272 46.7463-55.4272 46.7463-31.189 46.8888-31.189C49.7642-35.9416 53.8752-38.3179 59.2218-38.3179 67.6577-38.3179 71.8756-33.2326 71.8756-23.062ZM84.3657-34.7891C88.0252-37.1416 92.2313-38.3179 96.9839-38.3179 105.681-38.3179 110.03-33.7078 110.03-24.4878L110.03 0 104.362 0 104.362-5.88135 104.148-5.88135C101.558-1.36637 97.7205 0.891113 92.6353 0.891113 88.9757 0.891113 86.0707-0.0891114 83.9202-2.04956 81.7696-4.01001 80.6943-6.62988 80.6943-9.90918 80.6943-16.8717 84.8053-20.9233 93.0273-22.064L104.327-23.7036C104.327-30.2147 101.736-33.4702 96.5562-33.4702 91.9937-33.4702 87.9302-31.9137 84.3657-28.8008ZM95.166-17.7866C92.2432-17.4064 90.0807-16.6935 88.6787-15.6479 87.2767-14.6024 86.5757-12.8201 86.5757-10.3013 86.5757-8.40023 87.247-6.86751 88.5896-5.70312 89.9322-4.53874 91.6966-3.95654 93.8828-3.95654 96.9007-3.95654 99.3958-5.02588 101.368-7.16455 103.34-9.30322 104.327-11.9884 104.327-15.2202L104.327-18.9985ZM141.108-31.6523C140.039-32.4603 138.53-32.8643 136.581-32.8643 134.015-32.8643 131.864-31.6167 130.13-29.1216 128.395-26.6265 127.528-23.3115 127.528-19.1768L127.528 0 121.86 0 121.86-37.4624 127.528-37.4624 127.528-29.6919 127.67-29.6919C128.526-32.3296 129.827-34.391 131.573-35.8762 133.32-37.3614 135.274-38.104 137.437-38.104 139.005-38.104 140.229-37.9377 141.108-37.605Z" fill="#002060" transform="matrix(1 0 0 1 50.2551 100)"/></g></g><text fill="#002060" font-family="Malgun Gothic,Malgun Gothic_MSFontService,sans-serif" font-weight="400" font-size="73" transform="matrix(1 0 0 1 2294.72 1996)">char</text><g clip-path="url(#clip17)" filter="url(#fx5)" transform="translate(2390 1900)"><g clip-path="url(#clip18)"><path d="M3.77832-7.62793C7.05762-5.2041 10.6577-3.99219 14.5786-3.99219 19.9015-3.99219 22.563-5.78629 22.563-9.37451 22.563-10.9191 21.9808-12.1964 20.8164-13.2063 19.652-14.2162 17.3589-15.3628 13.937-16.646 9.99235-18.2144 7.32495-19.8065 5.93481-21.4224 4.54468-23.0382 3.84961-25.0819 3.84961-27.5532 3.84961-30.7375 5.22786-33.3276 7.98437-35.3237 10.7409-37.3198 14.1034-38.3179 18.0718-38.3179 21.256-38.3179 24.1313-37.7594 26.6978-36.6426L26.6978-30.7612C23.9175-32.5672 20.7451-33.4702 17.1807-33.4702 14.8519-33.4702 13.0221-32.9534 11.6914-31.9197 10.3607-30.886 9.69531-29.5968 9.69531-28.0522 9.69531-26.3888 10.1884-25.1175 11.1746-24.2383 12.1607-23.359 14.3053-22.2659 17.6084-20.959 22.0758-19.2243 24.9868-17.5252 26.3413-15.8618 27.6958-14.1984 28.373-12.2142 28.373-9.90918 28.373-6.58236 27.0007-3.9506 24.2561-2.01392 21.5115-0.0772299 18.0005 0.891113 13.7231 0.891113 9.84977 0.891113 6.53483 0.130697 3.77832-1.39014Z" fill="#002060" transform="matrix(1 0 0 1 49.7656 100)"/></g></g><text fill="#002060" font-family="Malgun Gothic,Malgun Gothic_MSFontService,sans-serif" font-weight="400" font-size="73" transform="matrix(1 0 0 1 2436.23 1996)">s<tspan fill="#000000" font-size="73" x="31.5103" y="0">] </tspan><tspan fill="#000000" font-size="73" x="79.6353" y="0">pattern </tspan><tspan fill="#000000" font-style="oblique" font-size="73" x="346.042" y="0">(if exists)</tspan></text><path d="M222.5 394.5 4178.32 394.5" stroke="#AFABAB" stroke-width="4.58333" stroke-miterlimit="8" stroke-dasharray="4.58333 4.58333" fill="none" fill-rule="evenodd"/></g></svg>