<svg width="430.427" height="326.8" viewBox="0 0 322.82 245.1" class="displayed_equation" style="background: white" xmlns="http://www.w3.org/2000/svg">
  <path d="M 1798.203125 1254.125 C 1798.203125 1716.429688 1423.4375 2091.234375 961.09375 2091.234375 C 498.75 2091.234375 123.984375 1716.429688 123.984375 1254.125 C 123.984375 791.78125 498.75 416.976563 961.09375 416.976563 C 1423.4375 416.976563 1798.203125 791.78125 1798.203125 1254.125 Z M 1798.203125 1254.125" transform="matrix(.1 0 0 -.1 0 245.1)" fill="none" stroke-width="7.97" stroke-linejoin="round" stroke="#000" stroke-miterlimit="10" />
  <path d="M 1798.203125 1254.125 L 961.09375 1254.125 L 1247.421875 2040.765625" transform="matrix(.1 0 0 -.1 0 245.1)" fill="none" stroke-width="7.97" stroke-linejoin="round" stroke="#f3a203" stroke-miterlimit="10" />
  <path d="M127.703125 109.898438C127.703125 108.484375 126.496094 108.070313 124.824219 108.070313L122.078125 108.070313 122.078125 108.40625C122.972656 108.40625 123.070313 108.617188 123.070313 109.230469L123.070313 114.015625C123.070313 114.953125 122.917969 115.066406 122.078125 115.066406L122.078125 115.398438 125.214844 115.398438 125.214844 115.066406C124.253906 115.066406 124.109375 114.941406 124.109375 114.015625L124.109375 112.042969 124.421875 112.042969C124.824219 112.042969 124.945313 112.074219 125.171875 112.410156 125.628906 113.078125 125.953125 113.558594 127.167969 115.398438L129.007813 115.398438 129.007813 115.066406C128.496094 115.066406 128.214844 114.988281 127.859375 114.496094 126.632813 112.746094 126.195313 112.121094 125.816406 111.898438L125.816406 111.851563C126.71875 111.640625 127.703125 111.148438 127.703125 109.898438zM124.109375 108.539063C124.34375 108.515625 124.601563 108.503906 124.847656 108.503906 126.050781 108.503906 126.574219 109.050781 126.574219 109.945313 126.574219 111.128906 125.761719 111.5625 124.535156 111.617188L124.109375 111.605469 124.109375 108.539063M132.335938 114.707031C132.402344 115.199219 132.515625 115.457031 133.007813 115.457031 133.574219 115.457031 133.84375 115.222656 134.210938 114.6875L134.042969 114.507813C133.886719 114.675781 133.730469 114.785156 133.519531 114.785156 133.285156 114.785156 133.183594 114.695313 133.183594 114.238281L133.183594 111.707031C133.183594 110.546875 132.726563 109.988281 131.511719 109.988281 130.296875 109.988281 129.546875 110.59375 129.546875 111.214844 129.546875 111.585938 129.792969 111.753906 130.015625 111.753906 130.328125 111.753906 130.507813 111.585938 130.507813 111.238281 130.507813 110.570313 130.617188 110.335938 131.253906 110.335938 131.921875 110.335938 132.257813 110.703125 132.257813 111.671875L132.257813 112.164063C131.296875 112.464844 129.324219 112.757813 129.324219 114.226563 129.324219 114.941406 129.792969 115.476563 130.652344 115.476563 131.367188 115.476563 131.765625 115.164063 132.292969 114.707031zM132.257813 114.371094C131.878906 114.6875 131.476563 114.863281 131.109375 114.863281 130.628906 114.863281 130.304688 114.519531 130.304688 113.960938 130.304688 113.089844 131.242188 112.789063 132.257813 112.53125L132.257813 114.371094M140.035156 115.199219L140.035156 114.898438 139.800781 114.898438C139.386719 114.898438 139.242188 114.785156 139.242188 114.207031L139.242188 107.523438 138.941406 107.523438 137.535156 107.914063 137.535156 108.226563C137.535156 108.226563 137.726563 108.203125 137.824219 108.203125 138.261719 108.203125 138.316406 108.304688 138.316406 108.796875L138.316406 110.257813C137.96875 110.066406 137.601563 109.988281 137.234375 109.988281 135.828125 109.988281 134.667969 111.117188 134.667969 112.957031 134.667969 114.382813 135.316406 115.488281 136.578125 115.488281 137.3125 115.488281 137.882813 115.066406 138.304688 114.6875L138.351563 114.6875 138.351563 115.457031 138.605469 115.457031zM138.316406 114.273438C137.925781 114.539063 137.625 114.6875 137.101563 114.6875 136.152344 114.6875 135.640625 114.0625 135.640625 112.523438 135.640625 111.117188 136.273438 110.4375 137.214844 110.4375 137.902344 110.4375 138.226563 110.871094 138.316406 111.328125L138.316406 114.273438M142.015625 107.667969C141.628906 107.667969 141.382813 107.960938 141.382813 108.292969 141.382813 108.640625 141.640625 108.929688 142.015625 108.929688 142.40625 108.929688 142.652344 108.640625 142.652344 108.292969 142.652344 107.960938 142.40625 107.667969 142.015625 107.667969zM143.265625 115.085938C142.519531 115.085938 142.464844 114.921875 142.464844 114.273438L142.464844 110.023438 142.171875 110.023438 140.769531 110.335938 140.769531 110.65625C140.769531 110.65625 140.890625 110.636719 141.046875 110.636719 141.371094 110.636719 141.539063 110.679688 141.539063 111.160156L141.539063 114.273438C141.539063 114.910156 141.503906 115.085938 140.757813 115.085938L140.757813 115.398438 143.265625 115.398438 143.265625 115.085938M149.625 114.898438L149.511719 114.898438C148.976563 114.898438 148.84375 114.820313 148.84375 114.160156L148.84375 110.066406 148.574219 110.066406 147.015625 110.234375 147.015625 110.546875C147.726563 110.546875 147.917969 110.601563 147.917969 111.195313L147.917969 114.128906C147.472656 114.519531 147.113281 114.796875 146.546875 114.796875 145.964844 114.796875 145.539063 114.460938 145.539063 113.324219L145.539063 110.066406 145.296875 110.066406 143.855469 110.234375 143.855469 110.546875C144.460938 110.558594 144.617188 110.601563 144.617188 111.203125L144.617188 113.46875C144.617188 114.988281 145.148438 115.511719 146.078125 115.511719 146.789063 115.511719 147.316406 115.175781 147.90625 114.597656L147.964844 114.597656 147.964844 115.457031 148.207031 115.457031 149.625 115.199219 149.625 114.898438M150.335938 113.570313L150.367188 115.488281 150.601563 115.488281 150.839844 115.234375 150.859375 115.234375C151.148438 115.355469 151.484375 115.523438 152.132813 115.523438 153.136719 115.523438 154.007813 115.121094 154.007813 114.070313 154.007813 113.246094 153.460938 112.835938 152.445313 112.296875 151.507813 111.820313 151.140625 111.539063 151.140625 111.105469 151.140625 110.601563 151.527344 110.367188 152.042969 110.367188 152.722656 110.367188 153.136719 110.691406 153.382813 111.753906L153.679688 111.753906 153.648438 110.046875 153.425781 110.046875 153.234375 110.28125 153.226563 110.28125C152.945313 110.144531 152.609375 109.988281 152.054688 109.988281 151.09375 109.988281 150.347656 110.480469 150.347656 111.394531 150.347656 112.21875 150.804688 112.609375 151.820313 113.121094 152.855469 113.636719 153.070313 113.851563 153.070313 114.371094 153.070313 114.898438 152.667969 115.109375 152.109375 115.109375 151.28125 115.109375 150.859375 114.71875 150.625 113.570313L150.335938 113.570313" fill="#f3a203" />
  <path d="M 1247.382813 2040.6875 L 3082.851563 1372.601563" transform="matrix(.1 0 0 -.1 0 245.1)" fill="none" stroke-width="7.97" stroke-linejoin="round" stroke="#55a4e0" stroke-miterlimit="10" />
  <path d="M208.714844 58.710938L209.316406 56.785156 203.484375 54.671875 202.679688 56.527344 203.007813 56.644531C203.644531 55.578125 203.890625 55.355469 205.050781 55.777344L205.726563 56.023438 203.890625 61.09375C203.542969 62.054688 203.355469 62.105469 202.46875 61.785156L202.355469 62.101563 205.414063 63.207031 205.527344 62.890625C204.621094 62.5625 204.523438 62.40625 204.871094 61.449219L206.707031 56.378906 207.371094 56.617188C208.542969 57.039063 208.570313 57.359375 208.382813 58.59375L208.714844 58.710938M209.886719 64.121094C209.78125 64.609375 209.796875 64.890625 210.261719 65.058594 210.800781 65.253906 211.132813 65.121094 211.664063 64.742188L211.566406 64.515625C211.363281 64.621094 211.175781 64.675781 210.976563 64.601563 210.753906 64.523438 210.691406 64.402344 210.847656 63.96875L211.714844 61.578125C212.113281 60.480469 211.871094 59.796875 210.71875 59.378906 209.570313 58.964844 208.65625 59.277344 208.445313 59.867188 208.316406 60.214844 208.492188 60.457031 208.703125 60.535156 209 60.640625 209.226563 60.542969 209.34375 60.21875 209.574219 59.585938 209.757813 59.402344 210.359375 59.617188 210.992188 59.847656 211.179688 60.3125 210.851563 61.226563L210.679688 61.691406C209.671875 61.648438 207.707031 61.246094 207.203125 62.636719 206.957031 63.3125 207.21875 63.980469 208.03125 64.273438 208.703125 64.515625 209.1875 64.359375 209.84375 64.109375zM209.925781 63.78125C209.460938 63.945313 209.019531 63.976563 208.671875 63.851563 208.21875 63.6875 208.03125 63.246094 208.21875 62.71875 208.519531 61.898438 209.507813 61.933594 210.554688 62.039063L209.925781 63.78125M217.746094 64C218.183594 62.785156 217.972656 61.960938 217.011719 61.609375 216.347656 61.371094 215.746094 61.582031 214.992188 61.882813L214.953125 61.867188 215.273438 61.015625 215.03125 60.929688 213.578125 60.75 213.46875 61.054688C213.46875 61.054688 213.582031 61.070313 213.761719 61.136719 214.046875 61.242188 214.171875 61.382813 214.035156 61.761719L212.960938 64.722656C212.746094 65.3125 212.648438 65.484375 211.945313 65.226563L211.839844 65.523438 214.253906 66.398438 214.359375 66.101563C213.601563 65.828125 213.621094 65.632813 213.839844 65.039063L214.820313 62.332031C215.238281 62.160156 215.765625 61.921875 216.335938 62.128906 216.808594 62.300781 217.234375 62.679688 216.773438 63.945313L216.082031 65.855469C215.867188 66.445313 215.773438 66.613281 215.023438 66.34375L214.917969 66.636719 217.351563 67.519531 217.460938 67.226563C216.753906 66.96875 216.742188 66.761719 216.957031 66.171875L217.746094 64M219.554688 66.148438C218.921875 66.347656 218.390625 66.65625 218.253906 67.035156 218.144531 67.332031 218.273438 67.703125 218.566406 68.007813L218.550781 68.050781C217.785156 68.394531 217.371094 68.648438 217.242188 68.996094 217.035156 69.578125 217.234375 70.308594 218.617188 70.808594 219.945313 71.289063 221.679688 71.371094 222.195313 69.957031 222.632813 68.742188 221.632813 68.335938 220.304688 67.851563 219.335938 67.503906 219.101563 67.296875 219.214844 66.980469 219.28125 66.800781 219.589844 66.484375 219.746094 66.371094 219.984375 66.570313 220.257813 66.738281 220.59375 66.859375 221.703125 67.261719 222.6875 66.914063 223.042969 65.933594 223.234375 65.40625 223.128906 64.976563 223.054688 64.710938L223.074219 64.65625 224.054688 65.046875 224.261719 64.476563 222.875 64.0625C222.875 64.0625 222.496094 63.625 221.800781 63.371094 220.679688 62.96875 219.648438 63.34375 219.265625 64.398438 219.019531 65.085938 219.160156 65.648438 219.5625 66.128906zM221.589844 63.726563C222.261719 63.96875 222.4375 64.675781 222.128906 65.53125 221.765625 66.53125 221.265625 66.6875 220.738281 66.496094 220.054688 66.246094 219.882813 65.601563 220.210938 64.695313 220.53125 63.808594 221.039063 63.527344 221.589844 63.726563zM218.800781 68.191406C218.949219 68.242188 219.144531 68.328125 219.984375 68.644531 220.6875 68.910156 221.824219 69.296875 221.546875 70.054688 221.382813 70.507813 220.691406 70.878906 219.445313 70.429688 218.371094 70.035156 217.976563 69.550781 218.195313 68.9375 218.277344 68.714844 218.4375 68.5 218.800781 68.191406M227.621094 69.578125C227.125 69.898438 226.660156 70.160156 225.804688 69.851563 224.964844 69.542969 224.402344 68.589844 224.929688 67.132813L228.261719 68.34375C228.742188 66.847656 228.285156 65.738281 227.136719 65.320313 225.902344 64.875 224.605469 65.359375 223.96875 67.121094 223.351563 68.816406 224.003906 70.089844 225.265625 70.546875 226.351563 70.941406 227.101563 70.460938 227.769531 69.796875zM225.058594 66.742188C225.496094 65.789063 226.109375 65.425781 226.824219 65.6875 227.574219 65.957031 227.664063 66.800781 227.410156 67.59375L225.058594 66.742188M233.84375 69.898438C234.285156 68.6875 234.070313 67.859375 233.113281 67.511719 232.449219 67.269531 231.847656 67.484375 231.09375 67.78125L231.050781 67.765625 231.371094 66.914063 231.128906 66.828125 229.679688 66.648438 229.570313 66.957031C229.570313 66.957031 229.679688 66.972656 229.859375 67.035156 230.144531 67.140625 230.273438 67.28125 230.132813 67.660156L229.0625 70.621094C228.847656 71.214844 228.75 71.382813 228.042969 71.128906L227.9375 71.421875 230.351563 72.296875 230.457031 72.003906C229.699219 71.726563 229.722656 71.53125 229.9375 70.941406L230.917969 68.230469C231.339844 68.0625 231.867188 67.824219 232.433594 68.03125 232.910156 68.203125 233.332031 68.582031 232.875 69.847656L232.183594 71.753906C231.96875 72.34375 231.871094 72.515625 231.121094 72.242188L231.015625 72.535156 233.453125 73.421875 233.558594 73.125C232.851563 72.867188 232.84375 72.660156 233.058594 72.070313L233.84375 69.898438M237.03125 73.671875C236.664063 73.871094 236.476563 73.957031 236.140625 73.835938 235.726563 73.6875 235.726563 73.398438 235.996094 72.648438L237.09375 69.621094 238.285156 70.054688 238.445313 69.613281 237.253906 69.179688 237.789063 67.738281 237.511719 67.640625C236.808594 68.398438 236.332031 68.726563 235.726563 68.851563L235.636719 69.09375 236.21875 69.304688 235.015625 72.628906C234.671875 73.578125 234.839844 74.066406 235.546875 74.324219 236.21875 74.566406 236.554688 74.332031 237.171875 73.910156L237.03125 73.671875" fill="#55a4e0" />
  <path d="M1226.054688 1982.09375L1284.648438 1960.765625 1305.976563 2019.359375M1247.382813 2040.6875L460.742188 2327.015625" transform="matrix(.1 0 0 -.1 0 245.1)" fill="none" stroke-width="7.97" stroke-linejoin="round" stroke="#55a4e0" stroke-miterlimit="10" />
  <path d="M 3082.695313 1372.601563 L 1706.09375 871.546875 L 631.015625 480.257813 L 237.695313 337.09375" transform="matrix(.1 0 0 -.1 0 245.1)" fill="none" stroke-width="7.97" stroke-linejoin="round" stroke="#109e24" stroke-miterlimit="10" />
  <path d="M226.15625 127.59375L225.316406 125.511719 225.042969 125.613281C225.070313 125.851563 224.996094 125.972656 224.828125 126.035156 224.574219 126.128906 224.222656 125.882813 223.265625 126.234375 222.171875 126.640625 221.480469 127.558594 221.878906 128.664063 222.28125 129.773438 223.316406 129.96875 224.339844 130.148438 225.382813 130.332031 226.402344 130.382813 226.738281 131.308594 227.027344 132.109375 226.648438 132.605469 225.855469 132.890625 224.785156 133.292969 224.125 133.148438 223.226563 131.828125L222.902344 131.945313 223.820313 134.1875 224.148438 134.070313C224.082031 133.855469 224.160156 133.675781 224.304688 133.621094 224.550781 133.53125 225.074219 133.699219 226.171875 133.304688 227.394531 132.859375 228.070313 131.863281 227.628906 130.640625 227.175781 129.382813 225.960938 129.285156 224.828125 129.101563 223.871094 128.933594 222.976563 128.828125 222.691406 128.035156 222.453125 127.382813 222.742188 126.898438 223.460938 126.640625 224.523438 126.242188 225.121094 126.65625 225.839844 127.707031L226.15625 127.59375M232.429688 129.207031C232.253906 129.769531 232.0625 130.269531 231.210938 130.578125 230.367188 130.882813 229.324219 130.511719 228.796875 129.054688L232.128906 127.847656C231.539063 126.390625 230.480469 125.832031 229.328125 126.25 228.097656 126.695313 227.410156 127.898438 228.046875 129.660156 228.664063 131.359375 229.976563 131.917969 231.242188 131.460938 232.328125 131.066406 232.59375 130.21875 232.683594 129.28125zM228.644531 128.667969C228.371094 127.65625 228.609375 126.988281 229.324219 126.730469 230.074219 126.457031 230.679688 127.046875 230.996094 127.816406L228.644531 128.667969M237.238281 127.378906C236.984375 128.164063 236.71875 128.558594 236.035156 128.804688 234.949219 129.199219 234.105469 128.480469 233.636719 127.195313 233.199219 125.980469 233.488281 125.160156 234.339844 124.851563 235.246094 124.523438 235.335938 125.851563 236.113281 125.570313 236.410156 125.460938 236.496094 125.238281 236.386719 124.933594 236.164063 124.320313 235.367188 124.035156 234.378906 124.398438 232.859375 124.945313 232.382813 126.335938 232.984375 127.992188 233.515625 129.457031 234.675781 130.191406 235.992188 129.714844 237.121094 129.304688 237.398438 128.453125 237.492188 127.457031L237.238281 127.378906M241.210938 126.96875C241.441406 127.410156 241.636719 127.617188 242.101563 127.445313 242.636719 127.253906 242.8125 126.9375 242.976563 126.304688L242.753906 126.195313C242.664063 126.40625 242.554688 126.566406 242.355469 126.640625 242.132813 126.71875 242.007813 126.667969 241.851563 126.234375L240.984375 123.84375C240.589844 122.746094 239.964844 122.375 238.8125 122.792969 237.664063 123.207031 237.164063 124.03125 237.378906 124.621094 237.503906 124.972656 237.792969 125.046875 238.003906 124.96875 238.300781 124.863281 238.414063 124.644531 238.292969 124.316406 238.0625 123.683594 238.089844 123.421875 238.691406 123.207031 239.324219 122.976563 239.765625 123.210938 240.097656 124.128906L240.265625 124.59375C239.464844 125.203125 237.695313 126.15625 238.199219 127.546875 238.445313 128.222656 239.070313 128.566406 239.882813 128.273438 240.554688 128.03125 240.828125 127.597656 241.167969 126.984375zM241.023438 126.679688C240.773438 127.105469 240.453125 127.410156 240.105469 127.535156 239.652344 127.703125 239.226563 127.484375 239.035156 126.957031 238.738281 126.136719 239.519531 125.53125 240.390625 124.941406L241.023438 126.679688M247.097656 121.824219C246.660156 120.613281 245.964844 120.113281 245.007813 120.460938 244.34375 120.703125 244.015625 121.246094 243.628906 121.960938L243.585938 121.976563 243.289063 121.117188 243.046875 121.207031 241.816406 121.996094 241.929688 122.304688C241.929688 122.304688 242.023438 122.242188 242.203125 122.179688 242.488281 122.074219 242.679688 122.101563 242.816406 122.484375L243.890625 125.445313C244.101563 126.035156 244.136719 126.226563 243.429688 126.484375L243.539063 126.777344 245.953125 125.902344 245.84375 125.609375C245.089844 125.882813 244.980469 125.71875 244.765625 125.128906L243.785156 122.417969C243.996094 122.019531 244.25 121.496094 244.820313 121.292969 245.292969 121.121094 245.859375 121.140625 246.320313 122.40625L247.011719 124.3125C247.226563 124.90625 247.257813 125.09375 246.511719 125.367188L246.617188 125.660156 249.054688 124.78125 248.945313 124.484375C248.238281 124.742188 248.101563 124.585938 247.886719 123.996094L247.097656 121.824219M252.046875 122.632813C251.890625 123.023438 251.800781 123.207031 251.464844 123.332031 251.054688 123.480469 250.867188 123.261719 250.59375 122.511719L249.496094 119.484375 250.691406 119.054688 250.53125 118.613281 249.339844 119.042969 248.824219 117.59375 248.550781 117.695313C248.496094 118.726563 248.339844 119.285156 247.957031 119.773438L248.042969 120.015625 248.621094 119.804688 249.828125 123.125C250.171875 124.074219 250.613281 124.34375 251.320313 124.085938 251.996094 123.84375 252.101563 123.445313 252.308594 122.726563L252.046875 122.632813" fill="#109e24" />
  <path d="M961.09375 1254.125L1553.007813 662.171875M961.09375 1254.125L369.140625 1846.039063" transform="matrix(.1 0 0 -.1 0 245.1)" fill="none" stroke-width="7.97" stroke-linejoin="round" stroke="#e132a2" stroke-miterlimit="10" />
  <path d="M173.152344 157.941406C173.152344 156.53125 172.011719 155.390625 170.601563 155.390625 169.195313 155.390625 168.050781 156.53125 168.050781 157.941406 168.050781 159.351563 169.195313 160.492188 170.601563 160.492188 172.011719 160.492188 173.152344 159.351563 173.152344 157.941406zM65.65625 197.066406C65.65625 195.660156 64.511719 194.515625 63.105469 194.515625 61.695313 194.515625 60.554688 195.660156 60.554688 197.066406 60.554688 198.476563 61.695313 199.617188 63.105469 199.617188 64.511719 199.617188 65.65625 198.476563 65.65625 197.066406zM310.820313 107.839844C310.820313 106.429688 309.679688 105.289063 308.269531 105.289063 306.859375 105.289063 305.71875 106.429688 305.71875 107.839844 305.71875 109.246094 306.859375 110.390625 308.269531 110.390625 309.679688 110.390625 310.820313 109.246094 310.820313 107.839844zM310.820313 107.839844" fill="#69ba6c" />
  <path d="M98.660156 119.6875C98.660156 118.28125 97.519531 117.136719 96.109375 117.136719 94.699219 117.136719 93.558594 118.28125 93.558594 119.6875 93.558594 121.097656 94.699219 122.238281 96.109375 122.238281 97.519531 122.238281 98.660156 121.097656 98.660156 119.6875zM97.078125 131.199219L97.148438 130.867188C96.355469 130.867188 96.144531 130.6875 96.3125 129.871094L97.257813 125.21875C97.4375 124.394531 97.648438 124.203125 98.441406 124.203125L98.507813 123.871094 96.398438 123.871094 92.996094 129.515625 92.953125 129.515625 91.75 123.871094 89.515625 123.871094 89.449219 124.203125C90.332031 124.203125 90.464844 124.394531 90.285156 125.230469L89.40625 129.570313C89.171875 130.71875 88.980469 130.867188 88.121094 130.867188L88.054688 131.199219 90.632813 131.199219 90.699219 130.867188C89.851563 130.867188 89.71875 130.71875 89.953125 129.570313L90.878906 125.0625 90.921875 125.0625 92.273438 131.199219 92.515625 131.199219 96.265625 125.054688 96.3125 125.054688 95.316406 129.871094C95.148438 130.6875 94.992188 130.867188 94.167969 130.867188L94.101563 131.199219 97.078125 131.199219" />
  <path d="M 674.804688 2040.6875 L 423.046875 612.914063" transform="matrix(.1 0 0 -.1 0 245.1)" fill="none" stroke-width="7.97" stroke-linejoin="round" stroke="#e132a2" stroke-miterlimit="10" />
  <path d="M47.667969 119.414063C48.226563 120.152344 48.492188 120.960938 48.308594 121.972656 48.027344 123.523438 46.886719 124.429688 44.6875 124.03125 42.726563 123.679688 41.679688 122.570313 41.964844 120.984375 42.171875 119.851563 42.914063 119.179688 44.398438 119.199219L44.46875 118.824219 41.949219 118.367188 41.890625 118.699219C42.085938 118.871094 42.25 118.96875 42.21875 119.144531 42.167969 119.421875 41.699219 119.757813 41.492188 120.910156 41.109375 123.023438 42.191406 124.765625 44.589844 125.199219 46.734375 125.585938 48.535156 124.683594 48.945313 122.417969 49.203125 120.976563 48.730469 119.945313 47.949219 119.191406L47.667969 119.414063M45.8125 116.273438C45.414063 115.644531 45.300781 115.214844 45.375 114.785156 45.539063 113.894531 46.320313 113.910156 47.222656 114.074219L49.125 114.417969C49.652344 114.511719 49.867188 114.59375 49.730469 115.355469L50.046875 115.410156 50.503906 112.882813 50.1875 112.824219C50.0625 113.515625 49.828125 113.601563 49.246094 113.496094L47.054688 113.101563C46.15625 112.9375 44.984375 112.941406 44.753906 114.207031 44.648438 114.789063 44.8125 115.34375 45.335938 116.152344L45.328125 116.1875 41.996094 115.582031 41.941406 115.878906 42.0625 117.425781 42.367188 117.480469C42.367188 117.480469 42.375 117.335938 42.40625 117.15625 42.457031 116.859375 42.554688 116.628906 42.941406 116.699219L48.574219 117.714844C49.191406 117.828125 49.242188 118.039063 49.140625 118.613281L49.460938 118.671875 49.910156 116.171875 49.59375 116.113281C49.453125 116.871094 49.269531 116.898438 48.695313 116.792969L45.8125 116.273438M45.675781 108.898438C45.40625 110.382813 46.308594 111.558594 47.90625 111.84375 49.6875 112.167969 50.84375 111.421875 51.121094 109.882813 51.378906 108.453125 50.59375 107.265625 48.746094 106.929688 47.117188 106.636719 45.949219 107.390625 45.675781 108.898438zM46.085938 109.015625C46.261719 108.039063 47.265625 107.707031 48.617188 107.953125 50.414063 108.277344 50.851563 108.855469 50.691406 109.757813 50.53125 110.707031 49.695313 111.113281 47.945313 110.796875 46.539063 110.542969 45.933594 109.851563 46.085938 109.015625M46.5625 104.027344L46.511719 104.292969 46.597656 105.71875 46.90625 105.773438C46.90625 105.773438 46.902344 105.648438 46.945313 105.425781 47.015625 105.03125 47.214844 105.066406 47.609375 105.140625L50.636719 105.6875C51.25 105.796875 51.371094 105.898438 51.238281 106.621094L51.558594 106.679688 52.054688 103.929688 51.734375 103.871094C51.585938 104.695313 51.4375 104.886719 50.746094 104.761719L48.234375 104.308594C47.84375 103.964844 47.445313 103.53125 47.492188 103.277344 47.515625 103.144531 47.929688 102.992188 47.992188 102.628906 48.039063 102.386719 47.90625 102.113281 47.488281 102.035156 47.113281 101.96875 46.832031 102.136719 46.757813 102.566406 46.660156 103.09375 46.984375 103.492188 47.699219 104.199219L47.695313 104.234375 46.5625 104.027344M53.023438 97.207031L52.726563 97.15625 52.683594 97.386719C52.609375 97.792969 52.476563 97.914063 51.902344 97.8125L45.3125 96.621094 45.257813 96.917969 45.394531 98.378906 45.703125 98.429688C45.703125 98.429688 45.710938 98.242188 45.730469 98.140625 45.808594 97.710938 45.917969 97.675781 46.402344 97.761719L47.84375 98.023438C47.59375 98.328125 47.453125 98.679688 47.386719 99.042969 47.136719 100.429688 48.039063 101.773438 49.855469 102.101563 51.265625 102.355469 52.46875 101.914063 52.691406 100.671875 52.824219 99.945313 52.507813 99.308594 52.207031 98.824219L52.21875 98.78125 52.976563 98.914063 53.023438 98.660156zM51.804688 98.738281C52 99.171875 52.085938 99.492188 51.992188 100.011719 51.824219 100.945313 51.117188 101.339844 49.601563 101.066406 48.214844 100.816406 47.65625 100.070313 47.820313 99.144531 47.945313 98.460938 48.433594 98.21875 48.898438 98.214844L51.804688 98.738281" fill="#e132a2" />
  <path d="M 1240.117188 925.101563 L 1240.117188 277.484375" transform="matrix(.1 0 0 -.1 0 245.1)" fill="none" stroke-width="7.97" stroke-linejoin="round" stroke="#000" stroke-miterlimit="10" />
  <path d="M 124.011719 148.726563 L 121.949219 154.195313 L 124.011719 152.390625 L 126.078125 154.195313" />
  <path d="M 1240.117188 963.734375 L 1219.492188 909.046875 L 1240.117188 927.09375 L 1260.78125 909.046875 Z M 1240.117188 963.734375" transform="matrix(.1 0 0 -.1 0 245.1)" fill="none" stroke-width="7.97" stroke="#000" stroke-miterlimit="10" />
  <path d="M102.191406 221.96875L102.191406 222.304688C103.027344 222.304688 103.285156 222.429688 103.285156 223.242188L103.285156 227.917969C103.285156 228.820313 103.171875 228.964844 102.191406 228.964844L102.191406 229.300781 105.382813 229.300781C107.789063 229.300781 109.386719 228.164063 109.386719 225.597656 109.386719 222.875 107.578125 221.96875 105.257813 221.96875zM104.3125 222.449219C104.523438 222.429688 104.679688 222.429688 104.855469 222.429688 107.164063 222.429688 108.214844 223.578125 108.214844 225.695313 108.214844 228.207031 106.996094 228.875 104.96875 228.875 104.746094 228.875 104.53125 228.867188 104.3125 228.84375L104.3125 222.449219M111.617188 221.570313C111.226563 221.570313 110.980469 221.859375 110.980469 222.195313 110.980469 222.539063 111.238281 222.828125 111.617188 222.828125 112.007813 222.828125 112.253906 222.539063 112.253906 222.195313 112.253906 221.859375 112.007813 221.570313 111.617188 221.570313zM112.867188 228.988281C112.121094 228.988281 112.0625 228.820313 112.0625 228.171875L112.0625 223.921875 111.773438 223.921875 110.367188 224.234375 110.367188 224.558594C110.367188 224.558594 110.492188 224.535156 110.648438 224.535156 110.96875 224.535156 111.136719 224.582031 111.136719 225.0625L111.136719 228.171875C111.136719 228.808594 111.105469 228.988281 110.355469 228.988281L110.355469 229.300781 112.867188 229.300781 112.867188 228.988281M116.636719 228.609375C116.703125 229.097656 116.8125 229.355469 117.304688 229.355469 117.875 229.355469 118.140625 229.121094 118.511719 228.585938L118.34375 228.40625C118.1875 228.574219 118.03125 228.6875 117.820313 228.6875 117.585938 228.6875 117.484375 228.597656 117.484375 228.140625L117.484375 225.609375C117.484375 224.445313 117.027344 223.890625 115.8125 223.890625 114.59375 223.890625 113.847656 224.492188 113.847656 225.117188 113.847656 225.484375 114.09375 225.652344 114.316406 225.652344 114.628906 225.652344 114.804688 225.484375 114.804688 225.140625 114.804688 224.46875 114.917969 224.234375 115.554688 224.234375 116.222656 224.234375 116.558594 224.601563 116.558594 225.574219L116.558594 226.0625C115.597656 226.367188 113.621094 226.65625 113.621094 228.128906 113.621094 228.84375 114.09375 229.378906 114.953125 229.378906 115.664063 229.378906 116.066406 229.066406 116.59375 228.609375zM116.558594 228.273438C116.179688 228.585938 115.777344 228.765625 115.410156 228.765625 114.929688 228.765625 114.605469 228.417969 114.605469 227.859375 114.605469 226.992188 115.542969 226.6875 116.558594 226.433594L116.558594 228.273438M120.5625 225.316406C120.886719 225.015625 121.378906 224.601563 121.957031 224.601563 122.472656 224.601563 122.851563 224.847656 122.851563 225.796875L122.851563 228.007813C122.851563 228.789063 122.785156 228.976563 121.992188 228.976563L121.992188 229.300781 124.636719 229.300781 124.636719 228.976563C123.832031 228.976563 123.777344 228.773438 123.777344 228.007813L123.777344 225.296875C124.144531 224.984375 124.601563 224.601563 125.058594 224.601563 125.585938 224.601563 126.019531 224.847656 126.019531 225.863281L126.019531 228.007813C126.019531 228.6875 125.984375 228.976563 125.226563 228.976563L125.226563 229.300781 127.746094 229.300781 127.746094 228.976563C126.976563 228.976563 126.945313 228.710938 126.945313 228.007813L126.945313 225.730469C126.945313 224.378906 126.378906 223.890625 125.507813 223.890625 124.914063 223.890625 124.34375 224.210938 123.734375 224.816406L123.6875 224.816406C123.464844 224.28125 123.085938 223.890625 122.449219 223.890625 121.691406 223.890625 121.179688 224.300781 120.574219 224.828125L120.53125 224.828125 120.53125 223.921875 120.261719 223.921875 118.867188 224.246094 118.867188 224.570313C118.867188 224.570313 119.003906 224.546875 119.167969 224.546875 119.480469 224.546875 119.636719 224.648438 119.636719 225.050781L119.636719 228.171875C119.636719 228.84375 119.558594 228.976563 118.855469 228.976563L118.855469 229.300781 121.398438 229.300781 121.398438 228.976563C120.710938 228.976563 120.5625 228.84375 120.5625 228.21875L120.5625 225.316406M132.730469 227.703125C132.371094 228.171875 132.027344 228.574219 131.121094 228.574219 130.230469 228.574219 129.382813 227.871094 129.382813 226.332031L132.90625 226.332031C132.851563 224.769531 132.050781 223.890625 130.832031 223.890625 129.527344 223.890625 128.480469 224.78125 128.480469 226.644531 128.480469 228.441406 129.515625 229.410156 130.855469 229.410156 132.003906 229.410156 132.539063 228.710938 132.941406 227.859375zM129.371094 225.921875C129.460938 224.882813 129.90625 224.335938 130.664063 224.335938 131.457031 224.335938 131.828125 225.09375 131.859375 225.921875L129.371094 225.921875M136.570313 228.296875C136.289063 228.609375 136.144531 228.753906 135.789063 228.753906 135.351563 228.753906 135.253906 228.484375 135.253906 227.695313L135.253906 224.492188 136.511719 224.492188 136.511719 224.023438 135.253906 224.023438 135.265625 222.496094 134.972656 222.496094C134.570313 223.441406 134.238281 223.910156 133.714844 224.234375L133.714844 224.492188 134.328125 224.492188 134.328125 228.007813C134.328125 229.007813 134.648438 229.410156 135.398438 229.410156 136.109375 229.410156 136.34375 229.078125 136.78125 228.476563L136.570313 228.296875M141.429688 227.703125C141.074219 228.171875 140.726563 228.574219 139.824219 228.574219 138.929688 228.574219 138.082031 227.871094 138.082031 226.332031L141.609375 226.332031C141.554688 224.769531 140.75 223.890625 139.53125 223.890625 138.226563 223.890625 137.179688 224.78125 137.179688 226.644531 137.179688 228.441406 138.21875 229.410156 139.554688 229.410156 140.703125 229.410156 141.242188 228.710938 141.640625 227.859375zM138.070313 225.921875C138.160156 224.882813 138.609375 224.335938 139.367188 224.335938 140.15625 224.335938 140.527344 225.09375 140.558594 225.921875L138.070313 225.921875M144.042969 223.921875L143.773438 223.921875 142.390625 224.257813 142.390625 224.570313C142.390625 224.570313 142.511719 224.546875 142.734375 224.546875 143.136719 224.546875 143.136719 224.75 143.136719 225.148438L143.136719 228.21875C143.136719 228.84375 143.058594 228.976563 142.324219 228.976563L142.324219 229.300781 145.113281 229.300781 145.113281 228.976563C144.277344 228.976563 144.0625 228.867188 144.0625 228.164063L144.0625 225.617188C144.332031 225.171875 144.6875 224.703125 144.945313 224.703125 145.078125 224.703125 145.300781 225.082031 145.671875 225.082031 145.914063 225.082031 146.160156 224.90625 146.160156 224.480469 146.160156 224.101563 145.949219 223.855469 145.515625 223.855469 144.976563 223.855469 144.644531 224.246094 144.074219 225.070313L144.042969 225.070313 144.042969 223.921875" fill="#e132a2" />
</svg>