<?xml version="1.0" encoding="UTF-8"?>
<!-- Generator: Adobe Illustrator 15.0.0, SVG Export Plug-In . SVG Version: 6.00 Build 0)  -->
<!DOCTYPE svg PUBLIC "-//W3C//DTD SVG 1.1//EN" "http://www.w3.org/Graphics/SVG/1.1/DTD/svg11.dtd">
<svg version="1.1" xmlns="http://www.w3.org/2000/svg" xmlns:xlink="http://www.w3.org/1999/xlink" x="0px" y="0px" width="1000px" height="300px" viewBox="0 0 1000 300" enable-background="new 0 0 1000 300" xml:space="preserve" style="background-color: #19558e">
<g id="Layer_2">
	<rect y="272.412" fill="none" width="115.982" height="33.588"/>
	<text transform="matrix(1 0 0 1 40.2314 283.7725)" fill="#FFFFFF" font-family="'MyriadPro-Bold'" font-size="16">1963</text>
	<rect x="142.229" y="272.412" fill="none" width="115.982" height="33.588"/>
	<text transform="matrix(1 0 0 1 182.4604 283.7725)" fill="#FFFFFF" font-family="'MyriadPro-Bold'" font-size="16">1966</text>
	<rect x="286.881" y="272.412" fill="none" width="115.982" height="33.588"/>
	<text transform="matrix(1 0 0 1 327.1128 283.7725)" fill="#FFFFFF" font-family="'MyriadPro-Bold'" font-size="16">1976</text>
	<rect x="434.389" y="272.412" fill="none" width="115.982" height="33.588"/>
	<text transform="matrix(1 0 0 1 474.6201 283.7725)" fill="#FFFFFF" font-family="'MyriadPro-Bold'" font-size="16">1980</text>
	<rect x="575.878" y="272.412" fill="none" width="115.982" height="33.588"/>
	<text transform="matrix(1 0 0 1 616.1094 283.7725)" fill="#FFFFFF" font-family="'MyriadPro-Bold'" font-size="16">1996</text>
	<rect x="722.527" y="272.412" fill="none" width="115.982" height="33.588"/>
	<text transform="matrix(1 0 0 1 762.7588 283.7725)" fill="#FFFFFF" font-family="'MyriadPro-Bold'" font-size="16">2005</text>
	<rect x="876.204" y="272.412" fill="none" width="115.982" height="33.588"/>
	<text transform="matrix(1 0 0 1 916.4355 283.7725)" fill="#FFFFFF" font-family="'MyriadPro-Bold'" font-size="16">2010</text>
</g>
<g id="Layer_1">
	<g>
		<g>
			<circle fill="none" stroke="#FFFFFF" stroke-width="0.5" cx="79.255" cy="155.918" r="5.037"/>
			<circle fill="none" stroke="#FFFFFF" stroke-width="0.5" cx="79.255" cy="155.918" r="3.005"/>
			<circle fill="none" stroke="#FFFFFF" stroke-width="0.5" cx="79.255" cy="155.918" r="1.743"/>
			<g>
				<polygon fill="none" stroke="#FFFFFF" stroke-width="0.5" points="79.21,155.938 76.707,154.803 77.337,155.956 76.599,157.018           "/>
				<polygon fill="none" stroke="#FFFFFF" stroke-width="0.5" points="79.229,155.938 81.731,154.803 81.102,155.956 81.84,157.018           "/>
				<polygon fill="none" stroke="#FFFFFF" stroke-width="0.5" points="79.192,155.901 80.327,153.398 79.174,154.028 78.112,153.29           "/>
				<polygon fill="none" stroke="#FFFFFF" stroke-width="0.5" points="79.192,155.919 80.327,158.423 79.174,157.793       78.112,158.531     "/>
			</g>
		</g>
		<g>
			<g id="XMLID_9_">
				<g>
				</g>
				<g>
					<polyline fill="none" stroke="#FFFFFF" stroke-width="0.5" points="51.972,50.282 51.972,50.08 51.972,38.737 51.972,38.661             "/>
					<polyline fill="none" stroke="#FFFFFF" stroke-width="0.5" points="53.649,50.282 53.649,50.08 53.649,38.737 53.649,38.661             "/>
					<polyline fill="none" stroke="#FFFFFF" stroke-width="0.5" points="55.441,50.347 55.441,50.08 55.441,38.737 55.441,38.726             "/>
					<polyline fill="none" stroke="#FFFFFF" stroke-width="0.5" points="62.7,50.418 62.7,50.08 62.7,38.791      "/>
					<polyline fill="none" stroke="#FFFFFF" stroke-width="0.5" points="9.033,64.713 9.033,61.62 12.545,61.62 18.977,61.62        18.977,63.243 18.977,64.778      "/>
					<polyline fill="none" stroke="#FFFFFF" stroke-width="0.5" points="6.8,257.028 6.8,85.162 6.8,70.66 6.8,64.778 9.033,64.778        18.977,64.778 20.398,64.778 20.398,65.993 20.398,70.251 20.398,70.316      "/>
					<polyline fill="none" stroke="#FFFFFF" stroke-width="0.5" points="6.599,70.66 2.743,70.66 2.743,85.162 6.8,85.162      "/>
					<polyline fill="none" stroke="#FFFFFF" stroke-width="0.5" points="17.55,85.058 17.55,85.466 17.55,257.044      "/>
					<path fill="none" stroke="#FFFFFF" stroke-width="0.5" d="M65.657,37.201c0,0-1.699-3.393-6.306-3.409       c-4.607,0.017-6.306,3.409-6.306,3.409"/>
					<polyline fill="none" stroke="#FFFFFF" stroke-width="0.5" points="66.039,50.282 66.039,50.08 66.039,38.737 66.039,38.661             "/>
					<polyline fill="none" stroke="#FFFFFF" stroke-width="0.5" points="64.351,50.282 64.351,50.08 64.351,38.737 64.351,38.661             "/>
					<polyline fill="none" stroke="#FFFFFF" stroke-width="0.5" points="67.318,53.936 67.318,50.08 66.039,50.08 64.351,50.08        62.7,50.08 60.016,50.08 57.984,50.08 55.441,50.08 53.649,50.08 51.972,50.08 50.692,50.08 50.692,53.936      "/>
					<path fill="none" stroke="#FFFFFF" stroke-width="0.5" d="M104.72,58.51c0,0-25.753-3.872-37.412-4.33       c-0.73-0.027-1.405-0.043-2.015-0.043c-4.264,0-4.215,0-4.662,0H57.38c-0.452,0-0.403,0-4.667,0       c-0.61,0-1.28,0.017-2.009,0.043c-11.648,0.458-37.412,4.33-37.412,4.33"/>
					<polyline fill="none" stroke="#FFFFFF" stroke-width="0.5" points="105.465,61.62 105.465,58.728 104.72,58.728 61.916,58.728        56.084,58.728 13.292,58.728 12.545,58.728 12.545,61.62      "/>
					<polyline fill="none" stroke="#FFFFFF" stroke-width="0.5" points="108.973,64.713 108.973,61.62 105.465,61.62 99.034,61.62        99.034,63.243 99.034,64.778      "/>
					<polyline fill="none" stroke="#FFFFFF" stroke-width="0.5" points="111.206,257.028 111.206,85.162 111.206,70.66        111.206,64.778 108.973,64.778 99.034,64.778 97.613,64.778 97.613,65.993 97.613,70.251 97.613,70.316      "/>
					<polyline fill="none" stroke="#FFFFFF" stroke-width="0.5" points="98.838,63.243 62.935,63.243 55.076,63.243 19.173,63.243             "/>
					<polyline fill="none" stroke="#FFFFFF" stroke-width="0.5" points="97.411,65.993 63.539,65.993 54.472,65.993 20.594,65.993             "/>
					<polygon fill="none" stroke="#FFFFFF" stroke-width="0.5" points="17.55,85.466 57.696,85.466 60.315,85.466 100.456,85.466        106.141,85.466 106.141,70.251 97.613,70.251 59.891,70.251 58.115,70.251 20.398,70.251 11.87,70.251 11.87,85.466      "/>
					<polyline fill="none" stroke="#FFFFFF" stroke-width="0.5" points="111.412,70.66 115.268,70.66 115.268,85.162        111.206,85.162      "/>
					<polygon fill="none" stroke="#FFFFFF" stroke-width="0.5" points="0.919,259.669 0.919,265.349 56.084,265.349 61.916,265.349        117.087,265.349 117.087,259.669 117.087,259.468 111.206,257.109 100.456,257.109 97.82,257.109 61.105,257.109        60.974,257.109 57.037,257.109 56.896,257.109 20.186,257.109 17.55,257.109 6.8,257.109 0.919,259.468      "/>
					<polyline fill="none" stroke="#FFFFFF" stroke-width="0.5" points="117.087,259.669 61.513,259.669 56.498,259.669        0.919,259.669      "/>
					<polyline fill="none" stroke="#FFFFFF" stroke-width="0.5" points="100.456,85.058 100.456,85.466 100.456,257.044      "/>
					<polyline fill="none" stroke="#FFFFFF" stroke-width="0.5" points="97.82,257.251 97.82,257.109 97.82,92.562 97.82,88.505        60.919,88.505 57.091,88.505 20.186,88.505 20.186,92.562 20.186,257.109 20.186,257.251      "/>
					<polyline fill="none" stroke="#FFFFFF" stroke-width="0.5" points="97.956,92.562 97.82,92.562 60.974,92.562 60.511,92.562        57.5,92.562 57.037,92.562 20.186,92.562 20.05,92.562      "/>
					<polygon fill="none" stroke="#FFFFFF" stroke-width="0.5" points="63.539,82.259 93.267,82.259 93.267,72.996 62.679,72.996        55.327,72.996 24.738,72.996 24.738,82.259 54.472,82.259      "/>
					<polygon fill="none" stroke="#FFFFFF" stroke-width="0.5" points="65.657,37.408 68.168,37.408 68.168,38.737 66.039,38.737        64.351,38.737 62.7,38.737 55.441,38.737 53.649,38.737 51.972,38.737 50.535,38.737 50.535,37.408 53.045,37.408      "/>
					<polyline fill="none" stroke="#FFFFFF" stroke-width="0.5" points="57.037,92.862 57.037,257.109 57.037,257.219      "/>
					<polyline fill="none" stroke="#FFFFFF" stroke-width="0.5" points="60.974,92.862 60.974,257.109 60.974,257.219      "/>
					<rect x="25.795" y="100.213" fill="none" stroke="#FFFFFF" stroke-width="0.5" width="25.121" height="32.119"/>
					<rect x="25.795" y="139.33" fill="none" stroke="#FFFFFF" stroke-width="0.5" width="25.121" height="32.118"/>
					<rect x="25.795" y="178.452" fill="none" stroke="#FFFFFF" stroke-width="0.5" width="25.121" height="32.118"/>
					<rect x="25.795" y="217.568" fill="none" stroke="#FFFFFF" stroke-width="0.5" width="25.121" height="32.119"/>
					<rect x="27.859" y="102.364" fill="none" stroke="#FFFFFF" stroke-width="0.5" width="5.925" height="12.024"/>
					<rect x="42.933" y="102.364" fill="none" stroke="#FFFFFF" stroke-width="0.5" width="5.919" height="12.024"/>
					<rect x="35.401" y="102.364" fill="none" stroke="#FFFFFF" stroke-width="0.5" width="5.919" height="12.024"/>
					<rect x="27.859" y="116.904" fill="none" stroke="#FFFFFF" stroke-width="0.5" width="5.925" height="12.024"/>
					<rect x="42.933" y="116.904" fill="none" stroke="#FFFFFF" stroke-width="0.5" width="5.919" height="12.024"/>
					<rect x="35.401" y="116.904" fill="none" stroke="#FFFFFF" stroke-width="0.5" width="5.919" height="12.024"/>
					<rect x="66.638" y="100.213" fill="none" stroke="#FFFFFF" stroke-width="0.5" width="25.121" height="32.119"/>
					<rect x="66.638" y="139.33" fill="none" stroke="#FFFFFF" stroke-width="0.5" width="25.121" height="32.118"/>
					<rect x="67.776" y="140.648" fill="none" stroke="#FFFFFF" stroke-width="0.5" width="22.845" height="29.227"/>
					<rect x="67.776" y="219.05" fill="none" stroke="#FFFFFF" stroke-width="0.5" width="22.845" height="29.222"/>
					<rect x="67.776" y="179.846" fill="none" stroke="#FFFFFF" stroke-width="0.5" width="22.845" height="29.228"/>
					<rect x="26.933" y="219.05" fill="none" stroke="#FFFFFF" stroke-width="0.5" width="22.845" height="29.222"/>
					<rect x="26.933" y="179.846" fill="none" stroke="#FFFFFF" stroke-width="0.5" width="22.845" height="29.228"/>
					<rect x="66.638" y="178.452" fill="none" stroke="#FFFFFF" stroke-width="0.5" width="25.121" height="32.118"/>
					<rect x="66.638" y="217.568" fill="none" stroke="#FFFFFF" stroke-width="0.5" width="25.121" height="32.119"/>
					<rect x="68.702" y="102.364" fill="none" stroke="#FFFFFF" stroke-width="0.5" width="5.925" height="12.024"/>
					<rect x="83.775" y="102.364" fill="none" stroke="#FFFFFF" stroke-width="0.5" width="5.919" height="12.024"/>
					<rect x="76.244" y="102.364" fill="none" stroke="#FFFFFF" stroke-width="0.5" width="5.92" height="12.024"/>
					<rect x="68.702" y="116.904" fill="none" stroke="#FFFFFF" stroke-width="0.5" width="5.925" height="12.024"/>
					<rect x="83.775" y="116.904" fill="none" stroke="#FFFFFF" stroke-width="0.5" width="5.919" height="12.024"/>
					<rect x="76.244" y="116.904" fill="none" stroke="#FFFFFF" stroke-width="0.5" width="5.92" height="12.024"/>
					<rect x="28.403" y="141.851" fill="none" stroke="#FFFFFF" stroke-width="0.5" width="19.91" height="26.739"/>
					<circle fill="none" stroke="#FFFFFF" stroke-width="0.5" cx="53.889" cy="175.185" r="1.95"/>
					<rect x="63.104" y="171.166" fill="none" stroke="#FFFFFF" stroke-width="0.5" width="1.171" height="9.567"/>
				</g>
			</g>
		</g>
	</g>
	<g>
		<g id="XMLID_8_">
			<g>
			</g>
			<g>
				<polyline fill="none" stroke="#FFFFFF" stroke-width="0.5" points="193.184,58.45 193.184,58.249 193.184,46.905       193.184,46.829     "/>
				<polyline fill="none" stroke="#FFFFFF" stroke-width="0.5" points="194.867,58.45 194.867,58.249 194.867,46.905       194.867,46.829     "/>
				<polyline fill="none" stroke="#FFFFFF" stroke-width="0.5" points="196.659,58.516 196.659,58.249 196.659,46.905       196.659,46.895     "/>
				<polyline fill="none" stroke="#FFFFFF" stroke-width="0.5" points="203.912,58.586 203.912,58.249 203.912,46.96     "/>
				<polyline fill="none" stroke="#FFFFFF" stroke-width="0.5" points="148.023,257.028 148.023,85.162 148.023,70.66       148.023,64.778 153.768,64.778 161.61,64.778 161.61,65.993 161.61,70.251 161.61,70.316     "/>
				<polyline fill="none" stroke="#FFFFFF" stroke-width="0.5" points="147.816,70.66 143.966,70.66 143.966,85.162 148.023,85.162           "/>
				<polyline fill="none" stroke="#FFFFFF" stroke-width="0.5" points="158.767,85.058 158.767,85.466 158.767,257.044     "/>
				<path fill="none" stroke="#FFFFFF" stroke-width="0.5" d="M206.869,45.37c0,0-1.693-3.393-6.301-3.409      c-4.607,0.017-6.306,3.409-6.306,3.409"/>
				<polyline fill="none" stroke="#FFFFFF" stroke-width="0.5" points="207.256,58.45 207.256,58.249 207.256,46.905       207.256,46.829     "/>
				<polyline fill="none" stroke="#FFFFFF" stroke-width="0.5" points="205.568,58.45 205.568,58.249 205.568,46.905       205.568,46.829     "/>
				<polyline fill="none" stroke="#FFFFFF" stroke-width="0.5" points="208.541,61.56 208.541,61.451 208.541,58.249       207.256,58.249 205.568,58.249 203.912,58.249 201.233,58.249 199.202,58.249 196.659,58.249 194.867,58.249 193.184,58.249       191.904,58.249 191.904,61.451 191.904,61.56     "/>
				<polyline fill="none" stroke="#FFFFFF" stroke-width="0.5" points="246.677,64.887 246.677,64.778 246.677,61.451       208.541,61.451 203.133,61.451 197.301,61.451 191.904,61.451 153.768,61.451 153.768,64.778 153.768,64.887     "/>
				<polyline fill="none" stroke="#FFFFFF" stroke-width="0.5" points="252.423,257.028 252.423,85.162 252.423,70.66       252.423,64.778 246.677,64.778 238.83,64.778 238.83,65.993 238.83,70.251 238.83,70.316     "/>
				<polyline fill="none" stroke="#FFFFFF" stroke-width="0.5" points="238.628,65.993 204.762,65.993 195.684,65.993       161.817,65.993     "/>
				<polygon fill="none" stroke="#FFFFFF" stroke-width="0.5" points="158.767,85.466 198.918,85.466 201.527,85.466       241.678,85.466 247.353,85.466 247.353,70.251 238.83,70.251 201.108,70.251 199.333,70.251 161.61,70.251 153.087,70.251       153.087,85.466     "/>
				<polyline fill="none" stroke="#FFFFFF" stroke-width="0.5" points="252.624,70.66 256.479,70.66 256.479,85.162 252.423,85.162           "/>
				<polygon fill="none" stroke="#FFFFFF" stroke-width="0.5" points="142.136,259.669 142.136,265.349 197.301,265.349       203.133,265.349 258.304,265.349 258.304,259.669 258.304,259.468 252.423,257.109 241.678,257.109 239.042,257.109       202.322,257.109 202.197,257.109 198.249,257.109 198.113,257.109 161.403,257.109 158.767,257.109 148.023,257.109       142.136,259.468     "/>
				<polyline fill="none" stroke="#FFFFFF" stroke-width="0.5" points="258.304,259.669 202.73,259.669 197.709,259.669       142.136,259.669     "/>
				<polyline fill="none" stroke="#FFFFFF" stroke-width="0.5" points="241.678,85.058 241.678,85.466 241.678,257.044     "/>
				<polyline fill="none" stroke="#FFFFFF" stroke-width="0.5" points="239.042,257.251 239.042,257.109 239.042,92.562       239.042,88.505 202.131,88.505 198.314,88.505 161.403,88.505 161.403,92.562 161.403,257.109 161.403,257.251     "/>
				<polyline fill="none" stroke="#FFFFFF" stroke-width="0.5" points="239.173,92.562 239.042,92.562 202.197,92.562       201.734,92.562 198.711,92.562 198.249,92.562 161.403,92.562 161.267,92.562     "/>
				<polygon fill="none" stroke="#FFFFFF" stroke-width="0.5" points="204.762,82.259 234.484,82.259 234.484,72.996       203.901,72.996 196.544,72.996 165.956,72.996 165.956,82.259 195.684,82.259     "/>
				<polygon fill="none" stroke="#FFFFFF" stroke-width="0.5" points="206.869,45.577 209.391,45.577 209.391,46.905       207.256,46.905 205.568,46.905 203.912,46.905 196.659,46.905 194.867,46.905 193.184,46.905 191.757,46.905 191.757,45.577       194.263,45.577     "/>
				<polyline fill="none" stroke="#FFFFFF" stroke-width="0.5" points="198.249,92.862 198.249,257.109 198.249,257.219     "/>
				<polyline fill="none" stroke="#FFFFFF" stroke-width="0.5" points="202.197,92.862 202.197,257.109 202.197,257.219     "/>
				<path fill="none" stroke="#FFFFFF" stroke-width="0.5" d="M208.182,174.711c0,1.072-0.877,1.955-1.955,1.955      c-1.073,0-1.955-0.883-1.955-1.955c0-1.084,0.882-1.955,1.955-1.955C207.305,172.756,208.182,173.627,208.182,174.711z"/>
				<rect x="204.321" y="152.111" fill="none" stroke="#FFFFFF" stroke-width="0.5" width="1.171" height="9.563"/>
				<rect x="167.175" y="99.462" fill="none" stroke="#FFFFFF" stroke-width="0.5" width="25.121" height="32.119"/>
				<rect x="167.175" y="138.579" fill="none" stroke="#FFFFFF" stroke-width="0.5" width="25.121" height="32.119"/>
				<rect x="167.175" y="177.706" fill="none" stroke="#FFFFFF" stroke-width="0.5" width="25.121" height="32.113"/>
				<rect x="167.175" y="216.817" fill="none" stroke="#FFFFFF" stroke-width="0.5" width="25.121" height="32.124"/>
				<rect x="169.239" y="101.613" fill="none" stroke="#FFFFFF" stroke-width="0.5" width="5.925" height="12.024"/>
				<rect x="184.313" y="101.613" fill="none" stroke="#FFFFFF" stroke-width="0.5" width="5.925" height="12.024"/>
				<rect x="176.782" y="101.613" fill="none" stroke="#FFFFFF" stroke-width="0.5" width="5.919" height="12.024"/>
				<rect x="169.239" y="116.153" fill="none" stroke="#FFFFFF" stroke-width="0.5" width="5.925" height="12.024"/>
				<rect x="184.313" y="116.153" fill="none" stroke="#FFFFFF" stroke-width="0.5" width="5.925" height="12.024"/>
				<rect x="176.782" y="116.153" fill="none" stroke="#FFFFFF" stroke-width="0.5" width="5.919" height="12.024"/>
				<rect x="208.019" y="99.462" fill="none" stroke="#FFFFFF" stroke-width="0.5" width="25.126" height="32.119"/>
				<rect x="208.019" y="138.579" fill="none" stroke="#FFFFFF" stroke-width="0.5" width="25.126" height="32.119"/>
				<rect x="209.156" y="139.896" fill="none" stroke="#FFFFFF" stroke-width="0.5" width="22.851" height="29.227"/>
				<rect x="209.156" y="218.298" fill="none" stroke="#FFFFFF" stroke-width="0.5" width="22.851" height="29.222"/>
				<rect x="209.156" y="179.095" fill="none" stroke="#FFFFFF" stroke-width="0.5" width="22.851" height="29.227"/>
				<rect x="168.313" y="218.298" fill="none" stroke="#FFFFFF" stroke-width="0.5" width="22.851" height="29.222"/>
				<rect x="168.313" y="179.095" fill="none" stroke="#FFFFFF" stroke-width="0.5" width="22.851" height="29.227"/>
				<rect x="208.019" y="177.706" fill="none" stroke="#FFFFFF" stroke-width="0.5" width="25.126" height="32.113"/>
				<rect x="208.019" y="216.817" fill="none" stroke="#FFFFFF" stroke-width="0.5" width="25.126" height="32.124"/>
				<rect x="210.082" y="101.613" fill="none" stroke="#FFFFFF" stroke-width="0.5" width="5.925" height="12.024"/>
				<rect x="225.156" y="101.613" fill="none" stroke="#FFFFFF" stroke-width="0.5" width="5.925" height="12.024"/>
				<rect x="217.625" y="101.613" fill="none" stroke="#FFFFFF" stroke-width="0.5" width="5.919" height="12.024"/>
				<rect x="210.082" y="116.153" fill="none" stroke="#FFFFFF" stroke-width="0.5" width="5.925" height="12.024"/>
				<rect x="225.156" y="116.153" fill="none" stroke="#FFFFFF" stroke-width="0.5" width="5.925" height="12.024"/>
				<rect x="217.625" y="116.153" fill="none" stroke="#FFFFFF" stroke-width="0.5" width="5.919" height="12.024"/>
				<rect x="168.313" y="139.896" fill="none" stroke="#FFFFFF" stroke-width="0.5" width="22.851" height="29.227"/>
			</g>
		</g>
	</g>
	<g id="XMLID_7_">
		<g>
		</g>
		<g>
			<line fill="none" stroke="#FFFFFF" stroke-width="0.5" x1="339.08" y1="56.806" x2="339.08" y2="64.669"/>
			<line fill="none" stroke="#FFFFFF" stroke-width="0.5" x1="341.384" y1="56.806" x2="341.384" y2="64.669"/>
			<path fill="none" stroke="#FFFFFF" stroke-width="0.5" d="M341.384,56.424h3.453h2.881h3.447h2.298h1.922V55.08     c0,0-4.411-2.494-8.054-2.494h-2.107c-3.649,0-8.054,2.494-8.054,2.494v1.345h1.911H341.384z"/>
			<line fill="none" stroke="#FFFFFF" stroke-width="0.5" x1="353.462" y1="56.806" x2="353.462" y2="64.669"/>
			<line fill="none" stroke="#FFFFFF" stroke-width="0.5" x1="351.164" y1="56.806" x2="351.164" y2="64.669"/>
			<path fill="none" stroke="#FFFFFF" stroke-width="0.5" d="M353.794,153.162c0,0.942-0.762,1.71-1.705,1.71     c-0.942,0-1.71-0.768-1.71-1.71c0-0.937,0.768-1.705,1.71-1.705C353.032,151.458,353.794,152.226,353.794,153.162z"/>
			<rect x="350.642" y="170.566" fill="none" stroke="#FFFFFF" stroke-width="0.5" width="1.165" height="9.563"/>
			<polyline fill="none" stroke="#FFFFFF" stroke-width="0.5" points="304.837,80.674 304.837,80.565 304.837,76.606      304.837,74.826 297.72,74.826 290.81,74.826 290.81,81.529 290.81,91.789 290.81,259.816    "/>
			<polyline fill="none" stroke="#FFFFFF" stroke-width="0.5" points="305.061,259.522 305.061,91.615 305.061,91.359    "/>
			<polyline fill="none" stroke="#FFFFFF" stroke-width="0.5" points="307.637,91.103 307.637,91.615 307.637,95.427      307.637,259.522    "/>
			<polyline fill="none" stroke="#FFFFFF" stroke-width="0.5" points="343.873,95.503 343.873,260.089 343.873,260.611    "/>
			<rect x="313.137" y="220.667" fill="none" stroke="#FFFFFF" stroke-width="0.5" width="24.43" height="32.31"/>
			<rect x="314.4" y="221.92" fill="none" stroke="#FFFFFF" stroke-width="0.5" width="21.902" height="29.799"/>
			<rect x="313.137" y="180.216" fill="none" stroke="#FFFFFF" stroke-width="0.5" width="24.43" height="32.31"/>
			<rect x="314.4" y="181.469" fill="none" stroke="#FFFFFF" stroke-width="0.5" width="21.902" height="29.799"/>
			<rect x="313.137" y="141.541" fill="none" stroke="#FFFFFF" stroke-width="0.5" width="24.43" height="32.314"/>
			<rect x="315.484" y="144.433" fill="none" stroke="#FFFFFF" stroke-width="0.5" width="19.474" height="26.488"/>
			<rect x="313.137" y="102.506" fill="none" stroke="#FFFFFF" stroke-width="0.5" width="24.43" height="32.31"/>
			<rect x="314.4" y="103.764" fill="none" stroke="#FFFFFF" stroke-width="0.5" width="21.902" height="29.799"/>
			<polyline fill="none" stroke="#FFFFFF" stroke-width="0.5" points="290.597,81.529 287.205,81.529 287.205,91.789 290.76,91.789         "/>
			<rect x="315.849" y="105.098" fill="none" stroke="#FFFFFF" stroke-width="0.5" width="4.874" height="12.721"/>
			<rect x="322.956" y="105.098" fill="none" stroke="#FFFFFF" stroke-width="0.5" width="4.879" height="12.721"/>
			<rect x="330.051" y="105.098" fill="none" stroke="#FFFFFF" stroke-width="0.5" width="4.879" height="12.721"/>
			<rect x="315.849" y="119.6" fill="none" stroke="#FFFFFF" stroke-width="0.5" width="4.874" height="12.721"/>
			<rect x="322.956" y="119.6" fill="none" stroke="#FFFFFF" stroke-width="0.5" width="4.879" height="12.721"/>
			<rect x="330.051" y="119.6" fill="none" stroke="#FFFFFF" stroke-width="0.5" width="4.879" height="12.721"/>
			<polygon fill="none" stroke="#FFFFFF" stroke-width="0.5" points="307.637,91.615 345.141,91.615 347.439,91.615 384.944,91.615      387.525,91.615 396.326,91.615 396.326,80.565 387.743,80.565 347.184,80.565 345.403,80.565 304.837,80.565 296.261,80.565      296.261,91.615 305.061,91.615    "/>
			<polyline fill="none" stroke="#FFFFFF" stroke-width="0.5" points="387.743,80.674 387.743,80.565 387.743,76.606      387.743,74.826 394.866,74.826 401.777,74.826 401.777,81.529 401.777,91.789 401.777,259.816    "/>
			<polyline fill="none" stroke="#FFFFFF" stroke-width="0.5" points="387.525,259.522 387.525,91.615 387.525,91.359    "/>
			<polyline fill="none" stroke="#FFFFFF" stroke-width="0.5" points="384.944,91.103 384.944,91.615 384.944,95.427      384.944,259.522    "/>
			<polyline fill="none" stroke="#FFFFFF" stroke-width="0.5" points="384.688,95.427 348.714,95.427 347.184,95.427      345.403,95.427 343.873,95.427 307.887,95.427    "/>
			<polyline fill="none" stroke="#FFFFFF" stroke-width="0.5" points="348.714,95.503 348.714,260.089 348.714,260.611    "/>
			<polyline fill="none" stroke="#FFFFFF" stroke-width="0.5" points="387.743,76.606 347.946,76.606 344.629,76.606      304.837,76.606    "/>
			<polyline fill="none" stroke="#FFFFFF" stroke-width="0.5" points="394.866,74.826 394.866,70.496 347.184,70.496      345.403,70.496 297.72,70.496 297.72,74.826    "/>
			<polyline fill="none" stroke="#FFFFFF" stroke-width="0.5" points="394.866,70.496 356.071,67.436 346.938,66.717      345.653,66.717 336.472,67.441 297.72,70.496    "/>
			<polyline fill="none" stroke="#FFFFFF" stroke-width="0.5" points="356.071,67.735 356.071,67.436 356.071,64.68 353.462,64.68      351.164,64.68 346.405,64.68 346.149,64.68 341.384,64.68 339.08,64.68 336.472,64.68 336.472,67.441 336.472,67.735    "/>
			<rect x="355.025" y="220.667" fill="none" stroke="#FFFFFF" stroke-width="0.5" width="24.418" height="32.31"/>
			<rect x="356.278" y="221.92" fill="none" stroke="#FFFFFF" stroke-width="0.5" width="21.914" height="29.799"/>
			<rect x="355.025" y="180.216" fill="none" stroke="#FFFFFF" stroke-width="0.5" width="24.418" height="32.31"/>
			<rect x="356.278" y="181.469" fill="none" stroke="#FFFFFF" stroke-width="0.5" width="21.914" height="29.799"/>
			<rect x="355.025" y="141.541" fill="none" stroke="#FFFFFF" stroke-width="0.5" width="24.418" height="32.314"/>
			<rect x="356.278" y="142.799" fill="none" stroke="#FFFFFF" stroke-width="0.5" width="21.914" height="29.799"/>
			<rect x="355.025" y="102.506" fill="none" stroke="#FFFFFF" stroke-width="0.5" width="24.418" height="32.31"/>
			<rect x="356.278" y="103.764" fill="none" stroke="#FFFFFF" stroke-width="0.5" width="21.914" height="29.799"/>
			<polyline fill="none" stroke="#FFFFFF" stroke-width="0.5" points="401.995,81.529 405.382,81.529 405.382,91.789 401.82,91.789         "/>
			<rect x="371.858" y="105.098" fill="none" stroke="#FFFFFF" stroke-width="0.5" width="4.874" height="12.721"/>
			<rect x="364.757" y="105.098" fill="none" stroke="#FFFFFF" stroke-width="0.5" width="4.879" height="12.721"/>
			<rect x="357.65" y="105.098" fill="none" stroke="#FFFFFF" stroke-width="0.5" width="4.879" height="12.721"/>
			<rect x="371.858" y="119.6" fill="none" stroke="#FFFFFF" stroke-width="0.5" width="4.874" height="12.721"/>
			<rect x="364.757" y="119.6" fill="none" stroke="#FFFFFF" stroke-width="0.5" width="4.879" height="12.721"/>
			<rect x="357.65" y="119.6" fill="none" stroke="#FFFFFF" stroke-width="0.5" width="4.879" height="12.721"/>
			<polygon fill="none" stroke="#FFFFFF" stroke-width="0.5" points="401.777,260.089 409.352,260.089 409.352,265.349      283.523,265.349 283.523,260.089 290.81,260.089 305.061,260.089 307.637,260.089 343.873,260.089 348.714,260.089      384.944,260.089 387.525,260.089    "/>
			<polygon fill="none" stroke="#FFFFFF" stroke-width="0.5" points="387.743,82.172 391.054,82.172 391.054,89.964 384.944,89.964      307.637,89.964 301.679,89.964 301.679,82.172 304.837,82.172    "/>
		</g>
	</g>
	<g>
		<g id="XMLID_6_">
			<g>
			</g>
			<g>
				<path fill="none" stroke="#FFFFFF" stroke-width="0.5" d="M639.459,152.432c0,0.708-0.566,1.285-1.279,1.285      c-0.708,0-1.285-0.577-1.285-1.285s0.577-1.274,1.285-1.274C638.893,151.158,639.459,151.724,639.459,152.432z"/>
				<rect x="637.646" y="158.047" fill="none" stroke="#FFFFFF" stroke-width="0.5" width="1.171" height="9.568"/>
				<rect x="600.561" y="216.446" fill="none" stroke="#FFFFFF" stroke-width="0.5" width="26.607" height="32.315"/>
				<rect x="601.818" y="217.704" fill="none" stroke="#FFFFFF" stroke-width="0.5" width="24.081" height="29.8"/>
				<rect x="600.561" y="175.996" fill="none" stroke="#FFFFFF" stroke-width="0.5" width="26.607" height="32.31"/>
				<rect x="601.818" y="177.254" fill="none" stroke="#FFFFFF" stroke-width="0.5" width="24.081" height="29.799"/>
				<rect x="600.561" y="137.326" fill="none" stroke="#FFFFFF" stroke-width="0.5" width="26.607" height="32.31"/>
				<rect x="601.818" y="138.589" fill="none" stroke="#FFFFFF" stroke-width="0.5" width="24.081" height="29.793"/>
				<rect x="600.561" y="98.296" fill="none" stroke="#FFFFFF" stroke-width="0.5" width="26.607" height="32.31"/>
				<rect x="601.818" y="99.549" fill="none" stroke="#FFFFFF" stroke-width="0.5" width="24.081" height="29.799"/>
				<rect x="618.482" y="100.878" fill="none" stroke="#FFFFFF" stroke-width="0.5" width="5.974" height="12.721"/>
				<rect x="611.381" y="100.878" fill="none" stroke="#FFFFFF" stroke-width="0.5" width="4.88" height="12.721"/>
				<rect x="603.196" y="100.878" fill="none" stroke="#FFFFFF" stroke-width="0.5" width="5.963" height="12.721"/>
				<rect x="618.482" y="115.38" fill="none" stroke="#FFFFFF" stroke-width="0.5" width="5.974" height="12.721"/>
				<rect x="611.381" y="115.38" fill="none" stroke="#FFFFFF" stroke-width="0.5" width="4.88" height="12.721"/>
				<rect x="603.196" y="115.38" fill="none" stroke="#FFFFFF" stroke-width="0.5" width="5.963" height="12.721"/>
				<polyline fill="none" stroke="#FFFFFF" stroke-width="0.5" points="595.703,70.937 595.703,70.398 595.703,67.942       595.703,66.586 594.069,66.586 585.084,66.586 582.089,66.586 582.089,71.667 582.089,82.379 582.089,257.725     "/>
				<polyline fill="none" stroke="#FFFFFF" stroke-width="0.5" points="595.431,257.453 595.431,91.359 595.431,88.777       595.431,86.191 595.431,83.468 595.431,83.195     "/>
				<polyline fill="none" stroke="#FFFFFF" stroke-width="0.5" points="585.084,66.586 585.084,63.046 588.629,63.046       594.069,63.046 594.069,66.586 594.069,66.858     "/>
				<line fill="none" stroke="#FFFFFF" stroke-width="0.5" x1="631.645" y1="257.453" x2="631.645" y2="91.359"/>
				<rect x="640.57" y="216.446" fill="none" stroke="#FFFFFF" stroke-width="0.5" width="26.607" height="32.315"/>
				<rect x="641.839" y="217.704" fill="none" stroke="#FFFFFF" stroke-width="0.5" width="24.081" height="29.8"/>
				<rect x="640.57" y="175.996" fill="none" stroke="#FFFFFF" stroke-width="0.5" width="26.607" height="32.31"/>
				<rect x="641.839" y="177.254" fill="none" stroke="#FFFFFF" stroke-width="0.5" width="24.081" height="29.799"/>
				<rect x="640.57" y="137.326" fill="none" stroke="#FFFFFF" stroke-width="0.5" width="26.607" height="32.31"/>
				<rect x="641.839" y="138.589" fill="none" stroke="#FFFFFF" stroke-width="0.5" width="24.081" height="29.793"/>
				<rect x="640.57" y="98.296" fill="none" stroke="#FFFFFF" stroke-width="0.5" width="26.607" height="32.31"/>
				<rect x="641.839" y="99.549" fill="none" stroke="#FFFFFF" stroke-width="0.5" width="24.081" height="29.799"/>
				<rect x="643.282" y="100.878" fill="none" stroke="#FFFFFF" stroke-width="0.5" width="5.974" height="12.721"/>
				<rect x="651.478" y="100.878" fill="none" stroke="#FFFFFF" stroke-width="0.5" width="4.874" height="12.721"/>
				<rect x="658.579" y="100.878" fill="none" stroke="#FFFFFF" stroke-width="0.5" width="5.963" height="12.721"/>
				<rect x="643.282" y="115.38" fill="none" stroke="#FFFFFF" stroke-width="0.5" width="5.974" height="12.721"/>
				<rect x="651.478" y="115.38" fill="none" stroke="#FFFFFF" stroke-width="0.5" width="4.874" height="12.721"/>
				<rect x="658.579" y="115.38" fill="none" stroke="#FFFFFF" stroke-width="0.5" width="5.963" height="12.721"/>
				<polyline fill="none" stroke="#FFFFFF" stroke-width="0.5" points="672.035,70.937 672.035,70.398 672.035,67.942       672.035,66.586 673.669,66.586 682.654,66.586 685.649,66.586 685.649,71.667 685.649,82.379 685.649,257.725     "/>
				<polyline fill="none" stroke="#FFFFFF" stroke-width="0.5" points="672.308,257.453 672.308,91.359 672.308,88.777       672.308,86.191 672.308,83.468 672.308,83.195     "/>
				<polygon fill="none" stroke="#FFFFFF" stroke-width="0.5" points="595.431,83.468 633.551,83.468 634.188,83.468       672.308,83.468 679.382,83.468 679.382,70.398 672.035,70.398 634.999,70.398 632.739,70.398 595.703,70.398 587.268,70.398       587.268,83.468     "/>
				<polyline fill="none" stroke="#FFFFFF" stroke-width="0.5" points="671.758,67.942 636.36,67.942 631.372,67.942 595.98,67.942           "/>
				<polyline fill="none" stroke="#FFFFFF" stroke-width="0.5" points="672.308,86.191 634.46,86.191 633.278,86.191       595.431,86.191     "/>
				<polyline fill="none" stroke="#FFFFFF" stroke-width="0.5" points="672.308,88.777 634.46,88.777 633.278,88.777       595.431,88.777     "/>
				<polyline fill="none" stroke="#FFFFFF" stroke-width="0.5" points="672.308,91.359 636.094,91.359 634.46,91.359       633.278,91.359 631.645,91.359 595.431,91.359     "/>
				<polyline fill="none" stroke="#FFFFFF" stroke-width="0.5" points="682.654,66.586 682.654,63.046 679.109,63.046       673.669,63.046 673.669,66.586 673.669,66.858     "/>
				<polyline fill="none" stroke="#FFFFFF" stroke-width="0.5" points="679.109,62.774 679.109,60.051 673.941,60.051       637.183,60.051 630.556,60.051 593.797,60.051 588.629,60.051 588.629,62.774     "/>
				<polyline fill="none" stroke="#FFFFFF" stroke-width="0.5" points="673.941,60.051 673.941,53.244 669.579,53.244       636.905,53.244 630.833,53.244 597.614,53.244 593.797,53.244 593.797,60.051     "/>
				<polyline fill="none" stroke="#FFFFFF" stroke-width="0.5" points="669.579,53.244 642.896,48.615 641.904,48.615       625.562,48.615 624.293,48.615 597.614,53.244     "/>
				<polygon fill="none" stroke="#FFFFFF" stroke-width="0.5" points="576.648,259.903 632.194,259.903 635.544,259.903       691.09,259.903 686.733,257.725 685.649,257.725 672.308,257.725 636.094,257.725 634.188,257.725 633.551,257.725       631.645,257.725 595.431,257.725 582.089,257.725 581.005,257.725     "/>
				<polyline fill="none" stroke="#FFFFFF" stroke-width="0.5" points="691.09,259.903 691.09,265.349 635.271,265.349       632.467,265.349 576.648,265.349 576.648,259.903     "/>
				<line fill="none" stroke="#FFFFFF" stroke-width="0.5" x1="636.094" y1="257.453" x2="636.094" y2="91.359"/>
				<polygon fill="none" stroke="#FFFFFF" stroke-width="0.5" points="635.271,81.29 669.313,81.29 669.313,72.576 635.544,72.576       632.194,72.576 598.426,72.576 598.426,81.29 632.467,81.29     "/>
				<polyline fill="none" stroke="#FFFFFF" stroke-width="0.5" points="625.562,48.615 625.562,44.259 626.885,44.259       628.121,44.259 630.315,44.259 636.77,44.259 639.023,44.259 640.26,44.259 641.904,44.259 641.904,48.615     "/>
				<polyline fill="none" stroke="#FFFFFF" stroke-width="0.5" points="626.885,34.734 626.885,34.756 626.885,44.259       626.885,44.335     "/>
				<polyline fill="none" stroke="#FFFFFF" stroke-width="0.5" points="628.121,34.734 628.121,34.756 628.121,44.259       628.121,44.335     "/>
				<polyline fill="none" stroke="#FFFFFF" stroke-width="0.5" points="639.023,34.734 639.023,34.756 639.023,44.259       639.023,44.335     "/>
				<polyline fill="none" stroke="#FFFFFF" stroke-width="0.5" points="640.26,34.734 640.26,34.756 640.26,44.259 640.26,44.335           "/>
				<path fill="none" stroke="#FFFFFF" stroke-width="0.5" d="M640.26,34.756h0.898c0,0-4.553-2.592-7.586-2.592      s-7.313,2.592-7.313,2.592h0.626h1.236h2.625h5.642h2.636H640.26z"/>
				<polyline fill="none" stroke="#FFFFFF" stroke-width="0.5" points="581.996,71.667 579.094,71.667 579.094,82.379       582.089,82.379 582.366,82.379     "/>
				<polyline fill="none" stroke="#FFFFFF" stroke-width="0.5" points="685.47,71.667 685.649,71.667 688.367,71.667       688.367,82.379 685.649,82.379 685.1,82.379     "/>
				<path fill="none" stroke="#FFFFFF" stroke-width="0.5" d="M630.746,34.865c0,0-3.181,4.003-0.431,9.394      c0.022,0.038,0.044,0.082,0.065,0.125"/>
				<path fill="none" stroke="#FFFFFF" stroke-width="0.5" d="M636.388,34.767c0,0,3.219,4.057,0.382,9.492      c-0.006,0.011-0.012,0.016-0.017,0.027"/>
			</g>
		</g>
	</g>
	<g>
		<g id="XMLID_5_">
			<g>
			</g>
			<g>
				<path fill="none" stroke="#FFFFFF" stroke-width="0.5" d="M500.312,172.511c0,0.942-0.768,1.704-1.71,1.704      c-0.937,0-1.71-0.762-1.71-1.704c0-0.937,0.773-1.71,1.71-1.71C499.543,170.801,500.312,171.574,500.312,172.511z"/>
				<rect x="497.419" y="147.602" fill="none" stroke="#FFFFFF" stroke-width="0.5" width="1.171" height="9.563"/>
				<rect x="460.438" y="215.907" fill="none" stroke="#FFFFFF" stroke-width="0.5" width="24.418" height="32.31"/>
				<rect x="461.69" y="217.16" fill="none" stroke="#FFFFFF" stroke-width="0.5" width="21.914" height="29.799"/>
				<rect x="460.438" y="175.457" fill="none" stroke="#FFFFFF" stroke-width="0.5" width="24.418" height="32.31"/>
				<rect x="461.69" y="176.709" fill="none" stroke="#FFFFFF" stroke-width="0.5" width="21.914" height="29.799"/>
				<rect x="460.438" y="136.781" fill="none" stroke="#FFFFFF" stroke-width="0.5" width="24.418" height="32.314"/>
				<rect x="461.69" y="138.039" fill="none" stroke="#FFFFFF" stroke-width="0.5" width="21.914" height="29.799"/>
				<rect x="460.438" y="97.747" fill="none" stroke="#FFFFFF" stroke-width="0.5" width="24.418" height="32.309"/>
				<rect x="461.69" y="99.004" fill="none" stroke="#FFFFFF" stroke-width="0.5" width="21.914" height="29.799"/>
				<rect x="477.271" y="100.339" fill="none" stroke="#FFFFFF" stroke-width="0.5" width="4.874" height="12.721"/>
				<rect x="470.169" y="100.339" fill="none" stroke="#FFFFFF" stroke-width="0.5" width="4.879" height="12.721"/>
				<rect x="463.063" y="100.339" fill="none" stroke="#FFFFFF" stroke-width="0.5" width="4.879" height="12.721"/>
				<rect x="477.271" y="114.84" fill="none" stroke="#FFFFFF" stroke-width="0.5" width="4.874" height="12.721"/>
				<rect x="470.169" y="114.84" fill="none" stroke="#FFFFFF" stroke-width="0.5" width="4.879" height="12.721"/>
				<rect x="463.063" y="114.84" fill="none" stroke="#FFFFFF" stroke-width="0.5" width="4.879" height="12.721"/>
				<polyline fill="none" stroke="#FFFFFF" stroke-width="0.5" points="454.486,72.571 454.486,72.026 454.486,70.121       454.486,66.581 452.852,66.581 442.777,66.581 439.782,66.581 439.782,71.117 439.782,84.552 439.782,257.181     "/>
				<polyline fill="none" stroke="#FFFFFF" stroke-width="0.5" points="454.213,256.908 454.213,91.359 454.213,88.772       454.213,86.185 454.213,83.462 454.213,83.19     "/>
				<polyline fill="none" stroke="#FFFFFF" stroke-width="0.5" points="442.777,66.581 442.777,64.13 447.406,64.13 452.852,64.13       452.852,66.581 452.852,66.853     "/>
				<line fill="none" stroke="#FFFFFF" stroke-width="0.5" x1="490.427" y1="256.908" x2="490.427" y2="91.359"/>
				<rect x="500.453" y="215.907" fill="none" stroke="#FFFFFF" stroke-width="0.5" width="24.418" height="32.31"/>
				<rect x="501.705" y="217.16" fill="none" stroke="#FFFFFF" stroke-width="0.5" width="21.903" height="29.799"/>
				<rect x="500.453" y="175.457" fill="none" stroke="#FFFFFF" stroke-width="0.5" width="24.418" height="32.31"/>
				<rect x="501.705" y="176.709" fill="none" stroke="#FFFFFF" stroke-width="0.5" width="21.903" height="29.799"/>
				<rect x="500.453" y="136.781" fill="none" stroke="#FFFFFF" stroke-width="0.5" width="24.418" height="32.314"/>
				<rect x="501.705" y="138.039" fill="none" stroke="#FFFFFF" stroke-width="0.5" width="21.903" height="29.799"/>
				<rect x="500.453" y="97.747" fill="none" stroke="#FFFFFF" stroke-width="0.5" width="24.418" height="32.309"/>
				<rect x="501.705" y="99.004" fill="none" stroke="#FFFFFF" stroke-width="0.5" width="21.903" height="29.799"/>
				<rect x="503.165" y="100.339" fill="none" stroke="#FFFFFF" stroke-width="0.5" width="4.874" height="12.721"/>
				<rect x="510.261" y="100.339" fill="none" stroke="#FFFFFF" stroke-width="0.5" width="4.874" height="12.721"/>
				<rect x="517.362" y="100.339" fill="none" stroke="#FFFFFF" stroke-width="0.5" width="4.873" height="12.721"/>
				<rect x="503.165" y="114.84" fill="none" stroke="#FFFFFF" stroke-width="0.5" width="4.874" height="12.721"/>
				<rect x="510.261" y="114.84" fill="none" stroke="#FFFFFF" stroke-width="0.5" width="4.874" height="12.721"/>
				<rect x="517.362" y="114.84" fill="none" stroke="#FFFFFF" stroke-width="0.5" width="4.873" height="12.721"/>
				<polyline fill="none" stroke="#FFFFFF" stroke-width="0.5" points="530.818,72.571 530.818,72.026 530.818,70.121       530.818,66.581 532.452,66.581 542.532,66.581 545.527,66.581 545.527,71.117 545.527,84.552 545.527,257.181     "/>
				<polyline fill="none" stroke="#FFFFFF" stroke-width="0.5" points="531.091,256.908 531.091,91.359 531.091,88.772       531.091,86.185 531.091,83.462 531.091,83.19     "/>
				<polygon fill="none" stroke="#FFFFFF" stroke-width="0.5" points="454.213,83.462 492.333,83.462 492.976,83.462       531.091,83.462 539.265,83.462 539.265,72.026 530.818,72.026 493.793,72.026 491.517,72.026 454.486,72.026 446.045,72.026       446.045,83.462     "/>
				<polyline fill="none" stroke="#FFFFFF" stroke-width="0.5" points="530.552,70.121 495.149,70.121 490.161,70.121       454.758,70.121     "/>
				<polyline fill="none" stroke="#FFFFFF" stroke-width="0.5" points="531.091,86.185 493.243,86.185 492.061,86.185       454.213,86.185     "/>
				<polyline fill="none" stroke="#FFFFFF" stroke-width="0.5" points="531.091,88.772 493.243,88.772 492.061,88.772       454.213,88.772     "/>
				<polyline fill="none" stroke="#FFFFFF" stroke-width="0.5" points="531.091,91.359 494.876,91.359 493.243,91.359       492.061,91.359 490.427,91.359 454.213,91.359     "/>
				<polyline fill="none" stroke="#FFFFFF" stroke-width="0.5" points="542.532,66.581 542.532,64.13 537.903,64.13 532.452,64.13       532.452,66.581 532.452,66.853     "/>
				<polyline fill="none" stroke="#FFFFFF" stroke-width="0.5" points="537.903,63.858 537.903,61.68 531.091,61.68 495.966,61.68       489.338,61.68 454.213,61.68 447.406,61.68 447.406,63.858     "/>
				<polyline fill="none" stroke="#FFFFFF" stroke-width="0.5" points="531.091,61.68 531.091,57.595 528.367,57.595       495.699,57.595 489.61,57.595 456.392,57.595 454.213,57.595 454.213,61.68     "/>
				<polyline fill="none" stroke="#FFFFFF" stroke-width="0.5" points="528.367,57.595 500.055,52.966 499.053,52.966       485.978,52.966 484.709,52.966 456.392,57.595     "/>
				<polygon fill="none" stroke="#FFFFFF" stroke-width="0.5" points="434.336,259.358 490.978,259.358 494.332,259.358       550.968,259.358 546.61,257.181 545.527,257.181 531.091,257.181 494.876,257.181 492.976,257.181 492.333,257.181       490.427,257.181 454.213,257.181 439.782,257.181 438.699,257.181     "/>
				<polyline fill="none" stroke="#FFFFFF" stroke-width="0.5" points="550.968,259.358 550.968,265.349 494.065,265.349       491.244,265.349 434.336,265.349 434.336,259.358     "/>
				<line fill="none" stroke="#FFFFFF" stroke-width="0.5" x1="494.876" y1="256.908" x2="494.876" y2="91.359"/>
				<polygon fill="none" stroke="#FFFFFF" stroke-width="0.5" points="454.486,74.205 451.218,74.205 451.218,81.284       491.244,81.284 494.065,81.284 534.086,81.284 534.086,74.205 530.818,74.205 494.332,74.205 490.978,74.205     "/>
				<polyline fill="none" stroke="#FFFFFF" stroke-width="0.5" points="485.978,52.966 485.978,48.61 487.296,48.61 488.532,48.61       496.172,48.61 497.409,48.61 499.053,48.61 499.053,52.966     "/>
				<polyline fill="none" stroke="#FFFFFF" stroke-width="0.5" points="487.296,41.269 487.296,41.285 487.296,48.61       487.296,48.686     "/>
				<polyline fill="none" stroke="#FFFFFF" stroke-width="0.5" points="488.532,41.269 488.532,41.285 488.532,48.61       488.532,48.686     "/>
				<polyline fill="none" stroke="#FFFFFF" stroke-width="0.5" points="496.172,41.269 496.172,41.285 496.172,48.61       496.172,48.686     "/>
				<polyline fill="none" stroke="#FFFFFF" stroke-width="0.5" points="497.409,41.269 497.409,41.285 497.409,48.61       497.409,48.686     "/>
				<path fill="none" stroke="#FFFFFF" stroke-width="0.5" d="M497.409,41.285h0.898c0,0-2.919-2.581-5.952-2.581      c-3.039,0-5.68,2.581-5.68,2.581h0.621h1.236h7.64H497.409z"/>
				<polyline fill="none" stroke="#FFFFFF" stroke-width="0.5" points="439.695,71.117 436.787,71.117 436.787,84.552       439.782,84.552 440.055,84.552     "/>
				<polyline fill="none" stroke="#FFFFFF" stroke-width="0.5" points="545.337,71.117 545.527,71.117 548.244,71.117       548.244,84.552 545.527,84.552 544.977,84.552     "/>
				<rect x="463.917" y="140.642" fill="none" stroke="#FFFFFF" stroke-width="0.5" width="17.405" height="25.149"/>
			</g>
		</g>
	</g>
	<g>
		<g id="XMLID_4_">
			<g>
			</g>
			<g>
				<path fill="none" stroke="#FFFFFF" stroke-width="0.5" d="M789.175,163.525c0,0.795-0.643,1.438-1.438,1.438      s-1.448-0.643-1.448-1.438c0-0.795,0.653-1.438,1.448-1.438S789.175,162.73,789.175,163.525z"/>
				<rect x="786.142" y="135.698" fill="none" stroke="#FFFFFF" stroke-width="0.5" width="1.313" height="10.761"/>
				<polyline fill="none" stroke="#FFFFFF" stroke-width="0.5" points="775.343,33.182 775.343,28.281 787.323,28.281       787.323,33.182     "/>
				<line fill="none" stroke="#FFFFFF" stroke-width="0.5" x1="732.507" y1="74.569" x2="732.507" y2="255.367"/>
				<polyline fill="none" stroke="#FFFFFF" stroke-width="0.5" points="778.98,255.727 778.98,255.367 778.98,77.292     "/>
				<polyline fill="none" stroke="#FFFFFF" stroke-width="0.5" points="724.523,57.323 724.523,51.153 727.791,51.153       732.866,51.153 732.866,57.323     "/>
				<rect x="739.771" y="211.071" fill="none" stroke="#FFFFFF" stroke-width="0.5" width="33.039" height="37.396"/>
				<rect x="741.765" y="212.787" fill="none" stroke="#FFFFFF" stroke-width="0.5" width="29.042" height="33.971"/>
				<rect x="739.771" y="166.781" fill="none" stroke="#FFFFFF" stroke-width="0.5" width="33.039" height="37.396"/>
				<rect x="741.765" y="168.503" fill="none" stroke="#FFFFFF" stroke-width="0.5" width="29.042" height="33.965"/>
				<rect x="739.771" y="123.216" fill="none" stroke="#FFFFFF" stroke-width="0.5" width="33.039" height="37.396"/>
				<rect x="741.765" y="124.932" fill="none" stroke="#FFFFFF" stroke-width="0.5" width="29.042" height="33.965"/>
				<rect x="744.629" y="127.545" fill="none" stroke="#FFFFFF" stroke-width="0.5" width="23.362" height="28.53"/>
				<rect x="739.771" y="80.015" fill="none" stroke="#FFFFFF" stroke-width="0.5" width="33.039" height="37.39"/>
				<rect x="741.765" y="99.44" fill="none" stroke="#FFFFFF" stroke-width="0.5" width="8.893" height="15.891"/>
				<rect x="752.111" y="99.44" fill="none" stroke="#FFFFFF" stroke-width="0.5" width="8.898" height="15.891"/>
				<rect x="762.464" y="99.44" fill="none" stroke="#FFFFFF" stroke-width="0.5" width="8.893" height="15.891"/>
				<rect x="741.765" y="82.014" fill="none" stroke="#FFFFFF" stroke-width="0.5" width="8.893" height="15.891"/>
				<rect x="752.111" y="82.014" fill="none" stroke="#FFFFFF" stroke-width="0.5" width="8.898" height="15.891"/>
				<rect x="762.464" y="82.014" fill="none" stroke="#FFFFFF" stroke-width="0.5" width="8.893" height="15.891"/>
				<polyline fill="none" stroke="#FFFFFF" stroke-width="0.5" points="722.52,59.322 717.983,59.322 717.983,73.48 722.34,73.48           "/>
				<polygon fill="none" stroke="#FFFFFF" stroke-width="0.5" points="783.702,257.181 784.062,257.181 845.593,257.181       845.783,257.181 839.973,255.367 830.165,255.367 827.627,255.367 783.702,255.367 781.878,255.367 780.794,255.367       778.98,255.367 735.045,255.367 732.507,255.367 722.71,255.367 716.899,257.181 717.079,257.181 778.61,257.181     "/>
				<polyline fill="none" stroke="#FFFFFF" stroke-width="0.5" points="845.593,257.181 845.593,265.349 784.062,265.349       778.61,265.349 717.079,265.349 717.079,257.181     "/>
				<polyline fill="none" stroke="#FFFFFF" stroke-width="0.5" points="839.973,255.367 839.973,73.48 839.973,59.322       839.973,57.323 838.159,57.323 829.8,57.323 786.964,57.323 775.708,57.323 732.866,57.323 724.523,57.323 722.71,57.323       722.71,59.322 722.71,73.48 722.71,255.367     "/>
				<line fill="none" stroke="#FFFFFF" stroke-width="0.5" x1="830.165" y1="74.569" x2="830.165" y2="255.367"/>
				<polyline fill="none" stroke="#FFFFFF" stroke-width="0.5" points="827.627,255.727 827.627,255.367 827.627,76.748       783.702,76.748 782.607,76.748 780.064,76.748 778.98,76.748 735.045,76.748 735.045,255.367 735.045,255.727     "/>
				<polyline fill="none" stroke="#FFFFFF" stroke-width="0.5" points="783.702,255.727 783.702,255.367 783.702,77.292     "/>
				<polygon fill="none" stroke="#FFFFFF" stroke-width="0.5" points="732.507,74.205 777.892,74.205 784.791,74.205       830.165,74.205 836.705,74.205 836.705,59.136 784.062,59.136 778.61,59.136 725.978,59.136 725.978,74.205     "/>
				<polyline fill="none" stroke="#FFFFFF" stroke-width="0.5" points="838.159,57.323 838.159,51.153 834.892,51.153 829.8,51.153       829.8,57.323     "/>
				<polyline fill="none" stroke="#FFFFFF" stroke-width="0.5" points="834.892,51.153 834.892,48.61 829.44,48.61 790.052,48.61       781.878,48.61 733.231,48.61 727.791,48.61 727.791,51.153     "/>
				<polyline fill="none" stroke="#FFFFFF" stroke-width="0.5" points="829.44,48.975 829.44,48.61 829.44,40.262 827.986,40.262       784.971,40.262 781.519,40.262 734.686,40.262 733.231,40.262 733.231,48.61 733.231,48.975     "/>
				<polyline fill="none" stroke="#FFFFFF" stroke-width="0.5" points="827.986,40.262 787.323,33.182 775.343,33.182       734.686,40.262     "/>
				<rect x="789.872" y="211.071" fill="none" stroke="#FFFFFF" stroke-width="0.5" width="33.039" height="37.396"/>
				<rect x="791.865" y="212.787" fill="none" stroke="#FFFFFF" stroke-width="0.5" width="29.042" height="33.971"/>
				<rect x="789.872" y="166.781" fill="none" stroke="#FFFFFF" stroke-width="0.5" width="33.039" height="37.396"/>
				<rect x="791.865" y="168.503" fill="none" stroke="#FFFFFF" stroke-width="0.5" width="29.042" height="33.965"/>
				<rect x="789.872" y="123.216" fill="none" stroke="#FFFFFF" stroke-width="0.5" width="33.039" height="37.396"/>
				<rect x="791.865" y="124.932" fill="none" stroke="#FFFFFF" stroke-width="0.5" width="29.042" height="33.965"/>
				<rect x="789.872" y="80.015" fill="none" stroke="#FFFFFF" stroke-width="0.5" width="33.039" height="37.39"/>
				<rect x="812.02" y="99.44" fill="none" stroke="#FFFFFF" stroke-width="0.5" width="8.888" height="15.891"/>
				<rect x="801.673" y="99.44" fill="none" stroke="#FFFFFF" stroke-width="0.5" width="8.888" height="15.891"/>
				<rect x="791.326" y="99.44" fill="none" stroke="#FFFFFF" stroke-width="0.5" width="8.893" height="15.891"/>
				<rect x="812.02" y="82.014" fill="none" stroke="#FFFFFF" stroke-width="0.5" width="8.888" height="15.891"/>
				<rect x="801.673" y="82.014" fill="none" stroke="#FFFFFF" stroke-width="0.5" width="8.888" height="15.891"/>
				<rect x="791.326" y="82.014" fill="none" stroke="#FFFFFF" stroke-width="0.5" width="8.893" height="15.891"/>
				<polyline fill="none" stroke="#FFFFFF" stroke-width="0.5" points="840.152,59.322 844.688,59.322 844.688,73.48 840.332,73.48           "/>
				<polygon fill="none" stroke="#FFFFFF" stroke-width="0.5" points="784.791,72.026 833.797,72.026 833.797,62.224       784.421,62.224 778.251,62.224 728.88,62.224 728.88,72.026 777.892,72.026     "/>
			</g>
		</g>
		<g>
			<polygon fill="none" stroke="#FFFFFF" stroke-width="0.5" points="777.022,29.286 774.914,29.286 774.914,17.675 773.824,17.675      773.824,30.576 777.022,30.576    "/>
			<polygon fill="none" stroke="#FFFFFF" stroke-width="0.5" points="785.658,29.286 787.767,29.286 787.767,17.675 788.855,17.675      788.855,30.576 785.658,30.576    "/>
		</g>
		<rect x="780.519" y="17.675" fill="none" stroke="#FFFFFF" stroke-width="0.5" width="1.644" height="12.901"/>
		<g>
			<line fill="none" stroke="#FFFFFF" stroke-width="0.5" x1="776.95" y1="28.283" x2="776.95" y2="17.675"/>
			<line fill="none" stroke="#FFFFFF" stroke-width="0.5" x1="785.73" y1="28.283" x2="785.73" y2="17.675"/>
		</g>
		<polygon fill="none" stroke="#FFFFFF" stroke-width="0.5" points="788.873,17.675 781.467,13.833 781.214,13.833 773.808,17.675       "/>
		<line fill="none" stroke="#FFFFFF" stroke-width="0.5" x1="777.058" y1="15.993" x2="785.624" y2="15.993"/>
	</g>
	<g>
		<g>
			<circle fill="none" stroke="#FFFFFF" stroke-width="0.5" cx="961.036" cy="139.909" r="7.034"/>
			<circle fill="none" stroke="#FFFFFF" stroke-width="0.5" cx="961.036" cy="139.909" r="4.196"/>
			<circle fill="none" stroke="#FFFFFF" stroke-width="0.5" cx="961.036" cy="139.909" r="2.434"/>
			<g>
				<polygon fill="none" stroke="#FFFFFF" stroke-width="0.5" points="960.974,139.937 957.479,138.352 958.358,139.962       957.328,141.445     "/>
				<polygon fill="none" stroke="#FFFFFF" stroke-width="0.5" points="960.999,139.937 964.495,138.352 963.614,139.962       964.646,141.445     "/>
				<polygon fill="none" stroke="#FFFFFF" stroke-width="0.5" points="960.948,139.887 962.533,136.391 960.923,137.271       959.439,136.24     "/>
				<polygon fill="none" stroke="#FFFFFF" stroke-width="0.5" points="960.948,139.911 962.533,143.407 960.923,142.527       959.439,143.559     "/>
			</g>
		</g>
		<g id="XMLID_3_">
			<g>
			</g>
			<g>
				<path fill="none" stroke="#FFFFFF" stroke-width="0.5" d="M943.393,161.347c0,0.795-0.643,1.438-1.438,1.438      c-0.801,0-1.449-0.643-1.449-1.438c0-0.795,0.648-1.443,1.449-1.443C942.75,159.904,943.393,160.552,943.393,161.347z"/>
				<rect x="940.359" y="133.52" fill="none" stroke="#FFFFFF" stroke-width="0.5" width="1.313" height="10.761"/>
				<line fill="none" stroke="#FFFFFF" stroke-width="0.5" x1="886.725" y1="72.391" x2="886.725" y2="253.188"/>
				<polyline fill="none" stroke="#FFFFFF" stroke-width="0.5" points="933.198,253.548 933.198,253.188 933.198,75.114     "/>
				<polyline fill="none" stroke="#FFFFFF" stroke-width="0.5" points="878.741,55.145 878.741,48.975 882.008,48.975       887.084,48.975 887.084,55.145     "/>
				<rect x="893.989" y="208.894" fill="none" stroke="#FFFFFF" stroke-width="0.5" width="33.039" height="37.396"/>
				<rect x="895.982" y="210.608" fill="none" stroke="#FFFFFF" stroke-width="0.5" width="29.042" height="33.965"/>
				<rect x="893.989" y="164.604" fill="none" stroke="#FFFFFF" stroke-width="0.5" width="33.039" height="37.396"/>
				<rect x="895.982" y="166.319" fill="none" stroke="#FFFFFF" stroke-width="0.5" width="29.042" height="33.965"/>
				<rect x="893.989" y="121.038" fill="none" stroke="#FFFFFF" stroke-width="0.5" width="33.039" height="37.396"/>
				<rect x="895.982" y="122.753" fill="none" stroke="#FFFFFF" stroke-width="0.5" width="29.042" height="33.965"/>
				<rect x="898.847" y="125.367" fill="none" stroke="#FFFFFF" stroke-width="0.5" width="23.362" height="28.53"/>
				<rect x="893.989" y="77.837" fill="none" stroke="#FFFFFF" stroke-width="0.5" width="33.039" height="37.39"/>
				<rect x="895.982" y="97.262" fill="none" stroke="#FFFFFF" stroke-width="0.5" width="8.893" height="15.891"/>
				<rect x="906.329" y="97.262" fill="none" stroke="#FFFFFF" stroke-width="0.5" width="8.898" height="15.891"/>
				<rect x="916.681" y="97.262" fill="none" stroke="#FFFFFF" stroke-width="0.5" width="8.894" height="15.891"/>
				<rect x="895.982" y="79.835" fill="none" stroke="#FFFFFF" stroke-width="0.5" width="8.893" height="15.891"/>
				<rect x="906.329" y="79.835" fill="none" stroke="#FFFFFF" stroke-width="0.5" width="8.898" height="15.891"/>
				<rect x="916.681" y="79.835" fill="none" stroke="#FFFFFF" stroke-width="0.5" width="8.894" height="15.891"/>
				<polyline fill="none" stroke="#FFFFFF" stroke-width="0.5" points="876.737,57.143 872.2,57.143 872.2,71.302 876.558,71.302           "/>
				<polygon fill="none" stroke="#FFFFFF" stroke-width="0.5" points="937.919,255.002 938.278,255.002 999.81,255.002       1000,255.002 994.189,253.188 984.382,253.188 981.845,253.188 937.919,253.188 936.095,253.188 935.012,253.188       933.198,253.188 889.262,253.188 886.725,253.188 876.928,253.188 871.117,255.002 871.297,255.002 932.828,255.002     "/>
				<polyline fill="none" stroke="#FFFFFF" stroke-width="0.5" points="999.81,255.002 999.81,265.349 938.278,265.349       932.828,265.349 871.297,265.349 871.297,255.002     "/>
				<polyline fill="none" stroke="#FFFFFF" stroke-width="0.5" points="994.189,253.188 994.189,71.302 994.189,57.143       994.189,55.145 992.377,55.145 984.018,55.145 941.182,55.145 929.925,55.145 887.084,55.145 878.741,55.145 876.928,55.145       876.928,57.143 876.928,71.302 876.928,253.188     "/>
				<line fill="none" stroke="#FFFFFF" stroke-width="0.5" x1="984.382" y1="72.391" x2="984.382" y2="253.188"/>
				<polyline fill="none" stroke="#FFFFFF" stroke-width="0.5" points="981.845,253.548 981.845,253.188 981.845,74.569       937.919,74.569 936.825,74.569 934.281,74.569 933.198,74.569 889.262,74.569 889.262,253.188 889.262,253.548     "/>
				<polyline fill="none" stroke="#FFFFFF" stroke-width="0.5" points="937.919,253.548 937.919,253.188 937.919,75.114     "/>
				<polygon fill="none" stroke="#FFFFFF" stroke-width="0.5" points="886.725,72.026 932.108,72.026 939.009,72.026       984.382,72.026 990.923,72.026 990.923,56.958 938.278,56.958 932.828,56.958 880.195,56.958 880.195,72.026     "/>
				<polyline fill="none" stroke="#FFFFFF" stroke-width="0.5" points="992.377,55.145 992.377,48.975 989.109,48.975       984.018,48.975 984.018,55.145     "/>
				<polyline fill="none" stroke="#FFFFFF" stroke-width="0.5" points="989.109,48.975 989.109,46.432 983.658,46.432       944.27,46.432 936.095,46.432 887.448,46.432 882.008,46.432 882.008,48.975     "/>
				<polyline fill="none" stroke="#FFFFFF" stroke-width="0.5" points="983.658,46.796 983.658,46.432 983.658,38.083       982.204,38.083 939.188,38.083 935.735,38.083 888.902,38.083 887.448,38.083 887.448,46.432 887.448,46.796     "/>
				<polyline fill="none" stroke="#FFFFFF" stroke-width="0.5" points="982.204,38.083 941.541,31.004 929.561,31.004       888.902,38.083     "/>
				<rect x="944.09" y="208.894" fill="none" stroke="#FFFFFF" stroke-width="0.5" width="33.039" height="37.396"/>
				<rect x="946.082" y="210.608" fill="none" stroke="#FFFFFF" stroke-width="0.5" width="29.042" height="33.965"/>
				<rect x="944.09" y="164.604" fill="none" stroke="#FFFFFF" stroke-width="0.5" width="33.039" height="37.396"/>
				<rect x="946.082" y="166.319" fill="none" stroke="#FFFFFF" stroke-width="0.5" width="29.042" height="33.965"/>
				<rect x="944.09" y="121.038" fill="none" stroke="#FFFFFF" stroke-width="0.5" width="33.039" height="37.396"/>
				<rect x="946.082" y="122.753" fill="none" stroke="#FFFFFF" stroke-width="0.5" width="29.042" height="33.965"/>
				<rect x="944.09" y="77.837" fill="none" stroke="#FFFFFF" stroke-width="0.5" width="33.039" height="37.39"/>
				<rect x="966.237" y="97.262" fill="none" stroke="#FFFFFF" stroke-width="0.5" width="8.887" height="15.891"/>
				<rect x="955.891" y="97.262" fill="none" stroke="#FFFFFF" stroke-width="0.5" width="8.887" height="15.891"/>
				<rect x="945.543" y="97.262" fill="none" stroke="#FFFFFF" stroke-width="0.5" width="8.894" height="15.891"/>
				<rect x="966.237" y="79.835" fill="none" stroke="#FFFFFF" stroke-width="0.5" width="8.887" height="15.891"/>
				<rect x="955.891" y="79.835" fill="none" stroke="#FFFFFF" stroke-width="0.5" width="8.887" height="15.891"/>
				<rect x="945.543" y="79.835" fill="none" stroke="#FFFFFF" stroke-width="0.5" width="8.894" height="15.891"/>
				<polyline fill="none" stroke="#FFFFFF" stroke-width="0.5" points="994.369,57.143 998.906,57.143 998.906,71.302       994.55,71.302     "/>
				<polygon fill="none" stroke="#FFFFFF" stroke-width="0.5" points="939.009,69.848 988.015,69.848 988.015,60.046       938.639,60.046 932.468,60.046 883.098,60.046 883.098,69.848 932.108,69.848     "/>
			</g>
		</g>
		<g>
			<polygon fill="none" stroke="#FFFFFF" stroke-width="0.5" points="943.089,16.306 935.684,12.464 935.43,12.464 928.023,16.306         "/>
			<line fill="none" stroke="#FFFFFF" stroke-width="0.5" x1="931.272" y1="14.624" x2="939.839" y2="14.624"/>
		</g>
		<polyline fill="none" stroke="#FFFFFF" stroke-width="0.5" points="929.566,31.006 929.566,29.194 941.547,29.194 941.547,31.006       "/>
		<polyline fill="none" stroke="#FFFFFF" stroke-width="0.5" points="930.729,29.372 930.729,27.016 940.383,27.016 940.383,29.372       "/>
		<rect x="930.487" y="16.306" fill="none" stroke="#FFFFFF" stroke-width="0.5" width="10.138" height="10.71"/>
		<g>
			<polyline fill="none" stroke="#FFFFFF" stroke-width="0.5" points="931.813,28.194 928.908,28.194 928.908,16.306    "/>
			<polyline fill="none" stroke="#FFFFFF" stroke-width="0.5" points="939.3,28.194 942.204,28.194 942.204,16.306    "/>
		</g>
	</g>
</g>
</svg>