<?xml version="1.0" encoding="UTF-8" standalone="no"?>
<!-- Created with Serif DrawPlus 11, 0, 3, 23 (Feb 25, 14:12:55) (http://www.serif.com) -->
<svg version="1.1" xmlns="http://www.w3.org/2000/svg" xmlns:xlink="http://www.w3.org/1999/xlink" width="362.98" height="186.115">
	<g id="dp_group001" transform="matrix(1,0,0,1,-409.971,-678.857)">
		<g id="dp_group002">
			<path id="dp_path003" fill="none" fill-rule="evenodd" stroke="#9c0ad1" stroke-width="1.33333" d="M 684.919,680.015 L 412.464,836.851 L 684.919,836.851 Z "/>
			<path id="dp_path004" fill="#330bd2" fill-rule="evenodd" stroke="none" stroke-width="1.33333" d="M 684.919,817.648 L 665.293,817.648 L 665.293,836.853 L 684.919,836.853 Z "/>
			<path id="dp_path005" fill="#330bd2" fill-rule="evenodd" stroke="none" stroke-width="1.33333" d="M 684.919,718.283 C 671.116,718.283 658.335,711.155 651.297,699.528 L 684.919,680.015 Z "/>
			<path id="dp_path006" fill="#330bd2" fill-rule="evenodd" stroke="none" stroke-width="1.33333" d="M 460.453,836.852 C 460.453,828.431 458.137,820.164 453.749,812.92 L 412.464,836.852 Z "/>
		</g>
		<text id="dp_text001" transform="matrix(1,0,0,1,555.957,859.726)" xml:space="preserve" fill="black" font-family="Arial" font-size="22" font-weight="400" font-style="italic" x="0" y="0">x </text>
		<text id="dp_text002" transform="matrix(1,0,0,1,536.957,746.868)" xml:space="preserve" fill="black" font-family="Arial" font-size="22" font-weight="400" x="0" y="0">1</text>
		<text id="dp_text003" transform="matrix(1,0,0,1,536.957,746.868)" xml:space="preserve" fill="black" font-family="Arial" font-size="22" font-weight="400" font-style="italic" x="12.044" y="0"> </text>
		<path id="dp_path010" fill="black" fill-rule="evenodd" d="M 478.6,811.992 C 478.505,811.615 478.381,811.24 478.231,810.873 C 478.079,810.505 477.88,810.179 477.635,809.895 C 477.389,809.611 477.1,809.379 476.769,809.2 C 476.437,809.02 476.045,808.929 475.591,808.929 C 475.137,808.929 474.703,809.02 474.285,809.2 C 473.869,809.379 473.472,809.611 473.093,809.895 C 472.716,810.179 472.356,810.505 472.016,810.873 C 471.675,811.24 471.363,811.615 471.079,811.992 C 470.228,813.109 469.547,814.268 469.036,815.469 C 468.525,816.671 468.117,817.884 467.815,819.113 C 467.493,820.344 467.291,821.559 467.205,822.759 C 467.12,823.96 467.219,825.119 467.503,826.235 C 467.597,826.613 467.725,826.981 467.887,827.339 C 468.047,827.699 468.245,828.02 468.483,828.304 C 468.719,828.588 469.003,828.82 469.333,828.999 C 469.664,829.179 470.057,829.269 470.511,829.269 C 470.965,829.269 471.4,829.179 471.817,828.999 C 472.233,828.82 472.635,828.588 473.023,828.304 C 473.411,828.02 473.775,827.699 474.116,827.339 C 474.456,826.981 474.768,826.613 475.052,826.235 C 475.884,825.119 476.556,823.96 477.067,822.759 C 477.577,821.559 477.995,820.344 478.316,819.113 C 478.619,817.884 478.812,816.671 478.897,815.469 C 478.983,814.268 478.884,813.109 478.6,811.992 Z M 477.011,812.217 C 477.105,813.241 477.048,814.293 476.84,815.375 C 476.632,816.456 476.396,817.555 476.131,818.673 L 470.199,818.673 C 470.464,817.555 470.767,816.456 471.107,815.375 C 471.448,814.293 471.921,813.241 472.527,812.217 C 472.961,811.499 473.411,810.872 473.875,810.341 C 474.337,809.809 474.863,809.545 475.449,809.545 C 475.733,809.545 475.969,809.616 476.159,809.757 C 476.348,809.9 476.5,810.093 476.613,810.341 C 476.727,810.588 476.812,810.872 476.868,811.193 C 476.925,811.517 476.972,811.857 477.011,812.217 Z M 475.904,819.549 C 475.639,820.665 475.336,821.757 474.995,822.824 C 474.655,823.893 474.181,824.948 473.576,825.989 C 473.16,826.705 472.716,827.329 472.243,827.86 C 471.769,828.389 471.249,828.655 470.681,828.655 C 470.397,828.655 470.156,828.583 469.957,828.441 C 469.759,828.299 469.603,828.105 469.489,827.86 C 469.376,827.613 469.287,827.329 469.22,827.008 C 469.153,826.687 469.111,826.348 469.092,825.989 C 469.016,824.948 469.079,823.893 469.277,822.824 C 469.476,821.757 469.707,820.665 469.972,819.549 Z "/>
		<g id="dp_group011">
			<text id="dp_text004" transform="matrix(1,1.1331e-015,-1.1331e-015,1,709.736,784.504)" xml:space="preserve" fill="black" font-family="Arial" font-size="22" font-weight="400" x="0" y="0">1 </text>
			<text id="dp_text005" transform="matrix(1,1.1331e-015,-1.1331e-015,1,709.736,784.504)" xml:space="preserve" fill="black" font-family="Arial" font-size="22" font-weight="400" x="18.0373" y="0">−</text>
			<text id="dp_text006" transform="matrix(1,1.1331e-015,-1.1331e-015,1,709.736,784.504)" xml:space="preserve" fill="black" font-family="Arial" font-size="22" font-weight="400" x="30.66" y="0"> </text>
			<text id="dp_text007" transform="matrix(1,1.1331e-015,-1.1331e-015,1,709.736,784.504)" xml:space="preserve" fill="black" font-family="Arial" font-size="22" font-weight="400" font-style="italic" x="36.6533" y="0">x </text>
			<text id="dp_text008" transform="matrix(1,1.74372e-015,-1.79923e-015,1,760.051,775.063)" xml:space="preserve" fill="black" font-family="Arial" font-size="17" font-weight="400" x="0" y="0">2</text>
			<text id="dp_text009" transform="matrix(1,1.74372e-015,-1.79923e-015,1,760.051,775.063)" xml:space="preserve" fill="black" font-family="Arial" font-size="17" font-weight="400" font-style="italic" x="9.344" y="0"> </text>
			<path id="dp_path018" fill="black" fill-rule="evenodd" d="M 708.583,757.044 L 772.944,757.039 L 772.949,758.435 L 709.736,758.433 L 704.076,794.039 L 694.657,774.649 L 690.892,776.377 L 690.241,775.145 L 695.996,772.289 L 703.648,787.897 Z "/>
		</g>
	</g>
</svg>