<?xml version="1.0" encoding="UTF-8" standalone="no"?>
<!-- Created with Serif DrawPlus 11, 0, 3, 23 (Feb 25, 14:12:55) (http://www.serif.com) -->
<svg version="1.1" xmlns="http://www.w3.org/2000/svg" xmlns:xlink="http://www.w3.org/1999/xlink" width="364.248" height="191.581">
	<g id="dp_group001" transform="matrix(1,0,0,1,434.169,-798.685)">
		<g id="dp_group002">
			<path id="dp_path003" fill="none" fill-rule="evenodd" stroke="#9c0ad1" stroke-width="1.33333" d="M -159.221,799.843 L -431.676,956.679 L -159.221,956.679 Z "/>
			<path id="dp_path004" fill="#330bd2" fill-rule="evenodd" stroke="none" stroke-width="1.33333" d="M -159.221,937.476 L -178.847,937.476 L -178.847,956.681 L -159.221,956.681 Z "/>
			<path id="dp_path005" fill="#330bd2" fill-rule="evenodd" stroke="none" stroke-width="1.33333" d="M -159.221,838.111 C -173.024,838.111 -185.805,830.983 -192.843,819.356 L -159.221,799.843 Z "/>
			<path id="dp_path006" fill="#330bd2" fill-rule="evenodd" stroke="none" stroke-width="1.33333" d="M -383.687,956.68 C -383.687,948.259 -386.003,939.992 -390.391,932.748 L -431.676,956.68 Z "/>
		</g>
		<text id="dp_text001" transform="matrix(1,0,0,1,-291.003,985.021)" xml:space="preserve" fill="black" font-family="Arial" font-size="22" font-weight="400" x="0" y="0">1 </text>
		<text id="dp_text002" transform="matrix(1,0,0,1,-312.506,868.006)" xml:space="preserve" fill="black" font-family="Arial" font-size="22" font-weight="400" font-style="italic" x="0" y="0">x </text>
		<path id="dp_path009" fill="black" fill-rule="evenodd" d="M -365.54,931.82 C -365.635,931.443 -365.759,931.068 -365.909,930.701 C -366.061,930.333 -366.26,930.007 -366.505,929.723 C -366.751,929.439 -367.04,929.207 -367.371,929.028 C -367.703,928.848 -368.095,928.757 -368.549,928.757 C -369.003,928.757 -369.437,928.848 -369.855,929.028 C -370.271,929.207 -370.668,929.439 -371.047,929.723 C -371.424,930.007 -371.784,930.333 -372.124,930.701 C -372.465,931.068 -372.777,931.443 -373.061,931.82 C -373.912,932.937 -374.593,934.096 -375.104,935.297 C -375.615,936.499 -376.023,937.712 -376.325,938.941 C -376.647,940.172 -376.849,941.387 -376.935,942.587 C -377.02,943.788 -376.921,944.947 -376.637,946.063 C -376.543,946.441 -376.415,946.809 -376.253,947.167 C -376.093,947.527 -375.895,947.848 -375.657,948.132 C -375.421,948.416 -375.137,948.648 -374.807,948.827 C -374.476,949.007 -374.083,949.097 -373.629,949.097 C -373.175,949.097 -372.74,949.007 -372.323,948.827 C -371.907,948.648 -371.505,948.416 -371.117,948.132 C -370.729,947.848 -370.365,947.527 -370.024,947.167 C -369.684,946.809 -369.372,946.441 -369.088,946.063 C -368.256,944.947 -367.584,943.788 -367.073,942.587 C -366.563,941.387 -366.145,940.172 -365.824,938.941 C -365.521,937.712 -365.328,936.499 -365.243,935.297 C -365.157,934.096 -365.256,932.937 -365.54,931.82 Z M -367.129,932.045 C -367.035,933.069 -367.092,934.121 -367.3,935.203 C -367.508,936.284 -367.744,937.383 -368.009,938.501 L -373.941,938.501 C -373.676,937.383 -373.373,936.284 -373.033,935.203 C -372.692,934.121 -372.219,933.069 -371.613,932.045 C -371.179,931.327 -370.729,930.7 -370.265,930.169 C -369.803,929.637 -369.277,929.373 -368.691,929.373 C -368.407,929.373 -368.171,929.444 -367.981,929.585 C -367.792,929.728 -367.64,929.921 -367.527,930.169 C -367.413,930.416 -367.328,930.7 -367.272,931.021 C -367.215,931.345 -367.168,931.685 -367.129,932.045 Z M -368.236,939.377 C -368.501,940.493 -368.804,941.585 -369.145,942.652 C -369.485,943.721 -369.959,944.776 -370.564,945.817 C -370.98,946.533 -371.424,947.157 -371.897,947.688 C -372.371,948.217 -372.891,948.483 -373.459,948.483 C -373.743,948.483 -373.984,948.411 -374.183,948.269 C -374.381,948.127 -374.537,947.933 -374.651,947.688 C -374.764,947.441 -374.853,947.157 -374.92,946.836 C -374.987,946.515 -375.029,946.176 -375.048,945.817 C -375.124,944.776 -375.061,943.721 -374.863,942.652 C -374.664,941.585 -374.433,940.493 -374.168,939.377 Z "/>
		<text id="dp_text003" transform="matrix(1,0,0,1,-131.136,894.865)" xml:space="preserve" fill="black" font-family="Arial" font-size="22" font-weight="400" font-style="italic" x="0" y="0">x </text>
		<text id="dp_text004" transform="matrix(1,6.10622e-016,-6.66134e-016,1,-118.821,885.424)" xml:space="preserve" fill="black" font-family="Arial" font-size="17" font-weight="400" x="0" y="0">2</text>
		<text id="dp_text005" transform="matrix(1,6.10622e-016,-6.66134e-016,1,-118.821,885.424)" xml:space="preserve" fill="black" font-family="Arial" font-size="17" font-weight="400" font-style="italic" x="9.344" y="0"> </text>
		<path id="dp_path013" fill="black" fill-rule="evenodd" d="M -134.289,867.405 L -69.928,867.4 L -69.9227,868.796 L -133.136,868.795 L -138.796,904.4 L -148.215,885.011 L -151.98,886.739 L -152.631,885.507 L -146.876,882.651 L -139.224,898.259 Z "/>
		<text id="dp_text006" transform="matrix(1,0,0,1,-103.48,895.677)" xml:space="preserve" fill="black" font-family="Arial" font-size="22" font-weight="400" x="0" y="0">−</text>
		<text id="dp_text007" transform="matrix(1,0,0,1,-103.48,895.677)" xml:space="preserve" fill="black" font-family="Arial" font-size="22" font-weight="400" x="12.6227" y="0"> 1</text>
		<text id="dp_text008" transform="matrix(1,0,0,1,-103.48,895.677)" xml:space="preserve" fill="black" font-family="Times New Roman" font-size="16" font-weight="400" x="30.66" y="0"> </text>
	</g>
</svg>