<?xml version="1.0" encoding="UTF-8" standalone="no"?>
<!-- Created with Serif DrawPlus 11, 0, 3, 23 (Feb 25, 14:12:55) (http://www.serif.com) -->
<svg version="1.1" xmlns="http://www.w3.org/2000/svg" xmlns:xlink="http://www.w3.org/1999/xlink" width="296.351" height="195.02">
	<g id="dp_group001" transform="matrix(1,0,0,1,-71.7227,-644.689)">
		<g id="dp_group002">
			<path id="dp_path003" fill="none" fill-rule="evenodd" stroke="#9c0ad1" stroke-width="1.33333" d="M 346.671,645.847 L 74.216,802.683 L 346.671,802.683 Z "/>
			<path id="dp_path004" fill="#330bd2" fill-rule="evenodd" stroke="none" stroke-width="1.33333" d="M 346.671,783.48 L 327.045,783.48 L 327.045,802.685 L 346.671,802.685 Z "/>
			<path id="dp_path005" fill="#330bd2" fill-rule="evenodd" stroke="none" stroke-width="1.33333" d="M 346.671,684.115 C 332.868,684.115 320.087,676.987 313.049,665.36 L 346.671,645.847 Z "/>
			<path id="dp_path006" fill="#330bd2" fill-rule="evenodd" stroke="none" stroke-width="1.33333" d="M 122.205,802.684 C 122.205,794.263 119.889,785.996 115.501,778.752 L 74.216,802.684 Z "/>
		</g>
		<text id="dp_text001" transform="matrix(1,0,0,1,356.489,730.225)" xml:space="preserve" fill="black" font-family="Arial" font-size="22" font-weight="400" font-style="italic" x="0" y="0">x </text>
		<text id="dp_text002" transform="matrix(1,0,0,1,219.059,834.464)" xml:space="preserve" fill="black" font-family="Arial" font-size="22" font-weight="400" x="0" y="0">1</text>
		<text id="dp_text003" transform="matrix(1,0,0,1,219.059,834.464)" xml:space="preserve" fill="black" font-family="Arial" font-size="22" font-weight="400" font-style="italic" x="12.044" y="0"> </text>
		<path id="dp_path010" fill="black" fill-rule="evenodd" d="M 140.352,777.824 C 140.257,777.447 140.133,777.072 139.983,776.705 C 139.831,776.337 139.632,776.011 139.387,775.727 C 139.141,775.443 138.852,775.211 138.521,775.032 C 138.189,774.852 137.797,774.761 137.343,774.761 C 136.889,774.761 136.455,774.852 136.037,775.032 C 135.621,775.211 135.224,775.443 134.845,775.727 C 134.468,776.011 134.108,776.337 133.768,776.705 C 133.427,777.072 133.115,777.447 132.831,777.824 C 131.98,778.941 131.299,780.1 130.788,781.301 C 130.277,782.503 129.869,783.716 129.567,784.945 C 129.245,786.176 129.043,787.391 128.957,788.591 C 128.872,789.792 128.971,790.951 129.255,792.067 C 129.349,792.445 129.477,792.813 129.639,793.171 C 129.799,793.531 129.997,793.852 130.235,794.136 C 130.471,794.42 130.755,794.652 131.085,794.831 C 131.416,795.011 131.809,795.101 132.263,795.101 C 132.717,795.101 133.152,795.011 133.569,794.831 C 133.985,794.652 134.387,794.42 134.775,794.136 C 135.163,793.852 135.527,793.531 135.868,793.171 C 136.208,792.813 136.52,792.445 136.804,792.067 C 137.636,790.951 138.308,789.792 138.819,788.591 C 139.329,787.391 139.747,786.176 140.068,784.945 C 140.371,783.716 140.564,782.503 140.649,781.301 C 140.735,780.1 140.636,778.941 140.352,777.824 Z M 138.763,778.049 C 138.857,779.073 138.8,780.125 138.592,781.207 C 138.384,782.288 138.148,783.387 137.883,784.505 L 131.951,784.505 C 132.216,783.387 132.519,782.288 132.859,781.207 C 133.2,780.125 133.673,779.073 134.279,778.049 C 134.713,777.331 135.163,776.704 135.627,776.173 C 136.089,775.641 136.615,775.377 137.201,775.377 C 137.485,775.377 137.721,775.448 137.911,775.589 C 138.1,775.732 138.252,775.925 138.365,776.173 C 138.479,776.42 138.564,776.704 138.62,777.025 C 138.677,777.349 138.724,777.689 138.763,778.049 Z M 137.656,785.381 C 137.391,786.497 137.088,787.589 136.747,788.656 C 136.407,789.725 135.933,790.78 135.328,791.821 C 134.912,792.537 134.468,793.161 133.995,793.692 C 133.521,794.221 133.001,794.487 132.433,794.487 C 132.149,794.487 131.908,794.415 131.709,794.273 C 131.511,794.131 131.355,793.937 131.241,793.692 C 131.128,793.445 131.039,793.161 130.972,792.84 C 130.905,792.519 130.863,792.18 130.844,791.821 C 130.768,790.78 130.831,789.725 131.029,788.656 C 131.228,787.589 131.459,786.497 131.724,785.381 Z "/>
		<text id="dp_text004" transform="matrix(1,0,0,1,172.356,705.669)" xml:space="preserve" fill="black" font-family="Arial" font-size="22" font-weight="400" x="0" y="0">1 + </text>
		<text id="dp_text005" transform="matrix(1,0,0,1,172.356,705.669)" xml:space="preserve" fill="black" font-family="Arial" font-size="22" font-weight="400" font-style="italic" x="36.652" y="0">x </text>
		<text id="dp_text006" transform="matrix(1,6.10622e-016,-6.66134e-016,1,222.671,696.228)" xml:space="preserve" fill="black" font-family="Arial" font-size="17" font-weight="400" x="0" y="0">2</text>
		<text id="dp_text007" transform="matrix(1,6.10622e-016,-6.66134e-016,1,222.671,696.228)" xml:space="preserve" fill="black" font-family="Arial" font-size="17" font-weight="400" font-style="italic" x="9.344" y="0"> </text>
		<path id="dp_path015" fill="black" fill-rule="evenodd" d="M 171.203,678.209 L 235.564,678.204 L 235.569,679.6 L 172.356,679.599 L 166.696,715.204 L 157.277,695.815 L 153.512,697.543 L 152.861,696.311 L 158.616,693.455 L 166.268,709.063 Z "/>
	</g>
</svg>