<?xml version="1.0" encoding="UTF-8" standalone="no"?>
<!-- Created with Serif DrawPlus 11, 0, 3, 23 (Feb 25, 14:12:55) (http://www.serif.com) -->
<svg version="1.1" xmlns="http://www.w3.org/2000/svg" xmlns:xlink="http://www.w3.org/1999/xlink" width="296.811" height="202.516">
	<g id="dp_group001" transform="matrix(1,0,0,1,433.748,-547.327)">
		<g id="dp_group002">
			<path id="dp_path003" fill="none" fill-rule="evenodd" stroke="#9c0ad1" stroke-width="1.33333" d="M -158.8,548.484 L -431.255,705.32 L -158.8,705.32 Z "/>
			<path id="dp_path004" fill="#330bd2" fill-rule="evenodd" stroke="none" stroke-width="1.33333" d="M -158.8,686.117 L -178.425,686.117 L -178.425,705.323 L -158.8,705.323 Z "/>
			<path id="dp_path005" fill="#330bd2" fill-rule="evenodd" stroke="none" stroke-width="1.33333" d="M -158.8,586.752 C -172.603,586.752 -185.384,579.624 -192.421,567.997 L -158.8,548.484 Z "/>
			<path id="dp_path006" fill="#330bd2" fill-rule="evenodd" stroke="none" stroke-width="1.33333" d="M -383.265,705.321 C -383.265,696.9 -385.581,688.633 -389.969,681.389 L -431.255,705.321 Z "/>
		</g>
		<text id="dp_text001" transform="matrix(1,0,0,1,-148.982,632.862)" xml:space="preserve" fill="black" font-family="Arial" font-size="22" font-weight="400" x="0" y="0">1 </text>
		<text id="dp_text002" transform="matrix(1,0,0,1,-317.685,615.101)" xml:space="preserve" fill="black" font-family="Arial" font-size="22" font-weight="400" font-style="italic" x="0" y="0">x </text>
		<path id="dp_path009" fill="black" fill-rule="evenodd" d="M -365.119,680.461 C -365.213,680.084 -365.337,679.709 -365.488,679.343 C -365.64,678.975 -365.839,678.648 -366.084,678.364 C -366.329,678.08 -366.619,677.848 -366.949,677.669 C -367.281,677.489 -367.673,677.399 -368.128,677.399 C -368.581,677.399 -369.016,677.489 -369.433,677.669 C -369.849,677.848 -370.247,678.08 -370.625,678.364 C -371.003,678.648 -371.363,678.975 -371.703,679.343 C -372.044,679.709 -372.356,680.084 -372.64,680.461 C -373.491,681.579 -374.172,682.737 -374.683,683.939 C -375.193,685.14 -375.601,686.353 -375.904,687.583 C -376.225,688.813 -376.428,690.028 -376.513,691.228 C -376.599,692.429 -376.5,693.588 -376.216,694.704 C -376.121,695.083 -375.993,695.451 -375.832,695.808 C -375.672,696.168 -375.473,696.489 -375.236,696.773 C -375,697.057 -374.716,697.289 -374.385,697.468 C -374.055,697.648 -373.661,697.739 -373.208,697.739 C -372.753,697.739 -372.319,697.648 -371.901,697.468 C -371.485,697.289 -371.084,697.057 -370.696,696.773 C -370.308,696.489 -369.944,696.168 -369.603,695.808 C -369.263,695.451 -368.951,695.083 -368.667,694.704 C -367.835,693.588 -367.163,692.429 -366.652,691.228 C -366.141,690.028 -365.724,688.813 -365.403,687.583 C -365.1,686.353 -364.907,685.14 -364.821,683.939 C -364.736,682.737 -364.835,681.579 -365.119,680.461 Z M -366.708,680.687 C -366.613,681.711 -366.671,682.763 -366.879,683.844 C -367.087,684.925 -367.323,686.024 -367.588,687.143 L -373.52,687.143 C -373.255,686.024 -372.952,684.925 -372.612,683.844 C -372.271,682.763 -371.797,681.711 -371.192,680.687 C -370.757,679.968 -370.308,679.341 -369.844,678.811 C -369.381,678.279 -368.856,678.015 -368.269,678.015 C -367.985,678.015 -367.749,678.085 -367.56,678.227 C -367.371,678.369 -367.219,678.563 -367.105,678.811 C -366.992,679.057 -366.907,679.341 -366.851,679.663 C -366.793,679.987 -366.747,680.327 -366.708,680.687 Z M -367.815,688.019 C -368.08,689.135 -368.383,690.227 -368.724,691.293 C -369.064,692.363 -369.537,693.417 -370.143,694.459 C -370.559,695.175 -371.003,695.799 -371.476,696.329 C -371.949,696.859 -372.469,697.124 -373.037,697.124 C -373.321,697.124 -373.563,697.052 -373.761,696.911 C -373.96,696.768 -374.116,696.575 -374.229,696.329 C -374.343,696.083 -374.432,695.799 -374.499,695.477 C -374.565,695.156 -374.608,694.817 -374.627,694.459 C -374.703,693.417 -374.64,692.363 -374.441,691.293 C -374.243,690.227 -374.012,689.135 -373.747,688.019 Z "/>
		<text id="dp_text003" transform="matrix(1,0,0,1,-309.115,740.306)" xml:space="preserve" fill="black" font-family="Arial" font-size="22" font-weight="400" font-style="italic" x="0" y="0">x </text>
		<text id="dp_text004" transform="matrix(1,6.10622e-016,-6.66134e-016,1,-296.8,730.866)" xml:space="preserve" fill="black" font-family="Arial" font-size="17" font-weight="400" x="0" y="0">2</text>
		<text id="dp_text005" transform="matrix(1,6.10622e-016,-6.66134e-016,1,-296.8,730.866)" xml:space="preserve" fill="black" font-family="Arial" font-size="17" font-weight="400" font-style="italic" x="9.344" y="0"> </text>
		<path id="dp_path013" fill="black" fill-rule="evenodd" d="M -312.268,712.847 L -247.907,712.841 L -247.901,714.237 L -311.115,714.236 L -316.775,749.841 L -326.193,730.452 L -329.959,732.18 L -330.609,730.948 L -324.855,728.092 L -317.203,743.7 Z "/>
		<text id="dp_text006" transform="matrix(1,0,0,1,-281.459,741.119)" xml:space="preserve" fill="black" font-family="Arial" font-size="22" font-weight="400" x="0" y="0">−</text>
		<text id="dp_text007" transform="matrix(1,0,0,1,-281.459,741.119)" xml:space="preserve" fill="black" font-family="Arial" font-size="22" font-weight="400" x="12.6227" y="0"> 1</text>
		<text id="dp_text008" transform="matrix(1,0,0,1,-281.459,741.119)" xml:space="preserve" fill="black" font-family="Times New Roman" font-size="16" font-weight="400" x="30.66" y="0"> </text>
	</g>
</svg>