<?xml version="1.0" encoding="UTF-8" standalone="no"?>
<!-- Created with Serif DrawPlus 11, 0, 3, 23 (Feb 25, 14:12:55) (http://www.serif.com) -->
<svg version="1.1" xmlns="http://www.w3.org/2000/svg" xmlns:xlink="http://www.w3.org/1999/xlink" width="296.811" height="195.02">
	<g id="dp_group001" transform="matrix(1,0,0,1,37.5547,-366.057)">
		<g id="dp_group002">
			<path id="dp_path003" fill="none" fill-rule="evenodd" stroke="#9c0ad1" stroke-width="1.33333" d="M 237.393,367.215 L -35.0613,524.051 L 237.393,524.051 Z "/>
			<path id="dp_path004" fill="#330bd2" fill-rule="evenodd" stroke="none" stroke-width="1.33333" d="M 237.393,504.848 L 217.768,504.848 L 217.768,524.053 L 237.393,524.053 Z "/>
			<path id="dp_path005" fill="#330bd2" fill-rule="evenodd" stroke="none" stroke-width="1.33333" d="M 237.393,405.483 C 223.591,405.483 210.809,398.355 203.772,386.728 L 237.393,367.215 Z "/>
			<path id="dp_path006" fill="#330bd2" fill-rule="evenodd" stroke="none" stroke-width="1.33333" d="M 12.928,524.052 C 12.928,515.631 10.612,507.364 6.224,500.12 L -35.0613,524.052 Z "/>
		</g>
		<text id="dp_text001" transform="matrix(1,0,0,1,247.211,451.593)" xml:space="preserve" fill="black" font-family="Arial" font-size="22" font-weight="400" x="0" y="0">1 </text>
		<text id="dp_text002" transform="matrix(1,0,0,1,109.782,555.832)" xml:space="preserve" fill="black" font-family="Arial" font-size="22" font-weight="400" font-style="italic" x="0" y="0">x </text>
		<path id="dp_path009" fill="black" fill-rule="evenodd" d="M 31.0747,499.192 C 30.98,498.815 30.856,498.44 30.7053,498.073 C 30.5533,497.705 30.3547,497.379 30.1093,497.095 C 29.864,496.811 29.5747,496.579 29.244,496.4 C 28.912,496.22 28.52,496.129 28.0653,496.129 C 27.612,496.129 27.1773,496.22 26.76,496.4 C 26.344,496.579 25.9467,496.811 25.568,497.095 C 25.1907,497.379 24.8307,497.705 24.4907,498.073 C 24.1493,498.44 23.8373,498.815 23.5533,499.192 C 22.7027,500.309 22.0213,501.468 21.5107,502.669 C 21,503.871 20.592,505.084 20.2893,506.313 C 19.968,507.544 19.7653,508.759 19.68,509.959 C 19.5947,511.16 19.6933,512.319 19.9773,513.435 C 20.072,513.813 20.2,514.181 20.3613,514.539 C 20.5213,514.899 20.72,515.22 20.9573,515.504 C 21.1933,515.788 21.4773,516.02 21.808,516.199 C 22.1387,516.379 22.532,516.469 22.9853,516.469 C 23.44,516.469 23.8747,516.379 24.292,516.199 C 24.708,516.02 25.1093,515.788 25.4973,515.504 C 25.8853,515.22 26.2493,514.899 26.5907,514.539 C 26.9307,514.181 27.2427,513.813 27.5267,513.435 C 28.3587,512.319 29.0307,511.16 29.5413,509.959 C 30.052,508.759 30.4693,507.544 30.7907,506.313 C 31.0933,505.084 31.2867,503.871 31.372,502.669 C 31.4573,501.468 31.3587,500.309 31.0747,499.192 Z M 29.4853,499.417 C 29.58,500.441 29.5227,501.493 29.3147,502.575 C 29.1067,503.656 28.8707,504.755 28.6053,505.873 L 22.6733,505.873 C 22.9387,504.755 23.2413,503.656 23.5813,502.575 C 23.9227,501.493 24.396,500.441 25.0013,499.417 C 25.436,498.699 25.8853,498.072 26.3493,497.541 C 26.812,497.009 27.3373,496.745 27.924,496.745 C 28.208,496.745 28.444,496.816 28.6333,496.957 C 28.8227,497.1 28.9747,497.293 29.088,497.541 C 29.2013,497.788 29.2867,498.072 29.3427,498.393 C 29.4,498.717 29.4467,499.057 29.4853,499.417 Z M 28.3787,506.749 C 28.1133,507.865 27.8107,508.957 27.4693,510.024 C 27.1293,511.093 26.656,512.148 26.0507,513.189 C 25.6347,513.905 25.1907,514.529 24.7173,515.06 C 24.244,515.589 23.724,515.855 23.156,515.855 C 22.872,515.855 22.6307,515.783 22.432,515.641 C 22.2333,515.499 22.0773,515.305 21.964,515.06 C 21.8507,514.813 21.7613,514.529 21.6947,514.208 C 21.628,513.887 21.5853,513.548 21.5667,513.189 C 21.4907,512.148 21.5533,511.093 21.752,510.024 C 21.9507,508.957 22.1813,507.865 22.4467,506.749 Z "/>
		<text id="dp_text003" transform="matrix(1,0,0,1,63.0785,427.037)" xml:space="preserve" fill="black" font-family="Arial" font-size="22" font-weight="400" x="0" y="0">1 + </text>
		<text id="dp_text004" transform="matrix(1,0,0,1,63.0785,427.037)" xml:space="preserve" fill="black" font-family="Arial" font-size="22" font-weight="400" font-style="italic" x="36.652" y="0">x </text>
		<text id="dp_text005" transform="matrix(1,6.10622e-016,-6.66134e-016,1,113.393,417.596)" xml:space="preserve" fill="black" font-family="Arial" font-size="17" font-weight="400" x="0" y="0">2</text>
		<text id="dp_text006" transform="matrix(1,6.10622e-016,-6.66134e-016,1,113.393,417.596)" xml:space="preserve" fill="black" font-family="Arial" font-size="17" font-weight="400" font-style="italic" x="9.344" y="0"> </text>
		<path id="dp_path014" fill="black" fill-rule="evenodd" d="M 61.9253,399.577 L 126.287,399.572 L 126.292,400.968 L 63.0787,400.967 L 57.4187,436.572 L 48,417.183 L 44.2347,418.911 L 43.584,417.679 L 49.3387,414.823 L 56.9907,430.431 Z "/>
	</g>
</svg>