<?xml version="1.0" encoding="utf-8"?>
<!-- Generator: Adobe Illustrator 16.0.0, SVG Export Plug-In . SVG Version: 6.00 Build 0)  -->
<!DOCTYPE svg PUBLIC "-//W3C//DTD SVG 1.1//EN" "http://www.w3.org/Graphics/SVG/1.1/DTD/svg11.dtd">
<svg xmlns="http://www.w3.org/2000/svg" xmlns:xlink="http://www.w3.org/1999/xlink" version="1.1" id="圖層_1" x="0px" y="0px" width="1265px" height="865px" viewBox="0 0 1265 865" enable-background="new 0 0 1265 865" xml:space="preserve">
<g transform="scale(3.7) translate(0, -8)">
	<g id="g-points">
		<switch><text transform="matrix(0.2703 0 0 0.2703 88.3245 143.4054)" font-family="'ArialMT'" font-size="59.2" id="trsvg33-pt-br" systemLanguage="pt-br"><tspan id="trsvg1-pt-br">O</tspan></text><text transform="matrix(0.2703 0 0 0.2703 88.3245 143.4054)" font-family="'ArialMT'" font-size="59.2" id="trsvg33"><tspan id="trsvg1">O</tspan></text></switch>
		<switch><text transform="matrix(0.2703 0 0 0.2703 114.3243 123.4054)" font-family="'Arial-ItalicMT'" font-size="59.2" id="trsvg34-pt-br" systemLanguage="pt-br"><tspan id="trsvg2-pt-br">θ</tspan></text><text transform="matrix(0.2703 0 0 0.2703 114.3243 123.4054)" font-family="'Arial-ItalicMT'" font-size="59.2" id="trsvg34"><tspan id="trsvg2">θ</tspan></text></switch>
		<switch><text transform="matrix(0.2703 0 0 0.2703 147.3247 47.4051)" font-family="'ArialMT'" font-size="59.2" id="trsvg35-pt-br" systemLanguage="pt-br"><tspan id="trsvg3-pt-br">A</tspan></text><text transform="matrix(0.2703 0 0 0.2703 147.3247 47.4051)" font-family="'ArialMT'" font-size="59.2" id="trsvg35"><tspan id="trsvg3">A</tspan></text></switch>
		<switch><text transform="matrix(0.2703 0 0 0.2703 144.3243 226.1619)" font-family="'ArialMT'" font-size="59.2" id="trsvg36-pt-br" systemLanguage="pt-br"><tspan id="trsvg4-pt-br">B</tspan></text><text transform="matrix(0.2703 0 0 0.2703 144.3243 226.1619)" font-family="'ArialMT'" font-size="59.2" id="trsvg36"><tspan id="trsvg4">B</tspan></text></switch>
		<switch><text transform="matrix(0.2703 0 0 0.2703 147.3247 125.4055)" font-family="'ArialMT'" font-size="59.2" id="trsvg37-pt-br" systemLanguage="pt-br"><tspan id="trsvg5-pt-br">C</tspan></text><text transform="matrix(0.2703 0 0 0.2703 147.3247 125.4055)" font-family="'ArialMT'" font-size="59.2" id="trsvg37"><tspan id="trsvg5">C</tspan></text></switch>
		<switch><text transform="matrix(0.2703 0 0 0.2703 198.3245 145.4055)" font-family="'ArialMT'" font-size="59.2" id="trsvg38-pt-br" systemLanguage="pt-br"><tspan id="trsvg6-pt-br">D</tspan></text><text transform="matrix(0.2703 0 0 0.2703 198.3245 145.4055)" font-family="'ArialMT'" font-size="59.2" id="trsvg38"><tspan id="trsvg6">D</tspan></text></switch>
		<switch><text transform="matrix(0.2703 0 0 0.2703 330.3246 145.4055)" font-family="'ArialMT'" font-size="59.2" id="trsvg39-pt-br" systemLanguage="pt-br"><tspan id="trsvg7-pt-br">E</tspan></text><text transform="matrix(0.2703 0 0 0.2703 330.3246 145.4055)" font-family="'ArialMT'" font-size="59.2" id="trsvg39"><tspan id="trsvg7">E</tspan></text></switch>
		<switch><text transform="matrix(0.2703 0 0 0.2703 100.3246 25.4055)" font-family="'ArialMT'" font-size="59.2" id="trsvg40-pt-br" systemLanguage="pt-br"><tspan id="trsvg8-pt-br">F</tspan></text><text transform="matrix(0.2703 0 0 0.2703 100.3246 25.4055)" font-family="'ArialMT'" font-size="59.2" id="trsvg40"><tspan id="trsvg8">F</tspan></text></switch>
		<switch><text transform="matrix(0.2703 0 0 0.2703 88.3245 65.4055)" font-family="'ArialMT'" font-size="59.2" id="trsvg41-pt-br" systemLanguage="pt-br"><tspan id="trsvg9-pt-br">G</tspan></text><text transform="matrix(0.2703 0 0 0.2703 88.3245 65.4055)" font-family="'ArialMT'" font-size="59.2" id="trsvg41"><tspan id="trsvg9">G</tspan></text></switch>
		<switch><text transform="matrix(0.2703 0 0 0.2703 105.3246 43.4054)" font-family="'ArialMT'" font-size="59.2" id="trsvg42-pt-br" systemLanguage="pt-br"><tspan id="trsvg10-pt-br">H</tspan></text><text transform="matrix(0.2703 0 0 0.2703 105.3246 43.4054)" font-family="'ArialMT'" font-size="59.2" id="trsvg42"><tspan id="trsvg10">H</tspan></text></switch>
		<switch><text transform="matrix(0.2703 0 0 0.2703 115.3246 85.4055)" font-family="'ArialMT'" font-size="59.2" id="trsvg43-pt-br" systemLanguage="pt-br"><tspan id="trsvg11-pt-br">1</tspan></text><text transform="matrix(0.2703 0 0 0.2703 115.3246 85.4055)" font-family="'ArialMT'" font-size="59.2" id="trsvg43"><tspan id="trsvg11">1</tspan></text></switch>
		<switch><text transform="matrix(0.2703 0 0 0.2703 0.8108 136.9728)" font-family="'ArialMT'" font-size="59.2" id="trsvg44-pt-br" systemLanguage="pt-br"><tspan id="trsvg12-pt-br">K</tspan></text><text transform="matrix(0.2703 0 0 0.2703 0.8108 136.9728)" font-family="'ArialMT'" font-size="59.2" id="trsvg44"><tspan id="trsvg12">K</tspan></text></switch>
		<switch><text transform="matrix(0.2703 0 0 0.2703 98.3245 236.4322)" font-family="'ArialMT'" font-size="59.2" id="trsvg45-pt-br" systemLanguage="pt-br"><tspan id="trsvg13-pt-br">L</tspan></text><text transform="matrix(0.2703 0 0 0.2703 98.3245 236.4322)" font-family="'ArialMT'" font-size="59.2" id="trsvg45"><tspan id="trsvg13">L</tspan></text></switch>
	</g>
	<g>
		<g>
			
				<line id="line-BC_4_" fill="none" stroke="#C8C8C8" stroke-width="1.415" stroke-miterlimit="8" stroke-dasharray="3,4" x1="64.406" y1="47.405" x2="32.424" y2="47.405"/>
		</g>
		<g>
			
				<line id="line-BC" fill="none" stroke="#808080" stroke-width="1.415" stroke-miterlimit="8" stroke-dasharray="8,3" x1="142.324" y1="213.405" x2="142.324" y2="130.405"/>
		</g>
		<g>
			
				<circle id="circle-O-HADB" fill="none" stroke="#000000" stroke-width="1.415" stroke-miterlimit="8" cx="103.325" cy="130.405" r="91.7"/>
			<path id="arc-DA" fill="none" stroke="#000000" stroke-width="3" stroke-miterlimit="8" d="M195.025,130.405     c0.003-35.542-20.533-67.884-52.7-83"/>
			
				<line id="line-OA-theta" fill="none" stroke="#000000" stroke-width="1.415" stroke-miterlimit="8" x1="103.325" y1="130.405" x2="142.324" y2="47.405"/>
			<g>
				
					<line id="line-OB-minus-theta" fill="none" stroke="#000000" stroke-width="1.415" stroke-miterlimit="8" stroke-dasharray="8,3" x1="103.325" y1="130.405" x2="142.324" y2="213.405"/>
			</g>
			<g>
				
					<line id="line-A-dashed" fill="none" stroke="#000000" stroke-width="1.415" stroke-miterlimit="8" stroke-dasharray="3,4" x1="142.324" y1="47.405" x2="155.325" y2="19.405"/>
			</g>
			<path id="path-angle-theta" fill="none" stroke="#000000" stroke-width="1.415" stroke-miterlimit="8" d="M115.325,130.405     c0-4-3-9-7-11"/>
			<polyline id="polyline-angle-ortho-O" fill="none" stroke="#000000" stroke-width="1.415" stroke-miterlimit="8" points="     93.325,130.405 93.325,120.405 103.325,120.405    "/>
			<polyline id="polyline-angle-ortho-G" fill="none" stroke="#000000" stroke-width="1.415" stroke-miterlimit="8" points="     103.325,57.405 113.325,57.405 113.325,47.405    "/>
			<polyline id="polyline-angle-ortho-C" fill="none" stroke="#000000" stroke-width="1.415" stroke-miterlimit="8" points="     132.324,130.405 132.324,120.405 142.324,120.405    "/>
			<polyline id="polyline-angle-ortho-A" fill="none" stroke="#000000" stroke-width="1.415" stroke-miterlimit="8" points="     134.325,43.405 138.325,35.405 145.325,39.405    "/>
		</g>
		
			<line id="line-AD-crd" fill="none" stroke="#C0C0C0" stroke-width="1.415" stroke-miterlimit="8" x1="142.324" y1="47.405" x2="195.025" y2="130.405"/>
		
			<line id="line-GA-cos" fill="none" stroke="#0000FF" stroke-width="1.415" stroke-miterlimit="8" x1="103.325" y1="47.405" x2="142.324" y2="47.405"/>
		
			<line id="line-OC-cos" fill="none" stroke="#0000FF" stroke-width="1.415" stroke-miterlimit="8" x1="103.325" y1="130.405" x2="142.324" y2="130.405"/>
		
			<line id="line-CD-versin" fill="none" stroke="#008000" stroke-width="1.415" stroke-miterlimit="8" x1="142.324" y1="130.405" x2="195.025" y2="130.405"/>
		
			<line id="line-DE-exsec" fill="none" stroke="#FF69B4" stroke-width="1.415" stroke-miterlimit="8" x1="195.025" y1="130.405" x2="321.324" y2="130.405"/>
		<g id="g-sec-lines">
			<g>
				
					<line id="line-O-yneg" fill="none" stroke="#008B8B" stroke-width="1.415" stroke-miterlimit="8" stroke-dasharray="3,4" x1="103.325" y1="130.405" x2="103.325" y2="170.405"/>
				
					<line id="line-E-yneg" fill="none" stroke="#008B8B" stroke-width="1.415" stroke-miterlimit="8" stroke-dasharray="3,4" x1="321.324" y1="130.405" x2="321.324" y2="170.405"/>
			</g>
			
				<line id="line-sec-parallel-OE" fill="none" stroke="#008B8B" stroke-width="1.415" stroke-miterlimit="8" x1="115.325" y1="175.405" x2="308.325" y2="175.405"/>
			
				<line id="line-sec-ortho-O" fill="none" stroke="#008B8B" stroke-width="1.415" stroke-miterlimit="8" x1="103.325" y1="170.405" x2="103.325" y2="180.405"/>
			
				<line id="line-sec-ortho-E" fill="none" stroke="#008B8B" stroke-width="1.415" stroke-miterlimit="8" x1="321.324" y1="170.405" x2="321.324" y2="180.405"/>
			<g id="g-sec-arrowheads">
				<polyline id="polyline-sec-arrowhead-O" fill="#008B8B" points="115.325,170.405 115.325,180.405 103.325,175.405     "/>
				<polyline id="polyline-sec-arrowhead-E" fill="#008B8B" points="308.325,170.405 308.325,180.405 321.324,175.405     "/>
			</g>
		</g>
		
			<line id="line-CA-sin" fill="none" stroke="#FF0000" stroke-width="1.415" stroke-miterlimit="8" x1="142.324" y1="130.405" x2="142.324" y2="47.405"/>
		
			<line id="line-OG-sin" fill="none" stroke="#FF0000" stroke-width="1.415" stroke-miterlimit="8" x1="103.325" y1="130.405" x2="103.325" y2="47.405"/>
		
			<line id="line-HG-cvs" fill="none" stroke="#00FFFF" stroke-width="1.415" stroke-miterlimit="8" x1="103.325" y1="47.405" x2="103.325" y2="38.705"/>
		
			<line id="line-HF-excsc" fill="none" stroke="#006400" stroke-width="1.415" stroke-miterlimit="8" x1="103.325" y1="38.705" x2="103.325" y2="29.405"/>
		<g id="g-csc-lines">
			<g>
				
					<line id="line-O-xneg" fill="none" stroke="#FFC0CB" stroke-width="1.415" stroke-miterlimit="8" stroke-dasharray="3,4" x1="103.325" y1="130.405" x2="63.325" y2="130.405"/>
				
					<line id="line-F-xneg" fill="none" stroke="#FFC0CB" stroke-width="1.415" stroke-miterlimit="8" stroke-dasharray="3,4" x1="103.325" y1="29.405" x2="63.325" y2="29.405"/>
			</g>
			
				<line id="line-csc-parallel-OF" fill="none" stroke="#FFC0CB" stroke-width="1.415" stroke-miterlimit="8" x1="58.325" y1="118.405" x2="58.325" y2="41.405"/>
			
				<line id="line-csc-ortho-O" fill="none" stroke="#FFC0CB" stroke-width="1.415" stroke-miterlimit="8" x1="53.325" y1="130.405" x2="63.325" y2="130.405"/>
			
				<line id="line-csc-ortho-F" fill="none" stroke="#FFC0CB" stroke-width="1.415" stroke-miterlimit="8" x1="53.325" y1="29.405" x2="63.325" y2="29.405"/>
			<g id="g-csc-arrowheads">
				<polyline id="polyline-csc-arrowhead-O" fill="#FFC0CB" points="53.325,118.405 63.325,118.405 58.325,130.405     "/>
				<polyline id="polyline-csc-arrowhead-E" fill="#FFC0CB" points="53.325,41.405 63.325,41.405 58.325,29.405     "/>
			</g>
		</g>
		
			<line id="line-FA-cot" fill="none" stroke="#FF8C00" stroke-width="1.415" stroke-miterlimit="8" x1="103.325" y1="29.405" x2="142.324" y2="47.405"/>
		
			<line id="line-AE-tan" fill="none" stroke="#D2B48C" stroke-width="1.415" stroke-miterlimit="8" x1="142.324" y1="47.405" x2="321.324" y2="130.405"/>
		<g>
			
				<line id="line-BC_1_" fill="none" stroke="#808080" stroke-width="1.415" stroke-miterlimit="8" stroke-dasharray="3,4" x1="11.625" y1="171.905" x2="11.625" y2="130.405"/>
		</g>
		<g>
			
				<line id="line-BC_2_" fill="none" stroke="#808080" stroke-width="1.415" stroke-miterlimit="8" stroke-dasharray="3,4" x1="103.325" y1="222.105" x2="31.162" y2="222.105"/>
		</g>
		<g>
			
				<line id="line-BC_3_" fill="none" stroke="#808080" stroke-width="1.415" stroke-miterlimit="8" stroke-dasharray="8,3" x1="103.325" y1="47.405" x2="64.406" y2="47.405"/>
		</g>
		
			<line id="line-csc-parallel-OF_1_" fill="none" stroke="#B200DF" stroke-width="1.415" stroke-miterlimit="8" x1="43.595" y1="222.105" x2="43.595" y2="59.405"/>
		<g id="g-csc-arrowheads_1_">
			<polyline id="polyline-csc-arrowhead-O_1_" fill="#B200DF" points="38.595,210.105 48.595,210.105 43.595,222.105    "/>
			<polyline id="polyline-csc-arrowhead-E_1_" fill="#B200DF" points="38.595,59.405 48.595,59.405 43.595,47.405    "/>
		</g>
		
			<line id="line-sec-parallel-OE_1_" fill="none" stroke="#4AACFF" stroke-width="1.415" stroke-miterlimit="8" x1="23.624" y1="156.155" x2="142.324" y2="156.155"/>
		<g id="g-sec-arrowheads_1_">
			<polyline id="polyline-sec-arrowhead-O_1_" fill="#4AACFF" points="23.624,151.155 23.624,161.155 11.625,156.155    "/>
			<polyline id="polyline-sec-arrowhead-E_1_" fill="#4AACFF" points="129.325,151.155 129.325,161.155 142.324,156.155    "/>
		</g>
		<g>
			
				<line id="line-BC_5_" fill="none" stroke="#808080" stroke-width="1.415" stroke-miterlimit="8" stroke-dasharray="8,3" x1="53.325" y1="130.405" x2="11.624" y2="130.405"/>
		</g>
		<g>
			
				<line id="line-BC_6_" fill="none" stroke="#808080" stroke-width="1.415" stroke-miterlimit="8" stroke-dasharray="8,3" x1="103.325" y1="180.405" x2="103.325" y2="222.103"/>
		</g>
	</g>
	<g>
		<switch><text transform="matrix(0.2703 0 0 0.2703 144.3243 93.4054)" fill="#FF0000" font-family="'ArialMT'" font-size="51.8" id="trsvg46-pt-br" systemLanguage="pt-br"><tspan id="trsvg14-pt-br">sen</tspan></text><text transform="matrix(0.2703 0 0 0.2703 144.3243 93.4054)" fill="#FF0000" font-family="'ArialMT'" font-size="51.8" id="trsvg46"><tspan id="trsvg14">sin</tspan></text></switch>
		<switch><text transform="matrix(0.2703 0 0 0.2703 62.1352 46.5945)" fill="#00FFFF" font-family="'ArialMT'" font-size="34" id="trsvg47-pt-br" systemLanguage="pt-br"><tspan id="trsvg15-pt-br">sencover</tspan></text><text transform="matrix(0.2703 0 0 0.2703 62.1352 46.5945)" fill="#00FFFF" font-family="'ArialMT'" font-size="34" id="trsvg47"><tspan id="trsvg15">coversin</tspan></text></switch>
		<switch><text transform="matrix(0.2703 0 0 0.2703 61.3244 38.4054)" fill="#006400" font-family="'ArialMT'" font-size="51.8" id="trsvg48-pt-br" systemLanguage="pt-br"><tspan id="trsvg16-pt-br">cscex</tspan></text><text transform="matrix(0.2703 0 0 0.2703 61.3244 38.4054)" fill="#006400" font-family="'ArialMT'" font-size="51.8" id="trsvg48"><tspan id="trsvg16">excsc</tspan></text></switch>
		<switch><text transform="matrix(0.2703 0 0 0.2703 61.3244 81.4053)" fill="#FFC0CB" font-family="'ArialMT'" font-size="51.8" id="trsvg49-pt-br" systemLanguage="pt-br"><tspan id="trsvg17-pt-br">csc</tspan></text><text transform="matrix(0.2703 0 0 0.2703 61.3244 81.4053)" fill="#FFC0CB" font-family="'ArialMT'" font-size="51.8" id="trsvg49"><tspan id="trsvg17">csc</tspan></text></switch>
		<switch><text transform="matrix(0.2703 0 0 0.2703 114.3243 143.4054)" fill="#0000FF" font-family="'ArialMT'" font-size="51.8" id="trsvg50-pt-br" systemLanguage="pt-br"><tspan id="trsvg18-pt-br">cos</tspan></text><text transform="matrix(0.2703 0 0 0.2703 114.3243 143.4054)" fill="#0000FF" font-family="'ArialMT'" font-size="51.8" id="trsvg50"><tspan id="trsvg18">cos</tspan></text></switch>
		<switch><text transform="matrix(0.2703 0 0 0.2703 147.3247 143.4054)" fill="#008000" font-family="'ArialMT'" font-size="51.8" id="trsvg51-pt-br" systemLanguage="pt-br"><tspan id="trsvg19-pt-br">senver</tspan></text><text transform="matrix(0.2703 0 0 0.2703 147.3247 143.4054)" fill="#008000" font-family="'ArialMT'" font-size="51.8" id="trsvg51"><tspan id="trsvg19">versin</tspan></text></switch>
		<switch><text transform="matrix(0.2703 0 0 0.2703 239.3243 143.4054)" fill="#FF69B4" font-family="'ArialMT'" font-size="51.8" id="trsvg52-pt-br" systemLanguage="pt-br"><tspan id="trsvg20-pt-br">secex</tspan></text><text transform="matrix(0.2703 0 0 0.2703 239.3243 143.4054)" fill="#FF69B4" font-family="'ArialMT'" font-size="51.8" id="trsvg52"><tspan id="trsvg20">exsec</tspan></text></switch>
		<switch><text transform="matrix(0.2703 0 0 0.2703 199.3243 188.4054)" fill="#008B8B" font-family="'ArialMT'" font-size="51.8" id="trsvg53-pt-br" systemLanguage="pt-br"><tspan id="trsvg21-pt-br">sec</tspan></text><text transform="matrix(0.2703 0 0 0.2703 199.3243 188.4054)" fill="#008B8B" font-family="'ArialMT'" font-size="51.8" id="trsvg53"><tspan id="trsvg21">sec</tspan></text></switch>
		<g id="g-crd" transform="rotate(56)">
			<switch><text transform="matrix(0.2703 0 0 0.2703 154.1363 -91.8783)" fill="#C0C0C0" font-family="'ArialMT'" font-size="51.8" id="trsvg54-pt-br" systemLanguage="pt-br"><tspan id="trsvg22-pt-br">crd</tspan></text><text transform="matrix(0.2703 0 0 0.2703 154.1363 -91.8783)" fill="#C0C0C0" font-family="'ArialMT'" font-size="51.8" id="trsvg54"><tspan id="trsvg22">crd</tspan></text></switch>
		</g>
		<switch><text transform="matrix(0.2703 0 0 0.2703 193.3245 105.4055)" font-family="'ArialMT'" font-size="51.8" id="trsvg55-pt-br" systemLanguage="pt-br"><tspan id="trsvg23-pt-br">arco</tspan></text><text transform="matrix(0.2703 0 0 0.2703 193.3245 105.4055)" font-family="'ArialMT'" font-size="51.8" id="trsvg55"><tspan id="trsvg23">arc</tspan></text></switch>
		<g id="g-tan" transform="rotate(25)">
			<switch><text transform="matrix(0.2703 0 0 0.2703 114.8289 -20.6191)" fill="#FF8C00" font-family="'ArialMT'" font-size="51.8" id="trsvg56-pt-br" systemLanguage="pt-br"><tspan id="trsvg24-pt-br">cot</tspan></text><text transform="matrix(0.2703 0 0 0.2703 114.8289 -20.6191)" fill="#FF8C00" font-family="'ArialMT'" font-size="51.8" id="trsvg56"><tspan id="trsvg24">cot</tspan></text></switch>
			<switch><text transform="matrix(0.2703 0 0 0.2703 224.8284 -20.6192)" fill="#D2B48C" font-family="'ArialMT'" font-size="51.8" id="trsvg57-pt-br" systemLanguage="pt-br"><tspan id="trsvg25-pt-br">tan</tspan></text><text transform="matrix(0.2703 0 0 0.2703 224.8284 -20.6192)" fill="#D2B48C" font-family="'ArialMT'" font-size="51.8" id="trsvg57"><tspan id="trsvg25">tan</tspan></text></switch>
		</g>
		<switch><text transform="matrix(0.2703 0 0 0.2703 57.2436 166.6486)" fill="#4AACFF" font-family="'ArialMT'" font-size="51.8" id="trsvg58-pt-br" systemLanguage="pt-br"><tspan id="trsvg26-pt-br">cosver</tspan></text><text transform="matrix(0.2703 0 0 0.2703 57.2436 166.6486)" fill="#4AACFF" font-family="'ArialMT'" font-size="51.8" id="trsvg58"><tspan id="trsvg26">vercos</tspan></text></switch>
		
			<switch><text transform="matrix(1.213421e-011 -0.2703 0.2703 1.213421e-011 39.5165 143.4054)" fill="#B200DF" font-family="'ArialMT'" font-size="51.8" id="trsvg59-pt-br" systemLanguage="pt-br"><tspan id="trsvg27-pt-br">coscover</tspan></text><text transform="matrix(1.213421e-011 -0.2703 0.2703 1.213421e-011 39.5165 143.4054)" fill="#B200DF" font-family="'ArialMT'" font-size="51.8" id="trsvg59"><tspan id="trsvg27">covercos</tspan></text></switch>
		<switch><text transform="matrix(0.2703 0 0 0.2703 235.5405 27.9593)" fill="#008B8B" font-family="'ArialMT'" font-size="36" id="trsvg60-pt-br" systemLanguage="pt-br"><tspan id="trsvg28-pt-br">sec=OE</tspan></text><text transform="matrix(0.2703 0 0 0.2703 235.5405 27.9593)" fill="#008B8B" font-family="'ArialMT'" font-size="36" id="trsvg60"><tspan id="trsvg28">sec=OE</tspan></text></switch>
		<switch><text transform="matrix(0.2703 0 0 0.2703 235.5405 37.6891)" fill="#FFC0CB" font-family="'ArialMT'" font-size="36" id="trsvg61-pt-br" systemLanguage="pt-br"><tspan id="trsvg29-pt-br">csc=OF</tspan></text><text transform="matrix(0.2703 0 0 0.2703 235.5405 37.6891)" fill="#FFC0CB" font-family="'ArialMT'" font-size="36" id="trsvg61"><tspan id="trsvg29">csc=OF</tspan></text></switch>
		<switch><text transform="matrix(0.2703 0 0 0.2703 235.5405 47.2296)" fill="#4AACFF" font-family="'ArialMT'" font-size="36" id="trsvg62-pt-br" systemLanguage="pt-br"><tspan id="trsvg30-pt-br">cosver=CK</tspan></text><text transform="matrix(0.2703 0 0 0.2703 235.5405 47.2296)" fill="#4AACFF" font-family="'ArialMT'" font-size="36" id="trsvg62"><tspan id="trsvg30">vercos=CK</tspan></text></switch>
		<switch><text transform="matrix(0.2703 0 0 0.2703 235.5405 65.2297)" fill="#B200DF" font-family="'ArialMT'" font-size="36" id="trsvg63-pt-br" systemLanguage="pt-br"><tspan id="trsvg31-pt-br">coscover=GL</tspan></text><text transform="matrix(0.2703 0 0 0.2703 235.5405 65.2297)" fill="#B200DF" font-family="'ArialMT'" font-size="36" id="trsvg63"><tspan id="trsvg31">covercos=GL</tspan></text></switch>
		<switch><text transform="matrix(0.2703 0 0 0.2703 235.5405 56.4188)" fill="#00FFFF" font-family="'ArialMT'" font-size="36" id="trsvg64-pt-br" systemLanguage="pt-br"><tspan id="trsvg32-pt-br">sencover=GH</tspan></text><text transform="matrix(0.2703 0 0 0.2703 235.5405 56.4188)" fill="#00FFFF" font-family="'ArialMT'" font-size="36" id="trsvg64"><tspan id="trsvg32">coversin=GH</tspan></text></switch>
	</g>
</g>
</svg>
